<svg xmlns="http://www.w3.org/2000/svg" viewBox="0 0 1013.8 241.93"><defs><style>.cls-1{fill:#af2828;}</style></defs><title>Logo &amp;amp; Text Röd</title><g id="Lager_2" data-name="Lager 2"><path class="cls-1" d="M83.48,71.86a3.34,3.34,0,0,1,3.31-3.44,3.52,3.52,0,0,1,3.38,3.44,3.66,3.66,0,0,1-3.39,3.48A3.44,3.44,0,0,1,83.48,71.86Z"/><path class="cls-1" d="M205.33,174.41c-.8-10.58-5-12.19-5-12.19H198.6v15c0,6.79,4.66,12.29,10.41,12.29h1.6S206.29,185.38,205.33,174.41ZM128,17.85,20.62,96.32V228.75H36a9.77,9.77,0,0,1,0-1.87c.18-2.22,1.86-2.82,3.59-3.37l10-3.18c-3.31.07-6.39,1-9.5,1.74-1.6.37-3.72,1.38-4.06-1.57-.26-2.2-.08-4.21,2.81-4.57s5.8-.81,8.69-1.22a40.6,40.6,0,0,0-7.46-.23c-2.33.18-4.12.2-4.15-2.93s1.76-3.7,4.3-3.56c3.25.18,6.48,1.25,10.77.3-4.64-.54-8.3-.95-11.95-1.39-2.72-.33-3.26-2.17-3-4.5.28-2.85,2.19-2.08,4-1.8,1.41.21,2.72,1.21,4.75.49-2.56-1-4.78-1.68-6.89-2.64-2.43-1.12-2.34-3.52-1.63-5.38,1-2.54,2.73-.48,4,0,2.75,1.08,5.45,2.31,8.08,3.66,2.86,1.46,3.69.4,3.66-2.44-.07-5.62,0-11.25,0-16.87-.06-4.27,1.15-8.89-.54-12.75-2.27-5.17-2.13-10.33-2.16-15.63s0-10.35,0-15.53c0-3.3-1-7.82,3.9-7.94,5.32-.14,4.3,4.7,4.31,8,.08,25.59,0,51.18,0,76.77,0,4,0,8,0,12,0,2.71-1.55,4.14-3.93,3.15-2.67-1.1-4.53,0-6.63,1-1.5.73-3,1.47-4.51,2.17H73.86a9.18,9.18,0,0,1,.18-1.17q3.57-22.34,7.16-44.67a35.75,35.75,0,0,0,.62-4.09,2.51,2.51,0,0,1,.91-2.13,14.87,14.87,0,0,1-.19-3c0-4,.52-6.12,1.94-7,0-.53,0-1.08,0-1.61q0-38.39,0-76.77a14.73,14.73,0,0,1,0-2.21c-.87-.31-1-1.08-1-3,0-2.81.1-5.43-2.17-7.85S80.05,69.12,82.51,67a6.39,6.39,0,0,1,8.46,0c2.45,2.09,3.29,6,1.08,8.28s-2.23,5-2.21,7.83c0,2.07-.06,2.81-1,3.07a7.65,7.65,0,0,1,.09,1.33c0,8.74,0,17.49,0,26.24v13q0,19.47,0,38.94c0,.28,0,.56,0,.82,1.72.78,2.35,2.92,2.36,7.21a13.7,13.7,0,0,1-.19,3.1c.72.64.6,2.09,1.15,5.39C94.69,197,97,211.89,99.45,226.78c.07.4.12.8.16,1.2s.06.52.07.77H112.1c.12-5.84.26-13,.38-18.89h-1.4c.59-5.28,2.61-7.13,8.18-7.09,5,0,10.1.09,15.77.14-.22-2.85-.4-5.21-.57-7.31l4.14,0c.08-5.7.18-11.33.2-16.95,0-11.43,0-87.1,0-98.53,0-2.49.59-4.51,3.23-5.06s4.39,1.4,4.39,5.06c0,15.39,0,95,0,110.4,0,1.68.08,3.36.15,5.16l4,0c-.2,1.75-.49,4.27-.83,7.25,6-.09,11.07-.19,16.1-.24,5.77-.06,7.45,1.42,8.42,7.14h-1.38c0,4.1-.07,11.74-.12,18.84h14c-1-1-1.49-2.61-1.5-4.95,0-10.06,0-20.12,0-30.18q0-14.69,0-29.38a11.73,11.73,0,0,1,.91-5,6.63,6.63,0,0,0-2.15-8.35c-1.78-1.26-4.16-2-4.07-5.24.09-3.1,2.49-3.55,4.1-5,2.9-2.53,6.1-3.15,9.62-3,4.36.22,8.74.06,13.11.05a4,4,0,0,1,2.8.64c1.62,1.36,2.94,3,5,3.76,1.75.62,1.25,3.29,1.1,5.17a2.6,2.6,0,0,1-2.36,2.68c-2.27.13-2,1.55-1.44,3.36.91,2.77,1.76,5.57,2.65,8.35.44,1.35.55,2.67-.68,3.43s-2.15.21-3-.88c-2.28-3-4.58-5.94-6.86-8.94-.7-.93-1.34-2.07-2.55-1.14-.68.52-.53,3.9.28,4.33,5.75,3.08,6.46,9.08,6.88,15.49a23.68,23.68,0,0,0,6.72,15.21,16.66,16.66,0,0,1,4.57,9.55c1.19,8,2.71,15.92,4.1,23.87.5,2.86.06,4.93-1.29,6.12h12.51V96.32Zm77.36,156.56c-.8-10.58-5-12.19-5-12.19H198.6v15c0,6.79,4.66,12.29,10.41,12.29h1.6S206.29,185.38,205.33,174.41ZM96.62,228.3c-.65-4.74-1.32-9.48-2-14.22q-1-7.34-2-14.68l-.36,0q1.14,11,2.26,22c.22,2.17.49,4.35.66,6.52a5.76,5.76,0,0,1,0,.83h1.53A3,3,0,0,1,96.62,228.3Zm-3.94.45a5.21,5.21,0,0,1-.09-.57c-.46-4.6-.92-9.19-1.33-13.79-.56-6.29-1.08-12.58-1.22-18.86,0,5.52-.1,11,0,16.56.12,5.11.5,10.2.71,15.3a6.88,6.88,0,0,1,0,1.36ZM87.8,227.4c-.78-10.59-.08-21.24-1.21-31.85,0,.73-.08,1.45-.09,2.18-.21,9.08-.4,18.16-.63,27.24,0,1.21-.23,2.42-.38,3.63,0,.05,0,.1,0,.15h2.4C87.8,228.32,87.83,227.84,87.8,227.4Zm-4.11-27.57Q82.64,211.9,81.57,224c-.12,1.38-.27,2.75-.43,4.12,0,.22,0,.44-.09.65h2a1.37,1.37,0,0,1,0-.29q0-3.41.17-6.81C83.44,214.38,83.75,207.11,83.69,199.83ZM78.19,220q-.56,4-1.06,8a3.4,3.4,0,0,1-.16.76h1.58a5.65,5.65,0,0,1,0-1c.36-4,.79-7.9,1.2-11.85.58-5.64,1.15-11.27,1.38-17Q79.69,209.49,78.19,220Z"/><rect class="cls-1" x="9.25" y="233.9" width="1004.55" height="8.02"/><polygon class="cls-1" points="256.59 93.71 251.49 100.72 127.97 10.73 5.13 100.71 0 93.72 127.96 0 197.86 50.92 197.86 40.59 225.06 40.59 225.06 70.74 256.59 93.71"/><path class="cls-1" d="M330.33,85.47a30.35,30.35,0,0,0-12.57-11.66,40.44,40.44,0,0,0-18.66-4.14H276.53v66.47H299.1a40.81,40.81,0,0,0,18.66-4.1,30.08,30.08,0,0,0,12.57-11.57A33.39,33.39,0,0,0,334.81,103,33.69,33.69,0,0,0,330.33,85.47Zm-14.95,34.29q-5.81,6.18-16.28,6.19H290V80.05h9.15q10.47,0,16.28,6.19T321.19,103Q321.19,113.56,315.38,119.76Z"/><path class="cls-1" d="M379.75,69.48h-15.9l-23.52,66.66h14.19l4.28-12.48h25.91L389,136.14h14.19Zm-17.42,43.9,9.43-27.72,9.52,27.72Z"/><polygon class="cls-1" points="425.94 125.95 447.27 125.95 447.27 136.14 412.51 136.14 412.51 69.67 425.94 69.67 425.94 125.95"/><path class="cls-1" d="M490.7,69.48H474.79l-23.52,66.66h14.19l4.29-12.48h25.9l4.28,12.48h14.19Zm-17.43,43.9,9.43-27.72,9.52,27.72Z"/><polygon class="cls-1" points="306.43 169.69 306.43 177.58 285.16 177.58 285.16 190.95 301.39 190.95 301.39 198.84 285.16 198.84 285.16 220.69 274.86 220.69 274.86 169.69 306.43 169.69"/><path class="cls-1" d="M340.92,169.54h-12.2l-18.05,51.15h10.89l3.29-9.57h19.87l3.29,9.57H358.9Zm-13.37,33.68L334.78,182l7.31,21.26Z"/><path class="cls-1" d="M399.56,213.46a16,16,0,0,1-6.36,5.62,20.65,20.65,0,0,1-9.61,2.12q-8.4,0-13.51-3.91t-5.12-11h11a7.22,7.22,0,0,0,2.23,5,7.91,7.91,0,0,0,5.44,1.72,8.05,8.05,0,0,0,5.56-1.83,6.08,6.08,0,0,0,2-4.75,5.22,5.22,0,0,0-1.42-3.8,9.66,9.66,0,0,0-3.51-2.26,60.51,60.51,0,0,0-5.88-1.83,55,55,0,0,1-8-2.56,13.23,13.23,0,0,1-5.26-4.13,12.1,12.1,0,0,1-2.19-7.63,14.33,14.33,0,0,1,2.3-8.08,14.89,14.89,0,0,1,6.4-5.33,22.16,22.16,0,0,1,9.28-1.87q8,0,12.78,3.62t5.27,11H389.73a6.87,6.87,0,0,0-2.19-4.64,7,7,0,0,0-4.9-1.72,7.88,7.88,0,0,0-5.08,1.57,5.81,5.81,0,0,0-1.93,4.79,5.43,5.43,0,0,0,1.42,3.91,9.41,9.41,0,0,0,3.55,2.3,55.18,55.18,0,0,0,5.84,1.75,55,55,0,0,1,8,2.56,13,13,0,0,1,5.22,4.13,12.25,12.25,0,0,1,2.16,7.64,13.87,13.87,0,0,1-2.23,7.6Z"/><polygon class="cls-1" points="446.44 169.69 446.44 177.58 432.63 177.58 432.63 220.69 422.4 220.69 422.4 177.58 408.66 177.58 408.66 169.69 446.44 169.69"/><rect class="cls-1" x="454.33" y="169.69" width="10.3" height="51.01"/><path class="cls-1" d="M513.63,173.19a23.29,23.29,0,0,1,9.24,11.91H510.52q-3.43-6.72-11.69-6.72a15.94,15.94,0,0,0-8.15,2.05,14.09,14.09,0,0,0-5.52,5.84,20.51,20.51,0,0,0,0,17.54,14.38,14.38,0,0,0,5.52,5.88,15.76,15.76,0,0,0,8.15,2.08,13.82,13.82,0,0,0,9.32-3.1,13.53,13.53,0,0,0,4.49-8.37H495.69v-7.82h28v7.82a23.48,23.48,0,0,1-4.16,10.12,25.54,25.54,0,0,1-8.73,7.75,24.39,24.39,0,0,1-11.95,3,26.58,26.58,0,0,1-13.15-3.33,24.54,24.54,0,0,1-9.47-9.28,27.78,27.78,0,0,1,0-26.89,24.83,24.83,0,0,1,9.47-9.31,27.66,27.66,0,0,1,27.95.87Z"/><polygon class="cls-1" points="574.31 169.69 574.31 220.69 564.01 220.69 564.01 198.84 542.09 198.84 542.09 220.69 531.78 220.69 531.78 169.69 542.09 169.69 542.09 190.95 564.01 190.95 564.01 169.69 574.31 169.69"/><polygon class="cls-1" points="595.58 177.43 595.58 190.8 612.53 190.8 612.53 198.7 595.58 198.7 595.58 212.8 614.72 212.8 614.72 220.69 585.27 220.69 585.27 169.54 614.72 169.54 614.72 177.43 595.58 177.43"/><polygon class="cls-1" points="660.03 169.69 660.03 177.58 646.22 177.58 646.22 220.69 635.99 220.69 635.99 177.58 622.25 177.58 622.25 169.69 660.03 169.69"/><path class="cls-1" d="M701.43,213.46a16,16,0,0,1-6.36,5.62,20.71,20.71,0,0,1-9.61,2.12q-8.4,0-13.52-3.91t-5.12-11h11a7.21,7.21,0,0,0,2.22,5,7.92,7.92,0,0,0,5.45,1.72,8,8,0,0,0,5.55-1.83,6.09,6.09,0,0,0,2-4.75,5.22,5.22,0,0,0-1.43-3.8,9.71,9.71,0,0,0-3.5-2.26,60,60,0,0,0-5.89-1.83,54.84,54.84,0,0,1-8-2.56,13.17,13.17,0,0,1-5.26-4.13,12.1,12.1,0,0,1-2.2-7.63,14.26,14.26,0,0,1,2.31-8.08,14.8,14.8,0,0,1,6.39-5.33A22.19,22.19,0,0,1,684.8,169q8,0,12.79,3.62t5.26,11H691.6a6.71,6.71,0,0,0-7.09-6.36,7.84,7.84,0,0,0-5.08,1.57,5.82,5.82,0,0,0-1.94,4.79,5.44,5.44,0,0,0,1.43,3.91,9.45,9.45,0,0,0,3.54,2.3,54.76,54.76,0,0,0,5.85,1.75,54.84,54.84,0,0,1,8,2.56,13,13,0,0,1,5.23,4.13,12.31,12.31,0,0,1,2.15,7.64,13.94,13.94,0,0,1-2.22,7.6Z"/><path class="cls-1" d="M747,213.46a15.93,15.93,0,0,1-6.35,5.62,20.73,20.73,0,0,1-9.62,2.12q-8.4,0-13.51-3.91t-5.12-11h11a7.26,7.26,0,0,0,2.23,5,7.91,7.91,0,0,0,5.44,1.72,8.05,8.05,0,0,0,5.56-1.83,6.09,6.09,0,0,0,2-4.75,5.22,5.22,0,0,0-1.43-3.8,9.66,9.66,0,0,0-3.51-2.26,60.51,60.51,0,0,0-5.88-1.83,54.84,54.84,0,0,1-8-2.56,13.26,13.26,0,0,1-5.27-4.13,12.1,12.1,0,0,1-2.19-7.63,14.33,14.33,0,0,1,2.3-8.08,14.89,14.89,0,0,1,6.4-5.33A22.16,22.16,0,0,1,730.4,169q8,0,12.79,3.62t5.26,11H737.19a6.87,6.87,0,0,0-2.19-4.64,7,7,0,0,0-4.89-1.72,7.84,7.84,0,0,0-5.08,1.57,5.82,5.82,0,0,0-1.94,4.79,5.44,5.44,0,0,0,1.43,3.91,9.37,9.37,0,0,0,3.54,2.3,54.76,54.76,0,0,0,5.85,1.75,55.25,55.25,0,0,1,8,2.56,12.93,12.93,0,0,1,5.22,4.13,12.25,12.25,0,0,1,2.16,7.64,13.87,13.87,0,0,1-2.23,7.6Z"/><polygon class="cls-1" points="769.42 177.43 769.42 190.8 786.37 190.8 786.37 198.7 769.42 198.7 769.42 212.8 788.56 212.8 788.56 220.69 759.12 220.69 759.12 169.54 788.56 169.54 788.56 177.43 769.42 177.43"/><path class="cls-1" d="M824.15,199.72q6.29-1.54,9.21-5.7a15.35,15.35,0,0,0,2.92-9A14.26,14.26,0,0,0,828,171.77a22.31,22.31,0,0,0-10.08-2.09H799.09v51h10.3V200.37h3.36L825,220.69h12.2Zm-6.28-7.24h-8.48V177.57h8.48a8.12,8.12,0,0,1,5.92,2,8.29,8.29,0,0,1,0,10.89A8.12,8.12,0,0,1,817.87,192.48Z"/><polygon class="cls-1" points="852.94 169.69 866.9 210.39 880.86 169.69 891.82 169.69 873.11 220.69 860.69 220.69 842.05 169.69 852.94 169.69"/><rect class="cls-1" x="898.32" y="169.69" width="10.3" height="51.01"/><path class="cls-1" d="M957.62,173.19a23.29,23.29,0,0,1,9.24,11.91H954.51q-3.43-6.72-11.69-6.72a15.94,15.94,0,0,0-8.15,2.05,14.09,14.09,0,0,0-5.52,5.84,20.51,20.51,0,0,0,0,17.54,14.38,14.38,0,0,0,5.52,5.88,15.76,15.76,0,0,0,8.15,2.08q8.19,0,11.69-6.72h12.35a23.06,23.06,0,0,1-9.24,11.88,27.92,27.92,0,0,1-28,.87,24.54,24.54,0,0,1-9.47-9.28,27.78,27.78,0,0,1,0-26.89,24.83,24.83,0,0,1,9.47-9.31,27.66,27.66,0,0,1,28,.87Z"/><polygon class="cls-1" points="986.08 177.43 986.08 190.8 1003.03 190.8 1003.03 198.7 986.08 198.7 986.08 212.8 1005.23 212.8 1005.23 220.69 975.78 220.69 975.78 169.54 1005.23 169.54 1005.23 177.43 986.08 177.43"/></g></svg>