<?xml version="1.0" encoding="UTF-8"?>
<svg id="Layer_1" data-name="Layer 1" xmlns="http://www.w3.org/2000/svg" viewBox="0 0 493.62 504.4">
  <defs>
    <style>
      .cls-1 {
        fill: #b5191e;
      }

      .cls-2 {
        fill: #333132;
      }
    </style>
  </defs>
  <path class="cls-1" d="m200,10.67c5.21,0,9.46,4.24,9.46,9.46v279.91c0,5.22-4.25,9.46-9.46,9.46h-66.46c-5.21,0-9.46-4.24-9.46-9.46V20.13c0-5.21,4.24-9.46,9.46-9.46h66.46m0-10.67h-66.46c-11.12,0-20.13,9.01-20.13,20.13v279.91c0,11.12,9.01,20.13,20.13,20.13h66.46c11.12,0,20.13-9.01,20.13-20.13V20.13c0-11.12-9.01-20.13-20.13-20.13"/>
  <path class="cls-1" d="m292.93,143.23h-55.95v-55.95c0-2.85,1.11-5.53,3.13-7.55L306.04,13.8c2.02-2.01,4.7-3.12,7.55-3.12s5.53,1.11,7.55,3.12l45.28,45.28c2.02,2.01,3.13,4.69,3.13,7.55s-1.11,5.53-3.13,7.55l-65.93,65.93c-2.01,2.02-4.7,3.13-7.55,3.13m0,10.67c5.66,0,11.09-2.25,15.09-6.25l65.93-65.93c8.34-8.34,8.34-21.85,0-30.19l-45.28-45.28C324.52,2.08,319.05,0,313.59,0s-10.92,2.08-15.09,6.25l-65.93,65.93c-4,4-6.25,9.43-6.25,15.1v66.62h66.62Z"/>
  <path class="cls-1" d="m373.96,232.27l-65.93-65.93c-4-4-9.43-6.25-15.09-6.25h-66.62v66.63c0,5.66,2.25,11.09,6.25,15.09l65.93,65.93c8.34,8.34,21.85,8.34,30.19,0l45.28-45.28c8.34-8.34,8.34-21.85,0-30.19m-109.61-44.82c0,5.9-4.78,10.67-10.67,10.67s-10.67-4.78-10.67-10.67,4.78-10.67,10.67-10.67,10.67,4.78,10.67,10.67"/>
  <polygon class="cls-2" points="0 391.84 37.05 391.84 37.05 436.71 48.62 436.71 69.88 391.84 106.93 391.84 106.93 399.03 81.6 446.4 110.53 494.71 110.53 501.9 71.6 501.9 47.99 458.13 37.05 458.13 37.05 501.9 0 501.9 0 391.84"/>
  <path class="cls-1" d="m119.36,395.12c0-2.35.51-4.51,1.53-6.49,1.01-1.98,2.36-3.69,4.03-5.12,1.67-1.43,3.59-2.54,5.78-3.32,2.19-.78,4.45-1.17,6.8-1.17,2.71,0,5.17.48,7.39,1.45,2.22.96,4.1,2.21,5.67,3.75,1.56,1.54,2.77,3.26,3.63,5.16.86,1.9,1.29,3.82,1.29,5.74,0,2.4-.5,4.58-1.49,6.57-.99,1.98-2.32,3.69-3.99,5.12-1.67,1.43-3.58,2.55-5.74,3.36-2.16.81-4.41,1.21-6.76,1.21-2.55,0-4.93-.42-7.15-1.25-2.22-.83-4.13-1.99-5.75-3.48-1.62-1.48-2.89-3.2-3.83-5.16-.94-1.95-1.41-4.07-1.41-6.37"/>
  <path class="cls-2" d="m169.39,497.68c-6.31,3.65-13.29,5.47-20.95,5.47-4.53,0-8.57-.76-12.12-2.27s-6.53-3.66-8.95-6.45c-2.42-2.79-4.26-6.16-5.51-10.12s-1.88-8.36-1.88-13.21v-49.4h33.93v47.84c0,2.56.67,4.47,2.03,5.75s3.08,1.91,5.16,1.91,4.27-.63,6.57-1.88l1.72,22.36Z"/>
  <path class="cls-2" d="m230.98,497.68c-7.24,3.65-15.27,5.47-24.07,5.47-4.53,0-8.57-.74-12.12-2.23-3.54-1.49-6.53-3.62-8.95-6.41s-4.26-6.15-5.51-10.08c-1.25-3.93-1.88-8.38-1.88-13.33v-74.73l33.77-5v77.39c0,2.87.91,4.99,2.74,6.37,1.82,1.38,4.3,2.07,7.43,2.07,2.39,0,4.84-.63,7.34-1.88l1.25,22.36Z"/>
  <path class="cls-2" d="m321.26,465.94c0,6.57-1.01,12.26-3.01,17.08-2.01,4.82-4.89,8.81-8.64,11.96-3.75,3.15-8.35,5.51-13.8,7.08-5.45,1.56-11.61,2.35-18.49,2.35-15.27,0-28.66-2.76-40.18-8.29,3.18-7.92,5.68-15.17,7.5-21.73.31-1.1.63-2.03.94-2.81l11.72,2.89c1.41.31,2.92.65,4.53,1.02,1.62.37,3.23.69,4.85.98,1.62.29,3.15.53,4.61.74,1.46.21,2.73.31,3.83.31,1.77,0,3.48-.06,5.12-.2,1.64-.13,3.09-.43,4.34-.9,1.25-.47,2.26-1.14,3.01-2.03.76-.89,1.14-2.08,1.14-3.59,0-1.83-.86-3.36-2.58-4.61-1.72-1.25-3.87-2.37-6.45-3.36-2.58-.99-5.41-1.89-8.48-2.7-3.08-.8-5.94-1.68-8.6-2.62-3.7-1.15-7.14-2.71-10.32-4.69-3.18-1.98-5.93-4.34-8.25-7.08-2.32-2.73-4.13-5.84-5.43-9.3-1.3-3.47-1.95-7.28-1.95-11.45,0-23.76,14.28-35.65,42.83-35.65,13.55,0,26.16,2.82,37.83,8.44l-8.6,23.92c-5.06-1.3-9.06-2.33-12-3.09-2.95-.76-5.3-1.32-7.08-1.68-1.77-.37-3.18-.6-4.22-.7-1.04-.1-2.14-.16-3.28-.16h-2.66c-.57,0-1.05-.01-1.45-.04-.39-.03-.77-.04-1.13-.04-2.35,0-4.14.35-5.39,1.06-1.25.7-1.88,2.15-1.88,4.34,0,3.28,2.87,5.78,8.6,7.5,14.12,3.28,24.82,8.05,32.09,14.3,7.27,6.25,10.9,13.84,10.9,22.75"/>
  <path class="cls-2" d="m334.4,396.38l33.77-5v48.15c2.71-6.62,6.29-11.44,10.75-14.46,4.45-3.02,9.68-4.53,15.67-4.53,4.85,0,9.35.98,13.52,2.93,4.17,1.95,7.8,4.72,10.9,8.29,3.1,3.57,5.53,7.85,7.31,12.86s2.66,10.55,2.66,16.65v40.64h-33.62v-40.02c0-2.03-.28-4.01-.86-5.94-.57-1.93-1.36-3.64-2.35-5.12-.99-1.49-2.18-2.67-3.56-3.56-1.38-.89-2.88-1.33-4.5-1.33-2.29,0-4.41.46-6.37,1.37-1.95.91-3.64,2.15-5.04,3.71-1.41,1.56-2.51,3.37-3.32,5.43-.81,2.06-1.21,4.23-1.21,6.53v38.93h-33.77v-105.52Z"/>
  <path class="cls-1" d="m443.59,395.12c0-2.35.51-4.51,1.53-6.49,1.01-1.98,2.36-3.69,4.03-5.12,1.67-1.43,3.59-2.54,5.78-3.32,2.19-.78,4.45-1.17,6.8-1.17,2.71,0,5.17.48,7.39,1.45,2.22.96,4.1,2.21,5.67,3.75,1.56,1.54,2.77,3.26,3.63,5.16.86,1.9,1.29,3.82,1.29,5.74,0,2.4-.5,4.58-1.49,6.57-.99,1.98-2.32,3.69-3.99,5.12-1.67,1.43-3.58,2.55-5.74,3.36-2.16.81-4.41,1.21-6.76,1.21-2.55,0-4.93-.42-7.15-1.25-2.22-.83-4.13-1.99-5.75-3.48-1.62-1.48-2.89-3.2-3.83-5.16-.94-1.95-1.41-4.07-1.41-6.37"/>
  <path class="cls-2" d="m493.62,497.68c-6.31,3.65-13.29,5.47-20.95,5.47-4.53,0-8.57-.76-12.12-2.27-3.54-1.51-6.53-3.66-8.95-6.45-2.42-2.79-4.26-6.16-5.51-10.12s-1.88-8.36-1.88-13.21v-49.4h33.93v47.84c0,2.56.67,4.47,2.03,5.75s3.08,1.91,5.16,1.91,4.27-.63,6.57-1.88l1.72,22.36Z"/>
</svg>