<?xml version="1.0" encoding="UTF-8"?>
<svg id="Layer_1" data-name="Layer 1" xmlns="http://www.w3.org/2000/svg" viewBox="0 0 130.98 131.06">
  <defs>
    <style>
      .cls-1 {
        fill: #594f66;
      }

      .cls-2 {
        fill: #c7c6c5;
      }
    </style>
  </defs>
  <path class="cls-2" d="m130.92,61.33s0-.09,0-.14c-.48-7.68-7.36-13.33-15.05-12.92-19.09,1.03-33.65,5.48-44.71,11.44,2.64.41,5.23,1.11,7.72,2.1,13.77-3.61,30.94-4.57,52.05-.48Z"/>
  <path class="cls-2" d="m126.11,40.53c-.47-1.15-.98-2.28-1.52-3.39-2.94-5.94-9.6-9.05-16.05-7.49-29.14,6.89-46.36,19.58-56.53,32.24,1.59-.64,3.22-1.16,4.88-1.56,14.51-11.06,36.41-20.12,69.22-19.79Z"/>
  <path class="cls-2" d="m39.91,66.86c10.32-17.66,31.25-37.62,73.57-45.95-1.66-1.78-3.42-3.47-5.27-5.06-4.19-3.55-10.06-4.34-15.03-2.01-33.52,15.75-47.62,36.27-53.27,53.02Z"/>
  <path class="cls-1" d="m88.23,67.3c15.39,12.52,17.71,35.15,5.18,50.53-6.58,8.08-16.34,12.91-26.76,13.23,34.42-.58,62.52-27.7,64.32-62.07-16.88-3.48-31.01-3.59-42.74-1.69Z"/>
  <path class="cls-1" d="m29.77,98.61c-.77-4.1-9.75-60.05,62.75-92.78C59.55-9.07,20.74,5.58,5.83,38.55c-14.91,32.97-.26,71.79,32.72,86.69,8.03,3.63,16.72,5.6,25.53,5.8v-.04c-17.92-.72-32.56-14.54-34.31-32.39Z"/>
</svg>