<svg id="Lager_1" data-name="Lager 1" xmlns="http://www.w3.org/2000/svg" viewBox="0 0 446.19 159.83"><defs><style>.cls-1{fill:#1d1d1b;}.cls-2{fill:#568830;}.cls-3{fill:#195025;}.cls-4{fill:#b1496d;}.cls-5{fill:#eb5e8f;}</style></defs><title>Näckpånätet+smultron</title><path class="cls-1" d="M341.67,192.48h11.05v3.68H341.67v7.35H338V174.06h14.73v3.69H341.67Zm11.05,0V177.75h3.68v14.73Z" transform="translate(-45.78 -43.68)"/><path class="cls-1" d="M361,192.48v-7.37h3.68v7.37Zm3.69-18.43H361v-3.63h3.67v-3.67h11.05v3.67h3.68v3.64h-3.68v-3.63h-11Zm0,3.7v-3.69h11.05v3.69Zm14.73,0v18.41H364.68v-3.68h11.05v-7.37H364.68v-3.68h11.05v-3.68Z" transform="translate(-45.78 -43.68)"/><path class="cls-1" d="M397.77,177.75h3.68v3.68h-3.68v14.73h-3.68v-22.1h3.68Zm3.68,0v-3.69h7.37v3.69Zm7.37,18.41V177.75h3.68v18.41Z" transform="translate(-45.78 -43.68)"/><path class="cls-1" d="M417.11,192.48v-7.37h3.67v7.37ZM420.74,172V168.3h3.66V172Zm0,5.79v-3.69h11.05v3.69Zm14.73,0v18.41H420.78v-3.68h11.05v-7.37H420.78v-3.68h11.05v-3.68Zm-7.4-5.79V168.3h3.66V172Z" transform="translate(-45.78 -43.68)"/><path class="cls-1" d="M443.8,177.75v14.73h-3.68V166.71h3.68v7.35h3.67v3.69Zm0,18.41v-3.68h3.67v3.68Z" transform="translate(-45.78 -43.68)"/><path class="cls-1" d="M455.76,185.11v7.37h-3.68V177.75h3.68v3.68h11.05v-3.68h3.68v7.36Zm0-7.36v-3.69h11.05v3.69Zm0,18.41v-3.68h11.05v3.68Zm11.05-3.68V188.8h3.68v3.68Z" transform="translate(-45.78 -43.68)"/><path class="cls-1" d="M478.77,177.75v14.73h-3.68V166.71h3.68v7.35h3.68v3.69Zm0,18.41v-3.68h3.68v3.68Z" transform="translate(-45.78 -43.68)"/><path class="cls-1" d="M487.06,196.16v-3.68h3.68v3.68Z" transform="translate(-45.78 -43.68)"/><path class="cls-1" d="M225.2,161.38h26l-.18-17.15V113.35q0-7.41-6.92-12.9A25.55,25.55,0,0,0,227.79,95q-10.9,0-14.7,3.91a23.28,23.28,0,0,0-5.25,7.75V96.34H182.61l.1,15.09v32.8l-.1,17.15h26l-.2-17.15V109.1a34.35,34.35,0,0,1,3.1-6.18q1.92-3,6.53-3,7.26,0,7.26,10.7l.13,5.63v28Z" transform="translate(-45.78 -43.68)"/><path class="cls-1" d="M274,75.73a6.74,6.74,0,0,1,2.44-5.11,8.41,8.41,0,0,1,5.86-2.22A8.24,8.24,0,0,1,288,70.5a6.83,6.83,0,0,1,2.32,5.23,7.18,7.18,0,0,1-2.2,5.44,8.1,8.1,0,0,1-5.86,2.11,8.37,8.37,0,0,1-5.86-2.22A6.94,6.94,0,0,1,274,75.73Z" transform="translate(-45.78 -43.68)"/><path class="cls-1" d="M301.55,75.73A6.77,6.77,0,0,1,304,70.62a8.7,8.7,0,0,1,11.54-.06,6.77,6.77,0,0,1,2.39,5.17,7,7,0,0,1-2.33,5.44,8.37,8.37,0,0,1-5.86,2.11A8.23,8.23,0,0,1,304,81.06,7,7,0,0,1,301.55,75.73Z" transform="translate(-45.78 -43.68)"/><path class="cls-1" d="M326.06,112.4V144c0,1.29,0,17.43,0,17.43H300.28V122.87l-.4-.14a10.75,10.75,0,0,1-4.41,3.09,14.07,14.07,0,0,0-4.47,2.81q-1.25,1.38-2,5.29a44.14,44.14,0,0,0-.73,8,42.79,42.79,0,0,0,.92,9.89c.62,2.47,2,3.71,4.22,3.71a5.85,5.85,0,0,0,4.4-2.06,11,11,0,0,0,1.52-2.06s-.83,5-4.61,7.1c-3.34,1.83-7.64,2.78-13,2.78q-8.52,0-13.83-4.81t-5.32-13.34c0-4.58,1.11-8.28,3.33-11.07s4.47-4.52,6.78-5.16a67.2,67.2,0,0,1,10.64-1.65A73.79,73.79,0,0,0,294,123.69a15.86,15.86,0,0,0,4.85-1.93,4,4,0,0,0,1.47-3.5l-.14-12.52q0-5.35-1.31-7.7t-5.53-2.34a7.55,7.55,0,0,0-4.41,1.24,3.73,3.73,0,0,0-1.78,3.17c0,1,.94,2.28,2.83,3.8s2.84,3.79,2.84,6.82a10,10,0,0,1-3.67,7.59c-2.45,2.21-6.43,3.3-11.94,3.3a12.88,12.88,0,0,1-7.94-2.54,8.13,8.13,0,0,1-3.4-6.83q0-8.53,9.27-13.64t22.05-5.11A43.23,43.23,0,0,1,317,98.12Q326.06,102.76,326.06,112.4Z" transform="translate(-45.78 -43.68)"/><path class="cls-1" d="M402.72,104.91a13.89,13.89,0,0,1,3.93,9.82,11.06,11.06,0,0,1-3.08,8.16q-3.06,3.09-9.08,3.09a13.79,13.79,0,0,1-9.43-3.77,11.29,11.29,0,0,1-4.21-8.58,17.92,17.92,0,0,1,1.46-7.14,15.25,15.25,0,0,0,1.46-5.76,4.48,4.48,0,0,0-1.59-3.57,6.74,6.74,0,0,0-4.52-1.37,7.83,7.83,0,0,0-6.25,3,21.43,21.43,0,0,0-3.92,7.41,50.88,50.88,0,0,0-2,9.54,85.8,85.8,0,0,0-.6,9.94q0,12.49,4.07,21.75c2.71,6.18,7.51,9.68,14.34,9.27a29.21,29.21,0,0,0,15.45-5.93c-7.17,8.42-18.22,10.68-24.35,10.59-10.12-.14-18.74-3.09-25.85-9.26s-10.66-14.34-10.66-24.5,3.49-18.47,10.46-24.7,15.66-9.33,26-9.33a42,42,0,0,1,10.79,1.31,44.84,44.84,0,0,1,9.27,3.56A31.49,31.49,0,0,1,402.72,104.91Z" transform="translate(-45.78 -43.68)"/><path class="cls-1" d="M492,161.31l-29.64.07-5.2-9.08q-1.78-3.15-5.47-9.17t-7.13-11.5L442,134.37l.47,27H416l.1-100H442L441.76,132q7-7.39,14-14.93c4.68-5,19.61-21,19.61-21l3.23-.09-16,16.8q6.53,10.95,13.3,22.25t9.91,16.15C487.92,154.52,492,161.31,492,161.31Z" transform="translate(-45.78 -43.68)"/><rect class="cls-2" x="25.65" y="39.02" width="12.82" height="13.01"/><rect class="cls-2" x="51.4" y="39.02" width="12.82" height="13.01"/><rect class="cls-2" x="77.05" y="39.02" width="12.82" height="13.01"/><rect class="cls-3" x="12.82" y="39.02" width="12.82" height="13.01"/><rect class="cls-3" x="25.65" y="52.02" width="12.82" height="13.01"/><rect class="cls-3" x="51.4" y="52.02" width="12.82" height="13.01"/><rect class="cls-3" x="77.05" y="52.02" width="12.82" height="13.01"/><polygon class="cls-3" points="89.88 26.01 89.88 39.02 77.05 39.02 77.05 52.02 64.23 52.02 64.23 39.02 51.41 39.02 51.41 52.02 38.47 52.02 38.47 39.02 25.65 39.02 25.65 26.01 51.41 26.01 51.41 0 64.23 0 64.23 26.01 89.88 26.01"/><rect class="cls-3" x="89.88" y="39.02" width="12.82" height="13.01"/><polygon class="cls-4" points="25.65 78.15 25.65 91.15 12.82 91.15 12.82 117.16 0 117.16 0 52.02 12.82 52.02 12.82 78.15 25.65 78.15"/><rect class="cls-4" x="38.47" y="117.16" width="12.82" height="13.01"/><rect class="cls-5" x="89.88" y="52.02" width="12.82" height="13.01"/><path class="cls-5" d="M148.48,134.83v-13H135.65v-13H122.83V95.71H110v13H97.18v-13H84.25v13H71.43v-13H58.6v26H71.43v13H58.6v26H71.43v13H84.25v-13H97.18v13H84.25v13h38.47v-13h12.83v-13h12.82v-12.9H135.55v-13Zm-51.3,13H84.25v-13H97.18Zm25.65,13H110v-13h12.82Zm0-26H110v-13h12.82Z" transform="translate(-45.78 -43.68)"/><rect class="cls-4" x="64.23" y="78.15" width="12.82" height="13.01"/><rect class="cls-4" x="64.23" y="104.16" width="12.82" height="13.01"/><rect class="cls-4" x="38.47" y="91.15" width="12.82" height="13.01"/><polygon class="cls-4" points="115.53 52.02 115.53 117.16 102.7 117.16 102.7 104.16 89.88 104.16 89.88 91.15 102.7 91.15 102.7 78.15 89.88 78.15 89.88 65.14 102.7 65.14 102.7 52.02 115.53 52.02"/><rect class="cls-4" x="12.82" y="117.16" width="12.82" height="13.01"/><rect class="cls-4" x="25.65" y="130.17" width="12.82" height="13.01"/><rect class="cls-4" x="38.47" y="143.18" width="38.47" height="13.01"/><rect class="cls-4" x="77.05" y="130.17" width="12.82" height="13.01"/><rect class="cls-4" x="89.88" y="117.16" width="12.82" height="13.01"/></svg>