<?xml version="1.0" encoding="utf-8"?>
<!-- Generator: Adobe Illustrator 22.0.1, SVG Export Plug-In . SVG Version: 6.00 Build 0)  -->
<svg version="1.1" id="Lager_1" xmlns="http://www.w3.org/2000/svg" xmlns:xlink="http://www.w3.org/1999/xlink" x="0px" y="0px"
	 viewBox="12 12 412 90" xml:space="preserve">
<style type="text/css">
	.st0{fill:#FFFFFF;}
	.st1{fill:#FFFFFF;}
</style>
<g>
	<path class="st0" d="M13.4,80V12.5l33.8,33.8L13.4,80z M103.2,102.2H30.9l36.1-36.1L103.2,102.2z M53.1,12.4h50.2v50.2L53.1,12.4z"
		/>
	<path class="st1" d="M387,14.6v6.6h9.2v29.5h8.3V21.2h9v-6.6H387z M365.1,35.9h2.7l6.8,14.8h8.6l-7.9-16c5.1-1.5,6.9-5,6.9-9.6
		c0-9.7-7.4-10.5-13.3-10.5h-11.7v36.1h7.8V35.9z M365.1,20.2c4.4,0,5.4,0,6.6,0.4c1.6,0.6,2.4,1.8,2.4,4.3c0,2-0.2,3.9-2.7,4.8
		c-1.1,0.4-1.8,0.4-6.3,0.4V20.2z M324.8,37c0,1.6,0.1,4.7,0.9,7.3c1.8,6.1,7.6,7.4,11.2,7.4c2.3,0,6.6-0.3,9.6-3.6
		c2.3-2.5,3.1-5.7,3.1-10.8v-8.8c0-5.8-1.1-9-3.2-11.2c-2.4-2.6-5.8-3.5-9.5-3.5c-3.4,0-6.8,0.9-9.1,3.4c-2.5,2.8-3.2,6.3-3.2,10V37
		z M332.9,26.1c0-1.4,0-5.6,4.4-5.6c4.2,0,4.2,3.1,4.2,5.6v12.5c0,2.5,0,6.5-4.3,6.5c-3.5,0-4.3-2.7-4.3-6.5V26.1z M293.9,50.7h8
		V37.2l4.3-0.1c2.8-0.1,5.7-0.2,8.3-1.8c1.6-1,4.7-3.6,4.7-9.3c0-3.6-1-6.5-3.3-8.5c-1.9-1.7-4.8-2.9-10.1-2.9h-11.9V50.7z
		 M301.9,20.5c4.8,0,5.4,0,6.6,0.5c1.1,0.4,2.4,1.2,2.4,4.7c0,3.7-2.3,4.8-2.9,5c-0.9,0.4-2.4,0.4-6.2,0.4V20.5z M286.4,20.3
		c-3-4.3-6.7-6.5-12-6.5c-7.4,0-11.8,4.3-11.8,10.2c0,7.1,4.7,9.5,10.2,11.7c5.4,2.1,6.9,2.7,6.9,5.4c0,3.3-3.1,4.1-4.8,4.1
		c-3.1,0-5.5-1.9-6.8-4.9l-6.2,4.1c3.2,5.8,7,7.3,13.3,7.3c1.8,0,4.8-0.5,6.9-1.8c5.1-3.1,5.1-7.9,5.1-9.5c0-3.4-1.6-5.8-2-6.3
		c-1.4-2-4-3.4-6.2-4.2l-4.6-1.7c-2.2-0.8-4.6-1.8-4.6-4.4c0-0.4,0.1-3.5,4.2-3.5c2.8,0,5.1,1.9,6.3,4L286.4,20.3z M229.1,50.7h7.3
		V33.8c0-0.9-0.2-5.5-0.2-6.5h0.2c1.9,4.4,1.9,4.5,2.7,6l9.6,17.5h6.5V14.6h-7.3V28c0,1.4,0,1.7,0.1,4.1l0.2,3.6H248
		c-0.1-0.2-0.6-1.6-0.8-1.9c-0.3-0.7-0.8-1.7-1.2-2.5l-9.3-16.9h-7.6V50.7z M202.8,14.6l-10.2,36.1h7.7l1.9-7.2h11.1l1.8,7.2h7.7
		l-10.4-36.1H202.8z M211.7,37.4h-8.1l3.9-16.3h0.2L211.7,37.4z M170.2,35.9h2.7l6.8,14.8h8.6l-7.9-16c5.1-1.5,6.9-5,6.9-9.6
		c0-9.7-7.4-10.5-13.3-10.5h-11.7v36.1h7.8V35.9z M170.2,20.2c4.4,0,5.4,0,6.6,0.4c1.6,0.6,2.4,1.8,2.4,4.3c0,2-0.2,3.9-2.7,4.8
		c-1.1,0.4-1.8,0.4-6.3,0.4V20.2z M129.7,14.6v6.6h9.2v29.5h8.3V21.2h9v-6.6H129.7z"/>
	<path class="st1" d="M378.6,99.9h7.3V83c0-0.9-0.2-5.5-0.2-6.5h0.2c1.9,4.4,1.9,4.5,2.7,6l9.6,17.5h6.5V63.8h-7.3v13.4
		c0,1.4,0,1.7,0.1,4.1l0.2,3.6h-0.2c-0.1-0.2-0.6-1.6-0.8-1.9c-0.3-0.7-0.8-1.7-1.2-2.5l-9.3-16.9h-7.6V99.9z M346.2,99.9h25.4v-6.7
		h-17.4v-8.5h11.2v-6.6H354v-7.7h16.4v-6.6h-24.3V99.9z M338.8,69.5c-3-4.3-6.7-6.5-12-6.5c-7.4,0-11.8,4.3-11.8,10.2
		c0,7.1,4.7,9.5,10.2,11.7c5.4,2.1,6.9,2.7,6.9,5.4c0,3.3-3.1,4.1-4.8,4.1c-3.1,0-5.5-1.9-6.8-4.9l-6.2,4.1c3.2,5.8,7,7.3,13.3,7.3
		c1.8,0,4.8-0.5,6.9-1.8c5.1-3.1,5.1-7.9,5.1-9.5c0-3.4-1.6-5.8-2-6.3c-1.4-2-4-3.4-6.2-4.2l-4.6-1.7c-2.2-0.8-4.6-1.8-4.6-4.4
		c0-0.4,0.1-3.5,4.2-3.5c2.8,0,5.1,1.9,6.3,4L338.8,69.5z M288,99.9h24v-6.7h-15.9V63.8H288V99.9z M256,99.9h25.4v-6.7H264v-8.5
		h11.2v-6.6h-11.3v-7.7h16.4v-6.6H256V99.9z M231.3,85.1h2.7l6.8,14.8h8.6l-7.9-16c5.1-1.5,6.9-5,6.9-9.6c0-9.7-7.4-10.5-13.3-10.5
		h-11.7v36.1h7.8V85.1z M231.3,69.4c4.4,0,5.4,0,6.6,0.4c1.6,0.6,2.4,1.8,2.4,4.3c0,2-0.2,3.9-2.7,4.8c-1.1,0.4-1.8,0.4-6.3,0.4
		V69.4z M207.6,99.9V85.3l10.9-21.6h-8.4l-4.4,9.1c-1.2,2.6-1.4,2.8-2.1,4.3h-0.2c-0.3-0.6-1.7-3.7-2.1-4.4l-4.6-9h-8.5l11.4,21.9
		v14.3H207.6z M159,63.8v6.6h9.2v29.5h8.3V70.4h9v-6.6H159z M154.8,69.5c-3-4.3-6.7-6.5-12-6.5c-7.4,0-11.8,4.3-11.8,10.2
		c0,7.1,4.7,9.5,10.2,11.7c5.4,2.1,6.9,2.7,6.9,5.4c0,3.3-3.1,4.1-4.8,4.1c-3.1,0-5.5-1.9-6.8-4.9l-6.2,4.1c3.2,5.8,7,7.3,13.3,7.3
		c1.8,0,4.8-0.5,6.9-1.8c5.1-3.1,5.1-7.9,5.1-9.5c0-3.4-1.6-5.8-2-6.3c-1.4-2-4-3.4-6.2-4.2l-4.6-1.7c-2.2-0.8-4.6-1.8-4.6-4.4
		c0-0.4,0.1-3.5,4.2-3.5c2.8,0,5.1,1.9,6.3,4L154.8,69.5z"/>
</g>
</svg>
