<svg xmlns="http://www.w3.org/2000/svg" xmlns:xlink="http://www.w3.org/1999/xlink" enable-background="new 0 0 3800 3000" viewBox="0 0 3800 3000"><g display="none"><radialGradient id="a" cx="1344.704" cy="1136.963" r="1106.634" gradientTransform="matrix(1.2 0 0 .8333 -380 249.829)" gradientUnits="userSpaceOnUse"><stop offset="0" stop-color="#c8d9fb"/><stop offset="1" stop-color="#4094f2"/></radialGradient><rect width="1200" height="500" x="1300" y="1250" fill="url(#a)"/></g><path fill="#c8d9fb" d="M804.07,847.96c132.44-81.63,217.59-230.23,359.16-294.75c97.61-55.03,509.02-115.73,369.28,96.64    c-188.4,286.31-6.26,574.42-433.95,768.09c-265.01,109.69-937.99,268.93-917.08-155.39C195.24,983.28,600.93,970.92,804.07,847.96    z"/><path fill="#c8d9fb" d="M3210.26,2612.9l-2674.69-14.75c0,0-690.06-333.13-260.05-887.48c321.29-414.19,663.27-261.81,1057.88-736.61    c394.6-474.8,573.45-711.61,1169.56-693.86C3099.06,297.95,4459.21,1363.95,3210.26,2612.9z"/><path fill="#f2faff" d="M2319.65,426.06v164.51h-155.74c0,0,1.38-137.84,0.95-197.04c-0.09-4.13-0.09-7.83-0.17-11.19     c-0.17-10.07-0.43-16.18-0.77-16.18c-1.12,1.12,99.12-1.03,99.12-1.03L2319.65,426.06z"/><rect width="90.39" height="7.62" x="2169.93" y="501.39" fill="#c8d9fb"/><rect width="90.39" height="7.62" x="2169.93" y="521.72" fill="#c8d9fb"/><rect width="90.39" height="7.62" x="2169.93" y="542.05" fill="#c8d9fb"/><rect width="90.39" height="7.62" x="2169.93" y="562.38" fill="#c8d9fb"/><path fill="#c8d9fb" d="M2236.36,381.92c0,0-42.42,0.43-71.67,0.43c0.09,3.36,0.09,7.06,0.17,11.19c18.84,0,42.93,0.17,57.91,0.09      v59.11h60.06v137.84h10.15V442.92L2236.36,381.92z M2231.97,442.92v-49.39l47.06,49.39H2231.97z"/><path fill="#f2faff" d="M2292.98,590.57v16.78h-155.74c0,0,2.24-220.87,0.09-225.43c0.86,0.34,12.48,0.43,27.36,0.43      c0.09,3.36,0.09,7.06,0.17,11.19H2148c0.6,20.39,0.86,71.59-0.52,203.66h135.34v-6.63H2292.98z"/><rect width="141.35" height="90.31" x="121.18" y="1555.26" fill="#c8d9fb" transform="rotate(-4.25 191.92 1600.814)"/><polygon fill="#f1f2f2" points="121.97 1566.24 190.53 1601.76 255.93 1556.28 191.73 1608.3"/><path fill="#100959" d="M3629.64 2720.73H176.25c-1.38 0-2.51-1.12-2.51-2.51v-106.72c0-1.38 1.12-2.51 2.51-2.51h3453.39c1.38 0 2.51 1.12 2.51 2.51v106.72C3632.15 2719.61 3631.02 2720.73 3629.64 2720.73zM3158.26 738.57H625.94c-65.43 0-118.47 61.52-118.47 137.4v1614.47h2769.26V875.97C3276.73 800.09 3223.69 738.57 3158.26 738.57z"/><path fill="#f2faff" d="M549.02,2442.26V875.98c0-49.19,34.51-89.22,76.92-89.22h2532.32c42.42,0,76.93,40.02,76.93,89.22v1566.28      H549.02z"/><path fill="#394ca4" d="M210.77,2609l338.26-166.75h2686.17L3595.12,2609C3595.12,2609,1926.42,2796.26,210.77,2609z"/><path fill="#0f1019" d="M587.42,2484.8c24.6,4.48,51.95-1.34,74.8,11.54c10.63,6,18.02,11.29,18.13,25.03      c0.08,11.01-4.97,18.38,4.69,27.9c5.45,5.37,13.94,8.15,20.76,10.35c15.89,5.12,32.22,6.15,48.66,6.93      c17.25,0.82,34.5,3.05,51.76,4.12c71.61,4.44,143.71,3.86,212.74,28.09c40.13,14.09,78.89,27.56,120.92,33.5      c39.49,5.57,79.35,6.69,119.13,6.83c40.72,0.14,81.32,5.22,122.04,6.06c24.94,0.51,50.04,0.17,74.84-3.08      c20.35-2.66,43.34-6.75,60.52-19.86c11.08-8.45,19.75-22.76,16.28-38.03c-2.5-10.97-9.63-20.08-12.31-31.06      c-5.18-21.18,4.98-41.59,21.51-52.62c19.66-13.11,44.35-14.59,66.68-16.88c37.39-3.84,74.06-12.79,111.72-15.6      c80.65-6.01,161.51-1.72,242.24-0.83c85.04,0.94,170.12,0.15,255.17,0.15c20.8,0,41.6,0.39,62.38-0.75      c14.16-0.78,28.86-1.98,42.76,1.89c7.73,2.15,20.53,6.18,22.85,15.48c3.84,15.39-6.38,26.63,5.37,41.81      c17.85,23.06,53.42,25.31,78.7,24.17c28.64-1.29,56.98-8.07,84.48-16.54c27.91-8.6,53.75-17.02,83.11-15.37      c34.93,1.97,69.12,10.33,104.14,4.21c31.4-5.49,60.96-18.93,91.71-27.33c35.66-9.74,71.35-8.45,107.84-8.5      c79.74-0.11,159.26-2.66,238.94-5.01c60.84-1.79,122.43,5.44,181.98,18.84c52.73,11.86,110.83,28.15,153.57,65.82      c15.15,13.36,29.58,31.53,37.86,51.27c53.25-5.13,81.74-8.32,81.74-8.32l-359.94-166.75H549.02l-35.12,17.31      C537.35,2471.23,561.87,2480.15,587.42,2484.8z" opacity=".22"/><path fill="#394ca4" d="M886.44 1125.27c0 23.14-17.74 34.62-33.44 36.6-5.91.72-9.8.72-17.23.72h-46.45v-123.78h47.8c6.25 0 8.95 0 14.86.71 19.25 2.51 30.06 15.43 30.06 31.57 0 11.3-5.57 19.91-17.06 24.22C879.68 1099.8 886.44 1110.2 886.44 1125.27zM819.73 1087.6h13.68c2.7 0 5.24-.18 7.43-.54 5.57-.9 9.46-3.95 9.46-11.3 0-7-3.55-10.41-9.29-11.3-2.19-.36-4.9-.53-7.6-.53h-13.68V1087.6zM854.69 1124.2c0-8.25-5.58-12.56-11.83-13.1-2.19-.18-4.9-.18-7.6-.18h-15.54v26.55h16.38c2.7 0 5.4 0 7.6-.18C849.11 1136.93 854.69 1132.27 854.69 1124.2zM1005.64 1108.23c0 6.28 0 10.05-.5 17.4-1.35 20.81-15.2 39.47-51.17 39.47s-49.82-18.66-51.17-39.47c-.5-7.35-.5-11.12-.5-17.4v-69.42h30.4v75.34c0 3.41 0 5.2.17 7.36.85 12.92 7.77 19.91 21.11 19.91s20.27-7 21.11-19.91c.17-2.15.17-3.95.17-7.36v-75.34h30.4V1108.23zM1112.53 1077.02h-30.4c-1.35-10.23-6.42-17.04-16.38-17.04-6.93 0-11.65 3.59-11.65 11.12 0 7.9 5.4 12.74 24.66 17.58 25.67 6.45 36.14 20.09 36.14 39.11 0 24.75-22.29 37.31-45.77 37.31-29.55 0-49.49-12.56-51.34-40.36h30.4c2.03 11.66 10.98 16.68 20.1 16.68 8.45 0 14.86-4.67 14.86-11.48 0-6.46-4.39-12.02-18.75-15.79-26.51-7-42.05-15.79-42.05-40.54 0-23.86 20.94-37.31 44.08-37.31C1097.15 1036.3 1109.99 1054.06 1112.53 1077.02zM1131.24 1162.59v-123.78h30.4v123.78H1131.24zM1256.04 1162.59l-42.39-81.8c1.01 12.56 1.01 23.5 1.01 30.68v51.12h-30.4v-123.78h37.83l44.25 85.39c-.84-12.56-1.01-25.3-1.01-32.47v-52.92h30.4v123.78H1256.04zM1407.67 1162.59h-89.34v-123.78h87.65v25.11h-57.25v24.04h53.88v25.11h-53.88v24.4h58.94V1162.59zM1513.2 1077.02h-30.4c-1.35-10.23-6.42-17.04-16.38-17.04-6.92 0-11.65 3.59-11.65 11.12 0 7.9 5.4 12.74 24.66 17.58 25.67 6.45 36.14 20.09 36.14 39.11 0 24.75-22.3 37.31-45.77 37.31-29.55 0-49.48-12.56-51.34-40.36h30.4c2.03 11.66 10.98 16.68 20.1 16.68 8.45 0 14.86-4.67 14.86-11.48 0-6.46-4.39-12.02-18.75-15.79-26.51-7-42.05-15.79-42.05-40.54 0-23.86 20.94-37.31 44.08-37.31C1497.83 1036.3 1510.67 1054.06 1513.2 1077.02zM1618.9 1077.02h-30.4c-1.35-10.23-6.42-17.04-16.38-17.04-6.93 0-11.66 3.59-11.66 11.12 0 7.9 5.4 12.74 24.66 17.58 25.67 6.45 36.14 20.09 36.14 39.11 0 24.75-22.3 37.31-45.77 37.31-29.55 0-49.49-12.56-51.34-40.36h30.4c2.02 11.66 10.98 16.68 20.1 16.68 8.45 0 14.86-4.67 14.86-11.48 0-6.46-4.39-12.02-18.75-15.79-26.51-7-42.05-15.79-42.05-40.54 0-23.86 20.94-37.31 44.08-37.31C1603.53 1036.3 1616.37 1054.06 1618.9 1077.02zM1791.46 1078.99c0 24.39-15.37 37.13-32.26 39.29-6.25.71-10.98.9-18.24.9h-13.51v43.41h-30.4v-123.78h43.91c7.26 0 11.99.18 18.24.9C1776.1 1041.86 1791.46 1054.59 1791.46 1078.99zM1759.72 1078.99c0-9.33-4.56-14.17-12.33-14.89-2.2-.18-4.9-.18-8.11-.18h-11.82v30.14h11.82c3.21 0 5.91 0 8.11-.18C1755.15 1093.16 1759.72 1088.32 1759.72 1078.99zM1895.13 1162.59h-89.34v-123.78h87.65v25.11h-57.25v24.04h53.88v25.11h-53.88v24.4h58.94V1162.59zM2013.33 1162.59h-33.1c-2.7-8.79-4.39-15.97-5.4-24.76-1.52-13.63-6.58-21.53-14.35-22.06-3.38-.18-6.25-.18-9.63-.18h-6.75v47h-30.4v-123.78h46.27c7.26 0 11.99.18 18.24.9 16.89 2.15 31.58 10.94 31.58 32.83 0 15.6-7.94 26.01-23.47 30.85 12.16 4.67 16.55 14.17 18.24 29.06C2006.07 1146.44 2008.77 1155.23 2013.33 1162.59zM1955.07 1092.27c3.21 0 5.91 0 8.11-.18 7.77-.72 14.86-3.59 14.86-13.99 0-10.41-6.25-13.28-14.02-13.99-2.2-.18-4.9-.18-8.11-.18h-11.82v28.34H1955.07zM2059.24 1087.96h52.19v25.11h-52.19v49.51h-30.4v-123.78h87.65v25.11h-57.25V1087.96zM2247.53 1100.69c0 39.65-23.31 64.4-59.62 64.4-36.31 0-59.62-24.76-59.62-64.4 0-39.82 23.31-64.4 59.62-64.4C2224.22 1036.3 2247.53 1060.87 2247.53 1100.69zM2216.45 1100.69c0-26.37-10.98-40.72-28.54-40.72-17.56 0-28.54 14.35-28.54 40.72 0 26.19 10.98 40.72 28.54 40.72C2205.47 1141.42 2216.45 1126.89 2216.45 1100.69zM2365.38 1162.59h-33.1c-2.7-8.79-4.39-15.97-5.4-24.76-1.52-13.63-6.59-21.53-14.36-22.06-3.38-.18-6.25-.18-9.63-.18h-6.75v47h-30.4v-123.78h46.27c7.26 0 11.99.18 18.24.9 16.89 2.15 31.58 10.94 31.58 32.83 0 15.6-7.94 26.01-23.48 30.85 12.16 4.67 16.55 14.17 18.24 29.06C2358.12 1146.44 2360.82 1155.23 2365.38 1162.59zM2307.11 1092.27c3.21 0 5.91 0 8.11-.18 7.77-.72 14.86-3.59 14.86-13.99 0-10.41-6.25-13.28-14.02-13.99-2.2-.18-4.9-.18-8.11-.18h-11.82v28.34H2307.11zM2514.14 1162.59h-30.4v-52.02c0-10.76 0-26.73.34-39.28-2.03 12.56-5.4 28.34-8.11 39.28l-12.84 52.02h-31.24l-13.01-52.02c-2.7-10.76-6.08-26.73-7.94-39.28.34 12.56.34 28.52.34 39.28v52.02h-30.4v-123.78h47.46l19.76 92.38 19.76-92.38h46.27V1162.59zM2565.95 1130.47l-9.79 32.11h-32.26l42.05-123.78h37.16l42.05 123.78h-33.1l-9.79-32.11H2565.95zM2573.39 1105.36h21.62l-10.81-38.03L2573.39 1105.36zM2727.89 1162.59l-42.39-81.8c1.01 12.56 1.01 23.5 1.01 30.68v51.12h-30.4v-123.78h37.83l44.25 85.39c-.85-12.56-1.01-25.3-1.01-32.47v-52.92h30.4v123.78H2727.89zM2896.07 1079.53l.17 1.79h-30.4l-.34-1.79c-2.53-13.27-10.14-19.55-22.46-19.55-14.52 0-25.5 12.92-25.5 39.64 0 31.22 12.16 41.8 25.67 41.8 11.82 0 19.42-7.71 21.95-21.35l.34-1.79h30.4l-.17 1.79c-2.87 29.78-24.32 45.03-53.54 45.03-31.25 0-56.41-21.53-56.41-63.51 0-43.05 26.01-65.3 57.59-65.3C2876.65 1036.3 2893.71 1055.13 2896.07 1079.53zM3003.45 1162.59h-89.34v-123.78h87.65v25.11h-57.25v24.04h53.88v25.11h-53.88v24.4h58.94V1162.59zM830.45 1260.59h44.25c3.43 0 6.21 2.95 6.21 6.59 0 3.65-2.78 6.59-6.21 6.59h-44.25c-3.43 0-6.21-2.95-6.21-6.59C824.24 1263.54 827.02 1260.59 830.45 1260.59zM915.25 1260.59h238.21c3.43 0 6.21 2.95 6.21 6.59 0 3.65-2.78 6.59-6.21 6.59H915.25c-3.43 0-6.21-2.95-6.21-6.59C909.05 1263.54 911.82 1260.59 915.25 1260.59zM2656.93 942.85h44.25c3.43 0 6.21 2.95 6.21 6.59 0 3.65-2.78 6.59-6.21 6.59h-44.25c-3.43 0-6.21-2.95-6.21-6.59C2650.73 945.8 2653.5 942.85 2656.93 942.85zM2741.74 942.85h238.21c3.43 0 6.21 2.95 6.21 6.59 0 3.65-2.78 6.59-6.21 6.59h-238.21c-3.43 0-6.21-2.95-6.21-6.59C2735.53 945.8 2738.31 942.85 2741.74 942.85z"/><g opacity=".55"><path fill="#4094f2" d="M2981.08,1327.32h-568.13c-19.88,0-36,17.12-36,38.24v831.82c0,21.12,16.12,38.24,36,38.24h568.13      c19.88,0,36-17.12,36-38.24v-831.82C3017.08,1344.44,3000.97,1327.32,2981.08,1327.32z"/><polygon fill="#394ca4" points="2580.62 1499.15 2580.46 1560.33 2531.1 1530.06 2531.26 1468.88"/><path fill="#5681f1" d="M2603.87,1549.6c0.71-0.27,1.43-0.52,2.14-0.78c2.43-0.88,4.93-1.67,7.42-2.46        c2.56-0.82,5.14-1.6,7.75-2.33c2.06-0.57,4.15-1.11,6.24-1.63c2.65-0.65,5.32-1.26,8.02-1.82c2.54-0.53,5.09-1.05,7.66-1.5        c1.17-0.2,2.34-0.41,3.51-0.6c4.18-0.66,8.39-1.25,12.64-1.7c0.09-0.01,0.19-0.01,0.28-0.02c4.19-0.44,8.4-0.74,12.63-0.97        c0.85-0.05,1.7-0.1,2.56-0.14c2.17-0.09,4.34-0.09,6.52-0.13c3.16-0.06,6.33-0.1,9.49-0.05c2.17,0.04,4.33,0.14,6.49,0.23        c2.84,0.12,5.67,0.27,8.49,0.48c2.21,0.17,4.41,0.38,6.6,0.61c2.78,0.29,5.54,0.61,8.3,0.99c2.15,0.29,4.28,0.62,6.41,0.97        c2.96,0.48,5.89,1.03,8.81,1.63c2.54,0.51,5.07,1.01,7.57,1.61c0.81,0.19,1.61,0.38,2.41,0.58c3.89,0.97,7.74,2.04,11.52,3.21        c1.01,0.31,1.99,0.66,2.99,0.99c3.01,0.98,5.98,2.02,8.9,3.13c1.15,0.44,2.3,0.87,3.44,1.33c2.73,1.09,5.38,2.27,8.02,3.48        c1.22,0.56,2.47,1.09,3.66,1.67c3.71,1.81,7.34,3.7,10.84,5.74l0.16-61.18c-3.49-2.04-7.13-3.93-10.83-5.74        c-1.2-0.58-2.45-1.11-3.67-1.67c-1.84-0.84-3.65-1.73-5.53-2.52c-0.81-0.34-1.66-0.63-2.49-0.96        c-1.14-0.46-2.28-0.9-3.44-1.33c-2.93-1.11-5.9-2.16-8.91-3.14c-0.99-0.33-1.97-0.67-2.97-0.98        c-0.43-0.13-0.85-0.29-1.28-0.42c-3.36-1.02-6.79-1.93-10.24-2.79c-0.81-0.2-1.61-0.39-2.42-0.58        c-1.28-0.3-2.54-0.63-3.82-0.92c-1.23-0.27-2.5-0.44-3.74-0.69c-2.92-0.59-5.85-1.14-8.81-1.62        c-1.05-0.17-2.07-0.42-3.13-0.58c-1.09-0.17-2.2-0.24-3.29-0.39c-2.75-0.38-5.51-0.7-8.29-0.98c-1.27-0.13-2.52-0.34-3.8-0.45        c-0.93-0.08-1.88-0.09-2.82-0.16c-2.82-0.22-5.65-0.36-8.48-0.48c-1.43-0.06-2.84-0.21-4.27-0.24        c-0.74-0.02-1.49,0.02-2.23,0.01c-3.16-0.06-6.31-0.01-9.48,0.05c-1.48,0.03-2.97-0.03-4.45,0.02        c-0.69,0.02-1.38,0.08-2.08,0.11c-0.85,0.04-1.7,0.09-2.56,0.14c-4.24,0.23-8.46,0.53-12.66,0.97        c-0.08,0.01-0.17,0.01-0.25,0.02c-0.03,0-0.06,0.01-0.08,0.01c-4.22,0.45-8.4,1.04-12.56,1.7c-1.18,0.19-2.34,0.39-3.51,0.6        c-1.4,0.24-2.82,0.45-4.21,0.71c-1.17,0.22-2.29,0.54-3.45,0.78c-2.69,0.56-5.36,1.16-8.02,1.82        c-2.1,0.52-4.18,1.05-6.24,1.63c-2.62,0.73-5.19,1.51-7.75,2.33c-1.22,0.39-2.49,0.7-3.69,1.11c-1.26,0.43-2.48,0.9-3.72,1.35        c-0.72,0.26-1.43,0.51-2.14,0.78c-3.67,1.38-7.28,2.87-10.79,4.45c-0.67,0.3-1.32,0.61-1.98,0.92        c-3.63,1.69-7.2,3.45-10.63,5.36l-0.16,61.18c3.44-1.91,7.01-3.68,10.64-5.37c0.66-0.31,1.31-0.62,1.97-0.92        C2596.59,1552.46,2600.19,1550.98,2603.87,1549.6z"/><polygon fill="#2c3b7f" points="2844.33 1470.7 2844.17 1531.88 2795.17 1562.12 2795.34 1500.94"/><path fill="#f2faff" d="M2531.26,1468.88c88.03-50.55,225.69-49.94,313.08,1.81l-49,30.25c-60.13-35.06-153.8-35.66-214.71-1.79         L2531.26,1468.88z"/><path fill="#4094f2" d="M2528.96,1624.85c0.11-0.89,0.25-1.79,0.4-2.68c0.11-0.65,0.22-1.29,0.36-1.94        c0.18-0.89,0.39-1.77,0.61-2.65c0.16-0.63,0.31-1.27,0.49-1.9c0.26-0.91,0.55-1.81,0.85-2.72c0.2-0.59,0.38-1.19,0.59-1.78        c0.4-1.1,0.84-2.19,1.3-3.28c0.18-0.42,0.33-0.85,0.52-1.27c0.67-1.51,1.4-3.01,2.19-4.5c0.11-0.21,0.25-0.42,0.36-0.63        c0.73-1.34,1.5-2.68,2.33-4c0.32-0.51,0.66-1.02,1-1.52c0.67-1.03,1.37-2.05,2.1-3.07c0.37-0.51,0.75-1.01,1.13-1.52        c1.13-1.5,2.33-2.99,3.59-4.46c0.19-0.22,0.37-0.45,0.57-0.68c1.45-1.66,3.01-3.29,4.63-4.9c0.65-0.64,1.31-1.28,1.98-1.92        c0.53-0.5,1.06-1.01,1.6-1.5c0.8-0.73,1.63-1.44,2.46-2.15c0.54-0.46,1.07-0.93,1.63-1.39c0.94-0.77,1.92-1.54,2.9-2.3        c0.5-0.38,0.97-0.77,1.48-1.15c1.51-1.13,3.06-2.25,4.66-3.35l0.16-61.18c-1.6,1.1-3.15,2.22-4.66,3.35        c-0.5,0.38-0.98,0.77-1.48,1.15c-0.98,0.76-1.96,1.52-2.9,2.3c-0.56,0.46-1.09,0.93-1.63,1.39c-0.83,0.71-1.67,1.43-2.47,2.15        c-0.55,0.5-1.08,1-1.61,1.51c-0.5,0.47-1.02,0.93-1.5,1.4c-0.17,0.17-0.31,0.34-0.48,0.5c-1.62,1.62-3.18,3.25-4.64,4.91        c-0.2,0.23-0.37,0.45-0.57,0.68c-1.27,1.47-2.46,2.96-3.59,4.46c-0.18,0.24-0.4,0.47-0.58,0.71c-0.2,0.26-0.36,0.54-0.55,0.8        c-0.73,1.01-1.43,2.04-2.1,3.07c-0.33,0.51-0.68,1.01-1,1.52c-0.82,1.33-1.6,2.66-2.33,4c-0.1,0.18-0.22,0.36-0.32,0.55        c-0.01,0.03-0.02,0.06-0.04,0.08c-0.79,1.49-1.51,2.99-2.18,4.49c-0.19,0.43-0.35,0.86-0.53,1.29        c-0.45,1.08-0.9,2.16-1.29,3.25c-0.05,0.15-0.12,0.29-0.18,0.44c-0.16,0.45-0.27,0.9-0.42,1.35c-0.3,0.9-0.59,1.81-0.85,2.71        c-0.18,0.63-0.33,1.26-0.49,1.89c-0.22,0.88-0.43,1.76-0.61,2.65c-0.06,0.29-0.14,0.57-0.2,0.85        c-0.07,0.36-0.1,0.72-0.16,1.08c-0.15,0.89-0.29,1.79-0.4,2.68c-0.08,0.65-0.16,1.29-0.22,1.94c-0.08,0.9-0.14,1.81-0.18,2.72        c-0.02,0.41-0.07,0.82-0.08,1.22c-0.01,0.49-0.02,0.98-0.02,1.47l-0.16,61.18c0-0.9,0.06-1.8,0.1-2.69        c0.04-0.91,0.1-1.81,0.18-2.71C2528.81,1626.14,2528.88,1625.49,2528.96,1624.85z"/><polygon fill="#5681f1" points="2572.47 1638.51 2572.3 1699.69 2523.3 1729.94 2523.46 1668.76"/><defs><path id="b" d="M2458.94,1631.99l0.16-61.18c-0.09,35.3,21.37,70.66,64.36,97.95l-0.16,61.18          C2480.31,1702.65,2458.85,1667.29,2458.94,1631.99z" enable-background="new"/></defs><clipPath id="c"><use overflow="visible" xlink:href="#b"/></clipPath><g clip-path="url(#c)"><path fill="#4094f2" d="M2523.46,1668.76l-0.16,61.18c-42.99-27.29-64.45-62.65-64.36-97.95l0.16-61.18          C2459.01,1606.11,2480.47,1641.47,2523.46,1668.76"/></g><path fill="#f2faff" d="M2568.84,1506.42c-54.85,37.59-53.56,95.22,3.62,132.08l-49.01,30.25         c-84.41-53.59-85.84-138.28-3.98-192.61L2568.84,1506.42z"/><defs><path id="d" d="M2844.95,1571.98l-0.16,61.18c0.06-22.64-12.64-45.31-38.08-63.57l0.16-61.18          C2832.31,1526.67,2845.01,1549.34,2844.95,1571.98z" enable-background="new"/></defs><clipPath id="e"><use overflow="visible" xlink:href="#d"/></clipPath><g clip-path="url(#e)"><path fill="#394ca4" d="M2844.95,1571.98l-0.16,61.18c0.06-22.64-12.64-45.31-38.08-63.57l0.16-61.18          C2832.31,1526.67,2845.01,1549.34,2844.95,1571.98"/></g><defs><path id="f" d="M2914.47,1572.19l-0.16,61.18c-0.09,34.02-20.21,68-60.39,94.66l0.16-61.18          C2894.26,1640.19,2914.38,1606.21,2914.47,1572.19z" enable-background="new"/></defs><clipPath id="g"><use overflow="visible" xlink:href="#f"/></clipPath><path fill="#100959" d="M2914.43,1574.33c-0.13,4.63-0.62,9.26-1.49,13.86c-0.86,4.56-2.09,9.11-3.68,13.61         c-1.64,4.64-3.66,9.23-6.07,13.76c-2.59,4.88-5.63,9.68-9.12,14.39c-4.11,5.55-8.83,10.96-14.18,16.2         c-7.41,7.26-16.01,14.2-25.81,20.7l-0.16,61.18c9.79-6.5,18.4-13.43,25.81-20.7c5.35-5.24,10.08-10.66,14.18-16.2         c3.49-4.71,6.53-9.51,9.12-14.39c2.41-4.53,4.43-9.13,6.07-13.76c1.59-4.5,2.82-9.05,3.68-13.61         c0.87-4.6,1.37-9.23,1.49-13.86c0.02-0.71,0.03-1.43,0.03-2.14l0.16-61.18C2914.47,1572.9,2914.45,1573.62,2914.43,1574.33z" clip-path="url(#g)"/><polygon fill="#394ca4" points="2854.08 1666.85 2853.92 1728.03 2804.55 1697.76 2804.72 1636.58"/><path fill="#5681f1" d="M2804.72,1636.58c52.94-36.28,53.61-91.23,2.15-128.17l49.11-30.31         c78.57,53.73,78.05,135.72-1.89,188.76L2804.72,1636.58z"/><path fill="#100959" d="M2811.46,1750.06c2.58-1.04,5.14-2.11,7.67-3.22c1.14-0.5,2.27-1.01,3.4-1.53        c2.37-1.08,4.72-2.21,7.04-3.36c1.01-0.5,2.03-0.99,3.03-1.5c3.24-1.66,6.43-3.37,9.55-5.16l0.16-61.18        c-3.12,1.79-6.32,3.5-9.56,5.16c-0.99,0.51-2,0.99-3.01,1.49c-2.33,1.16-4.68,2.28-7.06,3.37c-1.12,0.51-2.24,1.02-3.38,1.52        c-2.53,1.11-5.09,2.18-7.68,3.22c-0.9,0.36-1.79,0.74-2.7,1.1c-3.48,1.36-7,2.65-10.56,3.88c-1.02,0.35-2.07,0.68-3.1,1.02        c-2.24,0.74-4.49,1.48-6.76,2.18c-1.3,0.39-2.61,0.76-3.91,1.14c-2.05,0.6-4.1,1.19-6.18,1.74c-1.41,0.38-2.83,0.73-4.25,1.09        c-2,0.51-4.01,1-6.04,1.48c-1.46,0.34-2.94,0.67-4.41,0.99c-2.02,0.44-4.04,0.86-6.07,1.27c-1.33,0.27-2.67,0.52-4.01,0.77        c-4.13,0.77-8.27,1.49-12.45,2.11c-0.13,0.02-0.26,0.04-0.39,0.06c-4.3,0.63-8.64,1.16-12.98,1.64        c-1.29,0.14-2.58,0.27-3.87,0.4c-2.58,0.26-5.17,0.48-7.76,0.68c-1.34,0.1-2.67,0.21-4.01,0.3c-2.94,0.2-5.89,0.35-8.84,0.47        c-0.95,0.04-1.9,0.1-2.86,0.14c-3.67,0.13-7.35,0.21-11.02,0.23c-0.36,0-0.72-0.01-1.08-0.01c-3.32,0.01-6.65-0.03-9.97-0.11        c-1.35-0.03-2.69-0.1-4.03-0.15c-2.25-0.08-4.51-0.16-6.75-0.28c-1.48-0.08-2.95-0.18-4.42-0.28        c-2.11-0.14-4.22-0.28-6.33-0.46c-1.54-0.13-3.07-0.28-4.6-0.42c-2.04-0.2-4.08-0.4-6.11-0.63c-1.55-0.18-3.1-0.37-4.65-0.56        c-2.01-0.25-4.02-0.52-6.02-0.81c-1.51-0.22-3.03-0.45-4.53-0.68c-2.15-0.34-4.29-0.7-6.43-1.08        c-1.44-0.25-2.89-0.51-4.33-0.78c-2.2-0.42-4.4-0.87-6.58-1.33c-1.32-0.28-2.64-0.54-3.95-0.84        c-3.73-0.83-7.43-1.71-11.1-2.66c-0.06-0.01-0.12-0.03-0.18-0.05c-3.6-0.94-7.16-1.95-10.69-3.01        c-0.93-0.28-1.84-0.58-2.76-0.86c-3.51-1.09-6.99-2.24-10.43-3.44c-0.89-0.31-1.78-0.61-2.66-0.93        c-4-1.45-7.95-2.98-11.84-4.59c-0.89-0.37-1.75-0.76-2.63-1.13c-2.85-1.22-5.67-2.49-8.45-3.8c-1.01-0.47-2.02-0.95-3.01-1.43        c-3.52-1.72-7-3.48-10.4-5.35l-0.17,61.18c3.39,1.86,6.87,3.63,10.39,5.35c1,0.49,2.02,0.96,3.03,1.44        c2.77,1.31,5.58,2.57,8.42,3.78c0.62,0.27,1.21,0.57,1.84,0.83c0.27,0.11,0.55,0.21,0.81,0.32c3.88,1.61,7.82,3.14,11.82,4.59        c0.89,0.32,1.78,0.62,2.67,0.93c3.44,1.21,6.91,2.35,10.42,3.44c0.59,0.18,1.15,0.4,1.74,0.58c0.34,0.1,0.68,0.18,1.01,0.28        c3.53,1.06,7.09,2.07,10.7,3.01c0.06,0.02,0.12,0.03,0.18,0.05c3.66,0.95,7.36,1.83,11.09,2.66c0.33,0.07,0.66,0.17,0.99,0.24        c0.99,0.22,2,0.4,3,0.6c2.17,0.46,4.35,0.91,6.54,1.32c1.44,0.27,2.9,0.53,4.35,0.78c2.13,0.38,4.27,0.74,6.42,1.08        c0.73,0.12,1.45,0.26,2.17,0.37c0.78,0.12,1.58,0.2,2.36,0.32c2,0.29,4.01,0.56,6.02,0.81c1.55,0.2,3.09,0.39,4.64,0.56        c2.03,0.23,4.07,0.43,6.11,0.63c1.01,0.1,2,0.22,3.01,0.31c0.53,0.05,1.06,0.07,1.59,0.12c2.1,0.17,4.21,0.32,6.32,0.45        c1.48,0.1,2.96,0.21,4.45,0.29c2.24,0.12,4.48,0.2,6.72,0.28c1.12,0.04,2.23,0.11,3.35,0.14c0.23,0.01,0.47,0,0.71,0.01        c3.32,0.08,6.65,0.11,9.97,0.11c0.36,0,0.72,0.01,1.08,0.01c3.68-0.02,7.36-0.1,11.03-0.23c0.18-0.01,0.37-0.01,0.55-0.01        c0.76-0.03,1.52-0.09,2.27-0.12c2.95-0.13,5.91-0.28,8.85-0.47c1.34-0.09,2.68-0.2,4.03-0.3c2.59-0.2,5.17-0.43,7.75-0.68        c0.77-0.08,1.55-0.12,2.32-0.21c0.52-0.05,1.03-0.14,1.55-0.2c4.34-0.48,8.67-1.01,12.97-1.64c0.15-0.02,0.29-0.05,0.44-0.07        c4.17-0.62,8.3-1.33,12.42-2.1c0.54-0.1,1.09-0.17,1.63-0.28c0.8-0.15,1.58-0.34,2.37-0.5c2.04-0.41,4.07-0.83,6.09-1.27        c1.47-0.32,2.93-0.65,4.38-0.98c2.03-0.47,4.04-0.97,6.05-1.48c1.42-0.36,2.84-0.71,4.25-1.09c2.07-0.55,4.12-1.14,6.16-1.74        c1.31-0.38,2.63-0.75,3.94-1.15c2.25-0.69,4.48-1.42,6.7-2.16c0.91-0.3,1.85-0.57,2.75-0.89c0.14-0.05,0.27-0.1,0.4-0.15        c3.57-1.23,7.08-2.52,10.56-3.87C2809.67,1750.81,2810.55,1750.43,2811.46,1750.06z"/><path fill="#394ca4" d="M2584.63,1645.58c60.21,31.54,149.51,30.95,208.31-1.73l49.36,30.27         c-85.93,49.35-219.18,49.93-306.78,1.77L2584.63,1645.58z"/><path fill="#f2faff" d="M2484.2 1910.08h81.29c5.28 0 9.57-4.55 9.57-10.16s-4.28-10.16-9.57-10.16h-81.29c-5.28 0-9.56 4.55-9.56 10.16S2478.92 1910.08 2484.2 1910.08zM2601.09 1910.08h145.05c5.28 2.67 9.56-1.87 9.56-7.48 0-5.61-4.28-10.16-9.56-10.16h-145.05c-5.28 0-9.56 4.55-9.56 10.16C2591.53 1908.21 2595.81 1912.76 2601.09 1910.08zM2899.44 1889.77h-117.69c-5.28 0-9.56 4.55-9.56 10.16s4.28 10.16 9.56 10.16h117.69c5.28 0 9.56-4.55 9.56-10.16S2904.72 1889.77 2899.44 1889.77zM2670.7 1947.33h-186.5c-5.28 0-9.56 4.55-9.56 10.16 0 5.61 4.28 10.16 9.56 10.16h186.5c5.28 0 9.56-4.55 9.56-10.16C2680.26 1951.88 2675.98 1947.33 2670.7 1947.33zM2869.95 1947.33H2706.3c-5.28 0-9.57 4.55-9.57 10.16 0 5.61 4.28 10.16 9.57 10.16h163.65c5.28 0 9.56-4.55 9.56-10.16C2879.51 1951.88 2875.23 1947.33 2869.95 1947.33z"/><g><path fill="#4094f2" d="M2238.98,1327.32H858.34c-48.32,0-87.48,41.6-87.48,92.92v713.19c0,51.32,39.17,92.91,87.48,92.91h1380.64       c48.32,0,87.48-41.6,87.48-92.91v-713.19C2326.46,1368.92,2287.3,1327.32,2238.98,1327.32z"/><rect width="70.38" height="321.76" x="926.06" y="1723.57" fill="#f2faff"/><rect width="70.38" height="366.55" x="1000.84" y="1678.79" fill="#c8d9fb"/><rect width="70.38" height="435.33" x="1156.99" y="1610.01" fill="#f2faff"/><rect width="70.38" height="495.91" x="1231.77" y="1549.42" fill="#c8d9fb"/><rect width="70.38" height="481.92" x="1603.47" y="1563.42" fill="#f2faff"/><rect width="70.38" height="548.99" x="1678.25" y="1496.34" fill="#c8d9fb"/><rect width="70.38" height="202.38" x="1381.33" y="1842.96" fill="#f2faff"/><rect width="70.38" height="230.54" x="1456.11" y="1814.79" fill="#c8d9fb"/><path fill="#f2faff" d="M1858.98 1713.29h64.11c4.17 0 7.54-3.59 7.54-8.01s-3.38-8.01-7.54-8.01h-64.11c-4.16 0-7.54 3.59-7.54 8.01S1854.82 1713.29 1858.98 1713.29zM1951.16 1713.29h114.39c4.17 2.11 7.54-1.48 7.54-5.9 0-4.42-3.38-8.01-7.54-8.01h-114.39c-4.17 0-7.54 3.59-7.54 8.01C1943.62 1711.82 1946.99 1715.4 1951.16 1713.29zM2186.43 1697.27h-92.81c-4.17 0-7.54 3.59-7.54 8.01s3.38 8.01 7.54 8.01h92.81c4.16 0 7.54-3.59 7.54-8.01S2190.59 1697.27 2186.43 1697.27zM2006.05 1742.67h-147.07c-4.16 0-7.54 3.59-7.54 8.01 0 4.43 3.38 8.01 7.54 8.01h147.07c4.17 0 7.54-3.59 7.54-8.01C2013.59 1746.25 2010.21 1742.67 2006.05 1742.67zM2163.17 1742.67h-129.05c-4.17 0-7.54 3.59-7.54 8.01 0 4.43 3.38 8.01 7.54 8.01h129.05c4.17 0 7.54-3.59 7.54-8.01C2170.72 1746.25 2167.34 1742.67 2163.17 1742.67zM1858.98 1848.81h64.11c4.17 0 7.54-3.59 7.54-8.01 0-4.43-3.38-8.01-7.54-8.01h-64.11c-4.16 0-7.54 3.59-7.54 8.01C1851.44 1845.23 1854.82 1848.81 1858.98 1848.81zM1951.16 1848.81h114.39c4.17 2.11 7.54-1.48 7.54-5.9s-3.38-8.01-7.54-8.01h-114.39c-4.17 0-7.54 3.59-7.54 8.01S1946.99 1850.92 1951.16 1848.81zM2186.43 1832.79h-92.81c-4.17 0-7.54 3.59-7.54 8.01 0 4.42 3.38 8.01 7.54 8.01h92.81c4.16 0 7.54-3.59 7.54-8.01C2193.97 1836.38 2190.59 1832.79 2186.43 1832.79zM2006.05 1878.19h-147.07c-4.16 0-7.54 3.59-7.54 8.01s3.38 8.01 7.54 8.01h147.07c4.17 0 7.54-3.59 7.54-8.01S2010.21 1878.19 2006.05 1878.19zM2163.17 1878.19h-129.05c-4.17 0-7.54 3.59-7.54 8.01s3.38 8.01 7.54 8.01h129.05c4.17 0 7.54-3.59 7.54-8.01S2167.34 1878.19 2163.17 1878.19z"/><g><path fill="#f2faff" d="M1858.98 1984.33h64.11c4.17 0 7.54-3.59 7.54-8.01 0-4.42-3.38-8.01-7.54-8.01h-64.11c-4.16 0-7.54 3.59-7.54 8.01C1851.44 1980.75 1854.82 1984.33 1858.98 1984.33zM1951.16 1984.33h114.39c4.17 2.11 7.54-1.48 7.54-5.9 0-4.43-3.38-8.01-7.54-8.01h-114.39c-4.17 0-7.54 3.59-7.54 8.01C1943.62 1982.85 1946.99 1986.44 1951.16 1984.33zM2186.43 1968.31h-92.81c-4.17 0-7.54 3.59-7.54 8.01 0 4.43 3.38 8.01 7.54 8.01h92.81c4.16 0 7.54-3.59 7.54-8.01C2193.97 1971.9 2190.59 1968.31 2186.43 1968.31zM2006.05 2013.7h-147.07c-4.16 0-7.54 3.59-7.54 8.01 0 4.42 3.38 8.01 7.54 8.01h147.07c4.17 0 7.54-3.59 7.54-8.01C2013.59 2017.29 2010.21 2013.7 2006.05 2013.7zM2163.17 2013.7h-129.05c-4.17 0-7.54 3.59-7.54 8.01 0 4.42 3.38 8.01 7.54 8.01h129.05c4.17 0 7.54-3.59 7.54-8.01C2170.72 2017.29 2167.34 2013.7 2163.17 2013.7z"/></g><g><path fill="#fff" d="M1440.71,1713.3c-1.67,0.52-3.06-0.76-4.03-2.06l-210.5-280.12l-229.15,163.97        c-2.35,1.68-5.58,1.04-7.16-1.48c-1.59-2.51-0.97-5.92,1.4-7.61l233.1-166.79c2.23-1.6,5.24-1.1,6.92,1.12l209.47,278.75        l221.61-289.9c1.79-2.36,5.05-2.72,7.26-0.8c2.21,1.91,2.55,5.36,0.76,7.71l-225.65,295.19        C1443.73,1712.56,1442.26,1713.3,1440.71,1713.3z"/><polygon fill="#fff" points="1666.98 1441.31 1664.44 1415.15 1639.8 1417.87 1649.18 1405.61 1673.8 1402.9 1676.36 1429.05"/></g></g><g><path fill="#f2faff" d="M2484.2 2087.44h81.29c5.28 0 9.57-4.55 9.57-10.16s-4.28-10.16-9.57-10.16h-81.29c-5.28 0-9.56 4.55-9.56 10.16S2478.92 2087.44 2484.2 2087.44zM2601.09 2087.44h145.05c5.28 2.67 9.56-1.88 9.56-7.49 0-5.61-4.28-10.16-9.56-10.16h-145.05c-5.28 0-9.56 4.55-9.56 10.16C2591.53 2085.56 2595.81 2090.11 2601.09 2087.44zM2899.44 2067.12h-117.69c-5.28 0-9.56 4.55-9.56 10.16s4.28 10.16 9.56 10.16h117.69c5.28 0 9.56-4.55 9.56-10.16S2904.72 2067.12 2899.44 2067.12zM2670.7 2124.68h-186.5c-5.28 0-9.56 4.55-9.56 10.16 0 5.61 4.28 10.16 9.56 10.16h186.5c5.28 0 9.56-4.55 9.56-10.16C2680.26 2129.23 2675.98 2124.68 2670.7 2124.68zM2869.95 2124.68H2706.3c-5.28 0-9.57 4.55-9.57 10.16 0 5.61 4.28 10.16 9.57 10.16h163.65c5.28 0 9.56-4.55 9.56-10.16C2879.51 2129.23 2875.23 2124.68 2869.95 2124.68z"/></g><g><path fill="#c8d9fb" d="M1865.38,1616.11c-13.05,0-23.66-10.87-23.66-24.22v-47.31c0-13.36,10.61-24.23,23.66-24.23h46.22        c13.04,0,23.65,10.87,23.65,24.23v47.31c0,13.36-10.61,24.22-23.65,24.22H1865.38z"/><path fill="#fff" d="M1929.67,1544.57v47.31c0,10.23-8.09,18.51-18.07,18.51h-46.22c-9.98,0-18.08-8.28-18.08-18.51v-47.31        c0-10.22,8.1-18.51,18.08-18.51h46.22C1921.58,1526.06,1929.67,1534.35,1929.67,1544.57z"/><path fill="#c8d9fb" d="M1909.56,1605.1c0,1.8-0.11,3.56-0.31,5.29h-43.87c-9.98,0-18.08-8.28-18.08-18.51v-24.34        c6.02-3.42,12.95-5.37,20.33-5.37c10.2,0,19.55,3.73,26.82,9.93C1903.68,1579.97,1909.56,1591.83,1909.56,1605.1z"/><path fill="#4094f2" d="M1929.67,1564.34v27.54c0,10.23-8.09,18.51-18.07,18.51h-24.02c-1.9-4.3-2.96-9.07-2.96-14.09        c0-9.46,3.76-18.02,9.83-24.2c6.03-6.14,14.33-9.93,23.5-9.93C1922.07,1562.17,1926.02,1562.94,1929.67,1564.34z"/><path fill="#c8d9fb" d="M1904.97 1547.42c0 4.66-3.69 8.44-8.24 8.44-4.55 0-8.24-3.78-8.24-8.44 0-4.66 3.69-8.44 8.24-8.44C1901.28 1538.98 1904.97 1542.76 1904.97 1547.42zM1989.98 1616.11c-13.05 0-23.66-10.87-23.66-24.22v-47.31c0-13.36 10.61-24.23 23.66-24.23h46.22c13.04 0 23.65 10.87 23.65 24.23v47.31c0 13.36-10.61 24.22-23.65 24.22H1989.98z"/><path fill="#fff" d="M2054.27,1544.57v47.31c0,10.23-8.09,18.51-18.07,18.51h-46.22c-9.98,0-18.08-8.28-18.08-18.51v-47.31        c0-10.22,8.1-18.51,18.08-18.51h46.22C2046.18,1526.06,2054.27,1534.35,2054.27,1544.57z"/><path fill="#c8d9fb" d="M2034.16,1605.1c0,1.8-0.11,3.56-0.31,5.29h-43.87c-9.98,0-18.08-8.28-18.08-18.51v-24.34        c6.02-3.42,12.95-5.37,20.33-5.37c10.2,0,19.55,3.73,26.82,9.93C2028.28,1579.97,2034.16,1591.83,2034.16,1605.1z"/><path fill="#4094f2" d="M2054.27,1564.34v27.54c0,10.23-8.09,18.51-18.07,18.51h-24.02c-1.9-4.3-2.96-9.07-2.96-14.09        c0-9.46,3.76-18.02,9.83-24.2c6.03-6.14,14.33-9.93,23.5-9.93C2046.67,1562.17,2050.62,1562.94,2054.27,1564.34z"/><path fill="#c8d9fb" d="M2029.57,1547.42c0,4.66-3.69,8.44-8.24,8.44c-4.55,0-8.24-3.78-8.24-8.44c0-4.66,3.69-8.44,8.24-8.44        C2025.88,1538.98,2029.57,1542.76,2029.57,1547.42z"/><g><path fill="#c8d9fb" d="M2114.58,1616.11c-13.04,0-23.66-10.87-23.66-24.22v-47.31c0-13.36,10.61-24.23,23.66-24.23h46.22        c13.04,0,23.65,10.87,23.65,24.23v47.31c0,13.36-10.61,24.22-23.65,24.22H2114.58z"/><path fill="#fff" d="M2178.87,1544.57v47.31c0,10.23-8.09,18.51-18.07,18.51h-46.22c-9.98,0-18.08-8.28-18.08-18.51v-47.31        c0-10.22,8.1-18.51,18.08-18.51h46.22C2170.78,1526.06,2178.87,1534.35,2178.87,1544.57z"/><path fill="#c8d9fb" d="M2158.77,1605.1c0,1.8-0.11,3.56-0.31,5.29h-43.87c-9.98,0-18.08-8.28-18.08-18.51v-24.34        c6.02-3.42,12.95-5.37,20.33-5.37c10.2,0,19.55,3.73,26.82,9.93C2152.88,1579.97,2158.77,1591.83,2158.77,1605.1z"/><path fill="#4094f2" d="M2178.87,1564.34v27.54c0,10.23-8.09,18.51-18.07,18.51h-24.02c-1.9-4.3-2.96-9.07-2.96-14.09        c0-9.46,3.76-18.02,9.83-24.2c6.03-6.14,14.33-9.93,23.5-9.93C2171.28,1562.17,2175.22,1562.94,2178.87,1564.34z"/><path fill="#c8d9fb" d="M2154.18,1547.42c0,4.66-3.69,8.44-8.24,8.44c-4.55,0-8.24-3.78-8.24-8.44c0-4.66,3.69-8.44,8.24-8.44        C2150.49,1538.98,2154.18,1542.76,2154.18,1547.42z"/></g></g></g><polygon fill="#f2faff" points="2056.63 786.75 1143.53 2442.26 965.38 2442.26 1878.48 786.75" opacity=".5"/><polygon fill="#f2faff" points="1784.2 786.75 871.17 2442.26 544.91 2442.26 544.91 2197.88 1323.14 786.75" opacity=".5"/><path fill="#f2faff" d="M3222.32,825.22l-891.87,1617.04H2152.3l913.1-1655.51h93.58C3185.2,786.75,3208.44,802.01,3222.32,825.22      z" opacity=".5"/><polygon fill="#f2faff" points="2971.11 786.75 2058.09 2442.26 1597.03 2442.26 2510.06 786.75" opacity=".5"/><path fill="#394ca4" d="M3075.58,2369.7c0,0-24.04-174.55,23.83-157.32C3147.29,2229.61,3125.31,2299.56,3075.58,2369.7z"/><path fill="#f2faff" d="M3075.75,2241.45c2.44-1.91,3.35-5.33,4.45-8.09c1.29-3.22,2.73-6.36,5.24-8.83       c3.09-3.04,7.03-4.68,11.28-5.27c4.09-0.56,8.45-0.05,12.41-1.33c0.16-0.05,0.26-0.16,0.42-0.22       c-2.99-2.07-6.26-3.93-10.15-5.34c-15.43-5.55-23.37,8.86-27.07,30.89C3073.58,2242.79,3074.77,2242.21,3075.75,2241.45z" opacity=".2"/><path fill="#202234" d="M3121.44,2242.68c-0.19,13.02-0.74,25.84-4.67,38.37c-1.65,5.26-3.66,10.54-5.9,15.58       c-1.76,3.96-4.07,7.98-7.77,10.42c-7.99,5.28-17.39-0.12-23.07-6.24c-3.5-3.76-6.49-8.5-10.45-11.63       c0.43,40.04,5.98,80.51,5.98,80.51c37.8-53.31,59.36-106.37,46.58-136.38C3121.5,2236.39,3121.49,2239.68,3121.44,2242.68z" opacity=".15"/><path fill="#100959" d="M3072.42,2368.02c0,0,97.91-172.18,165.45-112.97C3305.41,2314.25,3072.42,2368.02,3072.42,2368.02z"/><path fill="#f2faff" d="M3137.51,2282.11c2.72,0.39,5.54,0.59,8.29,0.54c0.17,0,0.34-0.01,0.51-0.01       c-0.25-0.07,2.37-0.52,2.76-0.66c2.73-0.96,5-2.57,7.11-4.51c4.13-3.79,7.57-8.09,12.48-10.96c10.85-6.34,24.11-7.5,36.19-9.9       c5.35-1.06,14.53-1.48,16.74-7.5c0.45-1.24,0.45-2.46,0.22-3.64c-27.73-10.11-58.53,9.84-84.94,36.51       C3137.08,2282.01,3137.29,2282.08,3137.51,2282.11z" opacity=".2"/><path fill="#202234" d="M3235.44,2299.24c-9.07,6.04-19.16,9.38-30.05,9.56c-5.68,0.09-11.55-0.39-17.14,0.87       c-5.61,1.27-9.67,4.29-13.44,8.51c-7.03,7.88-13.57,14.82-23.5,18.97c-10.36,4.34-21.74,5.07-32.85,4.76       c-4.51-0.13-8.86-0.68-13.33-1.16c-3.41-0.36-7.93-1.01-11.11,0.73c-4.11,2.25-4.09,9.25-3.37,13.22       c0.51,2.81,1.59,5.48,3.09,7.88c46.79-12.61,154.43-45.77,156.34-84.38C3246.91,2286.55,3243.51,2293.87,3235.44,2299.24z" opacity=".15"/><path fill="#4094f2" d="M3210.18,2462.87h-845.23l12.12-42.25l28.51-100.08c20.2-70.65,90.38-114.86,162.88-102.51l36.59,6.35        c2.77,0.46,5.43,0.69,8.08,0.69c16.16,0,31.51-8.08,40.63-21.82c62.8-94.19,204.78-82.53,251.41,20.67l6.23,13.85        c11,24.44,39.7,35.36,64.16,24.42l36.49-16.34c21.36-9.58,45.14-2.42,58.29,14.43c4.85,6.12,8.31,13.51,9.7,21.82l5.42,31.63        c1.39,7.85,4.39,14.78,8.66,20.55c0.81,1.04,1.62,2.08,2.42,3c7.39,8.54,17.43,14.2,28.4,16.16c2.77,0.58,5.77,0.81,8.66,0.81        c9.16,0,18.44-2.51,26.86-8.13c19-12.68,44.48-9.52,60.64,6.63l24.52,24.52C3277.23,2408.85,3254.86,2462.87,3210.18,2462.87z        "/><path fill="#202234" d="M3151.83,2435.43c-5.22-16.06-24.98-31.29-42.44-27.42c-2.1,0.47-3.87-0.64-4.59-2.61        c-3.98-10.94,0.9-28.46-11.07-35.18c-9.08-5.11-22.23-2.03-30.35,3.62c-21.09,14.67-20.59,42-24.52,64.8        c-0.47,2.7-4.49,3.66-6.23,1.64c-4.52-5.21-7.54-12.02-11.02-17.93c-4.84-8.23-9.83-16.46-15.63-24.05        c-3.64-4.77-9.31-12.84-15.78-13.91c-8.34-1.37-7.75,13.56-6.66,18.53c2.68,12.26,9.59,23.01,12.78,35.06        c0.49,1.87-0.62,4.16-2.61,4.59c-5.24,1.14-9.83-0.84-14.11-3.78c-5.38-3.69-9.39-7.15-15.94-8.64        c-9.17-2.08-24.05-2.05-29.28-11.67c-1.85-3.41-1.32-7.69-1.24-11.4c0.16-7.25,0.88-14.48,0.93-21.74        c0.09-14.23-3.13-27.77-9.92-40.29c-10.91-20.16-28.42-37.57-46.6-51.29c-18.02-13.6-38.51-24.18-60.44-29.76        c-41.77-10.64-89.63-0.92-116.22,35.1c-11.63,15.75-18.48,34.57-21.45,53.82c-3.47,22.5-0.75,45.65,1.95,68.09        c1.69,14.03,4.02,28.03,7.09,41.85h460.28C3153.43,2454.88,3155.09,2445.47,3151.83,2435.43z" opacity=".15"/><path fill="#f2faff" d="M2787.55,2169.91c11.57,6.81,25.62,8.08,38.42,11.34c11.06,2.81,21.29,7.35,30.07,14.74        c13.38,11.27,21.1,27.32,30.04,41.99c10.73,17.6,25.48,34.92,45.9,41.13c22.5,6.85,41.72-9.28,63.33-12.48        c17.28-2.56,34.94-0.16,49.98,9.07c15.16,9.3,26.3,23.95,34.55,39.46c8.03,15.12,16.09,30.23,32.32,37.79        c20.94,9.75,44.53,7.23,65.11-1.91c7.2-3.2,13.55-7.07,19.82-11.39c-12.32-2.78-25.54-0.92-36.6,6.46        c-8.42,5.62-17.7,8.13-26.86,8.13c-2.89,0-5.89-0.23-8.66-0.81c-10.97-1.96-21.01-7.62-28.4-16.16        c-0.81-0.92-1.61-1.96-2.42-3c-4.27-5.77-7.27-12.7-8.66-20.55l-5.42-31.63c-1.38-8.31-4.85-15.7-9.7-21.82        c-13.16-16.85-36.94-24.01-58.29-14.43l-36.49,16.33c-24.46,10.95-53.17,0.03-64.16-24.41l-6.23-13.85        c-27-59.75-85.95-88.74-143-84.34C2768.51,2151.55,2775.71,2162.95,2787.55,2169.91z" opacity=".2"/><path fill="#f2faff" d="M3135.59,2462.87h-770.64l12.12-42.25c38.09-34.17,90.73-50.91,144.29-41.67l28.51,4.85l15.35,2.54        c3.34,0.58,6.69,0.81,9.93,0.81c7.16,0,14.2-1.27,20.78-3.81c11.08-4.27,20.78-11.78,27.7-22.16        c9.7-14.66,21.12-27.13,33.59-37.4c4.85-4.16,9.81-7.85,15-11.2c28.05-18.58,60.26-27.82,92.58-28.17        c18.93-0.34,37.75,2.42,55.75,8.31c43.75,13.86,82.53,45.37,104.12,93.27l7.5,16.39c13.28,29.44,47.79,42.48,77.11,29.32        l22.16-9.93l21.36-9.58c9.7-4.39,19.86-5.77,29.55-4.85c25.17,2.42,47.33,21.12,51.95,48.25L3135.59,2462.87z" opacity=".25"/><path fill="#394ca4" d="M3031.08,2307.08c0,8.3-6.73,15.02-15.02,15.02s-15.02-6.73-15.02-15.02c0-8.3,6.73-15.03,15.02-15.03        S3031.08,2298.78,3031.08,2307.08z"/><path fill="#100959" d="M2844.75,2357.36c0,8.3-6.73,15.02-15.02,15.02c-8.3,0-15.02-6.73-15.02-15.02        c0-8.3,6.73-15.03,15.02-15.03C2838.02,2342.33,2844.75,2349.06,2844.75,2357.36z"/><path fill="#202234" d="M2816.34,2211.43c0,15.99-12.96,28.95-28.95,28.95c-15.99,0-28.96-12.96-28.96-28.95        s12.97-28.96,28.96-28.96C2803.38,2182.47,2816.34,2195.44,2816.34,2211.43z" opacity=".15"/><path fill="#100959" d="M2814.34 2204.56c0 15.99-12.96 28.95-28.95 28.95-15.99 0-28.96-12.96-28.96-28.95 0-15.99 12.97-28.96 28.96-28.96C2801.38 2175.6 2814.34 2188.57 2814.34 2204.56zM3030.53 2454.96c0 0-67.76-85.43-36.83-91.32C3024.64 2357.75 3034.95 2401.94 3030.53 2454.96z"/><path fill="#f2faff" d="M2990.38,2375.29c3.08-1.04,5.94-1.96,9.2-2.25c6.48-0.58,13.92,0.74,19.27,4.6        c2.1,1.51,3.48,3.38,4.84,5.4c-6.09-14.26-15.87-22.09-29.99-19.4c-6.49,1.24-8.6,6.01-7.93,12.73        C2987.34,2376.38,2989.18,2375.7,2990.38,2375.29z" opacity=".2"/><path fill="#202234" d="M3016.23,2427.06c-2.82-0.62-5.55-1.86-8.13-3.42c11.22,17.17,22.43,31.32,22.43,31.32        c0.93-11.15,1.19-21.9,0.76-31.88C3027.45,2427.49,3021.73,2428.26,3016.23,2427.06z" opacity=".15"/><path fill="#394ca4" d="M3030.53,2454.96c0,0,42.71-114.89,89.85-85.43C3167.52,2398.99,3030.53,2454.96,3030.53,2454.96z"/><path fill="#f2faff" d="M3063.94,2400.13c3.53-3.14,5.65-7.44,9.36-10.46c3.99-3.25,8.62-5.23,13.34-7.15        c4.5-1.83,9.75-3.44,12.54-7.73c1.67-2.56,2.43-6.69,1.09-9.68c-16.57,2.57-31.78,19.52-43.74,38.06        C3059.23,2402.77,3061.85,2401.98,3063.94,2400.13z" opacity=".2"/><path fill="#202234" d="M3087.96,2417.92c-6.04,0.93-14.36,1.06-19.45,4.79c-2.56,1.88-4.22,4.73-6.86,6.58        c-2.55,1.78-5.57,2.77-8.57,3.48c-4.57,1.08-9.09,1.37-13.22,0.66c-5.91,12.42-9.32,21.55-9.32,21.55s46.16-18.88,75.66-40.48        C3100.18,2416.13,3093.87,2417.01,3087.96,2417.92z" opacity=".15"/><path fill="#394ca4" d="M3030.53,2454.96c0,0-157.61-19.15-117.83-44.19C2952.47,2385.73,3030.53,2454.96,3030.53,2454.96z"/><path fill="#f2faff" d="M2924.51,2419.62c7.54,0.6,14.77-2.29,22.19-3.04c10.22-1.04,18.78,1.92,28.36,4.84        c3.85,1.17,7.92,2.17,11.99,2.37c-24.19-14.09-53.34-25.21-73.35-13.56C2913.52,2414.76,2919.26,2419.21,2924.51,2419.62z" opacity=".2"/><path fill="#202234" d="M2985.22,2446.06c-4.78-0.3-9.59-0.6-14.29-1.55c-4.9-0.99-9.67-2.55-14.56-3.6        c-3.03-0.66-6.11-0.92-9.19-0.98c36.2,9.29,83.35,15.04,83.35,15.04s-7.33-6.46-18.54-14.69c-0.4,0.72-0.91,1.4-1.56,2.02        c-2.85,2.74-7.45,3.23-11.18,3.66C2994.6,2446.48,2989.89,2446.35,2985.22,2446.06z" opacity=".15"/><g><path fill="#394ca4" d="M725.25,2341.14c0,0,26.8-194.55-26.56-175.35C645.32,2184.99,669.81,2262.96,725.25,2341.14z"/><path fill="#f2faff" d="M725.05,2198.18c-2.72-2.13-3.73-5.94-4.96-9.01c-1.44-3.59-3.04-7.08-5.84-9.84       c-3.45-3.39-7.83-5.22-12.57-5.87c-4.56-0.63-9.41-0.05-13.84-1.48c-0.18-0.06-0.3-0.18-0.47-0.24       c3.33-2.31,6.98-4.39,11.31-5.95c17.2-6.19,26.04,9.88,30.17,34.43C727.47,2199.68,726.14,2199.04,725.05,2198.18z" opacity=".2"/><path fill="#202234" d="M674.12,2199.56c0.21,14.52,0.83,28.8,5.2,42.77c1.84,5.86,4.08,11.75,6.57,17.37       c1.96,4.41,4.53,8.89,8.66,11.62c8.9,5.88,19.38-0.14,25.71-6.95c3.9-4.19,7.23-9.47,11.64-12.96       c-0.47,44.63-6.67,89.73-6.67,89.73c-42.13-59.42-66.16-118.56-51.91-152C674.06,2192.55,674.08,2196.22,674.12,2199.56z" opacity=".15"/><path fill="#100959" d="M728.77,2339.26c0,0-109.12-191.9-184.41-125.91C469.08,2279.33,728.77,2339.26,728.77,2339.26z"/><path fill="#f2faff" d="M656.22,2243.5c-3.03,0.44-6.18,0.66-9.24,0.6c-0.19,0-0.38-0.01-0.57-0.01       c0.28-0.07-2.65-0.58-3.08-0.73c-3.04-1.07-5.57-2.87-7.92-5.03c-4.6-4.22-8.44-9.02-13.91-12.21       c-12.09-7.06-26.87-8.36-40.34-11.04c-5.96-1.19-16.19-1.65-18.65-8.36c-0.51-1.39-0.5-2.74-0.24-4.06       c30.91-11.26,65.23,10.97,94.67,40.69C656.69,2243.4,656.46,2243.47,656.22,2243.5z" opacity=".2"/><path fill="#202234" d="M547.07,2262.6c10.11,6.73,21.36,10.45,33.5,10.65c6.33,0.1,12.87-0.44,19.1,0.97       c6.26,1.41,10.78,4.79,14.98,9.49c7.83,8.78,15.12,16.51,26.19,21.15c11.54,4.83,24.23,5.65,36.61,5.3       c5.03-0.14,9.87-0.76,14.86-1.29c3.81-0.4,8.84-1.13,12.38,0.81c4.58,2.51,4.56,10.31,3.76,14.74       c-0.57,3.13-1.78,6.1-3.45,8.79c-52.15-14.05-172.12-51.01-174.25-94.05C534.28,2248.46,538.08,2256.62,547.07,2262.6z" opacity=".15"/><path fill="#4094f2" d="M575.22,2444.97h942.07l-13.51-47.09L1472,2286.34c-22.52-78.74-100.74-128.01-181.53-114.25l-40.79,7.08        c-3.09,0.52-6.05,0.77-9.01,0.77c-18.01,0-35.12-9.01-45.29-24.32c-69.99-104.99-228.24-91.99-280.21,23.03l-6.95,15.44        c-12.25,27.24-44.25,39.41-71.51,27.21l-40.67-18.21c-23.8-10.68-50.31-2.7-64.97,16.08c-5.41,6.82-9.27,15.05-10.81,24.31        l-6.05,35.25c-1.54,8.75-4.89,16.47-9.65,22.9c-0.9,1.16-1.8,2.31-2.7,3.34c-8.23,9.52-19.43,15.83-31.65,18.01        c-3.08,0.64-6.43,0.9-9.65,0.9c-10.2,0-20.55-2.8-29.94-9.07c-21.18-14.14-49.58-10.62-67.58,7.39l-27.33,27.33        C500.49,2384.77,525.43,2444.97,575.22,2444.97z"/><path fill="#202234" d="M640.26,2414.4c5.82-17.9,27.84-34.87,47.31-30.56c2.35,0.52,4.32-0.71,5.11-2.9        c4.44-12.19-1-31.71,12.33-39.21c10.12-5.69,24.78-2.26,33.82,4.03c23.51,16.35,22.94,46.81,27.32,72.23        c0.52,3.01,5,4.08,6.95,1.83c5.03-5.81,8.4-13.4,12.28-19.99c5.4-9.17,10.95-18.34,17.42-26.81        c4.06-5.31,10.37-14.31,17.59-15.5c9.3-1.53,8.64,15.12,7.43,20.65c-2.99,13.67-10.68,25.64-14.25,39.08        c-0.55,2.08,0.69,4.63,2.9,5.11c5.84,1.27,10.96-0.93,15.73-4.21c5.99-4.12,10.47-7.97,17.77-9.63        c10.22-2.32,26.8-2.28,32.63-13.01c2.07-3.8,1.47-8.57,1.38-12.71c-0.18-8.08-0.98-16.14-1.03-24.23        c-0.1-15.86,3.5-30.95,11.05-44.91c12.16-22.47,31.67-41.87,51.94-57.16c20.09-15.15,42.92-26.95,67.36-33.17        c46.56-11.86,99.9-1.02,129.54,39.12c12.96,17.55,20.59,38.53,23.91,59.99c3.87,25.07,0.84,50.88-2.18,75.89        c-1.89,15.64-4.48,31.24-7.9,46.65H643.66C638.47,2436.07,636.63,2425.58,640.26,2414.4z" opacity=".15"/><path fill="#f2faff" d="M1046.28,2118.45c-12.9,7.59-28.56,9.01-42.81,12.63c-12.33,3.14-23.73,8.19-33.51,16.43        c-14.92,12.56-23.51,30.45-33.48,46.8c-11.96,19.62-28.4,38.92-51.16,45.85c-25.08,7.63-46.5-10.35-70.58-13.91        c-19.26-2.85-38.94-0.18-55.71,10.11c-16.89,10.37-29.32,26.69-38.51,43.98c-8.96,16.85-17.93,33.69-36.03,42.11        c-23.34,10.86-49.63,8.06-72.57-2.12c-8.03-3.56-15.1-7.88-22.09-12.69c13.74-3.1,28.47-1.02,40.79,7.2        c9.39,6.27,19.74,9.07,29.94,9.07c3.22,0,6.57-0.26,9.65-0.9c12.23-2.19,23.42-8.49,31.65-18.01c0.9-1.03,1.8-2.18,2.7-3.34        c4.76-6.44,8.11-14.16,9.65-22.9l6.05-35.25c1.54-9.26,5.4-17.5,10.81-24.31c14.66-18.78,41.17-26.76,64.97-16.08l40.67,18.21        c27.26,12.2,59.26,0.03,71.51-27.21l6.95-15.44c30.09-66.59,95.8-98.91,159.39-94.01        C1067.5,2097.99,1059.47,2110.69,1046.28,2118.45z" opacity=".2"/><path fill="#f2faff" d="M658.36,2444.97h858.92l-13.51-47.09c-42.46-38.08-101.13-56.74-160.82-46.44l-31.78,5.4l-17.11,2.83        c-3.73,0.64-7.46,0.9-11.07,0.9c-7.98,0-15.82-1.41-23.16-4.25c-12.35-4.76-23.16-13.12-30.88-24.7        c-10.81-16.34-23.54-30.23-37.44-41.69c-5.4-4.63-10.93-8.75-16.72-12.48c-31.27-20.71-67.16-31-103.19-31.39        c-21.1-0.39-42.07,2.7-62.14,9.26c-48.76,15.44-91.99,50.56-116.05,103.96l-8.36,18.27c-14.8,32.81-53.26,47.35-85.94,32.68        l-24.7-11.07l-23.8-10.68c-10.81-4.89-22.13-6.43-32.94-5.4c-28.05,2.7-52.75,23.54-57.9,53.78L658.36,2444.97z" opacity=".25"/><circle cx="791.58" cy="2271.34" r="16.75" fill="#394ca4"/><circle cx="999.27" cy="2327.38" r="16.75" fill="#100959"/><path fill="#202234" d="M1014.19,2164.73c0,17.82,14.45,32.27,32.27,32.27c17.82,0,32.27-14.45,32.27-32.27        c0-17.82-14.45-32.27-32.27-32.27C1028.64,2132.45,1014.19,2146.9,1014.19,2164.73z" opacity=".15"/><path fill="#100959" d="M1016.41 2157.07c0 17.82 14.45 32.27 32.27 32.27 17.83 0 32.27-14.45 32.27-32.27s-14.45-32.27-32.27-32.27C1030.86 2124.8 1016.41 2139.25 1016.41 2157.07zM775.45 2436.16c0 0 75.52-95.22 41.04-101.79C782.02 2327.81 770.53 2377.06 775.45 2436.16z"/><path fill="#f2faff" d="M820.2,2347.36c-3.43-1.16-6.62-2.19-10.26-2.51c-7.22-0.64-15.51,0.82-21.48,5.12        c-2.34,1.69-3.88,3.76-5.39,6.02c6.78-15.9,17.68-24.62,33.42-21.62c7.24,1.38,9.58,6.69,8.84,14.19        C823.59,2348.57,821.54,2347.82,820.2,2347.36z" opacity=".2"/><path fill="#202234" d="M791.4,2405.07c3.14-0.69,6.19-2.08,9.06-3.81c-12.51,19.14-25,34.9-25,34.9        c-1.04-12.43-1.33-24.41-0.84-35.53C778.89,2405.55,785.27,2406.41,791.4,2405.07z" opacity=".15"/><path fill="#394ca4" d="M775.45,2436.16c0,0-47.61-128.05-100.14-95.22C622.77,2373.78,775.45,2436.16,775.45,2436.16z"/><path fill="#f2faff" d="M738.22,2375.04c-3.93-3.5-6.3-8.29-10.43-11.66c-4.44-3.62-9.6-5.83-14.86-7.97        c-5.02-2.04-10.87-3.84-13.98-8.61c-1.86-2.86-2.71-7.46-1.21-10.79c18.47,2.86,35.42,21.75,48.75,42.42        C743.47,2377.99,740.55,2377.11,738.22,2375.04z" opacity=".2"/><path fill="#202234" d="M711.45,2394.88c6.73,1.04,16.01,1.18,21.68,5.33c2.86,2.09,4.7,5.27,7.64,7.33        c2.84,1.99,6.21,3.09,9.55,3.88c5.09,1.21,10.13,1.53,14.74,0.73c6.59,13.84,10.38,24.01,10.38,24.01        s-51.44-21.04-84.33-45.11C697.83,2392.89,704.86,2393.86,711.45,2394.88z" opacity=".15"/><path fill="#394ca4" d="M775.45,2436.16c0,0,175.66-21.34,131.33-49.25C862.46,2359,775.45,2436.16,775.45,2436.16z"/><path fill="#f2faff" d="M893.62,2396.77c-8.4,0.66-16.47-2.55-24.73-3.39c-11.4-1.16-20.93,2.15-31.61,5.4        c-4.29,1.31-8.83,2.41-13.36,2.65c26.96-15.71,59.45-28.09,81.75-15.11C905.87,2391.36,899.47,2396.31,893.62,2396.77z" opacity=".2"/><path fill="#202234" d="M825.96,2426.24c5.33-0.33,10.68-0.67,15.92-1.73c5.46-1.11,10.78-2.84,16.22-4.02        c3.38-0.73,6.81-1.03,10.24-1.09c-40.35,10.36-92.89,16.76-92.89,16.76s8.17-7.2,20.67-16.38c0.44,0.8,1.01,1.56,1.74,2.25        c3.18,3.05,8.3,3.6,12.46,4.08C815.51,2426.71,820.75,2426.57,825.96,2426.24z" opacity=".15"/></g><g><path fill="#ddae9f" d="M2481.08 2063.77l-2.93 408.52 11.71 1.46c0 0 105.43-319.2 70.28-386.56C2525 2019.84 2481.08 2063.77 2481.08 2063.77zM2687.53 2082.8l-11.71 114.21 62.96 237.21-11.71 7.32c0 0-96.64-156.67-124.46-204.99-27.82-48.32-13.18-180.1-13.18-180.1S2653.86 2038.87 2687.53 2082.8z"/><path fill="#0f1019" d="M2488.92,2166.78c7.71,7.76,17.43,11.2,27.54,14.7c8.4,2.91,17.51,6.28,23.29,13.41      c5.66,6.99,6.43,16.12,5.48,24.75c-1.12,10.14-3.82,20.02-4.93,30.17c-1.32,11.96-1.57,24-2.65,35.98      c-1.67,18.39-7.64,35.79-11.44,53.77c-1.51,7.12-2.71,14.7-2.77,22.17c27.33-98.87,58.13-233.48,36.71-274.54      c-35.14-67.35-79.07-23.43-79.07-23.43l-0.66,91.7C2482.75,2159.63,2485.64,2163.48,2488.92,2166.78z" opacity=".22"/><path fill="#ddae9f" d="M2719.6,2480.68l7.14-37.69l-9.28-22.95c0,0,11.48-18.22,11.72-17.51c9.8,27.95,14.54,35.77,19.08,38.22       C2752.79,2443.2,2733.88,2493.88,2719.6,2480.68z"/><path fill="#202234" d="M2719.98,2476.31c0,0,4.31,4.11,10-2.59c5.69-6.7,11.37-33.02,16.92-33.84c5.56-0.82,14.3,35.2,14.3,35.2       l-4.52,0.74l-7.53-13.63c0,0-5.51,10.35-5.8,17.34c-0.28,6.99-1.81,20.5-19.83,22.89       C2705.49,2504.82,2719.98,2476.31,2719.98,2476.31z"/><path fill="#0f1019" d="M2595.3,2169.21c5.54,9.89,14.28,16.67,25.04,20.15c11.3,3.65,23.59,3.14,34.71,7.42      c7.69,2.96,12.51,8.53,15.84,15.94c6.2,13.82,9.8,28.8,13.95,43.31c5.46,19.06,10.82,38.15,16.02,57.28      c5.26,19.34,10.25,38.75,15.21,58.16c3.83,14.95,3.91,32.03,12.86,45.18c2.29,3.36,4.85,6.35,7.61,9.11l-60.72-228.75      l11.71-114.21c-33.68-43.93-98.1-26.36-98.1-26.36s-4.44,40.07-3.77,84.11C2587.82,2150.41,2590.36,2160.4,2595.3,2169.21z" opacity=".22"/><path fill="#383b4b" d="M2483.49,1826.71c3.47,0,135.51,2.47,135.51,2.47s5.79,78.37,45.17,115.49s39.38,207.89,39.38,207.89       s-53.28,33-141.3,18.15c-88.02-14.85-106.55-15.68-106.55-15.68s8.11-141.89,19.69-215.31       C2486.97,1866.31,2483.49,1826.71,2483.49,1826.71z"/><path fill="#0f1019" d="M2468.44,1994.51c1.56,1.37,3.19,2.68,4.96,3.85c10.97,7.27,24.32,10.44,37.37,10.69       c6.9,0.14,14.04-0.4,20.74-2.12c1.89-0.49,3.88-1.67,5.87-1.65c2.91,0.03,6.32,1.67,8.88,2.85c4.13,1.9,7.77,4.69,11.59,7.12       c4.33,2.76,8.88,4.62,13.77,6.13c10.08,3.1,20.55,4.75,31.04,5.63c10.36,0.86,20.76,1,31.15,1.02       c8.09,0.02,16.23,0.03,23.91,2.9c11.53,4.31,18.54,14.05,20.53,26.02c2.41,14.53-1.29,28.42-4.21,42.54       c-1.7,8.23-1.47,16.29,1.13,24.29c2.76,8.48,7.3,16.24,10.22,24.66c1.29,3.73,2.18,7.6,2.66,11.5       c10.11-4.06,15.48-7.37,15.48-7.37s0-170.77-39.38-207.89c-39.38-37.12-45.17-115.49-45.17-115.49s-132.03-2.47-135.51-2.47       c0,0,3.47,39.6-8.11,113.02C2472.9,1955.52,2470.57,1974.48,2468.44,1994.51z" opacity=".22"/><path fill="#0f1019" d="M2539.55 2048.58c-7.9 6.1-18.04 8.5-27.76 9.74-6.51.83-13.06 1.06-19.61 1.12 4 2.08 8.33 3.56 12.66 4.57 6.93 1.62 14.17 2.27 21.27 1.67 6.83-.58 12.83-3.32 16.76-9.13 3.12-4.6 4.47-10.26 3.56-15.68C2544.61 2043.8 2542.35 2046.41 2539.55 2048.58zM2577.57 2060.71c-17.93 16.7-42.96 20.83-65.24 29.44 7.27 2.82 15.33 3.41 23.08 3.11 14.79-.56 31.61-3.09 42.57-13.97 8.67-8.6 11.46-20.58 10.8-32.38C2585.64 2051.96 2581.93 2056.65 2577.57 2060.71zM2557.7 2127.54c3.95-.56 7.92-1.08 11.87-1.64 10.1-1.45 20.29-3.36 29.36-8.23 7.24-3.89 13.57-9.39 18.3-16.12 7.56-10.78 10.85-23.64 11.39-36.63-2.37 5.98-5.32 11.74-9 17.05C2604.62 2103.59 2581.66 2117.03 2557.7 2127.54z" opacity=".22"/><path fill="#fbf2f6" d="M2571.42,1615.76c0,0,36.49,10.34,47.79,48.43c12.71,42.89,16.11,157.01,16.11,157.01l-145.45-6.47        C2489.86,1814.72,2469.36,1609.5,2571.42,1615.76z"/><path fill="#383b4b" d="M2536.72,1622.06c-66.87,8.3-161.31,174.97-102.74,238.18c7.41,8,28.48,0.93,28.48,0.93        S2556.92,1619.55,2536.72,1622.06z"/><path fill="#202234" d="M2579.49 1614.61l.55 14.47-23.79 77.41-14.18 202.63c0 0-7.78 95.58 44.93 98.12 52.71 2.54 92.25 7.63 102.5-49.6-55.15-118.69-5.37-188.21-40.27-305.84C2640.98 1624.03 2614.63 1615.88 2579.49 1614.61zM2550.75 1615.88l-.41 3.63-24.36 74.47c0 0 7.81 230.6 3.9 276.38-3.9 45.78-70.28 28.82-73.21 11.87-2.93-16.95.98-60.19.98-102.58 0-42.39 22.45-217.88 45.88-240.77C2526.96 1615.99 2550.75 1615.88 2550.75 1615.88z"/><path fill="#202234" d="M2419.21,1814.85c2.74-3.34,20.31,3.42,25.5,7.57c9,7.19,33.43,42.22,7.08,45.51        C2424.38,1871.35,2409.34,1826.89,2419.21,1814.85z"/><path fill="#0f1019" d="M2435.2,1842.67c1.91-2.33,6.89-12.86,10.5-9.97c6.26,5,23.29,29.4,4.93,31.7        C2431.54,1866.78,2428.32,1851.05,2435.2,1842.67z"/><path fill="#202234" d="M2617.47,1513.79c0,14.18-11.5,25.67-25.67,25.67s-25.67-11.5-25.67-25.67          c0-14.18,11.5-25.67,25.67-25.67S2617.47,1499.61,2617.47,1513.79z"/><path fill="#202234" d="M2600.82,1537.94c0,27.44-22.24,49.68-49.68,49.68c-27.44,0-49.68-22.24-49.68-49.68          c0-27.44,22.24-49.68,49.68-49.68C2578.58,1488.27,2600.82,1510.51,2600.82,1537.94z"/><path fill="#ddae9f" d="M2576.4,1578.02l5,49.57c0,0-15.41,22.91-30.82,5.83l0.42-33.33L2576.4,1578.02z"/><path fill="#33133f" d="M2563.78,1634.06c-3.31-5.64-4.58-14.21,0.55-19.23c2.08-2.03,4.78-3.3,6.78-5.41          c2.49-2.63,2.94-6.62,2.57-10.07c-0.59-5.64-2.99-11.13-2.59-16.72l-20.1,17.46l-0.42,33.33          c6.02,6.67,12.03,7.23,17.13,5.45C2566.21,1637.5,2564.87,1635.91,2563.78,1634.06z" opacity=".15"/><path fill="#ddae9f" d="M2510.72,1527.06c0,0-2.78,79.7,28.88,82.2c31.66,2.5,45.55-30.82,45.55-30.82s5.83,3.61,7.22-2.22          c1.39-5.83,8.33-16.11,1.39-20c-6.94-3.89-9.17,2.5-9.17,2.5l3.89-18.05C2588.48,1540.67,2511.56,1500.96,2510.72,1527.06z"/><path fill="#33133f" d="M2587.67 1559.82c0 0 4.17-2.25 5.83 1 1.67 3.25-2 15.67-6.92 14.17 0 0 6.33-2.75 5.58-10.34S2588.75 1562.24 2587.67 1559.82zM2568.47 1579.05c.37 2.21-2.04 4.46-5.38 5.03-3.35.57-6.36-.77-6.73-2.98-.37-2.21 2.04-4.46 5.38-5.03C2565.08 1575.5 2568.1 1576.84 2568.47 1579.05zM2530.56 1579.26c.37 2.21-2.04 4.46-5.38 5.03-3.35.57-6.36-.77-6.73-2.98-.37-2.21 2.04-4.46 5.38-5.03C2527.18 1575.71 2530.19 1577.05 2530.56 1579.26z" opacity=".05"/><path fill="#202234" d="M2532.41 1560.97c-.37.15-.81.04-1.07-.29-.19-.24-4.83-5.89-13.27-1.65-.47.23-1.03.05-1.26-.41-.23-.46-.05-1.03.41-1.26 9.84-4.97 15.52 2.09 15.58 2.16.32.41.25.99-.16 1.31C2532.57 1560.89 2532.49 1560.93 2532.41 1560.97zM2550.47 1560.42c.36.17.81.1 1.09-.21.21-.23 5.24-5.53 13.35-.69.45.26 1.02.12 1.28-.32.26-.44.12-1.02-.32-1.28-9.46-5.67-15.63.97-15.69 1.04-.35.38-.32.97.06 1.32C2550.31 1560.33 2550.39 1560.38 2550.47 1560.42zM2542.17 1579.45c-2.64 0-4.08-1.42-4.16-1.51-.3-.31-.36-.78-.13-1.15 1.42-2.31.1-8.54-.53-10.75-.14-.5.15-1.01.64-1.16.49-.14 1.01.14 1.16.64.24.83 2.14 7.74.71 11.46.76.44 2.37 1.01 4.79.09.48-.18 1.02.06 1.21.54.18.48-.06 1.02-.54 1.21C2544.12 1579.28 2543.07 1579.45 2542.17 1579.45zM2529.33 1566.22c0 2.91-1.62 5.28-3.61 5.28s-3.61-2.36-3.61-5.28 1.62-5.28 3.61-5.28S2529.33 1563.31 2529.33 1566.22zM2561.82 1566.22c0 2.91-1.62 5.28-3.61 5.28-1.99 0-3.61-2.36-3.61-5.28s1.62-5.28 3.61-5.28C2560.21 1560.94 2561.82 1563.31 2561.82 1566.22z"/><path fill="#fff" d="M2550.56,1591.55c0,3.31-4.57,5.99-10.21,5.99c-5.64,0-10.21-2.68-10.21-5.99           c0-3.31,5.53-1.36,11.17-1.36S2550.56,1588.24,2550.56,1591.55z"/><path fill="#202234" d="M2525.14,1513.98c0.19-3.34,0.02-5.53,0.02-5.53c-32.91,2.92-17.08,37.08-17.08,37.08          c11.42-5.71,15.3-17.79,16.56-26.61c8.84,12.1,30.4,36.4,61.34,37.03l10-16.66L2525.14,1513.98z"/><path fill="#202234" d="M2529.47 1508.89c-6.66 2.28-10.84 9.31-13.84 15.25-2.67 5.27-5.22 10.97-5.83 16.89-.49 4.64-.23 9.38.44 14 .74 5.11 2.2 10.07 2.73 15.22.66 6.41.48 13.34-3.37 18.79-2.97 4.2-7.52 6.96-10.92 10.78-1 1.12.65 2.78 1.65 1.65 2.98-3.34 6.75-5.86 9.69-9.23 3.56-4.08 5.2-9.07 5.51-14.43.55-9.27-2.73-17.97-3.44-27.1-.36-4.68-.44-9.69.9-14.24.63-2.12 1.51-4.21 2.37-6.25 1.56-3.67 3.36-7.28 5.55-10.62 2.25-3.43 5.16-7.1 9.18-8.47C2531.5 1510.66 2530.9 1508.4 2529.47 1508.89L2529.47 1508.89zM2552.47 1511.25c14.47 4.72 21.66 19.38 25.79 32.97 4.11 13.49 5.51 27.48 8.48 41.21.8 3.71 1.65 9.13 5.04 11.47 1.24.86 2.41-1.17 1.18-2.02-2.73-1.89-3.41-7.45-4.03-10.4-1.35-6.33-2.27-12.74-3.41-19.11-2.6-14.48-5.8-29.96-14.3-42.27-4.49-6.5-10.54-11.63-18.12-14.1C2551.66 1508.52 2551.05 1510.78 2552.47 1511.25L2552.47 1511.25z"/><path fill="#383b4b" d="M2581.58,1627.41c0,0-16.18,36.51-30.49,68.88c-14.3,32.37-9.03,257.44-9.03,257.44l24.84-168.61         l-7.53-33.87l20.32-10.54C2579.7,1740.69,2573.87,1654.5,2581.58,1627.41z"/><path fill="#383b4b" d="M2550.34,1620.25c0,0-7.15,55.7-13.92,91.83c-6.77,36.13-6.21,242.19-6.21,242.19l-26.53-192.13         l16.94-30.49l-12.42-19.19C2508.19,1712.46,2549.29,1628.89,2550.34,1620.25z"/><path fill="#f4dadd" d="M2516.22,1727.97c0,0,30.26,136.17,66.38,151.79h-114.7c0,0-65.89-104.45-61.99-145.45L2516.22,1727.97         z"/><path fill="#f2faff" d="M2393.22,1741.15c0,0,2.93-12.2,15.62-12.69c12.69-0.49,107.38-0.49,107.38-0.49s-14.64,0-16.11,12.69         C2500.11,1740.66,2437.64,1734.31,2393.22,1741.15z"/><path fill="#383b4b" d="M2637.51,1629.62c-40.68-17.24,26.11,156.43,26.11,156.43l-101.52,41.73c0,0-16.83,14.63,9.15,26.6         c25.98,11.97,103.1,26.07,142.6-23.7C2753.34,1780.92,2704.86,1658.17,2637.51,1629.62z"/><path fill="#202234" d="M2576.14,1837.1c-0.35-0.99-0.59-2.1-1.05-3.01c-0.55-1.07-1.4-1.77-2.24-2.29         c-1.62-0.99-2.78-1.8-4.44-2.52c-1.35-0.58-3.19-0.03-4.58-0.41c-1.62-0.44-2.95,0.06-4.08,1.79c-1.09,1.67-1.81,3.82-2.27,6         c-0.18,3.9,1.9,8.58,9.29,13.33c1.08,0.69,2.43,1.35,3.98,1.97c0.16-0.25,0.36-0.45,0.65-0.53c2.74-0.71,4.47-5.27,5.26-8.6         c0.2-0.82,0.38-1.7,0.36-2.56C2576.97,1839.09,2576.51,1838.13,2576.14,1837.1z"/><path fill="#ddae9f" d="M2546.98,1849.97L2546.98,1849.97c0.94-0.12,2.25-0.42,4.14-1.07c0,0-0.01,0-0.04,0          c0.95-0.29,1.93-0.65,2.88-1.07c1.65-0.71,2.81-1.33,3.61-1.81c0-0.01,0.01-0.01,0.01-0.01c1.17-0.71,1.56-1.11,1.56-1.11          s7.1,1.26,9.19,0.32c3.17-4.03-2.32-11.71-2.32-11.71c-1.76-1.24-5.74,1.55-8.92,0.19c-3.72-1.59-9.42-9.08-10.65-6.26          c-1.24,2.82,4.13,6.44,4.13,6.44s-0.08-0.01-0.23-0.01c-0.91-0.04-4.35-0.08-7.36,0.94h0c-0.83,0.29-1.64,0.65-2.35,1.12          c-0.12,0.09-0.25,0.17-0.37,0.26c-0.21,0.16-0.41,0.33-0.6,0.52c-0.03,0.03-0.06,0.06-0.09,0.09          c-0.09,0.09-0.18,0.19-0.27,0.29l-0.01,0.01c0,0,0,0,0,0.01c-0.15,0.32-0.22,0.76-0.13,1.33c0.31,1.86,1.8,1.85,1.8,1.85          s-1.22,0.82-0.74,2.28c0.5,1.55,1.65,1.12,1.65,1.12s-0.98,1.25-0.53,2.45c0.47,1.28,1.78,0.75,1.78,0.75          s-0.82,0.78-0.29,2.28C2543.3,1850.52,2546.98,1849.97,2546.98,1849.97z"/><path fill="#f2faff" d="M2543.86 1843.61c-.03.04-.05.09-.02.16.36.73.67 1.44.54 2.27-.04.28-.09.59.08.84.08.11.19.18.3.27.14.12.22.25.29.42.24.54.37 1.13.44 1.71.03.27.04.54.04.82-1.09.02-2.44-.12-2.71-.9-.53-1.5.29-2.28.29-2.28s-1.32.52-1.78-.75c-.44-1.21.54-2.45.54-2.45s-1.14.43-1.65-1.12c-.48-1.46.74-2.28.74-2.28s-1.49.01-1.8-1.85c-.09-.58-.02-1.01.13-1.33 0 0 0 0 0-.01l.01-.01c.09-.1.17-.2.27-.29.03-.03.06-.06.09-.09.19-.18.39-.35.6-.52.12-.09.24-.17.37-.26-.06.45-.01.93.07 1.37.09.49.25 1 .63 1.35.4.36.95.46 1.37.77.44.34.59.95.51 1.48-.07.46-.31.85-.19 1.32.14.53.51.94.83 1.37C2543.85 1843.6 2543.85 1843.61 2543.86 1843.61zM2547.24 1827.26c0 0 1.67 1.76 2.1 1.7.43-.05.47-.58.47-.58S2547.96 1826.97 2547.24 1827.26z" opacity=".2"/><g><path fill="#ddae9f" d="M2466.85,1841.93c-1.6-0.93-7.73,4.6-7.73,4.6s8.35-10.34,6.5-11.24c-1.85-0.9-9.32,7.91-9.32,7.91       s8.79-11.61,7.58-13.48c-1.21-1.86-10.43,11.02-10.43,11.02s6.05-12.38,4.28-13.38c-1.77-1-7.84,11.52-9.65,13.83       c-1.17,1.49-2.96,1.51-2.95-0.49c0.01-1.99-2.7-4.87-4.06-4.27c-1.36,0.6,1.75,6.41,0.64,8.53c-1.11,2.13-1.81,4.9-1.28,6.11       c0.33,3.19,7.35,7.22,7.35,7.22s3.65-0.69,6.6-3.16C2457.31,1852.66,2468.46,1842.86,2466.85,1841.93z"/></g><g><path fill="#ddae9f" d="M2454.41,2501.4l23.91-29.99l2.51-24.63c0,0,18.66-10.75,18.55-10.01c-4.39,29.29-3.86,38.42-0.98,42.7       C2501.27,2483.76,2460.87,2519.75,2454.41,2501.4z"/><path fill="#202234" d="M2456.78,2497.71c0,0,1.89,5.65,10.05,2.38c8.16-3.26,25.47-23.88,30.77-22.01       c5.3,1.87-3.8,37.81-3.8,37.81l-4.34-1.46l-0.29-15.57c0,0-9.71,6.58-13.23,12.63c-3.52,6.05-11.18,17.28-28.23,10.97       C2430.66,2516.15,2456.78,2497.71,2456.78,2497.71z"/></g></g><g><path fill="#0f1019" d="M1157.2,2195.95l-39.02,6.96c-0.85,0.15-1.66-0.41-1.81-1.26l-34.2-191.62        c-0.15-0.85,0.41-1.66,1.26-1.81l39.02-6.96c0.85-0.15,1.66,0.41,1.81,1.26l34.2,191.62        C1158.61,2194.99,1158.05,2195.8,1157.2,2195.95z"/><rect width="23.2" height="242.53" x="1226.89" y="2232.01" fill="#0f1019" transform="rotate(-180 1238.49 2353.277)"/><ellipse cx="1239.54" cy="2219.93" fill="#202234" rx="30.05" ry="31.31"/><path fill="#100959" d="M1371.3,2163.9h-276.17c-13.49,0-24.44,9.65-24.44,21.55v10.72c0,11.9,10.94,21.55,24.44,21.55h276.17         c13.49,0,24.43-9.65,24.43-21.55v-10.72C1395.74,2173.55,1384.8,2163.9,1371.3,2163.9z"/><path fill="#202234" d="M1161.38,2504.34h154.21v-33.92c0-0.81-0.66-1.46-1.46-1.46h-151.28c-0.81,0-1.46,0.66-1.46,1.46         V2504.34z"/><path fill="#0f1019" d="M1315.5,2497.52h-154.03c-13.95,0-25.27,11.31-25.27,25.26h204.56         C1340.77,2508.83,1329.46,2497.52,1315.5,2497.52z"/><path fill="#100959" d="M997.93,1864.61l26.35,170.11c2.81,18.05,19.16,30.76,37.35,29.06l42.23-3.99l69.97-6.62        c19.23-1.82,33.22-19.09,31.01-38.28l-18.02-157.14c-2-17.16-16.31-30.2-33.58-30.55c-6.13-0.11-12.89-0.25-20.16-0.39        c-31.3-0.61-71.04-1.39-100.49-1.92C1011.22,1824.44,994.66,1843.45,997.93,1864.61z"/><path fill="#231f20" d="M1103.87,2059.78l69.97-6.62c19.23-1.82,33.22-19.09,31.01-38.28l-18.02-157.14        c-2-17.16-16.31-30.2-33.58-30.55c-6.13-0.11-12.89-0.25-20.16-0.39c-1.5,24.93-1.99,60.61,3.1,96.36        C1144.57,1981.9,1089.59,2017.87,1103.87,2059.78z" opacity=".25"/><path fill="#383b4b" d="M1173.88,2026.22c-1.03,4.4-53.05,53.05-44.74,99.7c3.18,17.88-2.98,54.54,141.03,81.8         c142.88,27.05,106.52,2.98,139.75,0.43c33.23-2.56,30.68-100.98,11.5-125.26c-19.17-24.29-63.91-43.46-63.91-60.08         c0-16.62-99.27-27.27-99.27-27.27S1184.11,1982.77,1173.88,2026.22z"/><path fill="#202234" d="M1285.5,2202.64c0,0,52.86,12.01,89.94-1.7c37.08-13.71,62.69-42.32,45.57-61.19         c-17.11-18.87,8.72-32.36-50.09-44.88s-96.96,5.17-116.18,2.38c-19.22-2.78-27.99,30.16-33.81,45.92         C1215.11,2158.95,1249.42,2213.53,1285.5,2202.64z"/><path fill="#c68e7d" d="M1442.5,2123.46c0,0-58.69-25.89-81.12-12.78c-22.42,13.11-72.44,96.21,9.96,101.78          C1453.75,2218.03,1442.5,2123.46,1442.5,2123.46z"/><path fill="#d7a28e" d="M1362.46,2119.03c0,0-75.98-21.46-98.4-8.35c-22.42,13.11-55.15,91.78,27.25,97.35          C1373.71,2213.61,1362.46,2119.03,1362.46,2119.03z"/><path fill="#ddae9f" d="M1287.48,2144.84c-23.49,64.56,58.53,268.21,58.53,268.21l15.46,0.55c0,0,6.16-206.03,6.14-268.47          C1367.58,2082.71,1295.44,2122.95,1287.48,2144.84z"/><path fill="#33133f" d="M1351.51,2367.41c3.82-0.86,7.57-1.24,11.32-1.16c1.63-58.11,4.19-155.15,4.68-205.79          c-15.3,0.76-30.33,6.12-36.5,20.02c-4.17,9.39-5.85,20.12-8,30.12c-1.62,7.51-3.01,15.07-4.49,22.61          c-3.44,17.48-7.09,34.95-12.04,52.08c-0.61,2.1-1.24,4.22-1.9,6.35c8.82,30.86,18.8,60.25,26.76,82.42          C1337.89,2371.13,1344.79,2368.92,1351.51,2367.41z" opacity=".15"/><path fill="#ddae9f" d="M1390.6,2447.41l-27.99-32.57l-3.82-27.45c0,0-21.32-11.26-21.17-10.43           c6.12,32.59,5.9,42.84,2.86,47.74C1337.44,2429.6,1384.13,2468.2,1390.6,2447.41z"/><path fill="#202234" d="M1387.79,2443.38c0,0-1.88,6.4-11.15,3.08c-9.26-3.32-29.49-25.68-35.34-23.37           c-5.85,2.31,5.81,42.15,5.81,42.15l4.8-1.81l-0.31-17.43c0,0,11.14,6.96,15.32,13.59c4.19,6.62,13.22,18.88,32.04,11.12           C1417.78,2462.93,1387.79,2443.38,1387.79,2443.38z"/><path fill="#ddae9f" d="M1464.64,2159.21c-11.07,78.33-161.02,272.42-161.02,272.42l-10.56-4.57           c0,0,30.72-248.12,93.57-287.3C1449.48,2100.57,1467.45,2139.3,1464.64,2159.21z"/><path fill="#ddae9f" d="M1309.15,2467.82l-5.25-37.02l10.08-21.93c0,0-10.35-18.26-10.63-17.58            c-10.8,26.77-15.77,34.18-20.3,36.35C1278.52,2429.82,1294.65,2480.03,1309.15,2467.82z"/><path fill="#202234" d="M1308.98,2463.55c0,0-4.38,3.81-9.62-2.97c-5.24-6.78-9.58-32.67-14.95-33.72            c-5.37-1.05-15.52,33.64-15.52,33.64l4.37,0.92l7.95-12.93c0,0,4.9,10.33,4.86,17.15c-0.04,6.82,0.84,20.05,18.28,23.19            C1321.8,2491.97,1308.98,2463.55,1308.98,2463.55z"/><g><path fill="#fbf2f6" d="M1255.9,1749c0,0-35.67,10.11-46.71,47.34c-12.43,41.93-15.74,153.47-15.74,153.47l142.17-6.32         C1335.62,1943.48,1355.66,1742.88,1255.9,1749z"/><path fill="#383b4b" d="M1289.82,1755.15c65.36,8.11,157.68,171.04,100.43,232.82c-7.24,7.82-27.84,0.91-27.84,0.91         S1270.07,1752.7,1289.82,1755.15z"/><path fill="#202234" d="M1248.02 1747.87l-.54 11.37 23.26 60.82 13.86 159.19c0 0 7.61 75.09-43.92 77.09-51.53 2-90.17 5.99-100.19-38.96 53.91-93.24 5.25-147.86 39.36-240.27C1187.91 1755.27 1213.66 1748.87 1248.02 1747.87zM1276.1 1748.87l.4 2.85 23.81 58.51c0 0-7.63 181.17-3.82 217.13 3.82 35.97 68.7 22.65 71.56 9.32 2.86-13.32-.95-47.29-.95-80.59s-21.95-171.17-44.85-189.16C1299.36 1748.96 1276.1 1748.87 1276.1 1748.87z"/><path fill="#202234" d="M1404.68,1943.6c-2.68-3.27-19.85,3.34-24.93,7.4c-8.8,7.03-32.68,41.27-6.92,44.49         C1399.63,1998.84,1414.33,1955.37,1404.68,1943.6z"/><path fill="#0f1019" d="M1389.06,1970.8c-1.87-2.28-6.73-12.57-10.27-9.74c-6.13,4.89-22.76,28.74-4.82,30.98         C1392.63,1994.37,1395.78,1979,1389.06,1970.8z"/><path fill="#383b4b" d="M1245.97,1757.93c0,0,15.82,28.68,29.8,54.11c13.98,25.43,8.83,202.25,8.83,202.25l-24.28-132.47         l7.36-26.61l-19.87-8.28C1247.81,1846.93,1253.51,1779.22,1245.97,1757.93z"/><path fill="#383b4b" d="M1276.5,1752.31c0,0,6.99,43.76,13.61,72.15c6.62,28.39,6.07,190.27,6.07,190.27l25.94-150.95         l-16.56-23.95l12.14-15.08C1317.71,1824.75,1277.54,1759.09,1276.5,1752.31z"/><path fill="#f4dadd" d="M1309.86,1858.68c0,0-29.58,133.11-64.89,148.38h112.12c0,0,64.41-102.1,60.59-142.18L1309.86,1858.68          z"/><path fill="#33133f" d="M1377.13,1949.92c-2.2-0.69-4.74-0.6-7.02-0.46c-2.15,0.13-4.27,0.43-6.41,0.69          c-4.01,0.49-8.2,0.83-12.02-0.78c-4.07-1.71-7.52-5.6-9.21-9.64c-1.24-2.96-1.02-6.02,0.45-8.85          c2.96-5.71,9.03-9.72,9.69-16.56c0.56-5.73-1.95-11.54-4.26-16.63c-2.77-6.1-6.03-11.97-8.56-18.18          c-2.05-5.01-3.97-10.81-2.61-16.26c0.26-1.06,0.66-2.03,1.16-2.93l-28.48-1.64c0,0-29.58,133.11-64.89,148.38h112.12          c0,0,14.14-22.42,28.78-50.37C1383.38,1953.82,1380.92,1951.1,1377.13,1949.92z" opacity=".1"/><path fill="#c8d9fb" d="M1430.09,1871.56c0,0-2.86-11.93-15.27-12.41c-12.41-0.48-104.96-0.48-104.96-0.48s14.31,0,15.74,12.41          C1325.6,1871.09,1386.67,1864.88,1430.09,1871.56z"/><path fill="#383b4b" d="M1191.3,1762.55c39.76-16.85-25.52,152.91-25.52,152.91l99.24,40.79c0,0,16.45,14.31-8.94,26          c-25.4,11.7-100.78,25.48-139.39-23.16C1078.07,1910.44,1125.46,1790.46,1191.3,1762.55z"/><path fill="#33133f" d="M1265.01,1956.25l-99.24-40.79c0,0,16.27-42.3,27.61-82.57c-1.61-0.61-3.43-0.76-5.13-0.68          c-6.09,0.27-10.93,4.61-14.36,9.29c-1.77,2.41-3.28,5-4.63,7.66c-1.28,2.5-2.3,5.11-3.57,7.61          c-2.46,4.86-5.89,9.06-11.36,10.44c-2.93,0.74-6.01,0.78-9.01,0.67c-3.91-0.15-7.81-0.49-11.73-0.48          c-3.22,0.01-6.4,0.3-9.57,0.88c-4.06,0.75-7.98,2.01-12.02,2.84c-1.11,0.23-2.23,0.4-3.35,0.54          c-9.26,33.66-8.29,66.89,8.01,87.42c38.61,48.64,113.99,34.86,139.39,23.16          C1281.46,1970.55,1265.01,1956.25,1265.01,1956.25z" opacity=".15"/><path fill="#202234" d="M1251.28,1965.36c0.34-0.97,0.58-2.05,1.03-2.94c0.53-1.04,1.37-1.73,2.19-2.24          c1.58-0.97,2.72-1.76,4.34-2.46c1.32-0.57,3.12-0.03,4.48-0.4c1.58-0.43,2.88,0.06,3.99,1.75c1.07,1.63,1.77,3.74,2.22,5.86          c0.17,3.82-1.86,8.38-9.09,13.03c-1.06,0.68-2.37,1.32-3.89,1.92c-0.15-0.24-0.35-0.44-0.63-0.51          c-2.67-0.7-4.37-5.15-5.14-8.41c-0.19-0.8-0.38-1.66-0.35-2.51C1250.47,1967.3,1250.93,1966.36,1251.28,1965.36z"/><path fill="#ddae9f" d="M1279.79,1977.94L1279.79,1977.94c-0.92-0.11-2.2-0.41-4.05-1.05c0,0,0.01,0,0.04,0           c-0.93-0.28-1.88-0.64-2.81-1.04c-1.61-0.7-2.74-1.3-3.53-1.76c0,0-0.01,0-0.01-0.01c-1.15-0.69-1.53-1.09-1.53-1.09           s-6.94,1.23-8.98,0.31c-3.1-3.94,2.27-11.45,2.27-11.45c1.72-1.21,5.61,1.51,8.72,0.18c3.63-1.55,9.2-8.87,10.41-6.12           c1.21,2.76-4.04,6.3-4.04,6.3s0.08-0.01,0.23-0.01c0.89-0.03,4.25-0.08,7.19,0.92h0c0.82,0.28,1.6,0.64,2.29,1.1           c0.12,0.08,0.24,0.17,0.36,0.25c0.21,0.16,0.4,0.33,0.59,0.51c0.03,0.03,0.06,0.06,0.09,0.09           c0.09,0.09,0.18,0.18,0.26,0.28l0.01,0.01c0,0,0,0,0,0.01c0.15,0.32,0.22,0.74,0.13,1.3c-0.3,1.81-1.76,1.81-1.76,1.81           s1.19,0.8,0.73,2.23c-0.49,1.52-1.61,1.1-1.61,1.1s0.96,1.22,0.52,2.4c-0.46,1.25-1.75,0.74-1.75,0.74s0.8,0.76,0.28,2.23           C1283.39,1978.48,1279.79,1977.94,1279.79,1977.94z"/><path fill="#f2faff" d="M1282.84 1971.72c.03.04.05.09.02.16-.35.71-.66 1.41-.53 2.22.04.27.09.58-.08.82-.08.11-.19.18-.29.26-.14.11-.21.25-.28.41-.24.52-.37 1.1-.43 1.67-.03.26-.04.53-.04.8 1.06.02 2.38-.12 2.65-.88.52-1.46-.28-2.23-.28-2.23s1.29.51 1.74-.73c.43-1.18-.52-2.4-.52-2.4s1.12.42 1.61-1.1c.47-1.43-.72-2.23-.72-2.23s1.46.01 1.76-1.81c.09-.56.02-.98-.13-1.3 0 0 0 0 0-.01l-.01-.01c-.08-.1-.17-.19-.26-.28-.03-.03-.06-.06-.09-.09-.18-.18-.38-.35-.59-.51-.12-.09-.24-.17-.36-.25.06.44.01.91-.07 1.33-.09.48-.25.98-.62 1.32-.39.36-.93.44-1.34.75-.43.33-.57.93-.5 1.45.07.45.3.83.18 1.29-.13.52-.5.92-.81 1.34C1282.85 1971.71 1282.84 1971.72 1282.84 1971.72zM1279.54 1955.74c0 0-1.63 1.72-2.05 1.66-.42-.05-.46-.57-.46-.57S1278.83 1955.45 1279.54 1955.74z" opacity=".2"/><g><path fill="#ddae9f" d="M1358.12,1970.08c1.57-0.91,7.56,4.49,7.56,4.49s-8.16-10.11-6.35-10.98          c1.81-0.88,9.11,7.73,9.11,7.73s-8.59-11.35-7.41-13.17c1.18-1.82,10.19,10.77,10.19,10.77s-5.91-12.1-4.18-13.07          c1.73-0.98,7.66,11.26,9.43,13.52c1.15,1.46,2.9,1.48,2.89-0.47c-0.01-1.95,2.64-4.76,3.97-4.18          c1.33,0.58-1.71,6.26-0.62,8.34c1.09,2.08,1.77,4.79,1.25,5.98c-0.32,3.12-7.19,7.06-7.19,7.06s-3.57-0.67-6.44-3.09          C1367.44,1980.57,1356.55,1970.98,1358.12,1970.08z"/></g><g><path fill="#202234" d="M1267.99,1630.65c6.73,1.83,31.96,1.83,41.72,16.37c10.6,15.27-2.22,42.12,13.72,45.11          c17.28,0.33,9.82,21.85-4.79,31.28c-7.09,4.72-23.45,7.89-30.81,11.97c-11.86,7.8-33.77,11.81-50.27,8.99          c-16.63-2.3-27.84-11.44-21.26-17.84c13.54-15.81-6.81-21.53,6.72-38.36c10.91-14.85,5.61-19.1,8.75-25.96          C1241.49,1639.58,1250.86,1628.73,1267.99,1630.65z"/><path fill="#ddae9f" d="M1252.08,1711.82l-4.69,46.52c0,0,14.47,21.5,28.93,5.47l-0.39-31.28L1252.08,1711.82z"/><path fill="#33133f" d="M1263.92,1764.41c3.11-5.29,4.3-13.33-0.52-18.04c-1.95-1.91-4.49-3.1-6.36-5.08          c-2.34-2.47-2.76-6.21-2.42-9.45c0.56-5.29,2.8-10.45,2.44-15.69l18.86,16.39l0.39,31.28c-5.65,6.26-11.29,6.79-16.08,5.11          C1261.65,1767.64,1262.9,1766.14,1263.92,1764.41z" opacity=".15"/><path fill="#ddae9f" d="M1313.72,1663.99c0,0,2.61,74.8-27.11,77.15c-29.71,2.35-42.74-28.93-42.74-28.93          s-5.47,3.39-6.78-2.08c-1.3-5.47-7.82-15.12-1.3-18.77c6.52-3.65,8.6,2.35,8.6,2.35l-3.65-16.94          C1240.74,1676.76,1312.94,1639.49,1313.72,1663.99z"/><path fill="#33133f" d="M1241.51 1694.74c0 0-3.91-2.11-5.48.94-1.56 3.05 1.88 14.71 6.49 13.3 0 0-5.95-2.58-5.24-9.7C1237.98 1692.15 1240.49 1697 1241.51 1694.74zM1259.52 1712.78c-.35 2.08 1.91 4.19 5.05 4.72 3.14.53 5.97-.73 6.32-2.8s-1.91-4.19-5.05-4.72S1259.87 1710.71 1259.52 1712.78zM1295.1 1712.98c-.35 2.08 1.91 4.19 5.05 4.72s5.97-.73 6.32-2.8c.35-2.08-1.91-4.19-5.05-4.72C1298.28 1709.65 1295.45 1710.9 1295.1 1712.98z" opacity=".05"/><path fill="#202234" d="M1293.59 1693.46c.3 0 .6-.16.76-.44.14-.25 3.55-5.86 11.87-2.16.45.2.96 0 1.16-.45.2-.44 0-.96-.45-1.16-9.82-4.35-14.06 2.82-14.1 2.9-.24.42-.09.96.33 1.2C1293.29 1693.43 1293.44 1693.46 1293.59 1693.46zM1276.56 1693.62c.11 0 .22-.02.33-.06.45-.18.67-.69.49-1.14-.03-.08-3.21-7.74-14.77-5.27-.47.1-.78.57-.67 1.04.1.47.56.78 1.04.67 10.04-2.15 12.66 3.94 12.77 4.2C1275.89 1693.41 1276.21 1693.62 1276.56 1693.62zM1286.56 1715.79c.3 0 .6-.04.9-.13 1.86-.54 2.65-2.64 2.68-2.73.1-.26.06-.55-.09-.78-3.14-4.82-2.31-11.36-2.31-11.43.06-.48-.27-.92-.75-.99-.48-.07-.92.27-.99.75-.04.29-.88 6.9 2.31 12.21-.25.46-.72 1.1-1.36 1.28-.6.17-1.32-.06-2.15-.7-.39-.29-.94-.22-1.23.16-.3.39-.22.94.17 1.23C1284.72 1715.42 1285.66 1715.79 1286.56 1715.79z"/><path fill="#fcfaf7" d="M1292.21,1724.62c0,0-10.01,4.54-21.23-0.68C1268.43,1728.6,1281.72,1740.74,1292.21,1724.62z"/><path fill="#202234" d="M1296.25 1700.74c0 2.74 1.52 4.95 3.39 4.95 1.87 0 3.39-2.22 3.39-4.95 0-2.74-1.52-4.95-3.39-4.95C1297.77 1695.79 1296.25 1698.01 1296.25 1700.74zM1265.76 1700.74c0 2.74 1.52 4.95 3.39 4.95s3.39-2.22 3.39-4.95c0-2.74-1.52-4.95-3.39-4.95S1265.76 1698.01 1265.76 1700.74z"/><path fill="#33133f" d="M1279.22,1737.06c0.93,0,1.53-0.14,1.59-0.15c0.24-0.06,0.38-0.29,0.33-0.53           c-0.06-0.23-0.29-0.38-0.53-0.33c-0.04,0.01-3.89,0.86-7.38-2.16c-0.19-0.15-0.46-0.14-0.62,0.04           c-0.16,0.18-0.14,0.46,0.04,0.62C1275.08,1736.65,1277.63,1737.06,1279.22,1737.06z" opacity=".05"/><path fill="#202234" d="M1300.19,1651.72c-0.18-3.14-0.02-5.19-0.02-5.19c30.89,2.74,16.03,34.79,16.03,34.79          c-10.72-5.36-14.35-16.7-15.54-24.98c-8.3,11.36-34.28,24.96-63.31,25.55l-3.64-6.43L1300.19,1651.72z"/><path fill="#202234" d="M1303.07,1651.1c-1.34,8.66-7.54,16.21-14.15,21.57c-8.7,7.06-19.5,11.35-30.68,12.1          c-7.48,0.5-14.95-0.66-22.02-3.08c-1.33-0.45-0.76-2.58,0.58-2.12c11.59,3.96,24.03,4.19,35.59-0.01          c9.17-3.33,17.77-9.34,23.46-17.34c2.49-3.51,4.44-7.43,5.11-11.71C1301.17,1649.13,1303.28,1649.72,1303.07,1651.1          L1303.07,1651.1z"/></g></g><g><path fill="#0f1019" d="M750.3,2212.27l-39.43,7.04c-0.86,0.15-1.68-0.42-1.83-1.27l-34.55-193.63        c-0.15-0.86,0.42-1.68,1.28-1.83l39.43-7.04c0.86-0.15,1.68,0.42,1.83,1.27l34.55,193.63        C751.73,2211.29,751.15,2212.11,750.3,2212.27z"/><rect width="23.44" height="245.07" x="820.72" y="2248.7" fill="#0f1019" transform="rotate(-180 832.438 2371.236)"/><path fill="#202234" d="M803.14,2236.49c0,17.47,13.59,31.64,30.37,31.64c16.77,0,30.36-14.16,30.36-31.64         c0-17.47-13.59-31.63-30.36-31.63C816.73,2204.85,803.14,2219.02,803.14,2236.49z"/><path fill="#100959" d="M966.64,2179.88H687.58c-13.64,0-24.69,9.75-24.69,21.78v10.83c0,12.03,11.05,21.78,24.69,21.78h279.06         c13.64,0,24.69-9.75,24.69-21.78v-10.83C991.33,2189.63,980.28,2179.88,966.64,2179.88z"/><path fill="#202234" d="M754.52,2523.88h155.83v-34.29c0-0.81-0.66-1.46-1.46-1.46h-152.9c-0.81,0-1.46,0.66-1.46,1.46V2523.88         z"/><path fill="#0f1019" d="M910.26,2516.98H754.62c-14.1,0-25.53,11.43-25.53,25.53h206.7         C935.79,2528.41,924.36,2516.98,910.26,2516.98z"/><path fill="#100959" d="M589.36,1877.45l26.63,171.89c2.84,18.24,19.36,31.09,37.75,29.36l42.67-4.03l70.71-6.69        c19.43-1.83,33.57-19.28,31.34-38.68l-18.21-158.79c-2.02-17.34-16.48-30.51-33.93-30.87c-6.19-0.11-13.03-0.25-20.37-0.39        c-31.63-0.61-71.78-1.4-101.54-1.94C602.78,1836.86,586.05,1856.07,589.36,1877.45z"/><path fill="#231f20" d="M696.41,2074.66l70.71-6.69c19.43-1.83,33.57-19.28,31.34-38.68l-18.21-158.79        c-2.02-17.34-16.48-30.51-33.93-30.87c-6.19-0.11-13.03-0.25-20.37-0.39c-1.51,25.19-2.01,61.24,3.13,97.37        C737.54,1995.97,681.98,2032.31,696.41,2074.66z" opacity=".25"/><polygon fill="#ddae9f" points="1014.01 2520.99 1013.71 2536.29 998.65 2536.52 999.24 2520.99"/><path fill="#202234" d="M1069.38 2553.42c0 0 .98-4.92-1.47-7-2.45-2.08-19.56-8.51-33.75-10.59-14.18-2.08-36.44-5.11-39.12-1.89-2.69 3.21-1.71 19.29-1.71 19.29L1069.38 2553.42zM964.28 2047.87c0 0 186.45 20.51 170.68 162-9.74 87.38-118.05 318.88-118.05 318.88h-23.75l-39.8-353.57c0 0-125.24-58.57-119.78-100.8C839.04 2032.14 964.28 2047.87 964.28 2047.87z"/><polygon fill="#ddae9f" points="857.19 2513.96 855.14 2528.65 840.62 2527.84 842.98 2512.94"/><path fill="#202234" d="M906.7,2548.97c0,0,1.51-4.66-0.6-6.83c-2.11-2.17-17.83-9.53-31.23-12.51         c-13.4-2.98-34.45-7.42-37.41-4.52c-2.96,2.91-3.87,18.43-3.87,18.43L906.7,2548.97z"/><path fill="#383b4b" d="M791.4,2029.12c0,0-88.83,82.74-37.3,154.81c17.37,24.3,117.08,44.54,117.08,44.54l-31.1,290.39        c0,0,8.38,5.68,18.9,2.45c13.13-4.03,124.5-125.27,179.26-306.13C1065.49,2125.21,907.22,2092.63,791.4,2029.12z"/><path fill="#ddae9f" d="M1124.01,1978.55c2.43,0.49,4.89,0.84,7.23,0.97v0.01c0.01,0,0.01,0,0.02,0.01          c0.12,0.01,0.72,0.11,1.59,0.23h0.01c0.7,0.1,1.56,0.19,2.48,0.26l0,0c0,0,10.29,1.48,11.89-1.21          c1.6-2.69-0.01-4.41-0.01-4.41s2.96-0.66,3.35-3.61c0.39-2.95-1.49-4.05-1.49-4.05s2.75-0.54,3.2-3.88          c0.45-3.35-2.03-5.17-2.03-5.17s4.09-1.07,1.74-5.74c-2.34-4.65-9.99-4.34-10.32-4.37c-1.37-0.15-2.71-0.23-4.01-0.26          c-0.35,0-0.71-0.07-1.06-0.01c-24.8,4.58-64.65-8.01-67.7-4.72c0,0-7.73,19.24-3.42,22.03c4.67,1.01,46.14,5.69,46.14,5.69          S1114.89,1976.72,1124.01,1978.55z"/><path fill="#fff" d="M1131.24,1979.52L1131.24,1979.52c0.01,0.01,0.01,0.01,0.02,0.01c0.12,0.01,0.72,0.11,1.59,0.23h0.01          c0.7,0.1,1.56,0.19,2.48,0.26l0,0c0,0,10.29,1.48,11.89-1.21c1.6-2.69-0.01-4.41-0.01-4.41s2.96-0.66,3.35-3.61          c0.39-2.95-1.49-4.05-1.49-4.05s2.75-0.54,3.2-3.88c0.45-3.35-2.03-5.17-2.03-5.17s4.09-1.07,1.74-5.74          c-0.84-1.67-2.37-2.7-4-3.33c1,1.7,1.61,3.83,1.28,5.75c-0.08,0.49-0.24,0.98-0.5,1.41c-0.29,0.49-0.71,0.89-1.05,1.36          c-0.73,1-0.35,2.19-0.14,3.32c0.28,1.46,0.4,2.9-0.14,4.32c-0.41,1.06-1.11,1.95-1.74,2.88c-0.66,0.98-1.17,2.04-1.16,3.24          c0.01,1.15,0.06,2.23-0.36,3.32c-0.71,1.9-2.48,2.94-4.37,3.39c-1.31,0.31-2.66,0.33-4,0.37c-1.74,0.06-3.49,0.09-5.23,0.12          c-2.99,0.05-5.94,0.14-8.91-0.18c0.73,0.23,1.49,0.45,2.32,0.61C1126.45,1979.03,1128.91,1979.39,1131.24,1979.52z" opacity=".2"/><path fill="#231f20" d="M1126.69,1949.04c0,0,7.76-0.69,8.1,3c0.34,3.7-7.2,2.66-8.84,11.47c-2.27,12.2,7.92,12.34,8.91,13.41         c0.98,1.06,4.06,0.86,4.06,0.86s-2.66-1.57-2.4-4.08c0.26-2.51,2.35-9.84,1.81-14.02c5.58-1.6,9.93-10.08,6.91-11.64         C1142.2,1946.48,1128.44,1946.56,1126.69,1949.04z" opacity=".1"/><path fill="#c68e7d" d="M1136.8,1974.07c0.01,0.63,0.02,1.26,0.06,1.88c0.07-0.6,0.14-1.19,0.2-1.78         c1.56,0.34,3.17,0.52,4.85,0.59c1.72,0.07,3.5-0.02,5.31-0.34c-1.79,0.21-3.51,0.18-5.15,0c-1.63-0.18-3.22-0.5-4.67-0.94         l-0.01,0c-0.07-0.02-0.16-0.01-0.25,0.01c0.1-0.91,0.19-1.81,0.3-2.72c0.14-1.1,0.27-2.2,0.42-3.3         c1.59,0.2,3.21,0.27,4.89,0.21c1.81-0.07,3.68-0.31,5.57-0.8c-1.88,0.37-3.69,0.47-5.43,0.42c-1.72-0.06-3.39-0.26-4.93-0.61         c0.05-0.36,0.09-0.71,0.15-1.07c0.24-1.71,0.54-3.42,0.88-5.12c0.07-0.38,0.17-0.76,0.26-1.14c1.7,0.08,3.43-0.02,5.21-0.25         c1.79-0.24,3.63-0.65,5.46-1.32c-1.83,0.54-3.62,0.82-5.35,0.92c-1.73,0.1-3.42,0.06-5-0.14l-0.01,0         c-0.04-0.01-0.08,0-0.13,0.01c0.05-0.2,0.09-0.41,0.14-0.61c0.2-0.85,0.45-1.68,0.74-2.5c-0.87,1.53-1.41,3.21-1.89,4.89         c-0.48,1.69-0.8,3.41-1.06,5.14c-0.26,1.73-0.42,3.48-0.5,5.22l-0.07,2.62c0,0.14,0.01,0.28,0.01,0.42         C1136.73,1973.87,1136.73,1973.99,1136.8,1974.07z"/><path fill="#ddae9f" d="M1137.88,1959.72c2.26-0.47,7.21-10.79,7.21-10.79c-0.19-4.19-10.8-8.35-12.71-7.95         c-8.22,0.93-13.99,4.63-14.67,7.16c4.03,0.87,9.74,0.79,14.94,0.67c1.84,0.84,4.26,2.36,3.61,4.32         C1135.23,1956.21,1135.62,1960.19,1137.88,1959.72z"/><path fill="#fff" d="M1136.84,1945.17c0.77,1.34,5.61,2.13,5.42,3.66c-0.94,7.55-3.6,4.13-6.11,7.74         c-0.12,0.17-0.28,0.29-0.4,0.45c0.13,1.71,0.8,2.98,2.13,2.7c2.26-0.47,7.21-10.79,7.21-10.79         c-0.18-3.96-9.65-7.89-12.31-7.97C1135.34,1941.77,1135.49,1942.83,1136.84,1945.17z" opacity=".2"/><path fill="#fff" d="M1140.19,1956.69c0,0-1.28,2.74-2.49,2.86c-1.21,0.12-0.55-1.31,0.03-2.15         c0.57-0.83,1.24-1.38,1.24-1.38L1140.19,1956.69z" opacity=".2"/><path fill="#231f20" d="M1111.33,1968.98c-1.71-2.59-1.01-7.57,0.09-12.04c0.84-3.4,3.13-6,5.33-7.79         c-0.61,0.2-1.22,0.41-1.82,0.68c-1.56,0.69-8.47,3.32-9.15,7.83c-1.08,7.04,4.72,9.83,5.27,11.27         C1111.15,1968.94,1111.24,1968.96,1111.33,1968.98z" opacity=".1"/><path fill="#dce8ef" d="M924.37,1756.68c34.27,32.65,51.91,131.63,51.91,131.63l130.23,57.15v27.63         c0,0-191.04,17.44-222.41-31.04c-31.37-48.48-41.66-155-41.66-155S856.03,1691.57,924.37,1756.68z"/><path fill="#33133f" d="M1033.7,1976.14c0.42-1.49,0.7-3.01,0.79-4.56c0.21-3.58-0.59-7.14-2.37-10.26         c-1.66-2.92-4.04-5.35-6.65-7.43c-5.56-4.43-12.13-7.38-18.32-10.8c-3.03-1.67-6.24-3.4-8.64-5.93         c-2.19-2.3-3.54-5.17-4.35-8.22c-1.56-5.88-1.63-12.3-6.56-16.6c-1.39-1.22-3.04-2.09-4.57-3.13c-1.36-0.93-2.68-1.93-3.93-3         c-2.31-1.98-4.36-4.25-6.03-6.79c-3.75-5.72-5.41-12.63-6.31-19.34c-0.88-6.53-0.63-13.25,1.27-19.59         c0.36-1.21,0.8-2.4,1.28-3.57c-8.08-31.9-23.15-79.48-44.94-100.24c-68.34-65.11-81.93,30.37-81.93,30.37         s10.28,106.52,41.66,155C902.54,1970.55,976.15,1976.27,1033.7,1976.14z" opacity=".15"/><path fill="#202234" d="M898.56,1737.74c0,0,31.17,19.19,43.75,51.33c12.57,32.14,52.34,269.47-20.59,300.33        c-22.73,9.62-89.69,58.76-191.77-8.93c-34.89-23.14,8.78-274.23,42.79-307.41C806.75,1739.88,843.56,1723.67,898.56,1737.74z"/><path fill="#0f1019" d="M751.52,1816.64c1,1.4,1.96,2.82,3.01,4.21c15.35,20.23,36.53,35.88,59.51,50.4        c8.78,5.55,17.52,10.83,27.56,14.82c8.9,3.54,18.31,6.31,27.97,8.15c18.45,3.52,57.69-54.34,76.03-58.57        c12.03,30.25-20.75,151.71-60.83,178.91c-26.9,18.25-93.3-11.2-118.08-7.87c7.3,19.86,111.68,27.14,128.96,42.33        c12.56,11.04,24.67,22.4,36.77,33.77c-3.32,2.75-6.87,5.01-10.7,6.63c-22.73,9.62-89.69,58.76-191.77-8.93        C702.16,2062.04,724.21,1899,751.52,1816.64z" opacity=".25"/><path fill="#383b4b" d="M889.82,1758.75c6.43,27.3,12.05,54.71,17.31,82.15c5.22,27.45,9.6,54.99,13.13,82.59        c3.79,27.58,6.48,55.26,7.36,82.98c0.67,13.86,0.24,27.73-0.32,41.58l-1.79,20.75l-3.79,20.6        c7.16-27.27,7.61-55.25,7.03-82.95c-0.7-27.76-3.18-55.48-6.8-83.09c-3.72-27.61-8.29-55.15-13.7-82.59        C902.92,1813.33,896.9,1785.96,889.82,1758.75z"/><path fill="#ddae9f" d="M926.74,1647.07c0,0,6.39,78.13-7.36,80.56c-13.75,2.43-27.65-3.58-27.65-3.58l-8.14,38.06            c0,0-10.52,3.6-29.43-16.3l4.8-37.3L848,1663.79C848,1663.79,899.48,1615,926.74,1647.07z"/><path fill="#0f1019" d="M927.54,1663.49c0,0-23.91,4.41-33.19,0.15c0,0-3.2,24.34-10.33,19.51            c-7.13-4.83-13.64-18.12-13.64-18.12l16.8-11.52l40.04,0.43L927.54,1663.49z" opacity=".2"/><path fill="#202234" d="M887.44,1657.44c0,0,0.8,25.25-4.74,22.06c-5.54-3.19-12.32-14.48-12.32-14.48l-9.95,42.37            c0,0-4.64,20.34-7.79,5.84c-3.15-14.51-19.29-32.07-21.37-55.1c-2.07-23.03,22.81-56.5,50.38-47.99            c27.56,8.5,67.82-4.01,71.18,7.08C956.17,1628.29,942.39,1667.57,887.44,1657.44z"/><polygon fill="#ea9c8c" points="891.44 1724.1 877.05 1717.34 888.65 1738.49"/><polygon fill="#f2faff" points="885.89 1751.3 883.6 1762.1 897.44 1751.99"/><path fill="#383b4b" d="M885.89,1751.4l15.19,2.19c0,0-4.27-13.86-12.49-15.73L885.89,1751.4z"/><path fill="#f2faff" d="M878.74,1750.21l4.75,12.27c0,0-12.9,0.28-16.91-2.99L878.74,1750.21z"/><path fill="#383b4b" d="M878.74,1750.21l-13.17,18.78c0,0-32.52-28.18-9.35-37.55c0,0-3.17,7.28,0.6,12.64          C860.45,1749.24,878.74,1750.21,878.74,1750.21z"/><g><path fill="#d7a28e" d="M951.54,1789.24c0,0-3-7.79-1.78-14.58c0.53-2.95,5.42-5.27,7.64-4.84c2.05,0.4,5.53,4.3,5.95,5.86          c0.42,1.56,0.55,3.61-3.34,2.05c-3.89-1.56-4.46-0.57-4.46-0.57L951.54,1789.24z"/><path fill="#ddae9f" d="M978.66,1786.71c-0.29,0.59-0.6,1.1-0.89,1.48c-0.06,0.08-0.11,0.15-0.16,0.2            c-1.3,1.56-2.68,3.04-4,4.36c-3.54,3.58-6.67,6.1-6.67,6.1s-9.58,27.72-12.08,30.63c-3.63,1.97-17.47-6.62-17.47-6.62            c-1.15-3.41,11.85-29.9,13.29-35.51c1.45-5.61,5.4-11.23,5.4-11.23s13.33-29.63,16.79-27.87            c2.68,1.36-3.84,16.66-5.47,22.22c-0.01,0.05-0.03,0.09-0.04,0.14c0.01-0.01,2.48-0.96,4.09,0.85            c0.79,0.88,0.84,1.68,0.84,1.68s1.58-0.06,2.5,0.58c0.93,0.65,1.99,2.13,1.8,2.64c0.02,0.01,1.41-0.12,2.25,1.03            c0.84,1.14,0.53,3.26,0.53,3.26l-0.01-0.01c0.07,0.25,0.14,0.5,0.19,0.74C979.92,1783.28,979.36,1785.26,978.66,1786.71z"/><path fill="#fff" d="M968.44 1771.23c.47.19.93.39 1.33.69.33.25.67.55.9.89.2.29.28.6.37.94.05.18.1.42.26.52.16.11.41.1.6.14.43.08.83.26 1.24.42.86.34 1.64.76 2.3 1.41.49.48 1 1.06 1.02 1.78.01.2-.03.4-.02.59.02.25.11.21.33.27.38.1.73.33 1.04.56 1.3.96 1.48 2.52 1.48 4.02 0 .54-.01 1.07-.01 1.61.34-1.15.51-2.44.27-3.69-.05-.25-.12-.49-.19-.74l.01.01c0 0 .31-2.11-.53-3.26-.84-1.15-2.23-1.02-2.25-1.03.19-.51-.87-1.99-1.8-2.64-.93-.64-2.5-.58-2.5-.58s-.05-.8-.84-1.68c-1.56-1.75-3.91-.92-4.08-.86C967.7 1770.87 968.03 1771.07 968.44 1771.23zM970.5 1750.6c0 0 1.88 1.23 2.21.84.33-.39.45-2.92-.15-2.93C971.94 1748.51 970.48 1749.99 970.5 1750.6z" opacity=".2"/><path fill="#f2faff" d="M964.7,1808.84l-20.67-10.33l-64.07,74.41c0,0-26.87-78.54-45.47-100.24        c-18.6-21.7-68.21-35.14-77.51,21.7c-9.3,56.84,39.27,213.92,109.54,213.92C925.43,2008.29,964.7,1808.84,964.7,1808.84z"/><path fill="#33133f" d="M941.95,1833.65c-1.11,6.07-1.99,12.19-3.28,18.23c-1.17,5.51-2.89,10.64-5.36,15.71        c-2.78,5.69-6.12,11.15-10.42,15.83c-4.28,4.67-9.45,8.43-15.13,11.21c-2.88,1.41-5.75,2.81-8.7,4.07        c-2.6,1.12-5.23,2.2-7.69,3.61c-2.37,1.36-4.55,3.06-6.18,5.28c-2.02,2.74-3.08,6.04-3.89,9.31        c-1.92,7.74-1.18,15.78-2.12,23.65c-0.82,6.79-3.13,13.34-7.87,18.39c-7.86,8.35-20.18,11.23-31.29,10.54        c-5.48-0.34-11.19-1.43-16.11-3.96c-5.09-2.62-9.18-6.77-12.76-11.16c-3.69-4.52-6.95-9.39-10.8-13.78        c-3.8-4.33-8.41-8.49-14.07-10.11c-0.33-0.1-0.67-0.18-1.01-0.25c19.7,42.99,48.06,78.07,81.26,78.07        c58.9,0,98.17-199.45,98.17-199.45l-9.95-4.97C946.17,1810.79,943.81,1823.41,941.95,1833.65z" opacity=".15"/></g><path fill="#202234" d="M915.08 1673.25c-.33.15-.73.09-.98-.19-.19-.21-4.74-4.99-12.06-.63-.4.23-.92.11-1.16-.29-.24-.4-.11-.92.29-1.16 8.54-5.12 14.12.88 14.17.94.31.34.29.88-.06 1.19C915.22 1673.17 915.15 1673.21 915.08 1673.25zM931.77 1670.96c-.04-.06-3.69-6.06-9.28-.94-.26.24-.35.76-.19 1.16.16.4.49.52.76.29 4.79-4.37 7.77.42 7.89.63.17.28.43.35.65.19.05-.04.09-.08.14-.14C931.96 1671.84 931.98 1671.31 931.77 1670.96zM922.01 1695.22c2.24-.82 3.02-2.47 3.06-2.57.16-.35.06-.77-.25-1.01-1.92-1.52-2.73-7.22-2.88-9.28-.03-.47-.44-.82-.9-.78-.46.03-.82.44-.78.9.06.78.58 7.23 2.95 9.94-.51.61-1.7 1.59-4.03 1.56-.46-.01-.85.37-.85.83-.01.47.37.85.83.86C920.3 1695.68 921.24 1695.5 922.01 1695.22zM904.83 1678.49c0 2.63 1.46 4.76 3.26 4.76 1.8 0 3.26-2.13 3.26-4.76s-1.46-4.77-3.26-4.77C906.29 1673.72 904.83 1675.85 904.83 1678.49z"/><ellipse cx="927.75" cy="1677.59" fill="#202234" rx="2.69" ry="3.93"/><path fill="#202234" d="M919.86,1706.4c0,2.63,1.46,4.76,3.26,4.76c1.8,0,3.26-2.13,3.26-4.76c0-2.63-1.46-4.77-3.26-4.77       C921.32,1701.63,919.86,1703.76,919.86,1706.4z"/><path fill="#ddae9f" d="M871.89,1668.06c0,0,0.59-4.87-4.05-6.08c-15.03-3.94-4.77,20.04-0.72,21.35       C871.18,1684.64,871.89,1668.06,871.89,1668.06z"/><path fill="#c68e7d" d="M868.31,1666.27c0,0-1.79-3.34-4.29-1.31s1.91,12.88,1.91,12.88s-2.62-11.09,0.24-10.62       C869.03,1667.7,868.31,1666.27,868.31,1666.27z"/></g><g><path fill="#0f1019" d="M1123.47,2558.15c0,12.81,60.73,23.19,135.64,23.19c74.91,0,135.64-10.38,135.64-23.19         c0-2.15-0.14-5.65-0.14-5.65c-15.9-9.79-73.19-10.64-135.51-10.64c-60.78,0-113.45,7.53-135.36,10.31         C1123.47,2553.91,1123.47,2555.73,1123.47,2558.15z"/><ellipse cx="1259.12" cy="2553.2" fill="#5681f1" rx="135.64" ry="16.09"/><path fill="#4094f2" d="M1233.62,2058.43v487.48h0.07c0,3.31,11.33,5.96,25.38,5.96c0.07,0,0.07,0,0.14,0          c12.87,0,23.46-2.21,25.16-5.15c0.22-0.22,0.3-0.52,0.3-0.81c0-0.07-0.07-0.15-0.07-0.22v-487.26H1233.62z"/><path fill="#202234" d="M1233.7,2073.15l25.38,16.4v462.33c0.07,0,0.07,0,0.14,0c12.87,0,23.46-2.21,25.16-5.15l0.22-0.81          v-472.77H1233.7z" opacity=".2"/><path fill="#4094f2" d="M904.94,2014.59c0,33.44,158.57,60.55,354.17,60.55c195.6,0,354.17-27.11,354.17-60.55        c0-5.62-0.35-14.75-0.35-14.75c-41.5-25.56-191.11-27.78-353.82-27.78c-158.71,0-296.21,19.66-353.43,26.92        C904.94,2003.52,904.94,2008.28,904.94,2014.59z"/><path fill="#c8d9fb" d="M904.94,2001.67c0,23.21,158.57,42.02,354.17,42.02c195.6,0,354.17-18.81,354.17-42.02        s-158.57-42.02-354.17-42.02C1063.51,1959.65,904.94,1978.46,904.94,2001.67z"/><path fill="#4094f2" d="M1125.17,2036.06c-6.89-2.87-16-7.05-18.85-14.57c-3-7.9,3.72-14.7,10.43-17.79        c13.88-6.39,32.11-1.46,46.48,0.5c11.7,1.6,31.72,5.5,40.89-4.73c-7.42-6.53-15.62-13.4-18.54-23.04        c-1.61-5.32-0.94-10.91,1.23-15.9c-160.93,3.96-281.87,20.87-281.87,41.14c0,18.27,98.34,33.81,235.64,39.6        C1135.34,2039.8,1130.16,2038.14,1125.17,2036.06z" opacity=".2"/></g><g><polygon fill="#0f1019" points="1013.24 2012.68 942.71 1992.44 1091.98 1988.21"/><polygon fill="#383b4b" points="1013.24 2008.9 942.06 1992.22 1091.98 1984.43"/><path fill="#5681f1" d="M1025.12,1902.42l-14.04,103.56c-0.63,4.67,2.12,8.06,6.31,7.76l168.7-11.91        c4.19-0.3,8.4-4.17,9.66-8.89l27.8-104.53c0.92-3.41,0.36-6.47-1.55-8.56c-1.39-1.52-3.5-2.14-5.77-1.98l-179.3,12.66        c-2.26,0.16-4.68,1.09-6.74,2.86C1027.38,1895.82,1025.56,1899.04,1025.12,1902.42z"/><path fill="#383b4b" d="M1030.2,1893.39c1.32-1.13,2.79-1.89,4.27-2.35c-0.85,2.47-1.68,4.94-2.41,7.42        c-2.71,9.17-4.64,18.94-5.58,27.98c-1.62,15.76,1.23,31.38,7.5,43.28c5.57,10.58,14.73,17.86,26.17,20.73        c12.55,3.14,27.25,2.3,40.83,2.24c13.43-0.06,27.36-0.65,41.43-6.96c12.27-5.51,23.81-14.18,32.92-25.94        c4.72-6.1,8.2-12.98,11.98-19.62c4.25-7.46,8.59-14.89,13.35-22.08c5.98-9.03,13.16-19.1,21.81-25.61l-26.72,100.46        c-1.25,4.72-5.47,8.59-9.66,8.89l-168.7,11.91c-4.19,0.3-6.95-3.09-6.31-7.76l14.04-103.56        C1025.56,1899.04,1027.38,1895.82,1030.2,1893.39z" opacity=".15"/><path fill="#383b4b" d="M1107.51,1923.04c-1.1,5.48,1.95,9.64,6.84,9.3c3.06-0.22,6.12-2.16,8.22-4.94        c1.25-1.64,2.18-3.57,2.59-5.6c1.1-5.47-1.96-9.62-6.82-9.28c-1.82,0.13-3.62,0.86-5.23,2.01        C1110.36,1916.46,1108.2,1919.6,1107.51,1923.04z" opacity=".25"/><path fill="#383b4b" d="M1110.51,1920.13c-1.1,5.46,1.96,9.62,6.82,9.28c1.81-0.13,3.62-0.86,5.23-2.01        c1.25-1.64,2.18-3.57,2.59-5.6c1.1-5.47-1.96-9.62-6.82-9.28c-1.82,0.13-3.62,0.86-5.23,2.01        C1111.85,1916.17,1110.92,1918.09,1110.51,1920.13z" opacity=".25"/></g><g><polygon fill="#383b4b" points="1313.92 1918.81 1318.53 1918.81 1317.81 1951.87 1313.92 1951.87"/><path fill="#7ac094" d="M1329.95,1927.45c0.54-0.5,15.33-14.81,13.59-32.76c-1.74-17.95-15.86-22.4-11.85-43.31         c4.01-20.92,0-35.35-12.2-35.54c-12.2-0.19-17.77,12.4-13.24,34.8s-14.88,31.16-13.94,47.57         C1293.4,1917.13,1307.47,1948.19,1329.95,1927.45z"/><path fill="#f2faff" d="M1311.05,1818.64c0.21,1,0.76,1.98,1.67,2.41c0.83,0.4,1.79,0.31,2.67,0.15         c1.62-0.3,3.26-0.95,4.93-0.72c0.84,0.12,1.64,0.51,2.39,0.9c0.83,0.43,1.61,0.96,2.34,1.56c1.4,1.14,2.61,2.57,3.45,4.23         c0.95,1.89,1.28,3.97,1.34,6.1c0.07,2.45-0.15,4.91,0.27,7.34c0.28,1.62,0.75,3.39,1.81,4.63c0.21,0.24,0.43,0.43,0.67,0.6         c2.32-17.88-2-29.83-13.09-30c-3.35-0.05-6.19,0.87-8.46,2.69C1311.04,1818.57,1311.04,1818.6,1311.05,1818.64z" opacity=".2"/><path fill="#202234" d="M1320.02,1890.78c-1.7-3.31-1.72-7.43-0.79-10.99c0.5-1.91,1.26-3.73,2.14-5.48         c0.35-0.7,0.79-1.37,1.11-2.09c0.23-0.52,0.19-0.98,0-1.51c-0.33-0.92-0.79-1.79-1.16-2.69c-0.37-0.91-0.72-1.83-1.03-2.77         c-0.63-1.95-0.88-3.93-1.03-5.97c-0.14-2.02-0.07-4.11,0.53-6.05c0.54-1.73,1.72-3.13,2.31-4.82         c-0.97-0.63-1.81-1.44-2.51-2.4c-0.8-1.1-1.43-2.33-1.92-3.63c-0.01,2.86-0.01,5.73-0.01,8.59         c-0.03,11.42-0.07,22.83-0.1,34.25c-0.02,10.17-0.02,20.35-0.02,30.52c0.2-0.73,0.41-1.46,0.65-2.18         c2.16-6.45,5.75-12.17,9.24-17.88C1324.32,1895.81,1321.5,1893.68,1320.02,1890.78z" opacity=".15"/><path fill="#202234" d="M1321.82,1932.97c-1.71,0.02-3.44-0.28-4.98-1.11c-1.62-0.88-2.89-2.32-3.79-3.98         c-0.55-1.03-0.88-2.05-1.07-3.21c-0.2-1.25-0.41-2.43-1.19-3.44c-1.35-1.76-3.65-2-5.49-2.89c-1.73-0.83-3.06-2.41-4.08-4.07         c-1.03-1.67-1.76-3.54-2.26-5.46c-1.06-4.06-1.17-8.4-0.68-12.56c0.45-3.85,1.41-7.67,3.21-11.07         c2.15-4.05,4.96-7.67,6.97-11.8c0.98-2.03,1.72-4.19,2.04-6.45c0.38-2.7,0.14-5.41-0.44-8.05c-0.64-2.92-1.65-5.72-2.7-8.49         c-0.97-2.59-1.81-5.2-2.37-7.92c0.26,2.56,0.67,5.29,1.26,8.19c4.53,22.4-14.88,31.16-13.94,47.57         c0.94,16.52,11.8,42.3,29.51,34.76C1321.82,1932.97,1321.82,1932.97,1321.82,1932.97z" opacity=".15"/><path fill="#b8debf" d="M1333.14,1890.72c-0.07-0.08-0.19-0.08-0.26,0l-15.45,16.41v-27.91l8.61-9.66         c0.07-0.08,0.07-0.2-0.01-0.27c-0.07-0.07-0.19-0.07-0.26,0.01l-8.34,9.36v-25.11l6.26-6.74c0.07-0.08,0.07-0.2,0-0.28         c-0.07-0.08-0.19-0.07-0.26,0l-5.99,6.46v-21.6c0-0.11-0.08-0.2-0.18-0.2c-0.1,0-0.18,0.09-0.18,0.2v30.12l-4.76-4.31         c-0.08-0.07-0.19-0.06-0.26,0.02c-0.07,0.08-0.06,0.2,0.02,0.27l5,4.52v28.36l-9.43-10.02c-0.07-0.07-0.19-0.07-0.26,0         c-0.07,0.08-0.07,0.2,0,0.28l9.69,10.29v16.67l0,0v26.15c0,0.11,0.08,0.2,0.18,0.2c0.1,0,0.18-0.09,0.18-0.2v-26.07         l15.71-16.69C1333.21,1890.92,1333.21,1890.79,1333.14,1890.72z"/><path fill="#fcc61a" d="M1341.89,1958.43c-0.8-2.64-1.89-5.16-3.11-7.62c-0.69-1.39-1.42-2.76-2.16-4.12        c-0.28-0.5-1.95-4.27-2.37-4.27h-19.01h-19.01c-0.41,0-2.09,3.77-2.36,4.27c-0.74,1.36-1.47,2.73-2.16,4.12        c-1.22,2.46-2.31,4.98-3.12,7.62c-2.02,6.58-3.01,14.19-0.91,20.86c1.86,5.94,4.94,11.21,9.21,15.61        c4.85,5,12,5.14,18.36,4.19c6.36,0.95,13.51,0.81,18.36-4.19c4.26-4.4,7.34-9.67,9.2-15.61        C1344.9,1972.63,1343.9,1965.01,1341.89,1958.43z"/><path fill="#202234" d="M1341.89,1958.43c-0.8-2.64-1.89-5.16-3.11-7.62c-0.69-1.39-1.42-2.76-2.16-4.12        c-0.28-0.5-1.95-4.27-2.37-4.27h-2.52c0.62,1.3,1.24,2.59,1.82,3.92c1.33,3,2.52,6.09,3.4,9.31c2.2,8.04,3.28,17.35,0.99,25.5        c-1.71,6.14-4.43,11.64-8.02,16.46c1.32-0.68,2.56-1.54,3.68-2.69c4.26-4.4,7.34-9.67,9.2-15.61        C1344.9,1972.63,1343.9,1965.01,1341.89,1958.43z" opacity=".25"/></g></g><g><circle cx="737.84" cy="1505.04" r="63.63" fill="#5681f1" transform="rotate(-39.502 737.88 1505.102)"/><path fill="#c8d9fb" d="M790.87,1528.58c-13,29.29-47.27,42.5-76.56,29.5c-29.29-13-42.5-47.27-29.5-76.56     c13-29.29,47.27-42.5,76.56-29.5C790.66,1465.01,803.87,1499.29,790.87,1528.58z"/><path fill="#f2faff" d="M712.86,1465.1c4.81-3.5,8.98-7.29,14.74-9.23c5.66-1.91,11.57-2.28,17.51-1.98     c8.73,0.44,17.2,2.44,25.81,3.63c-2.98-2.08-6.11-3.99-9.56-5.51c-23.07-10.24-49.2-4.16-65.62,13.18     C700.54,1468.59,707.21,1469.22,712.86,1465.1z" opacity=".49"/><path fill="#202234" d="M785.14,1483.69c-4.04,2.24-3.87,10.33-4.03,14.21c-0.22,5.19,0.24,10.43-0.37,15.59     c-1.56,13.1-6.25,28.59-18.79,35.07c-3.98,2.05-8.4,2.58-12.54,4.17c-3.57,1.37-6.91,3.27-10.57,4.42     c-7.52,2.35-15.24,1.44-22.12-2.34c-6.74-3.7-16.64-13.89-26.07-16.11c5.83,8.19,13.81,15.01,23.66,19.38     c29.29,13,63.57-0.21,76.56-29.5c6.56-14.79,6.42-30.85,0.92-44.8C789.63,1482.75,787.34,1482.47,785.14,1483.69z" opacity=".15"/><path fill="#5681f1" d="M747.75,1531.52c-4.1,1.62-9.01,1.64-14.73,0.07l-3.51,7.91l-8.55-3.79l3.38-7.62      c-3.46-1.82-6.56-3.92-9.31-6.3s-4.86-4.75-6.31-7.1l9.24-8.34c1.58,2.46,3.64,4.8,6.18,7c2.54,2.21,5.24,3.95,8.09,5.21      c5.41,2.4,8.72,2.25,9.92-0.46c0.63-1.42,0.33-2.82-0.91-4.19c-1.24-1.37-3.4-3.2-6.48-5.48c-3.39-2.47-6.14-4.73-8.25-6.77      c-2.11-2.04-3.61-4.48-4.51-7.33c-0.9-2.84-0.58-6,0.96-9.46c1.81-4.08,4.84-6.93,9.08-8.54c4.24-1.61,9.28-1.52,15.13,0.28      l3.48-7.83l8.55,3.79l-3.42,7.69c2.6,1.44,4.99,3.07,7.17,4.88c2.18,1.82,3.99,3.73,5.43,5.73l-8.99,8.54      c-3.61-4.67-7.65-8-12.11-9.98c-2.8-1.24-5.03-1.73-6.68-1.47c-1.65,0.26-2.77,1.06-3.36,2.39c-0.59,1.33-0.27,2.66,0.95,4      c1.22,1.34,3.36,3.11,6.42,5.32c3.44,2.49,6.2,4.75,8.29,6.79c2.08,2.03,3.59,4.46,4.52,7.29c0.93,2.83,0.63,5.98-0.91,9.44      C754.77,1527.12,751.85,1529.9,747.75,1531.52z"/></g><g><path fill="#5681f1" d="M438.85,1202.54c6.18,33.51-15.97,65.68-49.48,71.86c-33.51,6.18-65.68-15.97-71.86-49.48     c-6.18-33.51,15.97-65.68,49.48-71.86C400.5,1146.88,432.67,1169.03,438.85,1202.54z"/><path fill="#c8d9fb" d="M433.5,1203.53c5.63,30.55-14.56,59.88-45.12,65.52c-30.55,5.63-59.88-14.56-65.52-45.12     c-5.63-30.55,14.56-59.88,45.11-65.52C398.54,1152.78,427.87,1172.98,433.5,1203.53z"/><path fill="#f2faff" d="M336.34,1195.44c1.93-5.43,3.2-10.75,6.74-15.46c3.49-4.63,8.02-8.16,12.92-11.17     c7.23-4.43,15.1-7.46,22.64-11.22c-3.52-0.03-7.07,0.16-10.67,0.82c-24.07,4.44-41.65,23.6-45.29,46.47     C328.39,1204.98,334.07,1201.83,336.34,1195.44z" opacity=".49"/><path fill="#202234" d="M404.35,1170.75c-2,4.01,2.56,10.38,4.56,13.58c2.66,4.27,5.91,8.22,8.24,12.68     c5.92,11.33,10.65,26.3,4.16,38.34c-2.06,3.82-5.31,6.66-7.75,10.2c-2.11,3.05-3.74,6.4-6.04,9.32     c-4.73,6-11.41,9.49-18.98,10.24c-7.42,0.73-20.92-2-29.68,1.39c9.15,3.36,19.26,4.45,29.54,2.55     c30.55-5.63,50.75-34.97,45.12-65.51c-2.85-15.43-11.75-28.2-23.79-36.36C407.43,1167.54,405.43,1168.57,404.35,1170.75z" opacity=".15"/><path fill="#5681f1" d="M400.61,1229.48c-2.39,3.54-6.31,6.25-11.75,8.12l1.52,8.25l-8.91,1.64l-1.47-7.95      c-3.76,0.44-7.39,0.45-10.9,0.05c-3.51-0.4-6.49-1.15-8.94-2.23l2.83-11.74c2.61,1.11,5.54,1.84,8.78,2.22      c3.24,0.38,6.35,0.29,9.32-0.26c5.65-1.04,8.21-2.97,7.69-5.8c-0.27-1.49-1.28-2.44-3.02-2.86c-1.74-0.42-4.47-0.7-8.18-0.84      c-4.07-0.12-7.51-0.42-10.31-0.9c-2.8-0.48-5.34-1.61-7.62-3.39c-2.27-1.78-3.74-4.48-4.41-8.1c-0.79-4.26,0.08-8.19,2.58-11.81      c2.51-3.61,6.6-6.3,12.26-8.06l-1.51-8.17l8.91-1.64l1.48,8.02c2.87-0.27,5.67-0.28,8.41-0.02c2.74,0.26,5.23,0.8,7.48,1.62      l-2.52,11.76c-5.45-1.76-10.5-2.21-15.15-1.35c-2.92,0.54-4.97,1.37-6.15,2.48s-1.64,2.36-1.38,3.75      c0.26,1.39,1.24,2.28,2.96,2.68c1.71,0.4,4.39,0.65,8.05,0.74c4.12,0.11,7.57,0.41,10.34,0.89c2.78,0.49,5.31,1.61,7.61,3.36      c2.3,1.76,3.77,4.44,4.44,8.05C403.82,1222.12,403.01,1225.94,400.61,1229.48z"/></g><g><path fill="#5681f1" d="M1904.91,476.01c10.25,38.75-12.85,78.46-51.6,88.71c-38.75,10.25-78.46-12.85-88.71-51.6     s12.85-78.46,51.6-88.71C1854.94,414.16,1894.66,437.27,1904.91,476.01z"/><path fill="#c8d9fb" d="M1898.72,477.65c9.34,35.32-11.72,71.54-47.05,80.88c-35.33,9.34-71.54-11.72-80.88-47.05     c-9.34-35.33,11.72-71.54,47.05-80.88C1853.16,421.26,1889.37,442.32,1898.72,477.65z"/><path fill="#f2faff" d="M1784.04,476.87c1.78-6.55,2.78-12.89,6.52-18.74c3.68-5.74,8.67-10.28,14.16-14.25     c8.08-5.84,17.04-10.11,25.55-15.19c-4.13,0.28-8.28,0.82-12.44,1.92c-27.83,7.36-46.73,31.41-48.96,58.55     C1775.56,488.76,1781.95,484.56,1784.04,476.87z" opacity=".49"/><path fill="#202234" d="M1861.59,441.81c-1.99,4.88,3.94,11.95,6.56,15.52c3.5,4.77,7.66,9.11,10.8,14.14     c7.95,12.76,14.85,29.89,8.32,44.6c-2.07,4.66-5.63,8.29-8.18,12.65c-2.2,3.77-3.81,7.84-6.25,11.47     c-5.01,7.46-12.53,12.16-21.35,13.7c-8.63,1.52-24.72-0.48-34.69,4.28c11.03,3.12,22.99,3.49,34.87,0.35     c35.33-9.34,56.39-45.55,47.05-80.88c-4.72-17.84-16.3-32.03-31.15-40.51C1864.91,437.78,1862.67,439.16,1861.59,441.81z" opacity=".15"/><path fill="#5681f1" d="M1862.47,511.04c-2.49,4.37-6.84,7.89-13.06,10.57l2.52,9.54l-10.31,2.72l-2.43-9.19      c-4.37,0.85-8.63,1.19-12.78,1.04c-4.15-0.16-7.71-0.76-10.68-1.81l2.27-14.02c3.16,1.06,6.66,1.67,10.5,1.82      c3.84,0.15,7.48-0.23,10.91-1.14c6.53-1.73,9.36-4.22,8.5-7.49c-0.45-1.72-1.72-2.75-3.8-3.08c-2.08-0.34-5.31-0.42-9.67-0.25      c-4.78,0.22-8.84,0.18-12.17-0.14c-3.33-0.31-6.41-1.41-9.23-3.3c-2.83-1.89-4.79-4.92-5.9-9.1c-1.3-4.93-0.64-9.62,1.97-14.08      c2.62-4.46,7.17-7.98,13.66-10.55l-2.5-9.45l10.31-2.73l2.45,9.28c3.34-0.58,6.63-0.84,9.86-0.77c3.23,0.07,6.21,0.47,8.92,1.23      l-1.9,14.01c-6.55-1.58-12.51-1.65-17.89-0.23c-3.38,0.9-5.71,2.05-6.99,3.46c-1.28,1.41-1.71,2.92-1.29,4.52      c0.42,1.6,1.66,2.56,3.71,2.88c2.04,0.32,5.21,0.37,9.51,0.15c4.84-0.24,8.91-0.2,12.21,0.12s6.38,1.41,9.22,3.26      c2.85,1.85,4.83,4.87,5.93,9.05C1865.57,502.11,1864.96,506.67,1862.47,511.04z"/></g><g><path fill="#5681f1" d="M3494.28,1366.66c10.25,38.75-12.86,78.46-51.6,88.71s-78.46-12.85-88.71-51.6     c-10.25-38.75,12.85-78.46,51.6-88.71C3444.32,1304.82,3484.03,1327.92,3494.28,1366.66z"/><path fill="#c8d9fb" d="M3488.09,1368.3c9.34,35.32-11.72,71.54-47.05,80.88c-35.33,9.34-71.54-11.72-80.88-47.05     c-9.34-35.33,11.72-71.54,47.05-80.88C3442.54,1311.91,3478.75,1332.97,3488.09,1368.3z"/><path fill="#f2faff" d="M3373.41,1367.52c1.78-6.55,2.79-12.89,6.52-18.74c3.68-5.74,8.67-10.28,14.16-14.25     c8.08-5.84,17.04-10.11,25.55-15.19c-4.13,0.28-8.28,0.82-12.43,1.92c-27.83,7.36-46.73,31.41-48.97,58.55     C3364.94,1379.42,3371.33,1375.21,3373.41,1367.52z" opacity=".49"/><path fill="#202234" d="M3450.96,1332.46c-1.99,4.88,3.94,11.95,6.56,15.52c3.5,4.77,7.66,9.11,10.8,14.14     c7.95,12.76,14.85,29.9,8.32,44.6c-2.07,4.66-5.63,8.29-8.18,12.65c-2.2,3.77-3.81,7.84-6.25,11.47     c-5.01,7.46-12.53,12.16-21.35,13.7c-8.63,1.52-24.72-0.48-34.68,4.28c11.03,3.12,22.99,3.49,34.87,0.35     c35.33-9.34,56.39-45.55,47.05-80.88c-4.72-17.84-16.3-32.03-31.15-40.51C3454.28,1328.43,3452.04,1329.81,3450.96,1332.46z" opacity=".15"/><path fill="#5681f1" d="M3451.84,1401.69c-2.49,4.37-6.84,7.89-13.06,10.57l2.52,9.54l-10.31,2.72l-2.43-9.19      c-4.37,0.85-8.63,1.19-12.78,1.04c-4.15-0.16-7.71-0.76-10.68-1.81l2.27-14.02c3.16,1.06,6.66,1.67,10.5,1.82      c3.84,0.15,7.48-0.23,10.91-1.14c6.53-1.73,9.36-4.22,8.5-7.49c-0.45-1.72-1.72-2.75-3.8-3.09c-2.08-0.34-5.31-0.42-9.67-0.25      c-4.78,0.22-8.84,0.18-12.17-0.14c-3.33-0.31-6.41-1.41-9.23-3.3c-2.83-1.89-4.79-4.92-5.9-9.1c-1.3-4.93-0.64-9.62,1.97-14.08      c2.62-4.46,7.17-7.98,13.66-10.55l-2.5-9.45l10.31-2.73l2.45,9.28c3.34-0.58,6.63-0.84,9.86-0.77c3.23,0.07,6.21,0.47,8.92,1.23      l-1.9,14.01c-6.55-1.58-12.51-1.65-17.89-0.23c-3.38,0.9-5.71,2.05-6.99,3.46c-1.28,1.41-1.71,2.92-1.29,4.52      c0.42,1.6,1.66,2.56,3.71,2.88c2.05,0.32,5.21,0.37,9.51,0.15c4.84-0.24,8.91-0.2,12.21,0.12c3.3,0.32,6.38,1.41,9.22,3.26      c2.85,1.85,4.83,4.87,5.93,9.05C3454.95,1392.76,3454.33,1397.32,3451.84,1401.69z"/></g><circle cx="333.35" cy="2209.94" r="13.36" fill="#f2faff"/><path fill="#f2faff" d="M3547.82 1770.89c0 13.05-10.58 23.64-23.64 23.64-13.05 0-23.64-10.58-23.64-23.64 0-13.06 10.58-23.64 23.64-23.64C3537.24 1747.25 3547.82 1757.83 3547.82 1770.89zM2614.15 554.2c0 19.76-16.02 35.78-35.78 35.78s-35.78-16.02-35.78-35.78 16.02-35.78 35.78-35.78S2614.15 534.44 2614.15 554.2z"/><path fill="#f2faff" d="M235.62 987.24c0 14.11-11.44 25.56-25.55 25.56s-25.56-11.44-25.56-25.56 11.44-25.56 25.56-25.56S235.62 973.13 235.62 987.24zM2956.96 746.61c0 14.11-11.44 25.56-25.56 25.56-14.11 0-25.56-11.44-25.56-25.56s11.44-25.56 25.56-25.56C2945.52 721.05 2956.96 732.49 2956.96 746.61zM443.42 2025.13c0 17.5-14.19 31.69-31.69 31.69-17.5 0-31.69-14.19-31.69-31.69 0-17.5 14.19-31.69 31.69-31.69C429.23 1993.44 443.42 2007.63 443.42 2025.13z" opacity=".5"/></svg>