<svg xmlns="http://www.w3.org/2000/svg" xmlns:xlink="http://www.w3.org/1999/xlink" enable-background="new 0 0 3800 3000" viewBox="0 0 3800 3000"><path fill="#c8d9fb" d="M553.05 2563.3h2680.86s400.63-446.83 112.33-835.2c-288.3-388.37-591.59-246.38-943.54-693.21-351.97-446.83-511.49-669.69-1043.17-652.99-531.67 16.71-1508.91 711.19-806.48 2181.4z" opacity=".36"/><path fill="#c8d9fb" d="M537.66 2566.69h2512.58s375.48-396.91 105.28-741.88c-270.21-344.97-554.45-218.85-884.32-615.76s-479.37-594.86-977.68-580.03c-498.3 14.84-1414.19 631.73-755.86 1937.67z"/><path fill="#394ca4" d="M3111.33 2454.86s-18.4-133.61 18.24-120.43c36.66 13.19 19.84 66.74-18.24 120.43z"/><path fill="#f2faff" d="M3111.47 2356.68c1.87-1.46 2.56-4.08 3.41-6.19.99-2.47 2.09-4.87 4.01-6.76 2.37-2.33 5.38-3.58 8.63-4.03 3.13-.43 6.46-.03 9.5-1.02.12-.04.2-.12.32-.16-2.29-1.58-4.79-3.01-7.77-4.08-11.81-4.25-17.89 6.79-20.72 23.65.96-.38 1.87-.82 2.62-1.41z" opacity=".2"/><path fill="#202234" d="M3146.45 2357.63c-.14 9.97-.57 19.78-3.57 29.38-1.26 4.02-2.8 8.07-4.51 11.93-1.35 3.03-3.11 6.11-5.95 7.98-6.11 4.04-13.31-.1-17.66-4.77-2.68-2.88-4.97-6.5-8-8.9.33 30.65 4.58 61.63 4.58 61.63 28.94-40.81 45.44-81.42 35.65-104.39-.5 2.32-.51 4.84-.54 7.14z" opacity=".15"/><path fill="#100959" d="M3108.91 2453.57s74.95-131.8 126.65-86.48c51.71 45.32-126.65 86.48-126.65 86.48z"/><path fill="#f2faff" d="M3158.74 2387.81c2.08.3 4.24.45 6.35.41.13 0 .26-.01.39-.01-.19-.05 1.82-.4 2.11-.5 2.09-.73 3.83-1.97 5.44-3.45 3.16-2.9 5.79-6.2 9.55-8.39 8.3-4.85 18.45-5.74 27.71-7.58 4.09-.82 11.12-1.13 12.81-5.75.35-.95.35-1.88.16-2.79-21.23-7.74-44.8 7.53-65.02 27.95.18.03.33.08.5.11z" opacity=".2"/><path fill="#202234" d="M3233.71 2400.92c-6.94 4.62-14.67 7.18-23 7.32-4.35.07-8.84-.3-13.12.67-4.29.97-7.4 3.29-10.28 6.52-5.38 6.03-10.38 11.34-17.99 14.52-7.93 3.32-16.64 3.88-25.14 3.64-3.45-.1-6.78-.52-10.21-.89-2.61-.28-6.07-.78-8.5.56-3.14 1.73-3.13 7.08-2.58 10.12.39 2.15 1.22 4.19 2.37 6.04 35.82-9.65 118.21-35.03 119.67-64.59-2.44 6.38-5.05 11.98-11.22 16.09z" opacity=".15"/><path fill="#4094f2" d="M3214.37 2526.18h-647.01l9.28-32.34 21.82-76.61c15.46-54.08 69.19-87.92 124.68-78.47l28.01 4.86c2.12.36 4.15.53 6.19.53 12.37 0 24.12-6.19 31.1-16.7 48.07-72.1 156.75-63.18 192.45 15.82l4.77 10.6c8.42 18.71 30.39 27.07 49.12 18.69l27.93-12.5c16.35-7.33 34.55-1.85 44.62 11.04a36.433 36.433 0 0 1 7.42 16.7l4.15 24.21c1.06 6 3.36 11.31 6.63 15.73.62.8 1.24 1.59 1.86 2.3a37.405 37.405 0 0 0 21.74 12.37c2.12.44 4.42.62 6.63.62 7.01 0 14.11-1.92 20.56-6.23 14.55-9.71 34.05-7.29 46.41 5.08l18.77 18.77c24.2 24.18 7.07 65.53-27.13 65.53z"/><path fill="#f2faff" d="M2890.85 2301.92c8.86 5.21 19.61 6.19 29.41 8.68 8.47 2.15 16.3 5.63 23.02 11.28 10.25 8.63 16.15 20.91 22.99 32.14 8.21 13.47 19.51 26.73 35.14 31.49 17.22 5.24 31.94-7.11 48.48-9.56 13.23-1.96 26.74-.12 38.26 6.95 11.6 7.12 20.13 18.33 26.45 30.21 6.15 11.57 12.31 23.14 24.74 28.92 16.03 7.46 34.08 5.53 49.84-1.46 5.51-2.45 10.37-5.41 15.17-8.72-9.43-2.13-19.55-.7-28.01 4.95-6.45 4.3-13.56 6.23-20.56 6.23-2.21 0-4.51-.18-6.63-.62-8.4-1.5-16.08-5.83-21.74-12.37-.62-.71-1.24-1.5-1.86-2.3-3.27-4.42-5.56-9.72-6.63-15.73l-4.15-24.21a36.433 36.433 0 0 0-7.42-16.7c-10.07-12.9-28.28-18.38-44.62-11.04l-27.93 12.5c-18.72 8.38-40.7.02-49.12-18.69l-4.77-10.6c-20.67-45.74-65.8-67.93-109.47-64.56 4.84 9.16 10.35 17.88 19.41 23.21z" opacity=".2"/><path fill="#f2faff" d="M3157.27 2526.18h-589.91l9.28-32.34c29.16-26.15 69.45-38.97 110.45-31.9l21.82 3.71 11.75 1.94c2.56.44 5.12.62 7.6.62 5.48 0 10.87-.97 15.9-2.92 8.48-3.27 15.91-9.02 21.21-16.97 7.42-11.22 16.17-20.76 25.71-28.63 3.71-3.18 7.51-6.01 11.49-8.57 21.47-14.23 46.12-21.29 70.87-21.56 14.49-.26 28.89 1.86 42.68 6.36 33.49 10.61 63.18 34.73 79.7 71.4l5.74 12.55c10.16 22.54 36.58 32.52 59.03 22.45l16.97-7.6 16.35-7.33c7.42-3.36 15.2-4.42 22.62-3.71 19.27 1.85 36.23 16.17 39.76 36.93l.98 5.57z" opacity=".25"/><circle cx="3065.77" cy="2406.92" r="11.5" fill="#394ca4"/><path fill="#100959" d="M2934.64 2445.41c0 6.35-5.15 11.5-11.5 11.5s-11.5-5.15-11.5-11.5 5.15-11.5 11.5-11.5 11.5 5.15 11.5 11.5z"/><path fill="#202234" d="M2912.89 2333.7c0 12.24-9.92 22.17-22.17 22.17-12.24 0-22.16-9.92-22.16-22.17 0-12.24 9.92-22.17 22.16-22.17 12.25.01 22.17 9.93 22.17 22.17z" opacity=".15"/><path fill="#100959" d="M2911.36 2328.44c0 12.24-9.92 22.16-22.16 22.16s-22.17-9.92-22.17-22.16 9.92-22.17 22.17-22.17c12.24.01 22.16 9.93 22.16 22.17zM3076.85 2520.12s-51.87-65.4-28.19-69.91c23.68-4.5 31.58 29.32 28.19 69.91z"/><path fill="#f2faff" d="M3046.12 2459.14c2.36-.8 4.55-1.5 7.05-1.72 4.96-.44 10.65.57 14.75 3.52 1.61 1.16 2.67 2.58 3.7 4.13-4.66-10.92-12.14-16.91-22.96-14.85-4.97.95-6.58 4.6-6.07 9.74 1.2.01 2.61-.51 3.53-.82z" opacity=".2"/><path fill="#202234" d="M3065.9 2498.77c-2.15-.47-4.25-1.43-6.22-2.61 8.59 13.15 17.17 23.97 17.17 23.97.71-8.54.91-16.76.58-24.4-2.93 3.36-7.32 3.96-11.53 3.04z" opacity=".15"/><path fill="#394ca4" d="M3076.85 2520.12s32.7-87.95 68.78-65.4c36.08 22.56-68.78 65.4-68.78 65.4z"/><path fill="#f2faff" d="M3102.42 2478.15c2.7-2.4 4.32-5.7 7.16-8.01 3.05-2.49 6.6-4.01 10.21-5.47 3.45-1.4 7.46-2.63 9.6-5.91 1.28-1.96 1.86-5.12.83-7.41-12.68 1.97-24.32 14.94-33.48 29.13 2.08-.31 4.09-.91 5.68-2.33z" opacity=".2"/><path fill="#202234" d="M3120.81 2491.77c-4.62.71-11 .81-14.89 3.66-1.96 1.44-3.23 3.62-5.25 5.03-1.95 1.36-4.26 2.12-6.56 2.66-3.5.83-6.96 1.05-10.12.5-4.53 9.51-7.13 16.49-7.13 16.49s35.33-14.45 57.92-30.98c-4.61 1.27-9.44 1.94-13.97 2.64z" opacity=".15"/><path fill="#394ca4" d="M3076.85 2520.12s-120.65-14.66-90.2-33.83c30.44-19.16 90.2 33.83 90.2 33.83z"/><path fill="#f2faff" d="M2995.69 2493.07c5.77.46 11.31-1.75 16.99-2.33 7.83-.8 14.37 1.47 21.71 3.71 2.95.9 6.06 1.66 9.18 1.82-18.52-10.79-40.83-19.29-56.15-10.38-.14 3.46 4.26 6.86 8.27 7.18z" opacity=".2"/><path fill="#202234" d="M3042.17 2513.31c-3.66-.23-7.34-.46-10.94-1.19-3.75-.76-7.4-1.95-11.14-2.76-2.32-.5-4.68-.71-7.03-.75 27.71 7.12 63.8 11.51 63.8 11.51s-5.61-4.95-14.19-11.25c-.31.55-.69 1.07-1.19 1.55-2.18 2.09-5.7 2.47-8.56 2.8-3.58.41-7.18.31-10.75.09z" opacity=".15"/><path fill="#100959" d="M3652.11 2800.02H191.32c-1.65 0-2.98-1.33-2.98-2.98V2691c0-1.65 1.33-2.98 2.98-2.98h3460.79c1.65 0 2.98 1.33 2.98 2.98v106.04c0 1.64-1.34 2.98-2.98 2.98z"/><path fill="#394ca4" d="m225.45 2688.02 339.07-167.15h2692.65l360.8 167.15c.01 0-1672.72 187.71-3392.52 0z"/><path fill="#0f1019" d="M603.01 2563.52c24.65 4.49 52.08-1.34 74.98 11.57 10.66 6.01 7.02 17.02 18.17 25.09 190.23 137.64 316.82 39.02 386.02 63.31 40.23 14.12 57.95 26.89 210.29 19.94 40.77-1.86 46.2 29.98 87.02 30.82 25 .51 69.23 10.17 94.08 6.91 20.4-2.67 43.45-6.77 60.67-19.9 11.1-8.47 19.8-22.81 16.32-38.12-2.5-11-9.65-20.12-12.34-31.14-5.19-21.23 4.99-41.69 21.56-52.75 19.71-13.15 44.45-14.62 66.84-16.92 37.48-3.84 74.24-12.82 111.99-15.64 80.84-6.02 161.9-1.72 242.82-.84 85.25.94 170.54.15 255.79.15 20.85 0 41.7.39 62.53-.76 14.2-.78 28.45 3.09 42.86 1.9 280.5-23.26-19.31 90.94-5.94 96.39 278.28 113.53 350.41-36.38 385.51-42.51 31.48-5.5 61.11-18.98 91.93-27.4 35.74-9.76 42.54 10.14 79.11 10.08 79.93-.11 239.3-106.96 259.24 41.7 8.11 60.47 131.98-59.86 191.68-46.43 52.85 11.89 111.1 28.22 153.94 65.98 15.19 13.39 29.65 31.6 37.95 51.4 53.38-5.14 81.93-8.35 81.93-8.35l-360.8-167.15H564.53l-35.2 17.35c23.5 11.72 48.08 20.65 73.68 25.32z" opacity=".22"/><path fill="#394ca4" d="M2452.72 363.46h-819.89c-55.82 0-101.24 43.18-101.24 96.26v1106.07c0 53.08 45.41 96.26 101.24 96.26h819.89c55.82 0 101.24-43.18 101.24-96.26V459.72c-.01-53.08-45.42-96.26-101.24-96.26z" opacity=".2"/><path fill="#c8d9fb" d="M1667.96 1609.34c-55.82 0-101.24-46.86-101.24-104.47V304.45c0-57.6 45.41-104.47 101.24-104.47h819.89c55.82 0 101.24 46.86 101.24 104.47v1200.42c0 57.6-45.41 104.47-101.24 104.47h-819.89z"/><path fill="#f2faff" d="M2487.85 249.27h-819.89c-28.69 0-51.95 24.7-51.95 55.18v1200.42c0 30.47 23.26 55.18 51.95 55.18h819.89c28.69 0 51.95-24.7 51.95-55.18V304.45c0-30.48-23.26-55.18-51.95-55.18z"/><path fill="#394ca4" d="m1940.06 776.15-.23 88.3-71.24-43.69.23-88.29z"/><path fill="#5681f1" d="M1973.61 848.95c1.02-.38 2.06-.75 3.09-1.13 3.51-1.27 7.11-2.41 10.7-3.56 3.69-1.18 7.42-2.32 11.19-3.37 2.98-.83 5.99-1.6 9.01-2.35 3.83-.94 7.68-1.81 11.57-2.62 3.67-.76 7.34-1.52 11.06-2.16 1.69-.29 3.37-.59 5.07-.86 6.04-.95 12.11-1.81 18.24-2.46l.41-.03c6.04-.63 12.13-1.07 18.23-1.4 1.23-.07 2.46-.14 3.69-.2 3.13-.14 6.27-.13 9.41-.19 4.56-.08 9.13-.15 13.69-.06 3.13.05 6.25.2 9.37.33 4.09.18 8.18.39 12.25.7 3.19.24 6.36.55 9.53.88 4.01.41 8 .88 11.98 1.42a331.035 331.035 0 0 1 21.95 3.74c3.66.74 7.32 1.46 10.93 2.32 1.16.28 2.32.55 3.48.84 5.62 1.4 11.16 2.95 16.62 4.64 1.45.45 2.87.95 4.31 1.42 4.34 1.42 8.62 2.92 12.84 4.52 1.66.63 3.32 1.26 4.96 1.92 3.93 1.58 7.77 3.28 11.57 5.03 1.76.81 3.56 1.57 5.29 2.41 5.35 2.6 10.59 5.34 15.64 8.28l.24-88.29c-5.04-2.94-10.28-5.68-15.64-8.28-1.73-.84-3.53-1.6-5.29-2.41-2.66-1.22-5.26-2.5-7.98-3.64-1.18-.49-2.4-.91-3.59-1.39-1.64-.66-3.3-1.29-4.96-1.92-4.22-1.6-8.51-3.11-12.85-4.53-1.43-.47-2.84-.97-4.29-1.42-.62-.19-1.22-.42-1.84-.6-4.86-1.47-9.8-2.79-14.78-4.03-1.16-.29-2.33-.56-3.5-.84-1.84-.44-3.66-.91-5.52-1.32-1.78-.39-3.61-.64-5.4-1-4.21-.85-8.44-1.65-12.71-2.35-1.51-.25-2.99-.6-4.51-.83-1.57-.24-3.17-.35-4.75-.56-3.97-.54-7.95-1.01-11.96-1.42-1.83-.19-3.64-.49-5.48-.65-1.35-.12-2.71-.13-4.06-.23-4.07-.31-8.15-.52-12.25-.7-2.06-.09-4.1-.3-6.16-.35-1.07-.03-2.15.03-3.22.01-4.56-.08-9.11-.02-13.67.07-2.14.04-4.28-.04-6.42.03-1 .03-2 .11-3 .16-1.23.05-2.46.13-3.69.2-6.11.33-12.21.77-18.27 1.4l-.36.03c-.04 0-.08.01-.12.01-6.09.65-12.13 1.5-18.13 2.45-1.7.27-3.38.57-5.07.86-2.02.35-4.06.65-6.07 1.03-1.68.32-3.31.78-4.98 1.13-3.89.81-7.74 1.68-11.57 2.62-3.03.75-6.03 1.52-9.01 2.35-3.78 1.05-7.49 2.18-11.19 3.36-1.76.56-3.59 1.01-5.33 1.6-1.81.62-3.58 1.3-5.37 1.95-1.03.37-2.07.74-3.09 1.12-5.3 2-10.5 4.14-15.58 6.43-.96.43-1.9.89-2.86 1.33-5.24 2.44-10.39 4.98-15.34 7.74l-.24 88.29c4.96-2.76 10.11-5.3 15.35-7.75.95-.44 1.89-.89 2.84-1.32 5.08-2.27 10.28-4.41 15.59-6.4z"/><path fill="#2c3b7f" d="m2320.63 735.08-.23 88.29-70.71 43.65.23-88.29z"/><path fill="#c8d9fb" d="M1868.82 732.47c127.04-72.95 325.7-72.08 451.81 2.61l-70.71 43.65c-86.77-50.6-221.95-51.46-309.86-2.58l-71.24-43.68z"/><path fill="#5681f1" d="M1865.51 957.55c.16-1.29.35-2.58.57-3.87.16-.93.33-1.87.51-2.8.26-1.27.56-2.55.87-3.82.23-.91.45-1.83.71-2.74.37-1.31.79-2.62 1.23-3.93.28-.85.54-1.71.85-2.56.57-1.58 1.22-3.16 1.88-4.73.26-.61.48-1.22.75-1.83.97-2.17 2.01-4.34 3.15-6.49.16-.31.35-.61.52-.91 1.05-1.94 2.17-3.86 3.36-5.77.46-.74.96-1.47 1.44-2.2.97-1.48 1.97-2.96 3.03-4.42.53-.73 1.08-1.46 1.63-2.19 1.64-2.16 3.36-4.31 5.18-6.43.28-.32.53-.66.82-.98 2.1-2.39 4.35-4.75 6.69-7.07.93-.93 1.89-1.85 2.86-2.76.77-.72 1.52-1.45 2.32-2.17 1.15-1.04 2.35-2.08 3.56-3.11.79-.67 1.55-1.35 2.35-2.01 1.36-1.12 2.77-2.21 4.19-3.31.72-.56 1.4-1.12 2.13-1.67 2.17-1.63 4.41-3.25 6.72-4.83l.24-88.29c-2.31 1.59-4.55 3.2-6.72 4.83-.73.55-1.42 1.11-2.13 1.67-1.42 1.1-2.83 2.2-4.19 3.31-.81.66-1.57 1.34-2.35 2.01-1.2 1.03-2.4 2.06-3.56 3.11-.8.72-1.56 1.45-2.32 2.17-.72.68-1.47 1.34-2.16 2.03-.24.24-.45.49-.69.73-2.34 2.33-4.59 4.69-6.69 7.08-.29.33-.54.65-.82.98-1.83 2.12-3.55 4.27-5.18 6.43-.26.35-.57.69-.83 1.03-.28.38-.52.78-.8 1.16-1.06 1.46-2.06 2.94-3.03 4.42-.48.73-.98 1.46-1.44 2.2-1.19 1.91-2.31 3.84-3.36 5.77-.14.27-.32.53-.46.79-.02.04-.03.08-.06.12-1.14 2.15-2.19 4.31-3.15 6.48-.27.62-.5 1.25-.76 1.87-.66 1.56-1.29 3.12-1.86 4.69-.08.21-.18.42-.25.64-.23.65-.39 1.3-.6 1.94-.43 1.3-.85 2.61-1.22 3.92-.25.91-.47 1.82-.7 2.73-.32 1.27-.62 2.55-.88 3.83-.08.41-.21.82-.28 1.23-.1.52-.14 1.04-.23 1.56-.22 1.29-.41 2.58-.57 3.87-.12.93-.23 1.87-.31 2.8-.12 1.3-.2 2.61-.26 3.92-.03.59-.1 1.18-.12 1.77-.02.71-.03 1.41-.03 2.12l-.24 88.29c.01-1.3.09-2.59.15-3.89.06-1.31.14-2.61.26-3.92.05-.94.16-1.87.28-2.8zM1928.29 977.26l-.23 88.29-70.73 43.66.24-88.3z"/><defs><path id="a" d="m1764.46 967.85.24-88.29c-.14 50.95 30.84 101.97 92.87 141.36l-.23 88.29c-62.04-39.39-93.02-90.41-92.88-141.36z" enable-background="new"/></defs><clipPath id="b"><use overflow="visible" xlink:href="#a"/></clipPath><path fill="#5681f1" d="m1857.57 1020.91-.23 88.29c-62.03-39.39-93.01-90.41-92.88-141.36l.24-88.29c-.14 50.96 30.84 101.98 92.87 141.36" clip-path="url(#b)" enable-background="new"/><path fill="#c8d9fb" d="M1923.06 786.65c-79.16 54.24-77.3 137.41 5.23 190.61l-70.72 43.66c-121.81-77.34-123.88-199.56-5.74-277.96l71.23 43.69z"/><defs><path id="c" d="m2321.52 881.25-.24 88.29c.09-32.67-18.24-65.39-54.96-91.74l.24-88.29c36.71 26.35 55.04 59.07 54.96 91.74z" enable-background="new"/></defs><clipPath id="d"><use overflow="visible" xlink:href="#c"/></clipPath><path fill="#394ca4" d="m2321.52 881.25-.24 88.29c.09-32.67-18.24-65.39-54.96-91.74l.24-88.29c36.71 26.35 55.04 59.07 54.96 91.74" clip-path="url(#d)" enable-background="new"/><defs><path id="e" d="m2421.84 881.55-.23 88.29c-.13 49.1-29.16 98.13-87.15 136.61l.23-88.29c57.99-38.48 87.02-87.51 87.15-136.61z" enable-background="new"/></defs><clipPath id="f"><use overflow="visible" xlink:href="#e"/></clipPath><path fill="#100959" d="M2421.8 884.64c-.18 6.68-.9 13.36-2.15 20-1.24 6.59-3.01 13.14-5.31 19.64-2.37 6.69-5.28 13.32-8.76 19.86-3.74 7.04-8.13 13.97-13.16 20.76-5.93 8.01-12.75 15.82-20.47 23.38-10.69 10.48-23.11 20.49-37.25 29.87l-.24 88.29c14.14-9.38 26.55-19.39 37.25-29.87 7.72-7.57 14.54-15.38 20.47-23.38 5.03-6.8 9.42-13.73 13.16-20.77 3.48-6.54 6.4-13.17 8.76-19.86 2.29-6.5 4.06-13.05 5.31-19.64 1.25-6.64 1.97-13.32 2.15-20 .03-1.03.04-2.06.05-3.09l.23-88.29c0 1.04-.01 2.07-.04 3.1z" clip-path="url(#f)"/><path fill="#394ca4" d="m2334.7 1018.16-.24 88.29-71.24-43.69.24-88.29z"/><path fill="#5681f1" d="M2263.46 974.47c76.4-52.35 77.36-131.66 3.1-184.97l70.87-43.74c113.39 77.54 112.63 195.86-2.72 272.4l-71.25-43.69z"/><path fill="#100959" d="M2273.19 1138.25c3.73-1.5 7.42-3.04 11.07-4.64 1.64-.72 3.27-1.46 4.9-2.2 3.43-1.57 6.81-3.18 10.16-4.84 1.46-.72 2.93-1.43 4.37-2.17 4.67-2.4 9.29-4.86 13.78-7.44l.24-88.29c-4.5 2.59-9.12 5.05-13.79 7.45-1.43.73-2.89 1.43-4.34 2.15-3.36 1.67-6.76 3.29-10.19 4.86-1.62.74-3.24 1.47-4.87 2.19-3.65 1.61-7.35 3.15-11.08 4.65-1.3.52-2.58 1.07-3.89 1.58-5.02 1.95-10.1 3.82-15.24 5.59-1.48.51-2.98.97-4.47 1.47-3.24 1.07-6.47 2.14-9.75 3.14-1.87.57-3.76 1.1-5.65 1.65-2.96.86-5.92 1.71-8.92 2.52-2.03.55-4.08 1.06-6.13 1.58-2.89.73-5.79 1.45-8.71 2.13-2.11.49-4.24.96-6.37 1.43-2.91.64-5.83 1.25-8.76 1.83-1.92.39-3.85.76-5.78 1.12-5.96 1.11-11.94 2.15-17.97 3.04l-.56.09c-6.21.92-12.46 1.68-18.73 2.37-1.86.2-3.72.39-5.58.58-3.73.37-7.46.7-11.2.99-1.93.15-3.85.31-5.78.43-4.25.28-8.5.5-12.76.68-1.37.06-2.75.15-4.12.19-5.3.18-10.61.3-15.91.33-.52 0-1.04-.01-1.56-.01-4.8.01-9.59-.04-14.39-.15-1.94-.05-3.88-.14-5.82-.21-3.25-.11-6.5-.23-9.75-.41-2.13-.11-4.25-.27-6.38-.41-3.05-.2-6.1-.41-9.14-.66-2.22-.19-4.43-.4-6.64-.61-2.95-.28-5.89-.58-8.82-.91-2.24-.25-4.47-.53-6.7-.81-2.9-.37-5.8-.76-8.69-1.17-2.18-.31-4.37-.64-6.54-.98-3.1-.49-6.2-1.01-9.28-1.56-2.09-.37-4.17-.73-6.24-1.13-3.18-.6-6.34-1.26-9.5-1.92-1.9-.4-3.81-.79-5.7-1.21-5.38-1.2-10.72-2.47-16.01-3.84-.09-.02-.17-.05-.26-.07-5.2-1.35-10.33-2.82-15.43-4.34-1.34-.4-2.65-.83-3.99-1.24a434.38 434.38 0 0 1-15.05-4.97c-1.28-.45-2.57-.88-3.84-1.34-5.78-2.09-11.47-4.3-17.08-6.63-1.28-.53-2.53-1.1-3.8-1.64-4.11-1.76-8.18-3.59-12.19-5.48-1.45-.69-2.91-1.37-4.35-2.07-5.08-2.48-10.11-5.03-15-7.72l-.24 88.29c4.89 2.69 9.92 5.24 14.99 7.71 1.45.71 2.91 1.39 4.37 2.08 4 1.89 8.05 3.71 12.16 5.46.89.39 1.75.82 2.66 1.19.38.16.79.3 1.17.46 5.6 2.33 11.29 4.53 17.06 6.62 1.28.46 2.57.9 3.86 1.35 4.96 1.74 9.97 3.4 15.03 4.97.85.26 1.67.57 2.52.83.48.14.98.27 1.46.41 5.1 1.53 10.24 2.99 15.43 4.34.08.02.17.05.26.07 5.29 1.37 10.63 2.64 16 3.84.48.11.95.24 1.43.34 1.43.32 2.89.57 4.33.87 3.14.66 6.28 1.31 9.44 1.91 2.08.4 4.18.76 6.27 1.13 3.08.54 6.17 1.06 9.27 1.55 1.05.17 2.09.37 3.13.53 1.13.17 2.27.3 3.41.46 2.89.42 5.78.8 8.69 1.17 2.23.28 4.46.56 6.7.81 2.93.33 5.88.63 8.82.91 1.45.14 2.89.32 4.34.45.76.07 1.53.1 2.29.17 3.03.25 6.08.46 9.12.66 2.14.14 4.27.3 6.42.41 3.23.17 6.46.29 9.69.4 1.61.06 3.22.16 4.83.2.34.01.68 0 1.02.01 4.79.12 9.59.16 14.39.15.52 0 1.04.02 1.55.02a527.7 527.7 0 0 0 15.92-.33c.27-.01.53-.01.8-.02 1.1-.04 2.19-.13 3.28-.17 4.27-.18 8.53-.4 12.78-.68 1.94-.13 3.87-.28 5.81-.43 3.74-.29 7.46-.62 11.19-.99 1.12-.11 2.24-.18 3.35-.29.75-.08 1.49-.2 2.23-.28 6.27-.69 12.52-1.45 18.72-2.37.21-.03.42-.07.63-.1 6.01-.89 11.98-1.93 17.92-3.03.78-.15 1.58-.25 2.35-.4 1.15-.22 2.28-.49 3.43-.72 2.94-.58 5.87-1.19 8.79-1.83 2.11-.46 4.23-.93 6.33-1.42 2.93-.68 5.84-1.4 8.74-2.14 2.05-.52 4.09-1.03 6.12-1.58 2.99-.8 5.94-1.65 8.89-2.51 1.89-.55 3.8-1.08 5.68-1.66 3.25-.99 6.46-2.05 9.67-3.11 1.32-.44 2.67-.83 3.97-1.28.2-.07.39-.15.58-.21 5.14-1.77 10.22-3.64 15.23-5.59 1.31-.53 2.6-1.08 3.9-1.6z"/><path fill="#394ca4" d="M1945.84 987.47c86.89 45.52 215.76 44.67 300.62-2.5l71.24 43.69c-124.01 71.21-316.31 72.06-442.73 2.56l70.87-43.75z"/><path fill="#c8d9fb" d="M1800.91 1275.49h117.32c7.62 0 13.8-6.56 13.8-14.66 0-8.1-6.18-14.66-13.8-14.66h-117.32c-7.62 0-13.8 6.56-13.8 14.66 0 8.1 6.18 14.66 13.8 14.66zM1969.6 1275.49h209.33c7.62 3.86 13.8-2.71 13.8-10.8 0-8.1-6.18-14.66-13.8-14.66H1969.6c-7.62 0-13.8 6.56-13.8 14.66 0 8.09 6.18 14.66 13.8 10.8zM2400.15 1246.17h-169.84c-7.62 0-13.8 6.56-13.8 14.66 0 8.1 6.18 14.66 13.8 14.66h169.84c7.62 0 13.8-6.56 13.8-14.66 0-8.1-6.18-14.66-13.8-14.66zM2070.05 1329.24h-269.14c-7.62 0-13.8 6.56-13.8 14.66 0 8.1 6.18 14.66 13.8 14.66h269.14c7.62 0 13.8-6.56 13.8-14.66.01-8.1-6.17-14.66-13.8-14.66zM2357.6 1329.24h-236.17c-7.62 0-13.8 6.56-13.8 14.66 0 8.1 6.18 14.66 13.8 14.66h236.17c7.62 0 13.8-6.56 13.8-14.66 0-8.1-6.18-14.66-13.8-14.66zM1801.64 442.28c-11.76 0-20.71-3.27-26.87-9.81-6.16-6.54-9.23-15.83-9.23-27.87 0-5.98.94-11.32 2.82-16.02 1.88-4.69 4.45-8.66 7.72-11.9 3.26-3.23 7.16-5.69 11.69-7.36 4.52-1.67 9.43-2.5 14.71-2.5 3.06 0 5.85.22 8.35.67 2.5.46 4.69.98 6.58 1.56 1.88.59 3.44 1.2 4.69 1.83 1.25.63 2.16 1.12 2.71 1.46l-4.69 13.16c-2.23-1.19-4.82-2.2-7.77-3.03-2.96-.83-6.31-1.25-10.08-1.25-2.5 0-4.96.42-7.36 1.25-2.4.84-4.52 2.17-6.37 4.02-1.84 1.84-3.32 4.23-4.43 7.15-1.11 2.93-1.67 6.47-1.67 10.64 0 3.35.37 6.46 1.1 9.35.73 2.89 1.91 5.37 3.55 7.46s3.78 3.74 6.42 4.96c2.65 1.22 5.85 1.83 9.6 1.83 2.37 0 4.49-.14 6.37-.42 1.88-.28 3.55-.61 5.01-.99 1.47-.38 2.75-.82 3.87-1.31 1.11-.48 2.12-.94 3.02-1.36l4.48 13.05c-2.29 1.39-5.53 2.64-9.7 3.76-4.19 1.11-9.02 1.67-14.52 1.67zM1902.57 404.6c0 6.19-.92 11.64-2.77 16.34-1.84 4.69-4.37 8.62-7.56 11.79-3.2 3.16-7.01 5.54-11.43 7.15-4.42 1.6-9.17 2.4-14.25 2.4-4.94 0-9.6-.8-13.98-2.4-4.39-1.61-8.21-3.99-11.48-7.15-3.27-3.17-5.85-7.1-7.72-11.79-1.88-4.7-2.82-10.15-2.82-16.34 0-6.19.97-11.63 2.92-16.33 1.95-4.69 4.57-8.64 7.88-11.84 3.3-3.2 7.13-5.6 11.48-7.2 4.35-1.61 8.93-2.4 13.72-2.4 4.94 0 9.6.79 13.98 2.4 4.39 1.6 8.21 4 11.49 7.2 3.27 3.2 5.84 7.15 7.72 11.84 1.88 4.7 2.82 10.14 2.82 16.33zm-55.22 0c0 3.55.43 6.75 1.31 9.6.86 2.86 2.12 5.31 3.75 7.36 1.64 2.05 3.63 3.63 6 4.75 2.37 1.11 5.08 1.67 8.14 1.67 2.99 0 5.69-.56 8.09-1.67 2.41-1.12 4.42-2.69 6.06-4.75 1.64-2.05 2.89-4.51 3.76-7.36.87-2.85 1.31-6.05 1.31-9.6s-.43-6.76-1.31-9.65c-.87-2.89-2.12-5.36-3.76-7.41a16.6 16.6 0 0 0-6.06-4.75c-2.4-1.11-5.09-1.67-8.09-1.67-3.06 0-5.77.58-8.14 1.72a17.2 17.2 0 0 0-6 4.8c-1.64 2.05-2.89 4.52-3.75 7.41-.88 2.89-1.31 6.08-1.31 9.55zM1937.32 367.66c10.85 0 19.16 1.93 24.94 5.79 5.78 3.86 8.66 9.86 8.66 18 0 5.08-1.16 9.2-3.5 12.37-2.33 3.17-5.69 5.66-10.07 7.46 1.46 1.81 2.99 3.88 4.59 6.21 1.61 2.33 3.19 4.76 4.75 7.31 1.56 2.54 3.08 5.18 4.54 7.93 1.46 2.74 2.82 5.44 4.08 8.09h-18.2c-1.33-2.37-2.67-4.77-4.03-7.21-1.36-2.43-2.76-4.8-4.19-7.09-1.44-2.3-2.85-4.48-4.24-6.53-1.4-2.05-2.8-3.91-4.2-5.58h-8.04v26.41h-16.28v-71.28c3.55-.7 7.22-1.18 11.01-1.46 3.8-.28 7.19-.42 10.18-.42zm.94 13.88c-1.19 0-2.25.04-3.19.1-.94.07-1.82.14-2.66.21v19.62h4.6c6.12 0 10.5-.76 13.15-2.29 2.65-1.53 3.97-4.14 3.97-7.83 0-3.54-1.35-6.07-4.02-7.56-2.68-1.51-6.63-2.25-11.85-2.25zM2007.45 367.66c10.78 0 19.06 1.89 24.84 5.69 5.78 3.8 8.66 10 8.66 18.63 0 8.69-2.92 14.98-8.77 18.84-5.84 3.86-14.19 5.79-25.05 5.79h-5.12v24.21h-16.28v-71.28c3.55-.7 7.31-1.18 11.27-1.46 3.98-.28 7.46-.42 10.45-.42zm1.04 13.88c-1.19 0-2.35.04-3.5.1-1.15.07-2.13.14-2.98.21v20.87h5.12c5.63 0 9.87-.76 12.73-2.29 2.86-1.53 4.29-4.38 4.29-8.56 0-2.01-.37-3.68-1.1-5.01-.73-1.32-1.77-2.38-3.13-3.19-1.35-.8-3.02-1.36-4.96-1.67-1.94-.3-4.1-.46-6.47-.46zM2121.84 404.6c0 6.19-.92 11.64-2.77 16.34-1.85 4.69-4.37 8.62-7.57 11.79-3.2 3.16-7.01 5.54-11.43 7.15-4.42 1.6-9.17 2.4-14.25 2.4-4.94 0-9.6-.8-13.98-2.4-4.39-1.61-8.22-3.99-11.48-7.15-3.27-3.17-5.85-7.1-7.72-11.79-1.88-4.7-2.82-10.15-2.82-16.34 0-6.19.97-11.63 2.92-16.33 1.95-4.69 4.57-8.64 7.88-11.84 3.3-3.2 7.13-5.6 11.48-7.2 4.35-1.61 8.93-2.4 13.73-2.4 4.94 0 9.6.79 13.98 2.4 4.39 1.6 8.21 4 11.49 7.2 3.27 3.2 5.84 7.15 7.72 11.84 1.88 4.7 2.82 10.14 2.82 16.33zm-55.21 0c0 3.55.43 6.75 1.31 9.6.87 2.86 2.12 5.31 3.76 7.36 1.64 2.05 3.63 3.63 6 4.75 2.37 1.11 5.08 1.67 8.14 1.67 2.99 0 5.69-.56 8.08-1.67 2.41-1.12 4.42-2.69 6.06-4.75 1.64-2.05 2.89-4.51 3.75-7.36.88-2.85 1.31-6.05 1.31-9.6s-.43-6.76-1.31-9.65c-.87-2.89-2.12-5.36-3.75-7.41a16.6 16.6 0 0 0-6.06-4.75c-2.4-1.11-5.09-1.67-8.08-1.67-3.06 0-5.78.58-8.14 1.72a17.2 17.2 0 0 0-6 4.8c-1.64 2.05-2.89 4.52-3.76 7.41-.88 2.89-1.31 6.08-1.31 9.55zM2156.59 367.66c10.85 0 19.16 1.93 24.94 5.79 5.78 3.86 8.66 9.86 8.66 18 0 5.08-1.16 9.2-3.5 12.37-2.33 3.17-5.69 5.66-10.07 7.46 1.46 1.81 2.99 3.88 4.59 6.21 1.6 2.33 3.18 4.76 4.75 7.31 1.56 2.54 3.08 5.18 4.54 7.93 1.46 2.74 2.82 5.44 4.08 8.09h-18.2c-1.33-2.37-2.67-4.77-4.03-7.21-1.36-2.43-2.76-4.8-4.19-7.09-1.44-2.3-2.85-4.48-4.24-6.53-1.4-2.05-2.8-3.91-4.2-5.58h-8.04v26.41h-16.28v-71.28c3.55-.7 7.22-1.18 11.01-1.46 3.8-.28 7.19-.42 10.18-.42zm.94 13.88c-1.19 0-2.25.04-3.19.1-.94.07-1.82.14-2.66.21v19.62h4.6c6.12 0 10.5-.76 13.15-2.29 2.65-1.53 3.97-4.14 3.97-7.83 0-3.54-1.35-6.07-4.02-7.56-2.68-1.51-6.62-2.25-11.85-2.25zM2256.78 440.82c-.81-2.51-1.68-5.1-2.6-7.74-.92-2.65-1.85-5.29-2.77-7.92h-28.25c-.91 2.64-1.83 5.29-2.75 7.93-.91 2.65-1.77 5.23-2.56 7.73h-16.91c2.72-7.79 5.3-14.99 7.75-21.6 2.44-6.61 4.83-12.84 7.17-18.68 2.33-5.85 4.64-11.39 6.91-16.64 2.27-5.25 4.62-10.39 7.07-15.39h15.43c2.38 5.01 4.72 10.14 7.03 15.39 2.3 5.25 4.63 10.8 6.97 16.64s4.73 12.07 7.18 18.68c2.45 6.61 5.03 13.81 7.76 21.6h-17.43zm-19.57-55.95c-.36 1.05-.89 2.49-1.6 4.29-.7 1.8-1.49 3.9-2.38 6.27-.9 2.37-1.89 4.98-3 7.83-1.11 2.85-2.23 5.83-3.37 8.96h20.69c-1.11-3.14-2.18-6.13-3.22-8.99-1.04-2.86-2.03-5.47-2.96-7.84-.93-2.38-1.75-4.46-2.46-6.27-.69-1.8-1.26-3.21-1.7-4.25zM2328.59 368.49v13.88h-21.81v58.45h-16.28v-58.45h-21.81v-13.88h59.9zM2339.03 440.82v-72.33h48.85v13.67h-32.57v14.2h28.91v13.36h-28.91v17.43h34.97v13.67h-51.25zM1874.88 471.2v20.48h-32.19v86.26h-24.03v-86.26h-32.19V471.2h88.41zM1949.28 577.95c-1.2-3.71-2.48-7.52-3.84-11.43-1.36-3.91-2.73-7.8-4.08-11.69h-41.69c-1.35 3.9-2.7 7.8-4.06 11.71-1.35 3.92-2.62 7.72-3.78 11.4h-24.96c4.01-11.5 7.83-22.13 11.44-31.88 3.6-9.76 7.13-18.94 10.59-27.57 3.44-8.63 6.84-16.81 10.19-24.57 3.35-7.76 6.82-15.33 10.43-22.72h22.78c3.5 7.39 6.96 14.96 10.37 22.72 3.4 7.75 6.83 15.93 10.29 24.57 3.46 8.63 6.98 17.82 10.6 27.57 3.61 9.76 7.42 20.39 11.45 31.88h-25.73zm-28.87-82.57c-.53 1.55-1.31 3.67-2.36 6.33-1.03 2.66-2.2 5.75-3.52 9.25-1.33 3.5-2.8 7.35-4.43 11.55-1.64 4.2-3.29 8.61-4.97 13.22h30.53c-1.63-4.63-3.22-9.04-4.75-13.27-1.54-4.22-2.99-8.08-4.37-11.57-1.37-3.5-2.58-6.58-3.62-9.25-1.03-2.65-1.87-4.73-2.51-6.26zM2019.99 469.97c16.02 0 28.29 2.84 36.81 8.55 8.52 5.69 12.79 14.55 12.79 26.57 0 7.49-1.72 13.58-5.16 18.26-3.43 4.68-8.39 8.35-14.86 11.01 2.15 2.67 4.42 5.73 6.77 9.16 2.37 3.44 4.7 7.03 7.01 10.79 2.31 3.75 4.55 7.65 6.7 11.71 2.16 4.05 4.17 8.03 6.01 11.93h-26.86c-1.97-3.49-3.94-7.03-5.96-10.63-2.01-3.59-4.07-7.08-6.18-10.47-2.12-3.4-4.2-6.61-6.26-9.64-2.07-3.02-4.13-5.77-6.19-8.24h-11.86v38.98h-24.02V472.74c5.23-1.03 10.66-1.74 16.24-2.15 5.6-.42 10.61-.62 15.02-.62zm1.39 20.48c-1.75 0-3.32.06-4.7.15-1.39.11-2.69.21-3.93.31v28.96h6.78c9.03 0 15.5-1.13 19.41-3.39 3.91-2.26 5.86-6.11 5.86-11.55 0-5.23-1.99-8.96-5.93-11.16-3.96-2.22-9.79-3.32-17.49-3.32zM2140.75 489.68c-11.19 0-19.27 3.11-24.26 9.32-4.99 6.22-7.47 14.72-7.47 25.49 0 5.25.62 9.99 1.85 14.26 1.23 4.26 3.09 7.93 5.55 11.01s5.54 5.47 9.24 7.16c3.71 1.69 8.01 2.55 12.94 2.55 2.68 0 4.96-.06 6.86-.15 1.91-.11 3.56-.31 5.01-.62v-37.13h24.03v52.84c-2.88 1.12-7.51 2.33-13.86 3.62-6.37 1.28-14.23 1.92-23.57 1.92-8 0-15.27-1.23-21.8-3.69-6.52-2.46-12.09-6.06-16.72-10.79-4.62-4.72-8.18-10.53-10.7-17.41-2.51-6.88-3.77-14.74-3.77-23.57 0-8.93 1.39-16.84 4.16-23.71 2.77-6.88 6.57-12.72 11.4-17.49 4.82-4.77 10.49-8.4 17.01-10.86 6.52-2.46 13.49-3.69 20.87-3.69 5.03 0 9.58.33 13.64.99 4.05.67 7.54 1.44 10.47 2.31 2.93.87 5.34 1.77 7.25 2.7 1.89.92 3.26 1.65 4.07 2.15l-6.93 19.26c-3.29-1.75-7.06-3.27-11.32-4.55-4.26-1.28-8.91-1.92-13.95-1.92zM2196.83 577.95V471.2h72.09v20.17h-48.07v20.96h42.67v19.71h-42.67v25.73h51.61v20.17h-75.63zM2369.34 471.2v20.48h-32.19v86.26h-24.03v-86.26h-32.19V471.2h88.41z"/><path fill="#ddae9f" d="m2919.11 2500.81.96 32.42 19.38-.46 4.65-34.87z"/><path fill="#f2faff" d="M2918.49 2518.62c-1.36 3.96-10.31 25.46-10.31 25.46l32.21-11.87s4.04-14.57 1.41-14.93c-10.57-1.46-19.73-2.4-23.31 1.34z"/><path fill="#202234" d="M2938.62 2552.99c-5.57 3.85-50.56 28.03-55.17 20.38-4.57-7.65-3.84-21.31 20.62-36.21 10.16-6.19 15.57-21.06 13.69-16.52-10.53 25.54 11.52 13.26 20.9 9.5 5.23-2.09 5.78 3.81 4.77 10.91v.03c-.69 5.13-2.48 10.33-4.81 11.91zM3129.14 1642.79s-134.36 765.6-182.54 861.54l-30.83-.25s-69.9-672.17-22.42-888.79c0 .01 110.18-26.89 235.79 27.5z"/><path fill="#ddae9f" d="m3187.59 2544.41 7.07 31.66 18.95-4.12-2.03-35.12z"/><path fill="#f2faff" d="M3190.34 2562.02c-.59 4.15-9.6 23.96-3.68 27.65 7.07 4.41 27.75-18.44 27.75-18.44s1.21-15.07-1.44-14.93c-10.64.57-19.81 1.37-22.63 5.72z"/><path fill="#202234" d="M3216.61 2591.97c-4.74 4.84-44.35 37.08-50.32 30.43-5.93-6.65-7.8-20.21 13.4-39.46 8.81-8 8.7-17.9 9.29-16.38 9.8 25.05 14.85 8.42 23.35 2.96 4.74-3.05 6.39 2.65 6.74 9.82v.03c.3 5.16-.47 10.6-2.46 12.6z"/><path fill="#383b4b" d="M3231.72 1662.17s12.71 777.2-16.47 880.51l-30.32 5.58s-195.64-646.85-189.95-868.54c0 0 103.11-47.23 236.74-17.55z"/><path fill="#0f1019" d="M2893.35 1615.3s110.18-26.9 235.79 27.49c0 0-.6 3.44-1.74 9.84 31.25-1.09 66.56 1.15 104.32 9.53 0 0 .42 25.82.93 68.64-8.15 10.01-16.33 19.99-24.88 29.67-18.33 20.74-38.57 40.42-63.07 53.73-12.43 6.75-25.8 11.66-39.68 14.43-13.51 2.7-27.22 2.13-40.79 4.12-6.87 1.01-14.42 2.9-18.58 8.97-4.35 6.37-4.32 15.15-4.46 22.54-.3 15.13.36 30.2.96 45.32.65 16.2 1.01 33.41-5.03 48.74-7.69-5.26-11.29-15.48-14.06-23.93-3.72-11.34-6.24-23.04-10.19-34.3-4.38-12.49-11.4-24.05-18.59-35.09-9.21-14.15-19.41-27.63-29.34-41.27-1.17-1.61-3.95-1.64-4.5.59-15 60.99-24.8 123.18-30.34 185.73-10.04 113.49-6.25 227.88 5.35 341.1 4.71 45.94 10.76 91.71 17.75 137.34-2.35 6.4-4.56 11.77-6.61 15.85l-30.83-.25s-69.89-672.17-22.41-888.79z" opacity=".2"/><path fill="#ddae9f" d="M2796.63 1267.66s-8.94-8.91-8.52-13.5c.42-4.59 2.08-22.94-4.09-22.31-6.18.62-7.1 11.51-7.1 11.51s-9.16-25.48-21.17-15.32c-14.69 12.42-9.31 26.25 1.98 35.35 11.29 9.1 26.6 20.52 26.6 20.52l12.3-16.25z"/><path fill="#f2faff" d="M2933.12 1646.03c14.69 89.63 97.25 76.32 162.02 63.59 78.61-19.03 95.33 6.07 116.8-62.26 9.37-36.85 54.52-344.38-83.4-397.95-72.58-42.9-102.16-4.42-115.2 18.58-72.27 61.4-104.97 272.93-80.22 378.04z"/><path fill="#202234" d="m3022.27 1240.29-114.79 101.06-107.92-77.51s-20.6 2.95-25.51 13.74 73.59 170.72 124.6 162.87c51.02-7.85 85.36-38.26 85.36-38.26s63.77-163.86 38.26-161.9z"/><path fill="#1c282b" d="M2933.12 1646.03c8.26 34.81 22.79 59.42 44.63 65.69 10.36 2.97 21.72 4.91 33.61 5.82 8.09.62 16.43.74 24.98.41-5.12-19.36-13.96-46.57-25.6-58.72-19.16-19.86-13.25-77.99 7.35-200.87 18.21-108.59.21-174.12-4.75-190.39-.66-2.15-1.07-3.47-1.15-3.88 0 0-.7 2.31-1.9 6.52-9 30.43-46.95 160-64.7 232.38.95 46.83-7.31 98.94-12.47 143.04z" opacity=".29"/><path fill="#202234" d="M2981.3 1528.26s-15.11 207.83-25.41 214.45c-10.3 6.62-125.15-41.64-101.24-74.3 34.29-46.85 48.17-372.32 142.11-419.04 3.29-1.64 38.34-14.52 38.34-14.52s-53.06 261.03-53.8 293.41z"/><path fill="#383b4b" d="M3034.04 1238.99s-18.15 262.04-50.53 327.53l-15.45-214.87 24.28-27.23-9.5-32.83 51.2-52.6z"/><path fill="#202234" d="M3038.45 1580.71c-.04 20.19.66 39.97 2.44 58.79 4.05 44.59 13.87 83.53 32.62 108.55 0 0 45.38 3.72 94.8-4.71 38.85-6.69 80.23-20.85 104.09-50.21 0 0-12.47-62.84-22.3-225.69-3.22-53.72-6.98-94.02-14.2-125.27-14.62-63.58-51.16-83.81-118.75-108.96-17.86-6.66-22.53-5.2-40.03-4.23-11.75.65-10.94 31.58-7.54 82.47.01.01-30.8 142.04-31.13 269.26z"/><path fill="#1a2326" d="M3168.46 1587.61s-60.83 11.77-75.55 9.81l.49 8.83s56.91 19.13 78-8.83l-2.94-9.81z" opacity=".2"/><path fill="#0f1019" d="M3204.58 1560.5c25.52 50.99 11.73 135.8-37.9 180.39 38.85-6.69 80.22-20.85 104.09-50.21 0 0-12.47-62.84-22.3-225.69-3.22-53.72-6.98-94.02-14.2-125.27l-93.85-32.21s-9.35 100.06 30.21 107.78c39.6 7.73 2.12 81.54 33.95 145.21z" opacity=".2"/><path fill="#1a2326" d="M3039.2 1576.27c-.04 20.19.66 39.97 2.44 58.8 39.51-93.19 52.97-242.2 52.97-242.2l-55.41 183.4z" opacity=".2"/><path fill="#e05778" d="m3049.61 1238.74-19.66 1.77-1.92 34.53s-21.54 172.39-79.96 227.63c-26.98 25.51-69.17 17.66-69.17 17.66l-42.68 9.81 19.13 38.27s54.94 29.92 102.04-1.96c106.85-72.35 89.28-284.53 89.28-284.53l21.34-29.38-18.4-13.8z"/><path fill="#0f1019" d="M2842.54 1540.83c6.66 5.94 14.88 9.84 23.32 12.56 15.71 5.06 33.5 5.21 49.79 3.71 27.05-2.5 52.73-10.79 76.09-23.46-9.71 12.65-21.07 23.81-34.36 32.8-47.09 31.89-102.04 1.96-102.04 1.96l-14.8-29.6c.67.68 1.3 1.4 2 2.03z" opacity=".29"/><path fill="#0f1019" d="M3055.58 1267.69v.11l-2.66 4.21c-1.55 1.17-3.88 2.45-5.74 3.46-5.11 2.79-10.86 5.47-14.86 9.83-4.71 5.15-4.6 11.63-4.72 18.21-.17 9.23 2.83 46.76 1.89 55.91-8.34 80.94-47.58 131.23-63.06 120.49 44.62-69.18 61.59-204.87 61.59-204.87l2.04-34.18 19.55-2.12 13.73 11.22c-1.39 1.54-7.86 15-7.76 17.73z" opacity=".1"/><path fill="#383b4b" d="m3108.61 1308.97-27.23 36.06 13.24 47.83-55.92 206.04s-2.07-289.42 33.04-357.8l36.87 67.87z"/><path fill="#100959" d="M2221.25 1335.09c147.21 112.36 354.06 92.29 477.34-40.95 7.64-8.29 15.06-17.03 22.03-26.18s13.45-18.55 19.43-28.12c96-154.11 60.73-358.91-86.48-471.27-156.45-119.4-380.06-89.38-499.46 67.07-119.33 156.44-89.31 380.05 67.14 499.45zm-48.94-485.57c111.75-146.43 320.94-174.49 467.36-62.81 137.72 105.19 170.72 296.78 80.9 440.98-5.58 8.97-11.59 17.76-18.17 26.31-6.49 8.62-13.45 16.74-20.6 24.5-115.36 124.68-308.88 143.48-446.67 38.38-146.43-111.76-174.5-321.02-62.82-467.36z" opacity=".25"/><path fill="#eddaab" d="M2137.08 1196.79c9.14 18.99 20.16 37.26 33.06 54.42 3.34 4.51 6.82 9 10.45 13.32a334.417 334.417 0 0 0 54.54 52.34 335.904 335.904 0 0 0 66.79 39.68c128.49 57.17 282.21 27.52 379.88-78.05 7.16-7.76 14.11-15.89 20.6-24.5 6.58-8.55 12.59-17.34 18.17-26.31 65.92-105.84 65.72-237.24 6.42-341.25-21.46-37.64-50.7-71.76-87.31-99.73-5.41-4.17-10.94-8.08-16.45-11.76-4.73-3.15-9.43-6.15-14.21-9.07-18.48-11.1-37.73-20.29-57.43-27.47-133.43-48.67-288.51-7.78-379.27 111.11-78.83 103.2-88.03 237.78-35.24 347.27z" opacity=".25"/><path fill="#c8d9fb" d="m3306 1616.49-362.14-276.36a78.012 78.012 0 0 0-35.01-15.07c-16.11-2.56-32.69.12-47.34 7.46l-95.5-72.89c106.84-168.48 68.85-393.64-92.74-516.93-170.73-130.26-414.72-97.51-544.98 73.22-130.35 170.67-97.51 414.72 73.14 544.99 84.89 64.8 187.93 89.24 286.06 76.48 88.16-11.47 172.28-52.86 235.9-122.06.34-.44.75-.88 1.16-1.33l87.42 66.75 8.03 6.13c-5.66 28.31 4.59 58.67 29.13 77.36l362.15 276.44c25.11 19.19 58.13 20.78 84.26 6.79 9.53-5.17 18.18-12.34 25.16-21.49 26.16-34.34 19.63-83.34-14.7-109.49zm-585.38-348.53c-6.98 9.15-14.4 17.89-22.03 26.18-123.28 133.25-330.13 153.31-477.34 40.95-156.45-119.4-186.47-343.01-67.14-499.45 119.4-156.45 343.01-186.47 499.46-67.07 147.21 112.36 182.48 317.15 86.48 471.27a367.061 367.061 0 0 1-19.43 28.12z"/><path fill="#5681f1" d="m2898.4 1456.02 362.14 276.36a78.06 78.06 0 0 0 35.01 15.07c9.53-5.16 18.18-12.33 25.16-21.48 26.15-34.33 19.62-83.34-14.71-109.49l-362.14-276.36a78.012 78.012 0 0 0-35.01-15.07c-9.54 5.16-18.18 12.33-25.16 21.48-26.16 34.26-19.54 83.33 14.71 109.49zM2724.57 1314l87.42 66.75c-4.61-6.46-11.92-18.63-21.39-39.53-15.74-34.7 1.38-50.97-29.97-71.71 0-.01-20.97 30.12-36.06 44.49z" opacity=".25"/><path fill="#f2faff" d="M2180.59 1264.54a334.417 334.417 0 0 0 54.54 52.34 335.904 335.904 0 0 0 66.79 39.68l425.07-470.11c-21.46-37.64-50.7-71.76-87.31-99.73-5.41-4.17-10.94-8.08-16.45-11.76l-442.64 489.58zM2137.08 1196.79c9.14 18.99 20.16 37.26 33.06 54.42l438.87-485.33c-18.48-11.1-37.73-20.29-57.43-27.47l-414.5 458.38zM2298.03 818.98s-167.04 81.88-147.94 185.74c19.1 103.85 57.44-42.45 72.29-68.16 35.09-60.82 117.1-121.57 75.65-117.58zM2610.7 1292.61s120.33-64.82 103.38-140.52c-16.95-75.7-40.97 32.78-51.15 52.08-24.06 45.63-82.55 92.54-52.23 88.44z" opacity=".1"/><path fill="#ddae9f" d="m3067.13 1186.82 4.56 35.77c-18.08 19.1-21.77 18.79-27.28 13.13-2.44-2.52-4.95-13.13-6.6-21.77-1.18-6.13-1.97-11.32-2.12-12.11h-.08c-1.34.47-13.99 5.5-26.41 3.38-13.21-2.36-7.07-77.27-7.07-77.27 26.1-30.82 75.54 16.03 75.54 16.03l-10.54 42.84z"/><path fill="#0f1019" d="M3001.34 1143.66s22.94 4.23 31.84.15c0 0 3.07 23.35 9.91 18.72 6.84-4.64 13.08-17.39 13.08-17.39l-16.11-11.05-38.41.41-.31 9.16z" opacity=".2"/><path fill="#202234" d="M3039.81 1137.87s-.77 24.22 4.55 21.16c5.31-3.06 11.81-13.88 11.81-13.88l9.55 40.64s4.45 19.52 7.47 5.6c3.02-13.92 18.51-30.76 20.5-52.86 1.99-22.09-21.89-54.19-48.32-46.04s-65.06-3.84-68.27 6.79c-3.22 10.62 10 48.3 62.71 38.59z"/><path fill="#0f1019" d="m3047.48 1196.25-9.67 17.69c-1.18-6.13-1.97-11.32-2.12-12.11l11.79-5.58z" opacity=".2"/><path fill="#383b4b" d="m3048.86 1238.99-22.3 2.34s1.87-11.82 12.07-23.5c3.17 15.76 10.23 21.16 10.23 21.16zM3048.86 1238.76l19.85 16.81s23.39-38.41 1.17-47.4c0 0 1.52 9.31-.7 12.8-3.25 5.11-20.32 17.79-20.32 17.79z"/><path fill="#202234" d="M3013.02 1155.18c.31.15.7.08.94-.18.18-.2 4.54-4.79 11.56-.6.39.22.88.1 1.11-.28.23-.38.1-.88-.28-1.11-8.19-4.91-13.54.84-13.6.9-.3.33-.27.84.06 1.14.07.06.14.1.21.13zM2997 1152.99c.03-.06 3.53-5.81 8.9-.9.25.23.33.73.18 1.11-.15.39-.47.5-.73.28-4.6-4.19-7.45.4-7.57.6-.16.27-.41.33-.62.18-.05-.03-.09-.08-.13-.13-.21-.3-.23-.81-.03-1.14zM3006.37 1176.26c-2.15-.78-2.9-2.37-2.94-2.46a.815.815 0 0 1 .23-.97c1.85-1.46 2.62-6.92 2.76-8.91.03-.44.42-.78.87-.75.44.03.78.42.75.86-.05.75-.56 6.94-2.83 9.54.49.58 1.63 1.52 3.87 1.49.45-.01.81.35.82.8a.8.8 0 0 1-.8.82c-1.09.02-1.99-.15-2.73-.42zM3022.85 1160.21c0 2.53-1.4 4.57-3.13 4.57s-3.13-2.05-3.13-4.57c0-2.53 1.4-4.57 3.13-4.57s3.13 2.05 3.13 4.57zM3003.44 1159.36c0 2.08-1.16 3.77-2.58 3.77s-2.58-1.69-2.58-3.77 1.16-3.77 2.58-3.77 2.58 1.69 2.58 3.77zM3008.43 1186.98c0 2.53-1.4 4.57-3.13 4.57s-3.13-2.05-3.13-4.57c0-2.53 1.4-4.57 3.13-4.57s3.13 2.05 3.13 4.57z"/><path fill="#ddae9f" d="M3054.44 1150.21s-.56-4.67 3.89-5.84c14.42-3.78 4.58 19.22.69 20.48-3.89 1.26-4.58-14.64-4.58-14.64z"/><path fill="#c68e7d" d="M3057.87 1148.5s1.72-3.2 4.12-1.26c2.4 1.95-1.83 12.36-1.83 12.36s2.52-10.64-.23-10.18c-2.74.45-2.06-.92-2.06-.92z"/><path fill="#ddae9f" d="M3246.5 1750.36c.68-1.96 1.35-4.84 1.91-9.17 0 0-.02.03-.04.08.36-2.15.58-4.42.69-6.69.19-3.93.11-6.81-.05-8.84v-.02c-.25-2.99-.67-4.15-.67-4.15s13.31-36.03 13.48-41.05c-1.74-5.12-20.4-6.48-20.4-6.48-4.14 2.25-11.33 35.75-17.1 40.69-6.72 5.77-26.98 9.7-22.63 14.86 4.35 5.17 16.67-1.87 16.67-1.87s-.09.15-.25.44c-.95 1.75-4.37 8.47-5.3 15.37v.01c-.24 1.92-.31 3.86-.07 5.71.05.32.09.65.15.97.11.57.25 1.14.43 1.68l.09.27c.09.27.19.54.31.81l.01.03c.01 0 .01 0 .02.01.49.61 1.27 1.17 2.49 1.55 3.94 1.2 5.38-1.74 5.38-1.74s.42 3.19 3.75 3.67c3.54.51 3.8-2.15 3.8-2.15s1.5 3.13 4.3 3.43c2.96.32 3.21-2.78 3.21-2.78s.74 2.37 4.2 2.78c3.14.35 5.62-7.42 5.62-7.42z"/><path fill="#fff" d="M3230.97 1750.32c.05.11.14.19.3.19 1.79 0 3.48.07 4.99 1.13.5.35 1.07.75 1.72.64.3-.05.55-.2.82-.33.36-.16.71-.18 1.1-.17 1.29.04 2.58.36 3.78.8.55.21 1.1.44 1.64.72-1.02 2.15-2.61 4.67-4.41 4.46-3.46-.41-4.2-2.78-4.2-2.78s-.25 3.09-3.21 2.78c-2.8-.3-4.3-3.43-4.3-3.43s-.26 2.66-3.8 2.15c-3.33-.48-3.75-3.67-3.75-3.67s-1.44 2.94-5.38 1.74c-1.22-.37-2-.94-2.49-1.55-.01 0-.01 0-.01-.01l-.01-.03c-.11-.26-.22-.53-.31-.81-.03-.09-.06-.19-.09-.27-.18-.55-.32-1.11-.43-1.68-.06-.32-.1-.65-.15-.97.82.56 1.83.93 2.76 1.19 1.05.29 2.21.48 3.26.07 1.1-.43 1.81-1.42 2.85-1.95 1.09-.54 2.44-.23 3.41.44.84.58 1.37 1.43 2.42 1.65 1.17.25 2.34-.09 3.49-.3-.02-.01-.01-.01 0-.01zM3202.11 1727.82s5.07-1.57 5.38-2.48c.32-.9-.69-1.49-.69-1.49s-4.56 2.26-4.69 3.97z" opacity=".2"/><path fill="#202234" d="M3363.32 1475.72c-18.92 47.86-107.06 242.37-107.06 242.37l-30.98-13.86 40.88-230.97s-243.92-216.11-156.59-237.54c89.81-22.04 272.68 192.16 253.75 240z"/><path fill="#ddae9f" d="M2787.6 1235.77s-3.06-19.9-8.27-15.92c-5.2 3.98-2.41 23.5-2.41 23.5s10.07-1.76 10.68-7.58z"/><path fill="#394ca4" d="M765.65 2464.97s15.79-114.67-15.66-103.36c-31.45 11.32-17.01 57.28 15.66 103.36z"/><path fill="#f2faff" d="M765.54 2380.71c-1.6-1.25-2.2-3.5-2.92-5.31-.85-2.11-1.79-4.18-3.45-5.8-2.03-2-4.62-3.08-7.41-3.46-2.69-.37-5.55-.03-8.15-.87-.1-.03-.18-.11-.28-.14 1.96-1.36 4.11-2.58 6.67-3.51 10.14-3.65 15.35 5.83 17.78 20.3-.82-.33-1.6-.71-2.24-1.21z" opacity=".2"/><path fill="#202234" d="M735.52 2381.52c.12 8.56.49 16.98 3.07 25.21a96.49 96.49 0 0 0 3.87 10.24c1.15 2.6 2.67 5.24 5.1 6.85 5.25 3.47 11.43-.08 15.16-4.1 2.3-2.47 4.26-5.58 6.86-7.64-.28 26.31-3.93 52.89-3.93 52.89-24.84-35.02-39-69.88-30.6-89.59.43 2.01.44 4.17.47 6.14z" opacity=".15"/><path fill="#100959" d="M767.73 2463.86s-64.32-113.12-108.7-74.22c-44.37 38.9 108.7 74.22 108.7 74.22z"/><path fill="#f2faff" d="M724.97 2407.42c-1.78.26-3.64.39-5.45.35-.11 0-.22-.01-.34-.01.17-.04-1.56-.34-1.81-.43-1.79-.63-3.28-1.69-4.67-2.97-2.71-2.49-4.97-5.32-8.2-7.2-7.13-4.17-15.84-4.93-23.78-6.51-3.51-.7-9.54-.97-11-4.93-.3-.82-.3-1.62-.14-2.39 18.22-6.64 38.45 6.47 55.8 23.99-.13.04-.27.08-.41.1z" opacity=".2"/><path fill="#202234" d="M660.63 2418.67c5.96 3.97 12.59 6.16 19.74 6.28 3.73.06 7.59-.26 11.26.57 3.69.83 6.36 2.82 8.83 5.59 4.62 5.17 8.91 9.73 15.44 12.46 6.81 2.85 14.28 3.33 21.58 3.12 2.97-.08 5.82-.45 8.76-.76 2.24-.24 5.21-.67 7.3.48 2.7 1.48 2.69 6.08 2.21 8.69-.33 1.84-1.05 3.6-2.03 5.18-30.74-8.28-101.45-30.07-102.71-55.44 2.08 5.5 4.32 10.31 9.62 13.83z" opacity=".15"/><path fill="#4094f2" d="M677.22 2526.18h555.29l-7.96-27.76-18.73-65.75c-13.27-46.41-59.38-75.46-107-67.34l-24.04 4.17c-1.82.3-3.56.45-5.31.45-10.62 0-20.7-5.31-26.69-14.33-41.26-61.88-134.54-54.22-165.17 13.58l-4.1 9.1c-7.22 16.06-26.08 23.23-42.15 16.04l-23.97-10.73c-14.03-6.29-29.65-1.59-38.3 9.48a31.211 31.211 0 0 0-6.37 14.33l-3.56 20.78c-.91 5.16-2.88 9.71-5.69 13.5-.53.68-1.06 1.36-1.59 1.97a32.143 32.143 0 0 1-18.66 10.62c-1.82.38-3.79.53-5.69.53-6.01 0-12.11-1.65-17.65-5.34-12.49-8.33-29.22-6.26-39.84 4.36l-16.11 16.11c-20.76 20.74-6.06 56.23 23.29 56.23z"/><path fill="#f2faff" d="M954.88 2333.71c-7.6 4.47-16.83 5.31-25.24 7.45-7.27 1.85-13.99 4.83-19.75 9.68-8.79 7.4-13.86 17.95-19.73 27.58-7.05 11.56-16.74 22.94-30.16 27.02-14.78 4.5-27.41-6.1-41.61-8.2-11.35-1.68-22.95-.1-32.84 5.96-9.96 6.11-17.28 15.73-22.7 25.92-5.28 9.93-10.57 19.86-21.24 24.82-13.76 6.4-29.25 4.75-42.78-1.25-4.73-2.1-8.9-4.64-13.02-7.48 8.1-1.83 16.78-.6 24.04 4.25 5.54 3.69 11.63 5.34 17.65 5.34 1.9 0 3.87-.15 5.69-.53 7.21-1.29 13.8-5.01 18.66-10.62.53-.61 1.06-1.29 1.59-1.97 2.81-3.79 4.78-8.35 5.69-13.5l3.56-20.78c.91-5.46 3.18-10.31 6.37-14.33 8.64-11.07 24.27-15.77 38.3-9.48l23.97 10.73c16.07 7.19 34.93.02 42.15-16.04l4.1-9.1c17.74-39.25 56.47-58.3 93.95-55.41-4.14 7.88-8.87 15.36-16.65 19.94z" opacity=".2"/><path fill="#f2faff" d="M726.23 2526.18h506.29l-7.96-27.76c-25.03-22.45-59.61-33.44-94.8-27.38l-18.73 3.19-10.09 1.67c-2.2.38-4.4.53-6.52.53-4.7 0-9.33-.83-13.65-2.5-7.28-2.81-13.65-7.74-18.2-14.56-6.37-9.63-13.88-17.82-22.07-24.57a90.17 90.17 0 0 0-9.86-7.36c-18.43-12.21-39.59-18.28-60.82-18.5-12.43-.23-24.8 1.59-36.63 5.46-28.74 9.1-54.22 29.8-68.4 61.28l-4.93 10.77c-8.72 19.34-31.4 27.91-50.66 19.26l-14.56-6.52-14.03-6.29c-6.37-2.88-13.05-3.79-19.41-3.18-16.53 1.59-31.09 13.88-34.13 31.7l-.84 4.76z" opacity=".25"/><circle cx="804.75" cy="2423.82" r="9.87" fill="#394ca4"/><path fill="#100959" d="M917.3 2456.86c0 5.45 4.42 9.87 9.87 9.87 5.45 0 9.87-4.42 9.87-9.87 0-5.45-4.42-9.87-9.87-9.87-5.45 0-9.87 4.42-9.87 9.87z"/><path fill="#202234" d="M935.97 2360.99c0 10.51 8.51 19.02 19.02 19.02s19.03-8.52 19.03-19.02-8.52-19.02-19.03-19.02c-10.51-.01-19.02 8.51-19.02 19.02z" opacity=".15"/><path fill="#100959" d="M937.28 2356.47c0 10.51 8.52 19.02 19.02 19.02 10.51 0 19.02-8.52 19.02-19.02 0-10.51-8.52-19.02-19.02-19.02-10.51 0-19.02 8.52-19.02 19.02zM795.25 2520.98s44.51-56.13 24.19-60c-20.32-3.87-27.1 25.17-24.19 60z"/><path fill="#f2faff" d="M821.63 2468.64c-2.02-.68-3.9-1.29-6.05-1.48-4.26-.38-9.14.49-12.66 3.02-1.38.99-2.29 2.22-3.18 3.55 4-9.37 10.42-14.51 19.7-12.74 4.26.81 5.65 3.95 5.21 8.36-1.03 0-2.23-.44-3.02-.71z" opacity=".2"/><path fill="#202234" d="M804.65 2502.65c1.85-.41 3.65-1.23 5.34-2.24-7.37 11.28-14.74 20.57-14.74 20.57-.61-7.33-.78-14.39-.5-20.94 2.52 2.9 6.28 3.4 9.9 2.61z" opacity=".15"/><path fill="#394ca4" d="M795.25 2520.98s-28.06-75.48-59.03-56.13c-30.97 19.36 59.03 56.13 59.03 56.13z"/><path fill="#f2faff" d="M773.3 2484.96c-2.32-2.06-3.71-4.89-6.15-6.87-2.62-2.13-5.66-3.44-8.76-4.7-2.96-1.2-6.4-2.26-8.24-5.08-1.1-1.68-1.6-4.39-.71-6.36 10.88 1.69 20.87 12.82 28.73 25-1.77-.26-3.5-.78-4.87-1.99z" opacity=".2"/><path fill="#202234" d="M757.52 2496.64c3.97.61 9.44.7 12.78 3.14 1.69 1.23 2.77 3.1 4.51 4.32 1.68 1.17 3.66 1.82 5.63 2.29 3 .71 5.97.9 8.69.43 3.88 8.16 6.12 14.16 6.12 14.16s-30.32-12.4-49.71-26.59c3.95 1.08 8.1 1.66 11.98 2.25z" opacity=".15"/><path fill="#394ca4" d="M795.25 2520.98s103.54-12.58 77.41-29.03c-26.13-16.45-77.41 29.03-77.41 29.03z"/><path fill="#f2faff" d="M864.9 2497.76c-4.95.39-9.71-1.5-14.58-2-6.72-.68-12.34 1.26-18.63 3.18-2.53.77-5.2 1.42-7.88 1.56 15.89-9.26 35.04-16.56 48.19-8.91.12 2.98-3.65 5.9-7.1 6.17z" opacity=".2"/><path fill="#202234" d="M825.02 2515.14c3.14-.2 6.3-.4 9.39-1.02 3.22-.65 6.35-1.67 9.56-2.37 1.99-.43 4.01-.61 6.04-.64-23.78 6.11-54.76 9.88-54.76 9.88s4.82-4.25 12.18-9.65c.26.47.6.92 1.02 1.33 1.87 1.8 4.89 2.12 7.35 2.4 3.06.34 6.15.25 9.22.07z" opacity=".15"/><path fill="#4094f2" d="M3292.93 1000.19v118.95h-112.6s1-99.66.69-142.46c-.06-2.99-.06-5.66-.13-8.09-.12-7.28-.31-11.7-.56-11.7-.81.81 71.67-.75 71.67-.75l40.93 44.05z"/><path fill="#c8d9fb" d="M3184.67 1054.66h65.36v5.51h-65.36zM3184.67 1069.36h65.36v5.51h-65.36zM3184.67 1084.06h65.36v5.51h-65.36zM3184.67 1098.75h65.36v5.51h-65.36z"/><path fill="#c8d9fb" d="M3232.71 968.27s-30.67.31-51.82.31c.06 2.43.06 5.1.13 8.09 13.62 0 31.04.12 41.87.06v42.74h43.42v99.66h7.34v-106.76l-40.94-44.1zm-3.17 44.11v-35.71l34.03 35.71h-34.03z"/><path fill="#4094f2" d="M3273.64 1119.14v12.13h-112.6s1.62-159.7.06-163c.62.25 9.02.31 19.78.31.06 2.43.06 5.1.13 8.09h-12.19c.43 14.74.62 51.76-.37 147.26h97.86v-4.79h7.33z"/><path fill="#f2faff" d="M1496.24 1136.56v118.95h-112.6s.99-99.66.68-142.47c-.06-2.99-.06-5.66-.12-8.09-.12-7.28-.31-11.7-.56-11.7-.81.81 71.67-.75 71.67-.75l40.93 44.06z"/><path fill="#c8d9fb" d="M1387.98 1191.03h65.36v5.51h-65.36zM1387.98 1205.72h65.36v5.51h-65.36zM1387.98 1220.42h65.36v5.51h-65.36zM1387.98 1235.12h65.36v5.51h-65.36z"/><path fill="#c8d9fb" d="M1436.02 1104.64s-30.67.31-51.82.31c.06 2.43.06 5.1.12 8.09 13.62 0 31.04.12 41.87.06v42.74h43.42v99.66h7.34v-106.76l-40.93-44.1zm-3.17 44.11v-35.71l34.03 35.71h-34.03z"/><path fill="#f2faff" d="M1476.96 1255.5v12.13h-112.6s1.62-159.7.06-162.99c.62.25 9.02.31 19.78.31.06 2.43.06 5.1.12 8.09h-12.19c.43 14.74.62 51.76-.37 147.26h97.86v-4.79h7.34zM927.91 1024.16H195.44c-27.91 0-50.53 24.03-50.53 53.67v411.92c0 29.64 22.62 53.66 50.53 53.66h732.47c27.91 0 50.53-24.03 50.53-53.66v-411.92c-.01-29.65-22.63-53.67-50.53-53.67z"/><path fill="#4094f2" d="M244.03 1283.41h54.36v217.15h-54.36z"/><path fill="#c8d9fb" d="M301.78 1253.19h54.36v247.37h-54.36z"/><path fill="#4094f2" d="M422.39 1206.77h54.36v293.79h-54.36z"/><path fill="#c8d9fb" d="M480.14 1165.88h54.36v334.67h-54.36z"/><path fill="#4094f2" d="M767.21 1175.33h54.36v325.23h-54.36z"/><path fill="#c8d9fb" d="M824.96 1130.07h54.36v370.49h-54.36z"/><path fill="#4094f2" d="M595.65 1363.98h54.36v136.58h-54.36z"/><path fill="#c8d9fb" d="M653.4 1344.97h54.36v155.58H653.4z"/><path fill="#4094f2" d="M641.5 1276.48c-1.29.36-2.36-.51-3.12-1.39l-162.57-189.05-176.97 110.66c-1.82 1.14-4.31.7-5.54-1-1.23-1.69-.75-3.99 1.08-5.13L474.41 1078c1.72-1.08 4.05-.75 5.34.76l161.77 188.12 171.15-195.64c1.38-1.59 3.9-1.84 5.61-.54 1.71 1.29 1.97 3.62.58 5.2L644.6 1275.11c-.76.87-1.9 1.37-3.1 1.37z"/><path fill="#4094f2" d="m816.26 1092.93-1.97-17.66-19.02 1.84 7.23-8.27 19.02-1.84 1.97 17.65z"/><path fill="#0f1019" d="m2629.55 2164.89 56.94 10.16c1.24.22 2.42-.6 2.64-1.84l49.9-279.6c.22-1.24-.6-2.42-1.84-2.64l-56.94-10.16c-1.24-.22-2.42.6-2.64 1.84l-49.9 279.59c-.22 1.25.6 2.43 1.84 2.65zM2494.02 2217.5h33.85v378.66h-33.85z"/><path fill="#202234" d="M2553.26 2199.87c0 25.23-19.63 45.68-43.85 45.68-24.22 0-43.85-20.45-43.85-45.68s19.63-45.68 43.85-45.68c24.21 0 43.85 20.45 43.85 45.68z"/><path fill="#394ca4" d="M2317.16 2118.12h402.96c19.69 0 35.65 14.08 35.65 31.45v15.64c0 17.37-15.96 31.45-35.65 31.45h-402.96c-19.69 0-35.65-14.08-35.65-31.45v-15.64c0-17.37 15.96-31.45 35.65-31.45z"/><path fill="#202234" d="M2553.89 2584.34H2468c-14.42 0-26.1 11.68-26.1 26.1v5.59H2580v-5.59c0-14.41-11.69-26.1-26.11-26.1z"/><path fill="#0f1019" d="M2398.58 2604.89h224.74c20.36 0 36.86 16.5 36.86 36.86h-298.47c0-20.35 16.51-36.86 36.87-36.86z"/><path fill="#394ca4" d="m2861.94 1681.42-38.45 248.2c-4.11 26.34-27.95 44.89-54.5 42.4l-61.62-5.82-102.1-9.67c-28.06-2.65-48.48-27.85-45.25-55.85l26.29-229.29c2.91-25.04 23.8-44.06 48.99-44.58 8.94-.15 18.81-.36 29.41-.57 45.67-.88 103.65-2.03 146.62-2.81 31.23-.62 55.39 27.13 50.61 57.99z"/><path fill="#231f20" d="m2707.37 1966.2-102.1-9.67c-28.06-2.65-48.48-27.85-45.25-55.85l26.29-229.29c2.91-25.04 23.8-44.06 48.99-44.58 8.94-.15 18.81-.36 29.41-.57 2.18 36.37 2.91 88.43-4.52 140.59-12.21 85.73 68.01 138.21 47.18 199.37z" opacity=".25"/><path fill="#0f1019" d="M2504.99 1352.19c-17.56-3.44-92.7-11.71-100.37 29.5-7.67 41.21 24.93 84.16 1.92 104.55-23.01 20.39-1.97 53.26 17.73 57.1 9.98 1.95 31.57-3.01 41.45 2.05 32.49 16.63 104.8 14.34 94.83-12.62-11.6-31.38 17.86-29.49 7.51-62.09-9.21-28.99 1.06-31.96 0-44-3.45-39.11-15.23-65.11-63.07-74.49z"/><path fill="#383b4b" d="M2605.22 1917.24c1.51 6.42 77.4 77.4 65.27 145.47-4.65 26.1 4.35 79.57-205.77 119.36-208.48 39.48-155.42 4.35-203.91.62-48.49-3.73-94.08-77.67-66.11-113.1 27.98-35.44 142.58-133.08 142.58-157.32s144.85-39.79 144.85-39.79 108.17-18.65 123.09 44.76z"/><path fill="#0f1019" d="M2605.22 1917.24c-14.92-63.41-123.09-44.76-123.09-44.76s-18.31 1.97-41.87 5.58c16.83 39.58 42.69 76.83 80.1 96.96 11.37 6.12 23.53 10.1 36.34 11.73 12 1.53 24.28 1.88 36 5.13 20.64 5.73 40.12 25.11 39.69 47.82-.33 17.42-14.67 29.05-27.58 38.46-6.94 5.06-14.23 9.76-20.57 15.6-7.21 6.65-10.3 14.41-13.76 23.46-3.02 7.9-5.7 16.21-10.45 23.28-5.48 8.14-13.13 14.25-21.14 19.75-3.89 2.67-7.85 5.35-11.85 8.03 145.84-37.61 139.34-82.4 143.47-105.59 12.11-68.05-63.78-139.03-65.29-145.45z" opacity=".25"/><path fill="#202234" d="M2442.35 2174.64s-77.13 17.53-131.23-2.48c-54.09-20-142.96-20.77-136.02-57.29 12.84-67.6 63.3-83.89 165.61-87.87 52.05-2.03 116.52-2.25 143.98 4.73 39.88 10.14 29.36 54.05 37.85 77.06 8.49 23.01-27.54 81.74-80.19 65.85z"/><path fill="#c68e7d" d="M2213.27 2059.11s85.63-37.77 118.35-18.64c32.72 19.13 105.69 140.37-14.53 148.5-120.22 8.13-103.82-129.86-103.82-129.86z"/><path fill="#d7a28e" d="M2330.05 2052.65s110.86-31.31 143.58-12.18c32.72 19.13 80.47 133.92-39.76 142.05-120.22 8.13-103.82-129.87-103.82-129.87z"/><path fill="#ddae9f" d="M2439.46 2090.31c34.27 94.2-85.4 391.35-85.4 391.35l-22.55.81s-8.99-300.62-8.95-391.72c.03-91.1 105.28-32.37 116.9-.44z"/><path fill="#33133f" d="M2346.03 2415.06c-5.57-1.25-11.04-1.81-16.52-1.69-2.38-84.79-6.12-226.38-6.84-300.26 22.33 1.11 44.26 8.92 53.26 29.21 6.09 13.71 8.54 29.35 11.68 43.95 2.36 10.96 4.39 21.99 6.55 32.99 5.01 25.51 10.34 51 17.57 75.98.88 3.06 1.81 6.15 2.77 9.26-12.86 45.03-27.42 87.91-39.05 120.26-9.53-4.27-19.61-7.5-29.42-9.7z" opacity=".15"/><path fill="#ddae9f" d="m2289 2531.78 40.84-47.53 5.58-40.06s31.11-16.43 30.88-15.22c-8.93 47.55-8.61 62.5-4.17 69.66 4.44 7.16-63.69 63.49-73.13 33.15z"/><path fill="#202234" d="M2293.1 2525.91s2.75 9.33 16.26 4.49c13.52-4.84 43.03-37.47 51.56-34.09 8.53 3.37-8.48 61.5-8.48 61.5l-7-2.65.46-25.44s-16.25 10.16-22.36 19.82c-6.11 9.66-19.29 27.54-46.75 16.22-27.45-11.32 16.31-39.85 16.31-39.85z"/><path fill="#ddae9f" d="M2186.59 2117.58c16.16 114.29 229.32 391.17 229.32 391.17l15.41-6.66s-85.21-364.23-136.53-419.2c-73.74-79-112.3 5.65-108.2 34.69z"/><path fill="#ddae9f" d="m2407.84 2561.57 7.65-54.02-14.71-32s15.1-26.65 15.5-25.65c15.76 39.06 23.02 49.87 29.63 53.04 6.62 3.18-16.91 76.45-38.07 58.63z"/><path fill="#202234" d="M2408.09 2555.34s6.39 5.56 14.04-4.34c7.64-9.89 13.97-47.67 21.81-49.2 7.84-1.53 22.64 49.08 22.64 49.08l-6.38 1.34-11.6-18.87s-7.15 15.07-7.1 25.03c.05 9.95-1.22 29.25-26.67 33.83-25.44 4.59-6.74-36.87-6.74-36.87z"/><path fill="#fbf2f6" d="M2485.54 1512.73s52.05 14.75 68.15 69.07c18.13 61.18 22.97 223.93 22.97 223.93l-207.45-9.23c.01.01-29.23-292.69 116.33-283.77z"/><path fill="#f2faff" d="M2436.05 1521.72c-95.37 11.83-230.07 249.56-146.53 339.71 10.57 11.41 40.62 1.33 40.62 1.33s134.72-344.62 105.91-341.04z"/><path fill="#202234" d="m2497.05 1511.1.78 16.58-33.94 88.74-20.22 232.27s-11.1 109.56 64.08 112.48c75.18 2.92 131.57 8.75 146.19-56.85-78.66-136.05-7.66-215.74-57.43-350.58-11.76-31.85-49.34-41.18-99.46-42.64zM2456.06 1512.56l-.58 4.16-34.75 85.37s11.14 264.34 5.57 316.81c-5.57 52.48-100.24 33.04-104.42 13.61-4.18-19.44 1.39-69 1.39-117.59s32.02-249.76 65.44-275.99c33.42-26.25 67.35-26.37 67.35-26.37z"/><path fill="#383b4b" d="M2500.03 1525.76s-23.08 41.85-43.48 78.95-12.88 295.1-12.88 295.1l35.43-193.28-10.74-38.83 28.99-12.08c0 .01-8.32-98.79 2.68-129.86z"/><path fill="#383b4b" d="M2455.48 1517.57s-10.2 63.85-19.86 105.27c-9.66 41.42-8.86 277.63-8.86 277.63l-37.84-220.25 24.16-34.95-17.71-22c-.01 0 58.6-95.81 60.11-105.7z"/><path fill="#ddae9f" d="m2491.76 1458.88 6.16 61.11s-19 28.25-38 7.19l.51-41.08 31.33-27.22z"/><path fill="#33133f" d="M2476.2 1527.97c-4.09-6.95-5.65-17.52.68-23.7 2.56-2.5 5.89-4.07 8.36-6.67 3.07-3.24 3.62-8.16 3.17-12.41-.73-6.95-3.68-13.72-3.2-20.61l-24.78 21.53-.51 41.08c7.42 8.22 14.84 8.91 21.13 6.72-1.86-1.71-3.51-3.67-4.85-5.94z" opacity=".15"/><path fill="#ddae9f" d="M2410.79 1396.05s-3.42 98.26 35.61 101.34c39.03 3.08 56.15-38 56.15-38s7.19 4.45 8.9-2.74 10.27-19.86 1.71-24.65c-8.56-4.79-11.3 3.08-11.3 3.08l4.79-22.25s-94.84-48.96-95.86-16.78z"/><path fill="#33133f" d="M2505.65 1436.43s5.14-2.77 7.19 1.23c2.06 4.01-2.47 19.32-8.53 17.47 0 0 7.81-3.39 6.89-12.74-.93-9.35-4.22-2.98-5.55-5.96z" opacity=".05"/><path fill="#0f1019" d="M2428.56 1379.92c.23-4.13.03-6.81.03-6.81-40.57 3.6-21.06 45.71-21.06 45.71 14.08-7.04 18.86-21.93 20.42-32.81 10.9 14.92 45.03 32.79 83.17 33.56l4.78-8.45-87.34-31.2z"/><path fill="#0f1019" d="M2422.38 1360.49c-8.22 2.81-13.36 11.48-17.07 18.8-3.29 6.5-6.43 13.52-7.19 20.83-.6 5.72-.28 11.57.54 17.25.91 6.3 2.71 12.41 3.37 18.77.82 7.9.59 16.45-4.16 23.17-3.66 5.18-9.27 8.58-13.46 13.29-1.23 1.38.8 3.43 2.04 2.04 3.67-4.12 8.32-7.22 11.95-11.38 4.39-5.03 6.41-11.18 6.8-17.79.68-11.43-3.36-22.16-4.24-33.41-.45-5.77-.54-11.95 1.11-17.55.78-2.62 1.86-5.19 2.93-7.7 1.92-4.53 4.14-8.97 6.84-13.09 2.78-4.23 6.36-8.75 11.32-10.45 1.74-.59.99-3.38-.78-2.78zM2424.77 1379.12c1.76 11.37 9.91 21.29 18.58 28.34 11.42 9.28 25.62 14.92 40.31 15.9 9.82.66 19.64-.87 28.93-4.05 1.75-.6 1-3.38-.77-2.78-15.22 5.2-31.57 5.5-46.75-.01-12.05-4.37-23.35-12.26-30.81-22.78-3.27-4.61-5.84-9.77-6.71-15.39-.28-1.83-3.06-1.05-2.78.77z"/><path fill="#33133f" d="M2481.98 1460.14c.46 2.73-2.51 5.5-6.64 6.2-4.13.69-7.84-.95-8.3-3.68-.46-2.73 2.51-5.5 6.64-6.2 4.12-.69 7.84.96 8.3 3.68zM2435.25 1460.4c.46 2.73-2.51 5.5-6.64 6.2-4.13.7-7.84-.95-8.3-3.68-.46-2.73 2.51-5.5 6.64-6.2 4.12-.7 7.84.95 8.3 3.68z" opacity=".05"/><path fill="#0f1019" d="M2447.67 1465.48c-1.91 0-3.48-.67-3.59-.72a1.14 1.14 0 0 1-.59-1.51c.25-.58.93-.85 1.51-.6.03.02 3.36 1.41 5.34-.41a1.154 1.154 0 0 1 1.56 1.7c-1.3 1.19-2.85 1.54-4.23 1.54zM2442.39 1475.65s9.7-.87 19.34-.86c0 .01-13.4 19.23-19.34.86z"/><path fill="#fff" d="M2442.39 1475.65s.56 2.54 1.01 2.68c.44.14 13.29-.24 16.96-1.82l1.38-1.72c-.01.01-9.33-.96-19.35.86z"/><path fill="#e05778" d="M2446.24 1482.34s2.13-2.16 4.66-2.12c2.54.03 4.52 1.13 4.52 1.13s-4.52 4.72-9.18.99z"/><path fill="#0f1019" d="M2433.32 1431.89c-.13 0-.27-.02-.4-.07-.1-.03-9.53-3.53-16.62-3.25h-.04c-.62 0-1.13-.49-1.15-1.11-.02-.64.48-1.17 1.12-1.19 7.64-.24 17.1 3.24 17.49 3.4.6.22.9.88.68 1.48-.17.45-.61.74-1.08.74zM2428.77 1443.3c0 2.06-1.52 3.73-3.4 3.73s-3.4-1.67-3.4-3.73 1.52-3.73 3.4-3.73 3.4 1.67 3.4 3.73z"/><path fill="#0f1019" d="M2425.07 1428.46c-7.15 0-12.96 5.79-12.96 12.94 0 7.15 5.81 12.96 12.96 12.96s12.94-5.81 12.94-12.96c0-7.15-5.79-12.94-12.94-12.94zm0 23.43c-5.79 0-10.5-4.7-10.5-10.49s4.71-10.47 10.5-10.47 10.47 4.68 10.47 10.47c0 5.79-4.68 10.49-10.47 10.49zM2458.59 1429.56c-.47 0-.91-.29-1.08-.75-.22-.6.08-1.26.68-1.48.4-.15 9.92-3.62 17.49-3.4.64.02 1.14.55 1.12 1.19-.02.63-.44 1.15-1.19 1.11-7.03-.23-16.52 3.22-16.62 3.25-.13.05-.26.08-.4.08zM2463.14 1440.97c0 2.06 1.52 3.73 3.4 3.73s3.4-1.67 3.4-3.73-1.52-3.73-3.4-3.73c-1.87 0-3.4 1.67-3.4 3.73z"/><path fill="#0f1019" d="M2453.9 1439.07c0 7.15 5.79 12.96 12.94 12.96s12.96-5.81 12.96-12.96c0-7.15-5.81-12.94-12.96-12.94s-12.94 5.79-12.94 12.94zm2.47 0c0-5.79 4.68-10.47 10.47-10.47s10.49 4.68 10.49 10.47c0 5.79-4.7 10.49-10.49 10.49s-10.47-4.7-10.47-10.49z"/><path fill="#0f1019" d="M2437.17 1441.72c-.47 0-.91-.29-1.08-.76-.22-.6.09-1.26.69-1.48.38-.14 9.44-3.39 18.42-.84.61.18.97.81.8 1.43-.17.61-.81.96-1.43.8-8.26-2.34-16.91.76-16.99.79-.15.04-.28.06-.41.06zM2478.61 1438.24a1.15 1.15 0 0 1-.22-2.28l23.12-4.52c.6-.14 1.23.28 1.35.91.12.62-.28 1.23-.91 1.35l-23.12 4.52c-.07.01-.15.02-.22.02zM1054.21 2167.34l-54.75 9.77a2.19 2.19 0 0 1-2.54-1.77l-47.98-268.86a2.19 2.19 0 0 1 1.77-2.54l54.75-9.77a2.19 2.19 0 0 1 2.54 1.77l47.98 268.86c.21 1.19-.58 2.32-1.77 2.54z"/><path fill="#0f1019" d="M1151.99 2217.93h32.55v382.96h-32.55z" transform="rotate(-180 1168.263 2409.407)"/><path fill="#202234" d="M1209.77 2584.34h-85.9c-14.42 0-26.1 11.68-26.1 26.1v5.59h138.1v-5.59c0-14.41-11.69-26.1-26.1-26.1z"/><path fill="#0f1019" d="M1054.45 2604.89h224.74c20.36 0 36.86 16.5 36.86 36.86h-298.47c.01-20.35 16.51-36.86 36.87-36.86z"/><ellipse cx="1169.74" cy="2200.97" fill="#202234" rx="42.16" ry="43.93"/><path fill="#394ca4" d="M1354.61 2122.37H967.12c-18.93 0-34.28 13.54-34.28 30.24v15.04c0 16.7 15.35 30.24 34.28 30.24h387.49c18.93 0 34.28-13.54 34.28-30.24v-15.04c0-16.7-15.35-30.24-34.28-30.24zM830.75 1702.43l36.97 238.67c3.95 25.33 26.88 43.17 52.41 40.77l59.25-5.59 98.18-9.29c26.98-2.55 46.62-26.78 43.52-53.71l-25.28-220.48c-2.8-24.08-22.88-42.37-47.11-42.87-8.59-.15-18.09-.35-28.28-.55-43.92-.85-99.67-1.95-140.99-2.7-30.04-.61-53.27 26.07-48.67 55.75z"/><path fill="#231f20" d="m979.38 1976.27 98.18-9.29c26.98-2.55 46.62-26.78 43.52-53.71l-25.28-220.48c-2.8-24.08-22.88-42.37-47.11-42.87-8.59-.15-18.09-.35-28.28-.55-2.1 34.97-63.75 84.94-56.61 135.1 11.74 82.44-4.45 133 15.58 191.8z" opacity=".25"/><path fill="#d7a28e" d="M1661.9 2550.11s-10.95-46.1-18.16-45.99c-7.21.12-31.99 2.23-33.72 6.57-1.74 4.34 32.19 51.16 40.35 54.15 8.16 2.99 14.01-2.35 11.53-14.73z"/><path fill="#fff" d="M1645.59 2546.99c.85-7.65 1.27-15.33 1.57-23.02.14-3.72.24-7.43.62-11.13.15-1.43.3-2.87.43-4.3 6.54 11.51 13.68 41.57 13.68 41.57 2.48 12.38-3.37 17.72-11.53 14.73-1.48-.54-3.45-2.4-5.68-5.1.21-4.25.44-8.5.91-12.75z" opacity=".2"/><path fill="#f2faff" d="M1647.16 2525.58c2.25-1.76 4.3-3.76 6.5-5.58 9.8 18.31 8.74 30.33 8.74 30.33 2.6 12.95-3.53 18.53-12.06 15.41-4.99-1.82-21.68-18.86-29.1-32.89 6.95.34 21.05-3.45 25.92-7.27z"/><path fill="#0f1019" d="m1749.29 2538.51 4.6-1.5s4.25 4.42 3.61 7.77c-.64 3.35-15.3 18.31-50.2 35.31-34.9 16.99-53.7 19.46-56.15 12.95-2.45-6.5 90.82-32.53 98.14-54.53z"/><path fill="#202234" d="M1651.15 2593.05c53.39-8.7 115.87-55.66 100.78-57.11-3.32-.31-8.37.56-14.31 1.97-21.1 5.07-53.45 17.16-59.16 8.18-7.33-11.5-14.61-9.93-15.84-8.73-.31.31-1.11 1.24-2.27 2.44-3.39 3.51-9.82 9.31-16.04 8.56-8.36-1-9.51-1.02-10.78 3.16-3.7 12.25.1 18.99 17.62 41.53z"/><path fill="#0f1019" d="M1660.35 2539.81c2.09 2.49 4.99 5.05 7.81 6.91 7.07 4.66 4.1 10.89 21.12 16.94 17.01 6.05 40.82-14 47.28-20.64 3.8-3.91 2.66-4.92 1.07-5.1-21.1 5.07-53.45 17.16-59.16 8.18-7.33-11.5-14.61-9.93-15.84-8.73-.32.3-1.12 1.24-2.28 2.44z"/><path fill="#d7a28e" d="M1203.44 2595.65s28.63-37.76 23.96-43.25c-4.67-5.49-22.05-23.28-26.51-21.86-4.46 1.42-19.03 57.37-16.16 65.57 2.88 8.2 10.73 9.33 18.71-.46z"/><path fill="#fff" d="M1195.47 2581.08c6.45-4.2 12.65-8.76 18.77-13.42 2.96-2.25 5.89-4.53 8.99-6.6 1.2-.8 2.4-1.59 3.59-2.4-4.73 12.37-23.39 36.99-23.39 36.99-7.98 9.79-15.82 8.66-18.71.46-.52-1.48-.34-4.19.33-7.63 3.42-2.54 6.85-5.06 10.42-7.4z" opacity=".2"/><path fill="#f2faff" d="M1213 2568.68c2.79.61 5.64.93 8.45 1.47-7.9 19.21-17.86 26.03-17.86 26.03-8.35 10.24-16.55 9.06-19.56.49-1.76-5.01.78-28.73 6.89-43.37 4.14 5.57 16.04 14.05 22.08 15.38z"/><path fill="#0f1019" d="m1267.94 2655.74 4.08 2.6s-.71 6.09-3.71 7.73c-3 1.64-23.87-.17-59.17-16.31-35.31-16.14-49.15-29.09-45.69-35.11 3.47-6.03 82.85 49.42 104.49 41.09z"/><path fill="#202234" d="M1163.46 2614.65c40.65 35.69 116.62 54.07 108.14 41.5-1.87-2.76-5.75-6.1-10.62-9.79-17.32-13.07-47.22-30.35-43.92-40.47 4.22-12.96-1.62-17.59-3.33-17.78-.44-.04-1.67-.07-3.33-.2-4.86-.38-13.43-1.66-16.8-6.94-4.54-7.09-5.26-7.99-9.29-6.31-11.8 4.92-14.6 12.13-20.85 39.99z"/><path fill="#0f1019" d="M1210.4 2587.91c-.6 3.2-.72 7.06-.37 10.42.9 8.42-5.8 10.09.35 27.07 6.14 16.97 36.75 22.61 45.98 23.38 5.43.44 5.49-1.08 4.62-2.42-17.32-13.07-47.22-30.35-43.92-40.47 4.22-12.96-1.62-17.59-3.33-17.78-.44-.05-1.67-.07-3.33-.2z"/><path fill="#202234" d="M1303.43 1924.04s88.25 61.18 197.41 225.99c103.42 156.14 155.4 366.91 155.4 366.91l-36.23 21.23-206.37-266.47s-346.24-204.98-338.65-263.62c7.59-58.65 228.44-84.04 228.44-84.04z"/><path fill="#0f1019" d="M1624.53 2518.26c-14.21-12.74-22.69-30.83-30.89-47.7-9.66-19.87-20.71-38.36-33.67-56.3-16.86-23.32-35.24-45.6-50.28-70.19-13.89-22.71-29.96-44.35-40.42-68.98-4.94-11.64-8.04-23.54-8.12-36.25-.08-13.29 2.32-26.46 4.25-39.56 2.02-13.7 3.57-27.68 1.16-41.44-2-11.41-6.29-22.16-12.77-31.77-12.89-19.13-32.63-31.62-52.3-42.8-19.47-11.06-40.36-22.53-52.28-42.31-14.2-23.56-8.05-51.98-7.91-77.89.01-2.36 1.67-3.6 3.47-3.86-25.89-24.45-41.33-35.18-41.33-35.18s-220.86 25.39-228.44 84.04c-7.58 58.65 338.65 263.62 338.65 263.62l206.37 266.47 18.51-10.84c-4.93-2.22-9.64-5.15-14-9.06z"/><path fill="#383b4b" d="M1042.85 1906.47s-54.91 121.44 16.64 221.52c24.12 33.74 162.58 61.84 162.58 61.84l-38.31 373.95s23.82 20.22 38.43 15.74c18.24-5.59 155.82-157.01 231.86-408.14 37.82-124.93-250.39-176.71-411.2-264.91z"/><path fill="#0f1019" d="M1239.61 2335.36c2.98-24.05 2.96-48.43 6.43-72.42 1.56-10.8 4.33-21.28 8.78-31.26 4.69-10.5 11.52-19.83 17.98-29.28 11.18-16.34 24.33-35 23.78-55.59-8.01 1.18-15.79 3.52-23.53 5.89-8.56 2.62-17.15 5.25-26.07 6.36-8.64 1.07-17.57.64-26.24.09-17.85-1.13-35.62-3.99-53.02-8.1-14.65-3.45-29.62-7.51-43.58-13.18-11.87-4.82-23.66-11.32-32.07-21.2-13.66-16.04-16.2-43.58 1.38-57.95 15.52-12.69 38.8-12.75 57.8-12.95 19.47-.2 41.26 2.48 59.98-4.08 6.5-2.28 13.61-5.25 18.47-10.32 2.88-3.01 3.89-6.27 3.11-9.52-2.6-10.81-16.11-19.27-25.17-25.01-15.47-9.8-32.18-17.64-48.95-24.91-21.53-9.33-43.54-17.29-65.63-25.09-.8.45-1.81.59-2.99.16-18.41-6.78-37.18-11.56-56.19-15.01-11.89 40.94-25.86 123.98 25.61 195.98 24.12 33.74 162.58 61.84 162.58 61.84l-38.31 373.95s1.39 1.17 3.65 2.87c2.11-3.33 4.05-6.79 5.79-10.31 22.15-44.93 24.21-96.07 32.83-144.51 4.53-25.49 10.39-50.7 13.58-76.45z" opacity=".25"/><path fill="#d7a28e" d="M1621.04 1578.6s7.95-2.68 11.48-8.1c3.53-5.43 10.19-9.51 10.56-11.91.33-2.1-1.5-4.82-6.28-1.95-6.4 3.85-6.56 7.79-11.63 8.73-5.07.94-9.87 3.49-14.28 9.71-4.28 6.04 3.5 5.19 10.15 3.52z"/><path fill="#c68e7d" d="M1656.29 1555.33c-11.76 5.36-26.96 13.23-31.85 13.6-2.74.2-5.3.64-7.71 1.4-1.46.46-2.86 1.05-4.23 1.76-8.44 12.51 1.01 17.77 1.44 18.61 1.84-.77 8-2.53 9.4-3.18 12.08-5.61 14.12-11.47 21.18-15.94 7.06-4.45 27.54-18 26.63-20.55-.64-1.74-6.96.71-14.85 4.29l-.01.01z"/><path fill="#e8ad80" d="M1632.97 1570.62c-1.26.89-2.52 1.78-3.79 2.63-.64.42-1.28.84-1.94 1.21-.66.38-1.31.7-2.02.87-1.43.38-2.98.48-4.51.75-1.53.26-3.07.67-4.41 1.45 1.46-.51 2.98-.71 4.49-.86 1.52-.15 3.07-.21 4.63-.61 1.6-.44 2.87-1.41 4.11-2.33 1.22-.94 2.37-1.99 3.44-3.11z"/><path fill="#fff" d="M1670.74 1551.62s-4.4 1.87-4.25 2.39c.16.52.38.92 1.06.66s3.65-2.55 3.19-3.05z" opacity=".2"/><path fill="#ddae9f" d="M1597.66 1580.84c-5.98 6.78-23.53 6.82-24.96 8.16-1.44 1.33 3.53 13.26 5.87 15.28 0 0 26.47-9.32 38.55-14.93 12.08-5.61 14.12-11.47 21.18-15.93 7.07-4.45 27.55-18 26.63-20.55-.64-1.74-6.96.71-14.85 4.29l-.01.01c-11.76 5.36-26.96 13.23-31.85 13.6-2.74.2-5.3.64-7.71 1.4-4.73 1.48-8.89 4.18-12.85 8.67z"/><path fill="#fff" d="M1639.18 1566.18c2.03-.97 3.85-2.29 5.61-3.69 1.97-1.57 4.01-2.97 6.09-4.39 1.31-.9 2.58-1.85 3.72-2.93-1.43.6-2.94 1.28-4.53 2l-.01.01c-11.76 5.36-26.96 13.23-31.85 13.6-2.74.2-5.3.64-7.71 1.4-4.67 1.47-8.77 4.13-12.69 8.52.46.26.93.5 1.42.69 1.64.64 3.42.68 5.11.25 2.24-.57 4.23-1.81 6.24-2.92 2.32-1.29 4.62-2.61 6.96-3.88 4.69-2.54 9.53-4.87 14.67-6.35 2.37-.7 4.74-1.24 6.97-2.31zM1664.52 1553.45s-4.41 1.87-4.25 2.39c.15.52.38.93 1.06.67.67-.26 3.65-2.56 3.19-3.06z" opacity=".2"/><path fill="#f2faff" d="M1217.01 1504.05c57.55-.02 155.23 124.26 155.23 124.26l220.53-45.75 7.94 24.84c-.75-9.77-183.78 141.86-264.42 125.73-105.24-21.04-202.22-229.05-119.28-229.08z"/><path fill="#383b4b" d="M1585.45 1607.11c-15.32.18-30.24 7.16-43.62 13.98-11.6 5.92-22.73 12.73-34.39 18.53-10.2 5.08-20.71 9.61-31.32 13.77-24.83 9.74-53 18.89-80.03 16.05-11.77-1.24-23.37-5.08-32.02-13.46-9.22-8.93-13.91-21.97-15.8-34.42-1.08-7.1-1.33-14.72-.63-22.26-32.75-36.72-91.14-95.25-130.64-95.24-82.94.02 14.03 208.04 119.28 229.08 73.08 14.62 230.23-108.53 259.63-124.49a32.893 32.893 0 0 0-10.46-1.54z" opacity=".15"/><path fill="#202234" d="M1260.08 1508.45s43.28 26.65 60.75 71.28c17.46 44.63 72.67 374.16-28.59 417.01-31.56 13.35-124.54 81.59-266.27-12.4-48.44-32.13 12.19-380.78 59.41-426.85 47.22-46.08 98.33-68.59 174.7-49.04z"/><path fill="#0f1019" d="M1055.9 1618c1.39 1.95 2.72 3.92 4.18 5.85 21.32 28.09 50.73 49.82 82.64 69.98 12.19 7.7 24.33 15.03 38.27 20.57 12.36 4.91 25.42 8.76 38.84 11.32 25.62 4.88 80.1-75.45 105.56-81.33 16.7 42-28.82 210.66-84.46 248.42-37.35 25.34-129.55-15.55-163.96-10.93 10.14 27.57 155.07 37.69 179.06 58.77 17.44 15.33 34.26 31.1 51.06 46.89-4.61 3.83-9.54 6.95-14.86 9.2-31.56 13.35-124.54 81.59-266.27-12.4-38.59-25.6-7.98-251.98 29.94-366.34z" opacity=".25"/><path fill="#383b4b" d="M1247.94 1537.61c8.93 37.91 16.73 75.97 24.04 114.07 7.25 38.11 13.32 76.36 18.23 114.68 5.26 38.29 8.99 76.73 10.22 115.22.93 19.24.33 38.5-.44 57.74l-2.49 28.81-5.26 28.6c9.94-37.87 10.57-76.71 9.76-115.18-.97-38.54-4.42-77.03-9.44-115.37-5.17-38.34-11.51-76.58-19.03-114.67-7.4-38.11-15.76-76.12-25.59-113.9z"/><path fill="#d7a28e" d="M1333.64 1579.94s-4.17-10.81-2.47-20.24c.74-4.1 7.52-7.33 10.6-6.73 2.85.55 7.68 5.98 8.26 8.14.58 2.16.76 5.01-4.64 2.84-5.41-2.17-6.2-.8-6.2-.8l-5.55 16.79z"/><path fill="#ddae9f" d="M1371.3 1576.43c-.4.83-.84 1.53-1.23 2.06-.08.11-.15.2-.23.29a94.562 94.562 0 0 1-5.56 6.06c-4.92 4.97-9.26 8.47-9.26 8.47s-13.31 38.49-16.78 42.52c-5.04 2.73-24.25-9.19-24.25-9.19-1.6-4.73 16.45-41.52 18.45-49.31 2.01-7.8 7.5-15.59 7.5-15.59s18.5-41.14 23.32-38.7c3.72 1.89-5.34 23.13-7.6 30.86-.01.06-.04.13-.06.19.02-.01 3.45-1.33 5.68 1.18 1.1 1.22 1.17 2.34 1.17 2.34s2.19-.09 3.48.81c1.3.89 2.76 2.96 2.5 3.66.03.01 1.96-.17 3.13 1.43 1.17 1.59.74 4.52.74 4.52l-.02-.01c.1.35.2.69.27 1.03.49 2.63-.28 5.37-1.25 7.38z"/><path fill="#fff" d="M1357.11 1554.95c.65.26 1.29.54 1.85.96.46.35.92.76 1.26 1.24.28.41.38.84.51 1.31.07.25.13.58.36.73.22.15.57.14.83.19.6.11 1.16.36 1.72.58 1.19.47 2.27 1.06 3.19 1.96.67.66 1.38 1.48 1.42 2.47.01.27-.04.55-.02.82.03.34.15.3.45.38.53.14 1.01.46 1.45.78 1.81 1.33 2.06 3.5 2.06 5.58 0 .75-.01 1.49-.01 2.24.47-1.6.71-3.39.38-5.13-.07-.34-.16-.68-.27-1.03l.02.01s.43-2.93-.74-4.52c-1.17-1.6-3.1-1.41-3.13-1.43.26-.71-1.2-2.77-2.5-3.66-1.29-.89-3.48-.81-3.48-.81s-.07-1.11-1.17-2.34c-2.16-2.43-5.43-1.28-5.66-1.19.44.36.91.63 1.48.86zM1359.96 1526.3s2.6 1.71 3.06 1.17c.46-.54.63-4.06-.21-4.07-.84 0-2.87 2.05-2.85 2.9z" opacity=".2"/><path fill="#f2faff" d="m1351.92 1607.16-28.7-14.35-88.97 103.32s-37.31-109.06-63.14-139.19c-25.83-30.13-90.95-21.21-103.86 57.72-12.91 78.92 50.77 269.45 148.35 269.45 81.79 0 136.32-276.95 136.32-276.95z"/><path fill="#383b4b" d="M1313 1726.63c-7.38 16.11-17.26 31.1-28.34 44.93-3.23 10.51-7.02 20.82-11.89 30.71-5.16 10.48-11.57 21.37-20.16 29.44-7.19 6.75-15.94 11.58-25.12 15.04-19.25 7.26-42.44 8.81-61.7.77-13.63-5.69-22.4-16.72-30.68-28.46-13.61-19.3-25.39-40.1-39.22-59.32 27.41 66.72 69.56 124.36 119.71 124.36 52.4 0 93.57-113.6 116.42-195.29-8.1 11.47-13.23 25.17-19.02 37.82z" opacity=".15"/><path fill="#0f1019" d="M1885 2647.61c0 17.78 84.33 32.2 188.35 32.2s188.35-14.42 188.35-32.2c0-2.99-.19-7.84-.19-7.84-22.07-13.59-101.63-14.77-188.16-14.77-84.4 0-157.52 10.45-187.95 14.31-.4 2.41-.4 4.94-.4 8.3z"/><path fill="#5681f1" d="M1885 2640.73c0 12.34 84.33 22.34 188.35 22.34s188.35-10 188.35-22.34-84.33-22.34-188.35-22.34-188.35 10-188.35 22.34z"/><path fill="#4094f2" d="M2037.95 1953.74v676.88h.1c0 4.6 15.73 8.27 35.24 8.27h.2c17.87 0 32.58-3.06 34.93-7.15.3-.31.41-.71.41-1.12 0-.1-.1-.2-.1-.31v-676.57h-70.78z"/><path fill="#202234" d="m2038.05 1974.16 35.24 22.78v641.96h.2c17.87 0 32.58-3.06 34.93-7.15l.3-1.12v-656.46h-70.67z" opacity=".2"/><path fill="#4094f2" d="M1581.56 1892.86c0 46.44 220.18 84.08 491.78 84.08s491.78-37.64 491.78-84.08c0-7.81-.49-20.48-.49-20.48-57.63-35.49-265.36-38.58-491.29-38.58-220.37 0-411.3 27.3-490.75 37.38-1.03 6.3-1.03 12.92-1.03 21.68z"/><path fill="#383b4b" d="M1581.56 1874.91c0 32.22 220.18 58.34 491.78 58.34s491.78-26.12 491.78-58.34-220.18-58.34-491.78-58.34-491.78 26.12-491.78 58.34z"/><path fill="#4094f2" d="M1887.36 1922.67c-9.57-3.99-22.22-9.79-26.18-20.23-4.17-10.98 5.16-20.41 14.48-24.7 19.28-8.88 44.59-2.03 64.55.7 16.25 2.22 44.04 7.64 56.78-6.57-10.3-9.06-21.69-18.6-25.75-31.99-2.24-7.39-1.31-15.15 1.7-22.08-223.45 5.5-391.39 28.98-391.39 57.12 0 25.37 136.55 46.95 327.19 54.98-7.26-2.04-14.46-4.34-21.38-7.23z" opacity=".2"/><path fill="#f2faff" d="m1745.46 1889.46-97.94-28.1 207.26-5.87z"/><path fill="#394ca4" d="m1745.46 1884.21-98.84-23.16 208.16-10.81z"/><path fill="#f2faff" d="m1761.94 1736.36-19.5 143.8c-.88 6.49 2.94 11.19 8.76 10.78l234.24-16.54c5.82-.41 11.67-5.8 13.41-12.35l38.6-145.15c1.28-4.73.51-8.98-2.15-11.88-1.93-2.12-4.86-2.97-8.01-2.75l-248.96 17.58c-3.14.22-6.51 1.52-9.36 3.97-3.88 3.37-6.41 7.85-7.03 12.54z"/><path fill="#383b4b" d="M1769 1723.83c1.83-1.57 3.87-2.62 5.92-3.26-1.19 3.43-2.32 6.86-3.34 10.31-3.76 12.74-6.45 26.3-7.74 38.85-2.25 21.89 1.7 43.57 10.41 60.1 7.74 14.69 20.46 24.8 36.34 28.78 17.43 4.36 37.84 3.2 56.69 3.1 18.64-.09 37.99-.9 57.52-9.67a120.016 120.016 0 0 0 45.7-36.02c6.56-8.47 11.39-18.03 16.63-27.24 5.9-10.36 11.92-20.68 18.53-30.66 8.3-12.54 18.27-26.52 30.29-35.56l-37.1 139.49c-1.74 6.55-7.59 11.93-13.41 12.35l-234.25 16.55c-5.82.41-9.64-4.29-8.76-10.78l19.5-143.8c.63-4.7 3.16-9.18 7.07-12.54z" opacity=".15"/><path fill="#383b4b" d="M1876.34 1765c-1.53 7.61 2.72 13.39 9.49 12.91 4.26-.3 8.49-2.99 11.42-6.86 1.73-2.28 3.02-4.95 3.59-7.78 1.53-7.59-2.72-13.36-9.47-12.88-2.52.18-5.02 1.2-7.26 2.79-3.8 2.68-6.81 7.04-7.77 11.82z" opacity=".25"/><path fill="#383b4b" d="M1880.52 1760.95c-1.53 7.59 2.72 13.36 9.47 12.88 2.52-.18 5.02-1.2 7.26-2.79 1.73-2.28 3.02-4.95 3.59-7.78 1.53-7.59-2.72-13.36-9.47-12.88-2.52.18-5.02 1.2-7.26 2.79-1.74 2.28-3.03 4.95-3.59 7.78z" opacity=".25"/><path fill="#383b4b" d="M2120.52 1758.54h6.41l-1.01 45.9h-5.4z"/><path fill="#7ac094" d="M2142.79 1770.54c.75-.69 21.29-20.56 18.87-45.49-2.42-24.93-22.02-31.1-16.46-60.14 5.57-29.04 0-49.09-16.94-49.35s-24.68 17.22-18.39 48.32c6.29 31.1-20.66 43.26-19.36 66.05 1.51 26.27 21.06 69.39 52.28 40.61z"/><path fill="#f2faff" d="M2116.54 1619.45c.29 1.38 1.06 2.75 2.31 3.35 1.16.55 2.49.44 3.7.21 2.25-.42 4.53-1.32 6.84-.99 1.16.16 2.27.71 3.32 1.26 1.15.6 2.24 1.33 3.25 2.16 1.94 1.59 3.63 3.57 4.79 5.87 1.32 2.62 1.78 5.52 1.86 8.47.09 3.41-.21 6.81.37 10.19.39 2.24 1.04 4.7 2.52 6.43.29.33.6.6.93.83 3.21-24.83-2.78-41.42-18.18-41.66-4.65-.07-8.59 1.22-11.75 3.73.03.05.03.1.04.15z" opacity=".2"/><path fill="#202234" d="M2128.99 1719.61c-2.35-4.6-2.38-10.32-1.09-15.26.69-2.65 1.76-5.18 2.97-7.6.49-.98 1.1-1.9 1.55-2.9.32-.72.26-1.35 0-2.09-.45-1.27-1.1-2.49-1.61-3.74-.51-1.26-1-2.54-1.42-3.84-.87-2.71-1.23-5.45-1.43-8.3-.2-2.81-.1-5.71.74-8.4.75-2.4 2.38-4.34 3.2-6.69-1.34-.87-2.52-2-3.48-3.33-1.12-1.53-1.98-3.24-2.67-5.04-.01 3.98-.01 7.95-.02 11.93-.04 15.85-.1 31.7-.14 47.56-.03 14.12-.03 28.25-.03 42.38.28-1.02.57-2.03.91-3.02 2.99-8.95 7.99-16.9 12.82-24.83-4.33.16-8.24-2.79-10.3-6.83z" opacity=".15"/><path fill="#202234" d="M2131.48 1778.19c-2.38.03-4.78-.4-6.91-1.55-2.25-1.22-4.02-3.22-5.26-5.53-.77-1.42-1.22-2.84-1.48-4.45-.28-1.73-.57-3.37-1.65-4.77-1.87-2.44-5.07-2.78-7.63-4.01-2.4-1.15-4.24-3.35-5.67-5.65-1.43-2.32-2.44-4.92-3.13-7.58-1.47-5.64-1.63-11.66-.95-17.45.63-5.35 1.96-10.65 4.45-15.37 2.98-5.62 6.89-10.65 9.68-16.39 1.37-2.82 2.39-5.82 2.83-8.96.53-3.74.2-7.51-.61-11.18-.89-4.05-2.3-7.94-3.75-11.79-1.35-3.59-2.51-7.22-3.28-11 .36 3.56.93 7.35 1.74 11.38 6.29 31.1-20.66 43.26-19.36 66.05 1.31 22.95 16.39 58.74 40.98 48.26.02-.01.01-.01 0-.01z" opacity=".15"/><path fill="#b8debf" d="M2147.21 1719.53a.238.238 0 0 0-.36 0l-21.46 22.79v-38.75l11.96-13.41c.1-.11.09-.28-.01-.38-.1-.1-.26-.1-.36.01l-11.59 13v-34.87l8.69-9.37c.1-.11.1-.28 0-.38-.1-.11-.26-.1-.36 0l-8.33 8.98v-29.99c0-.15-.11-.27-.25-.27s-.26.12-.26.27v41.82l-6.61-5.98a.246.246 0 0 0-.36.03c-.09.11-.08.29.03.38l6.94 6.28v39.39l-13.09-13.91a.238.238 0 0 0-.36 0c-.1.11-.1.28 0 .38l13.45 14.29v59.45c0 .15.11.27.26.27.14 0 .25-.12.25-.27v-36.2l21.82-23.17c.1-.11.1-.29 0-.39z"/><path fill="#fcc61a" d="M2159.35 1813.55c-1.11-3.66-2.63-7.17-4.32-10.58-.96-1.94-1.97-3.84-2.99-5.73-.38-.7-2.72-5.93-3.29-5.93h-52.79c-.57 0-2.9 5.23-3.28 5.93-1.03 1.89-2.04 3.79-2.99 5.73-1.69 3.41-3.21 6.92-4.33 10.58-2.8 9.13-4.18 19.71-1.27 28.97 2.59 8.25 6.86 15.57 12.78 21.67 6.74 6.94 16.66 7.14 25.49 5.82 8.83 1.32 18.76 1.12 25.5-5.82 5.92-6.11 10.19-13.43 12.78-21.67 2.9-9.26 1.51-19.83-1.29-28.97z"/><path fill="#202234" d="M2159.35 1813.55c-1.11-3.66-2.63-7.17-4.32-10.58-.96-1.94-1.97-3.84-2.99-5.73-.38-.7-2.72-5.93-3.29-5.93h-3.5c.86 1.8 1.73 3.6 2.53 5.44 1.84 4.16 3.5 8.45 4.72 12.92 3.05 11.16 4.56 24.09 1.37 35.4-2.37 8.52-6.16 16.17-11.13 22.86 1.83-.94 3.56-2.15 5.11-3.74 5.92-6.11 10.19-13.43 12.78-21.67 2.91-9.26 1.52-19.83-1.28-28.97z" opacity=".25"/><path fill="#f2faff" d="M1361.99 626.97c1.93-5.45 3.2-10.77 6.76-15.5 3.49-4.64 8.03-8.18 12.95-11.19 7.24-4.44 15.14-7.48 22.7-11.25-3.53-.03-7.09.16-10.69.82-24.12 4.45-41.75 23.66-45.41 46.58 5.72.1 11.42-3.05 13.69-9.46z" opacity=".49"/><path fill="#5681f1" d="M1297.61 958.07c6.03 22.79-7.56 46.15-30.35 52.18-22.79 6.03-46.15-7.56-52.18-30.35-6.03-22.79 7.56-46.15 30.35-52.18s46.15 7.56 52.18 30.35z"/><path fill="#c8d9fb" d="M1293.97 959.03c5.5 20.78-6.89 42.08-27.67 47.58s-42.08-6.89-47.58-27.67 6.89-42.08 27.67-47.58 42.08 6.89 47.58 27.67z"/><path fill="#f2faff" d="M1226.51 958.57c1.04-3.85 1.64-7.58 3.84-11.02 2.16-3.38 5.1-6.05 8.33-8.38 4.75-3.44 10.03-5.95 15.03-8.94-2.43.16-4.87.48-7.31 1.13-16.37 4.33-27.49 18.48-28.8 34.44 3.93-.23 7.68-2.7 8.91-7.23z" opacity=".49"/><path fill="#202234" d="M1272.13 937.95c-1.17 2.87 2.32 7.03 3.86 9.13 2.06 2.81 4.51 5.36 6.35 8.31 4.68 7.51 8.73 17.59 4.89 26.24-1.22 2.74-3.31 4.87-4.81 7.44-1.29 2.22-2.24 4.61-3.68 6.75-2.95 4.39-7.37 7.15-12.56 8.06-5.08.89-14.54-.28-20.4 2.52 6.49 1.84 13.52 2.06 20.51.2 20.78-5.5 33.17-26.8 27.67-47.58-2.78-10.5-9.59-18.84-18.32-23.83-1.56.39-2.88 1.2-3.51 2.76z" opacity=".15"/><path fill="#5681f1" d="M1272.64 978.67c-1.46 2.57-4.03 4.64-7.68 6.22l1.48 5.61-6.06 1.6-1.43-5.41c-2.57.5-5.08.7-7.52.61-2.44-.09-4.54-.45-6.29-1.07l1.33-8.25c1.86.63 3.92.98 6.17 1.07 2.26.09 4.4-.14 6.42-.67 3.84-1.02 5.51-2.48 5-4.4-.27-1.01-1.01-1.62-2.24-1.81-1.23-.2-3.12-.25-5.69-.14-2.81.13-5.2.1-7.16-.08s-3.77-.83-5.43-1.94c-1.66-1.11-2.82-2.89-3.47-5.35-.77-2.9-.38-5.66 1.16-8.28 1.54-2.62 4.22-4.69 8.03-6.21l-1.47-5.56 6.06-1.6 1.44 5.46c1.97-.34 3.9-.49 5.8-.45 1.9.04 3.65.28 5.25.72l-1.12 8.24c-3.85-.93-7.36-.97-10.53-.13-1.99.53-3.36 1.2-4.11 2.03-.75.83-1.01 1.72-.76 2.66.25.94.98 1.51 2.18 1.7 1.2.19 3.06.22 5.59.09 2.85-.14 5.24-.12 7.18.07 1.94.19 3.75.83 5.43 1.92 1.68 1.09 2.84 2.86 3.49 5.32.78 2.78.42 5.46-1.05 8.03zM3008.19 779.79c-6.03 26.41-32.34 42.94-58.76 36.9-26.41-6.04-42.93-32.34-36.9-58.76 6.03-26.41 32.34-42.94 58.75-36.9 26.42 6.04 42.94 32.35 36.91 58.76z"/><path fill="#c8d9fb" d="M3003.97 778.83c-5.5 24.08-29.49 39.15-53.57 33.64-24.08-5.5-39.15-29.49-33.65-53.57 5.5-24.09 29.49-39.15 53.57-33.64 24.09 5.5 39.15 29.48 33.65 53.57z"/><path fill="#f2faff" d="M2935.56 742.34c3.12-3.36 5.72-6.84 9.79-9.17 4-2.28 8.42-3.43 12.95-4.09 6.67-.96 13.38-.7 20.07-1.07-2.56-1.13-5.21-2.11-8.05-2.76-18.97-4.33-37.84 4.13-47.71 19.67 4.14 1.88 9.28 1.37 12.95-2.58z" opacity=".49"/><path fill="#202234" d="M2993 745.71c-2.73 2.29-1.4 8.39-.95 11.35.6 3.96 1.73 7.86 2.02 11.85.75 10.14-.5 22.56-9.03 29.31-2.7 2.14-5.97 3.19-8.87 5.01-2.5 1.57-4.74 3.49-7.35 4.9-5.34 2.89-11.32 3.34-17.08 1.5-5.64-1.8-14.65-8.05-22.11-8.33 5.62 5.33 12.67 9.31 20.77 11.16 24.08 5.5 48.07-9.56 53.57-33.64 2.78-12.16.3-24.29-5.93-34.04-1.79-.44-3.56-.32-5.04.93z" opacity=".15"/><path fill="#5681f1" d="M2971.78 787.43c-2.86 1.83-6.58 2.57-11.14 2.23l-1.49 6.5-7.03-1.61 1.43-6.27c-2.88-.86-5.54-2-7.97-3.39-2.43-1.4-4.38-2.88-5.83-4.44l5.76-7.68c1.56 1.63 3.46 3.09 5.71 4.39 2.25 1.29 4.55 2.21 6.89 2.75 4.45 1.02 6.93.41 7.44-1.81.27-1.17-.17-2.18-1.31-3.04-1.14-.86-3.04-1.92-5.71-3.19-2.93-1.37-5.35-2.67-7.24-3.9-1.9-1.24-3.39-2.86-4.49-4.88s-1.32-4.45-.67-7.3c.77-3.36 2.64-5.96 5.6-7.81 2.97-1.85 6.8-2.52 11.49-2.03l1.47-6.44 7.03 1.61-1.45 6.33c2.18.71 4.23 1.58 6.14 2.63 1.92 1.06 3.57 2.23 4.96 3.54l-5.54 7.79c-3.42-3-6.97-4.92-10.64-5.76-2.3-.53-4.06-.57-5.27-.13-1.21.44-1.94 1.21-2.19 2.3-.25 1.09.19 2.06 1.31 2.89 1.12.83 3 1.86 5.64 3.08 2.97 1.38 5.4 2.68 7.27 3.91 1.87 1.23 3.37 2.85 4.5 4.85 1.12 2 1.36 4.43.71 7.28-.72 3.23-2.52 5.77-5.38 7.6zM864.53 2215.97c-6.04 26.41-32.34 42.94-58.76 36.9-26.41-6.04-42.93-32.34-36.9-58.76 6.04-26.42 32.34-42.94 58.76-36.9 26.41 6.04 42.93 32.35 36.9 58.76z"/><path fill="#c8d9fb" d="M860.31 2215.01c-5.5 24.08-29.49 39.15-53.57 33.64-24.09-5.5-39.15-29.49-33.64-53.57 5.5-24.08 29.49-39.15 53.57-33.65 24.08 5.51 39.14 29.49 33.64 53.58z"/><path fill="#f2faff" d="M791.9 2178.52c3.12-3.36 5.72-6.84 9.79-9.17 4-2.28 8.42-3.43 12.95-4.09 6.67-.96 13.38-.7 20.07-1.07-2.56-1.13-5.21-2.11-8.05-2.76-18.97-4.33-37.84 4.13-47.7 19.67 4.13 1.88 9.27 1.37 12.94-2.58z" opacity=".49"/><path fill="#202234" d="M849.34 2181.89c-2.73 2.29-1.4 8.39-.95 11.35.6 3.96 1.73 7.86 2.02 11.85.75 10.14-.5 22.56-9.03 29.31-2.7 2.14-5.97 3.19-8.87 5.01-2.5 1.57-4.74 3.49-7.34 4.9-5.34 2.89-11.32 3.34-17.08 1.5-5.64-1.8-14.65-8.05-22.11-8.33 5.62 5.33 12.67 9.31 20.77 11.16 24.08 5.5 48.07-9.56 53.57-33.64 2.78-12.16.3-24.29-5.92-34.04-1.81-.44-3.58-.32-5.06.93z" opacity=".15"/><path fill="#5681f1" d="M828.12 2223.61c-2.86 1.83-6.58 2.57-11.14 2.23l-1.49 6.5-7.03-1.61 1.43-6.27c-2.89-.86-5.54-2-7.97-3.39-2.43-1.4-4.38-2.88-5.83-4.44l5.76-7.68c1.56 1.63 3.46 3.09 5.71 4.38s4.55 2.21 6.89 2.75c4.45 1.02 6.93.41 7.44-1.81.27-1.17-.17-2.18-1.3-3.04-1.14-.86-3.05-1.92-5.71-3.19-2.93-1.37-5.35-2.67-7.24-3.9a13.25 13.25 0 0 1-4.49-4.88c-1.1-2.02-1.32-4.45-.67-7.3.77-3.36 2.63-5.96 5.6-7.81 2.97-1.85 6.8-2.52 11.49-2.03l1.47-6.44 7.03 1.61-1.45 6.33c2.18.71 4.23 1.58 6.14 2.63 1.92 1.06 3.57 2.23 4.96 3.54l-5.54 7.79c-3.42-3-6.97-4.92-10.64-5.76-2.3-.53-4.06-.57-5.27-.13-1.21.44-1.94 1.21-2.19 2.3-.25 1.09.19 2.06 1.31 2.89 1.12.83 3 1.86 5.64 3.08 2.97 1.38 5.4 2.68 7.27 3.91 1.88 1.23 3.38 2.85 4.5 4.85 1.12 2 1.36 4.43.71 7.28-.73 3.24-2.53 5.78-5.39 7.61z"/><path fill="#f2faff" d="M602.39 2301.74c0 10.16-8.24 18.39-18.39 18.39s-18.39-8.23-18.39-18.39 8.23-18.39 18.39-18.39 18.39 8.23 18.39 18.39zM1981.58 2122.16c0 10.16-8.23 18.39-18.39 18.39s-18.39-8.24-18.39-18.39c0-10.16 8.24-18.39 18.39-18.39 10.16-.01 18.39 8.23 18.39 18.39z"/><circle cx="639.77" cy="1966" r="16.29" fill="#f2faff" opacity=".5"/><path fill="#f2faff" d="M2842.24 2197.01c0 9-7.29 16.29-16.29 16.29s-16.29-7.29-16.29-16.29 7.3-16.29 16.29-16.29c9 0 16.29 7.29 16.29 16.29z" opacity=".5"/><path fill="#f2faff" d="M2268.46 1796.69c3.91-4.77 28.96 4.87 36.37 10.79 12.83 10.25 47.68 60.22 10.09 64.91-39.1 4.89-60.55-58.53-46.46-75.7z"/><path fill="#0f1019" d="M2291.25 1836.37c2.72-3.32 9.82-18.34 14.98-14.22 8.94 7.14 33.21 41.94 7.03 45.21-27.23 3.4-31.81-19.04-22.01-30.99z"/><path fill="#eddaab" d="M2406.81 1672.77s43.16 194.22 94.67 216.5H2337.9s-93.98-148.97-88.41-207.45l157.32-9.05z"/><path fill="#f2faff" d="M2231.39 1691.57s4.18-17.4 22.27-18.1c18.1-.7 153.15-.7 153.15-.7s-20.89 0-22.97 18.1c0 0-89.11-9.05-152.45.7zM2579.8 1532.51c-58.01-24.59 37.24 223.11 37.24 223.11l-144.79 59.52s-24 20.87 13.05 37.94c37.05 17.07 147.05 37.18 203.38-33.8 56.33-70.98-12.81-246.05-108.88-286.77z"/><path fill="#202234" d="M2492.28 1828.43c-.5-1.42-.84-2.99-1.5-4.29-.78-1.52-2-2.53-3.2-3.27-2.3-1.41-3.97-2.57-6.34-3.59-1.92-.83-4.55-.05-6.53-.59-2.31-.63-4.21.09-5.82 2.55-1.56 2.38-2.59 5.46-3.24 8.56-.25 5.57 2.71 12.23 13.26 19.01 1.54.99 3.46 1.93 5.68 2.81.23-.35.52-.64.92-.75 3.9-1.02 6.37-7.51 7.51-12.27.28-1.16.55-2.42.5-3.66-.06-1.67-.72-3.05-1.24-4.51z"/><path fill="#ddae9f" d="M2450.68 1846.78c1.34-.17 3.21-.61 5.9-1.53h-.06c1.36-.41 2.75-.93 4.1-1.52 2.35-1.02 4-1.9 5.14-2.58 0-.01.01-.01.01-.01 1.68-1.01 2.23-1.59 2.23-1.59s10.13 1.8 13.11.45c4.52-5.74-3.31-16.71-3.31-16.71-2.51-1.76-8.18 2.21-12.73.27-5.3-2.26-13.43-12.95-15.19-8.93-1.76 4.03 5.9 9.19 5.9 9.19s-.12-.01-.33-.01c-1.29-.05-6.2-.11-10.5 1.34-1.19.41-2.34.93-3.35 1.6a9.738 9.738 0 0 0-1.38 1.11l-.13.13c-.13.13-.26.27-.38.41l-.01.02v.01c-.21.46-.32 1.08-.19 1.9.44 2.65 2.57 2.64 2.57 2.64s-1.74 1.17-1.06 3.25c.72 2.22 2.35 1.6 2.35 1.6s-1.39 1.78-.76 3.5c.67 1.82 2.55 1.07 2.55 1.07s-1.17 1.12-.41 3.25c.68 1.93 5.93 1.14 5.93 1.14z"/><path fill="#f2faff" d="M2446.23 1837.71c-.05.06-.07.14-.02.23.52 1.04.96 2.05.78 3.24-.06.4-.13.84.12 1.19.11.16.28.26.43.39.2.16.31.36.42.59.35.76.53 1.61.62 2.44.04.38.06.77.05 1.17-1.55.02-3.47-.18-3.87-1.29-.76-2.14.41-3.25.41-3.25s-1.88.75-2.54-1.07c-.63-1.72.76-3.5.76-3.5s-1.63.61-2.35-1.6c-.68-2.08 1.06-3.25 1.06-3.25s-2.13.01-2.57-2.64c-.13-.82-.02-1.44.19-1.9v-.01l.01-.02c.12-.14.25-.28.38-.41.04-.05.09-.09.13-.13.27-.26.56-.5.86-.74l.52-.37c-.09.64-.01 1.34.1 1.95.13.7.36 1.43.9 1.92.56.52 1.35.65 1.96 1.1.63.48.84 1.36.73 2.11-.1.66-.44 1.21-.27 1.89.19.75.73 1.34 1.18 1.95 0 0 .01 0 .01.01zM2451.05 1814.39s2.38 2.51 3 2.43c.62-.08.67-.83.67-.83s-2.64-2.02-3.67-1.6z" opacity=".2"/><path fill="#ddae9f" d="M2336.4 1835.31c-2.29-1.32-11.03 6.56-11.03 6.56s11.91-14.74 9.27-16.03c-2.64-1.28-13.3 11.28-13.3 11.28s12.53-16.56 10.81-19.22c-1.72-2.66-14.88 15.71-14.88 15.71s8.63-17.65 6.1-19.08c-2.53-1.42-11.18 16.43-13.76 19.72-1.68 2.13-4.23 2.15-4.21-.69s-3.85-6.95-5.8-6.1c-1.94.85 2.5 9.13.91 12.17-1.59 3.03-2.58 6.99-1.82 8.72.47 4.55 10.49 10.3 10.49 10.3s5.21-.98 9.4-4.51c4.21-3.52 20.11-17.51 17.82-18.83z"/><path fill="#d7a28e" d="M1288.82 1393.9s20.5 33.65 15.77 36.28c-4.73 2.63-13.67 5.26-16.3-.52-2.62-5.79.53-35.76.53-35.76z"/><path fill="#ddae9f" d="M1236.94 1531.62c-11.44 9.09-42.11-24.08-42.11-24.08s7.91-22.06 8.49-31.79c1.16-20.33-4.54-36.92-4.54-37.75l41.62 21.42s10.1 61.42-3.46 72.2z"/><path fill="#ddae9f" d="M1286.75 1483.49c-1.95 1.32-5.63 2.69-10.39 3.37-8.75 1.28-21.19.22-33.14-7.72-17.6-11.71-34.87-25.68-39.97-32.34-10.53-13.66-2.82-73.25-2.82-73.25 3.03-21.26 91.21-21.26 94.22 0 0 0 4.4 22.87 6.13 49.18.36 5.58.6 11.3.65 16.95.28 24.84-2.22 35.32-14.68 43.81z"/><path fill="#d7a28e" d="M1249.69 1423.97v.58c-6.9-1.23-14.13-11.34-10.51-18.32 2.05-3.94 5.34-4.03 7.97-3.29-1.97.08-3.94.99-5.34 3.7-3.05 6.08 2.05 14.54 7.88 17.33z"/><path fill="#ec9480" d="M1285.7 1433.35c0 4.72-3.83 8.54-8.54 8.54-4.72 0-8.54-3.83-8.54-8.54 0-4.72 3.83-8.54 8.54-8.54 4.72 0 8.54 3.82 8.54 8.54z" opacity=".2"/><path fill="#202234" d="M1304.62 1322.02c-30.63-8.84-98.33-5.96-99.27 36.21 0 0 4.36 8.7 18.05 14.9 4.6 10.6 16.55 16.65 16.55 16.65s15.72 3.01 14.86 21.21c-.31 6.66 12.02 2.4 9.92-16.45-1.22-10.93.11-14.69 3.52-16.02 1.45-.19 2.9-.42 4.34-.72 2.96-.13 6.65.02 10.95-.65 17.96-2.81 21.93-9.64 26.58-15.29 9.61-11.67 8.7-35.74-5.5-39.84z"/><path fill="#202234" d="M1256.74 1406.79c-2.7 4.56-5.21-20.9-20.48-6.96-7.9 7.21-4.12 23.36 12.37 31.95 9.05 4.71-25.05 33.25-47.48 33.95-22.43.7-35.05-72.2-22.43-97.44 12.62-25.24 45.57-42.06 52.58-21.03 7 21.03 39.31 36.08 25.44 59.53z"/><path fill="#ec9480" d="M1276.36 1486.86c-8.75 1.28-21.19.22-33.14-7.72l.67-27.44 32.47 35.16z"/><path fill="#f2faff" d="m1289.89 1445.69 11.53.55s-.37 8.78-.55 12.26c-.18 3.48-10.06-2.56-10.98-12.81z"/><path fill="#202234" d="M1281.76 1401.46c.33.15.73.09.99-.19.19-.21 4.75-5 12.09-.63.41.23.92.11 1.16-.29.24-.4.11-.92-.29-1.16-8.56-5.13-14.15.88-14.21.94a.83.83 0 0 0 .06 1.19c.05.06.12.11.2.14zM1292.03 1406.72c0 2.64-1.46 4.78-3.27 4.78-1.8 0-3.27-2.14-3.27-4.78s1.46-4.78 3.27-4.78 3.27 2.14 3.27 4.78z"/><path fill="#f2faff" d="M1196.2 1500.95s10.61 26.35 35.5 28.55c9.69.85 12.44-28.18 12.44-28.18s16.47 25.25 11.71 36.97c-4.76 11.71-21.23-5.12-21.23-5.12s-1.46 22.69-25.25 8.79c-23.78-13.92-13.17-41.01-13.17-41.01z"/></svg>