<svg xmlns="http://www.w3.org/2000/svg" id="Design" x="0" y="0" version="1.1" viewBox="0 0 128 128" xml:space="preserve"><path fill="#ffffff" d="M105.1 23.9c-.1 23.6-.2 47.2-.2 70.8 0 .9.1 1.9.4 2.7 2.6 7.9 5.3 15.8 7.9 23.7.2.6.5 1.2.8 1.8.6.9 1.4.9 2 0 .4-.6.6-1.3.9-2 2.3-6.6 4.6-13.2 6.8-19.8.8-2.4 1.7-4.7 1.7-7.4 0-23 .1-46 .2-69v-.8c-6.9 0-13.7-.1-20.5-.1v.1zm16.2 71.4c-.1.4-.3.9-.5 1.4-1.1 3.2-2.2 6.5-3.3 9.8-.2.7-.6 1-1.2.9-.9-.1-1.9 0-2.8-.1-.3 0-.6-.3-.7-.6-1.3-3.7-2.5-7.5-3.8-11.3v-.3c4.1.2 8.1.2 12.3.2zM125.7 18.1c-6.9 0-13.7-.1-20.5-.1 0-.1-.1-.3-.1-.5V9.7c0-3.1 1.7-5.1 4.3-5.2h11.9c2.6 0 4.3 2.1 4.3 5.2.1 2.8.1 5.6.1 8.4z" class="color1d75b9 svgShape"></path><g fill="#000000" class="color000000 svgShape"><path fill="#3e3e3e" d="M94.1 59.6c0-1.3-.5-2.1-1.7-2.5-5.5-2-9.6-5.6-12.4-11-2.9-5.6-3.7-10.5-2.5-15.6.3-1.4-.1-2.4-1.3-3.1l-3-1.8-.6-.4c-1.5-.9-3.3-2-4.9-3-1.2-.8-2.4-.5-2.9-.1-.3.1-.5.3-.8.5l-.3.2c-1 .8-2 1.6-3.2 2.3-.5.3-.9.5-1.4.6-4.3 1.5-8.3 2.1-11.9 1.9-5-.3-9.3-2.2-13.3-5.7-1.3-1.2-2.5-1-3.5-.4-2.8 1.6-5.7 3.2-8.7 4.8-1.3.7-1.7 1.6-1.4 3.1 1.5 9.1-1.8 16.7-10.2 23.4-.4.3-.8.6-1.3.9-1.1.6-2.5 1.1-3.6 1.5l-.3.1c-.3.1-.6.2-.9.4-1 .5-1.4 1.3-1.4 2.6 0 1.9-.1 4-.1 5.7v.4c0 1.3-.1 2.6-.1 3.9 0 1.4.6 2.3 1.9 2.8 5 1.7 8.7 5 11.9 10.4 3.1 5.3 4 10.7 2.8 16.4-.3 1.2.1 2.1 1.2 2.8 3.3 2 6.1 3.7 8.9 5.4.3.2.8.4 1.3.5.4 0 .8-.1 1.2-.3.3-.1.5-.3.8-.6.9-.9 2-1.8 3.3-2.5 3.8-2.1 9-3 14.2-2.5 5.3.5 9.9 2.5 12.6 5.4.4.5 1.1 1 2 1.1.6 0 1.2-.1 2-.6 1.5-.9 3-1.7 4-2.3 1-.6 2.5-1.4 4.1-2.3 2-1.1 1.9-2.5 1.6-3.6-1-3.8-.2-8.8 2.1-13.5C80.6 80 84.1 76.1 88 74c1.3-.7 2.6-1.2 3.9-1.5.6-.1 1.4-.4 1.8-1.3.2-.3.2-.7.3-1.2 0-3.5.1-7.1.1-10.4zM57.7 81.1c-3.3 1.8-7 2.6-10.8 2.4-6.5-.4-12.3-3.9-15.5-9.4-2.8-4.7-3.6-10.1-2.2-15.3 1.4-5.1 4.7-9.3 9.5-12 3.3-1.8 6.9-2.7 10.6-2.4 1.5.1 3 .4 4.5.8 5.1 1.5 9.3 5.1 11.8 9.9 4.9 9.3 1.4 20.7-7.9 26z" class="color2d3e50 svgShape"></path><circle cx="48.2" cy="64" r="11.4" fill="#ffffff" transform="rotate(-28.972 48.224 64.006)" class="color1d75b9 svgShape"></circle></g></svg>