<svg xmlns="http://www.w3.org/2000/svg" data-name="Layer 1" viewBox="0 0 950 570"><rect width="950" height="570" fill="#fff"/><path fill="#6fb8ef" d="M474.07,136.3a47.36,47.36,0,1,0-33.47-13.86A47.33,47.33,0,0,0,474.07,136.3Z"/><path fill="#e9eeff" d="M289.63 233.2A86.25 86.25 0 10203.39 147C203.19 194.65 241.94 233.2 289.63 233.2zM659.09 232.16a86.25 86.25 0 10-86.25-86.25C572.65 193.6 611.4 232.16 659.09 232.16zM473.91 544.65a86.24 86.24 0 10-86.24-86.24C387.47 506.1 426.22 544.65 473.91 544.65z"/><path fill="#6fb8ef" d="M680.5 424.63A47.34 47.34 0 10647 410.77 47.41 47.41 0 00680.5 424.63zM268.54 423.94a47.36 47.36 0 10-33.47-13.86A47.32 47.32 0 00268.54 423.94z"/><path fill="#718dc6" d="M589.3,239.15c-1.41,0-2.81.06-4.19.16A82.93,82.93,0,0,0,430.53,207,34.57,34.57,0,0,0,371,225h-.42a65,65,0,1,0,0,130H589.3a57.92,57.92,0,0,0,0-115.83Z"/><path fill="#fff" d="M536.83 319a46.9 46.9 0 01-17.64-3.6 2 2 0 01-1.08-2.7l2.09-4.54a2 2 0 012.54-1c9.41 3.81 19.55 3.86 25.71 0a9.77 9.77 0 005-8.4c.19-7.19-5.21-9.9-14-13.73s-19.79-8.57-18.13-22.28a19.08 19.08 0 0110.3-15c7.65-4 17.82-3.7 27.56.8a2 2 0 011 2.76l-2.32 4.44a2 2 0 01-2.59.89c-7-3.2-14.36-3.58-19.41-.92a10.12 10.12 0 00-5.55 8.08c-.78 6.41 3.09 8.75 12.76 13 8.83 3.82 19.82 8.58 19.45 22.22a18.72 18.72 0 01-9.2 15.8A31 31 0 01536.83 319zM454.38 317.63h-5a2 2 0 01-2-2V281.55c0-4.3-1.55-7.47-4.6-9.42-4.61-2.95-12.34-2.93-19.66-.05a2 2 0 01-2.54-1l-2.09-4.55a2 2 0 011.09-2.71c10.23-4.12 20.82-3.88 28.06.75 5.64 3.61 8.74 9.65 8.74 17v34.08A2 2 0 01454.38 317.63z"/><path fill="#fff" d="M429.6 318.33a18.63 18.63 0 01-3.9-.39 13.86 13.86 0 01-9.49-7 15.81 15.81 0 01.78-16.45c5.88-9.28 19.54-14.68 34.77-13.77l-.54 9c-13.68-.82-23.22 4.23-26.62 9.6-1.6 2.53-1.77 5-.5 7.31a4.88 4.88 0 003.5 2.56c6 1.29 16.25-3.75 21.58-7.75l5.4 7.2C449.7 312.25 439 318.33 429.6 318.33zM504.65 317.63h-5a2 2 0 01-2-2V281.55c0-4.3-1.55-7.47-4.6-9.42-4.61-2.95-12.34-2.93-19.66-.05a2 2 0 01-2.54-1l-2.1-4.55a2 2 0 011.09-2.71c10.23-4.12 20.83-3.88 28.07.75 5.63 3.61 8.74 9.65 8.74 17v34.08A2 2 0 01504.65 317.63z"/><path fill="#fff" d="M479.87,318.33a18.56,18.56,0,0,1-3.9-.39,13.86,13.86,0,0,1-9.49-7,15.81,15.81,0,0,1,.78-16.45c5.87-9.28,19.54-14.68,34.77-13.77l-.54,9c-13.69-.82-23.23,4.23-26.62,9.6a6.79,6.79,0,0,0-.5,7.31,4.88,4.88,0,0,0,3.5,2.56c6,1.29,16.24-3.75,21.58-7.75l5.4,7.2C500,312.25,489.23,318.33,479.87,318.33Z"/><rect width="9" height="67.22" x="389.58" y="250.41" fill="#fff" rx="2"/><path fill="#fff" d="M289.68,391H247.36A5.35,5.35,0,0,1,242,385.7V361.43a5.34,5.34,0,0,1,5.34-5.33h42.32a5.34,5.34,0,0,1,5.34,5.33V385.7A5.34,5.34,0,0,1,289.68,391ZM247.36,361.1a.34.34,0,0,0-.34.33V385.7a.34.34,0,0,0,.34.34h42.32a.34.34,0,0,0,.34-.34V361.43a.34.34,0,0,0-.34-.33Z"/><path fill="#fff" d="M268.88,400.09a2.49,2.49,0,0,1-2.5-2.5v-8.43a2.5,2.5,0,1,1,5,0v8.43A2.49,2.49,0,0,1,268.88,400.09Z"/><path fill="#fff" d="M280 401.13H257.75a2.5 2.5 0 010-5H280a2.5 2.5 0 010 5zM700 392.91h-38.9a5.32 5.32 0 01-5.32-5.31V361.46a5.32 5.32 0 015.32-5.31H700a5.31 5.31 0 015.31 5.31V387.6A5.31 5.31 0 01700 392.91zm-38.9-31.76a.31.31 0 00-.32.31V387.6a.31.31 0 00.32.31H700a.31.31 0 00.31-.31V361.46a.31.31 0 00-.31-.31z"/><path fill="#fff" d="M711.18,392.92H650.61a2.5,2.5,0,0,1,0-5h60.57a2.5,2.5,0,0,1,0,5Z"/><path fill="#86a2e2" d="M464.54,459.71c-13.88,0-21.36-11-22.85-33.52a20.06,20.06,0,0,1,5.15-15.73,23.7,23.7,0,0,1,17.7-7.85,23,23,0,0,1,16.84,7.27,21.4,21.4,0,0,1,5.7,16.33C485.89,441.8,482.25,459.71,464.54,459.71Zm0-53.1a19.93,19.93,0,0,0-14.71,6.51,16.15,16.15,0,0,0-4.16,12.71c1.36,20.41,7.35,29.88,18.87,29.88s17-8.92,18.55-29.81h0a17.42,17.42,0,0,0-4.64-13.3A19,19,0,0,0,464.54,406.61Z"/><path fill="#86a2e2" d="M467.88 491.09H429.61a2 2 0 01-2-2v-2.56a30.93 30.93 0 0131-30.82h5.7a46.6 46.6 0 0119.92 3.62 2 2 0 01-1.63 3.66 43.16 43.16 0 00-18.09-3.29h-5.9a26.93 26.93 0 00-27 26.82v.56h36.27a2 2 0 010 4zM510.89 480.72a19.52 19.52 0 1113.8-5.72A19.39 19.39 0 01510.89 480.72zm0-35a15.51 15.51 0 1011 4.54A15.5 15.5 0 00510.89 445.69z"/><path fill="#86a2e2" d="M467.35,506.61a2,2,0,0,1-1.42-3.42L496.17,473a2,2,0,0,1,2.83,2.82L468.76,506A2,2,0,0,1,467.35,506.61Z"/><path fill="#86a2e2" d="M489.22 506.61a2 2 0 01-1.38-.56l-10.95-10.46a2 2 0 112.76-2.89l11 10.46a2 2 0 01-1.38 3.45zM289 191.88A45 45 0 01244 147a2 2 0 014 0A40.92 40.92 0 10289 106a2 2 0 010-4 44.93 44.93 0 010 89.85z"/><path fill="#86a2e2" d="M309.49 160.15a2.07 2.07 0 01-1-.24L288 148.71a2 2 0 01-1-1.75V115.23a2 2 0 014 0v30.54l19.49 10.63a2 2 0 01-1 3.75zM236.77 158a2.07 2.07 0 01-1.18-.38 2 2 0 01-.44-2.8L243.74 143a2 2 0 012.8-.44l11.81 8.59a2 2 0 01-2.35 3.24l-10.2-7.42-7.41 10.2A2 2 0 01236.77 158z"/><path fill="#86a2e2" d="M246 149a2 2 0 01-2-2A45 45 0 01289 102a2 2 0 010 4A41 41 0 00248 147 2 2 0 01246 149zM703.13 197.91H659.05a8.1 8.1 0 01-8-8.22V134.13a8.1 8.1 0 018-8.22h44.08a8.1 8.1 0 018 8.22v55.56A8.1 8.1 0 01703.13 197.91zm-48-34v25.78a4.1 4.1 0 004 4.22h44.08a4.1 4.1 0 004-4.22V163.91zm0-4h52V134.13a4.1 4.1 0 00-4-4.22H659.05a4.1 4.1 0 00-4 4.22z"/><path fill="#86a2e2" d="M670.09 149.91a5 5 0 115-5A5 5 0 01670.09 149.91zm0-6a1 1 0 101 1A1 1 0 00670.09 143.91zM670.09 183.91a5 5 0 115-5A5 5 0 01670.09 183.91zm0-6a1 1 0 101 1A1 1 0 00670.09 177.91z"/><path fill="#86a2e2" d="M644.09,181.91h-7a8.1,8.1,0,0,1-8-8.22V118.13a8.1,8.1,0,0,1,8-8.22h44.08a8.1,8.1,0,0,1,8,8.22v.78a2,2,0,0,1-4,0v-.78a4.1,4.1,0,0,0-4-4.22H637.05a4.1,4.1,0,0,0-4,4.22v25.78h11a2,2,0,0,1,0,4h-11v25.78a4.1,4.1,0,0,0,4,4.22h7a2,2,0,0,1,0,4Z"/><path fill="#86a2e2" d="M622.09,165.91h-7a8.1,8.1,0,0,1-8-8.22V102.13a8.1,8.1,0,0,1,8-8.22h44.08a8.1,8.1,0,0,1,8,8.22v.78a2,2,0,0,1-4,0v-.78a4.1,4.1,0,0,0-4-4.22H615.05a4.1,4.1,0,0,0-4,4.22v25.78h12a2,2,0,0,1,0,4h-12v25.78a4.1,4.1,0,0,0,4,4.22h7a2,2,0,0,1,0,4Z"/><path fill="#fff" d="M474.05,117.05a5.17,5.17,0,0,1-3.75-1.6,20.14,20.14,0,0,0-7-4.43c-8.42-3.6-11.7-9-11.7-19.41V74.47a5.18,5.18,0,0,1,4.4-5.15A35.82,35.82,0,0,0,465,67c2.4-1.13,5.1-2.65,6.49-3.45a5.24,5.24,0,0,1,5.2,0c1.39.8,4.09,2.32,6.49,3.45a35.82,35.82,0,0,0,8.94,2.29,5.18,5.18,0,0,1,4.4,5.15V91.61c0,10.36-3.28,15.81-11.69,19.41a20,20,0,0,0-7,4.44A5.2,5.2,0,0,1,474.05,117.05Zm0-49.16a.23.23,0,0,0-.11,0c-1.78,1-4.41,2.48-6.84,3.63a42,42,0,0,1-10.31,2.72.2.2,0,0,0-.17.2V91.61c0,8.3,2.18,12,8.66,14.82a25.58,25.58,0,0,1,8.61,5.55.5.5,0,0,0,.32,0h0a25.58,25.58,0,0,1,8.61-5.55c6.48-2.78,8.66-6.52,8.66-14.82V74.47a.2.2,0,0,0-.17-.2A42,42,0,0,1,481,71.55c-2.43-1.15-5.06-2.61-6.84-3.63A.23.23,0,0,0,474.05,67.89Z"/></svg>