<svg xmlns="http://www.w3.org/2000/svg" xmlns:xlink="http://www.w3.org/1999/xlink" viewBox="0 0 348.764 320.211"><defs><linearGradient id="a" x1="873.754" x2="917.786" y1="122.984" y2="148.216" gradientTransform="matrix(-1 0 0 1 1028.74 0)" gradientUnits="userSpaceOnUse"><stop offset="0" stop-color="#12c2e9"/><stop offset="1" stop-color="#7d1edc"/></linearGradient><linearGradient id="g" x1="759.203" x2="985.095" y1="112.649" y2="112.649" xlink:href="#a"/><linearGradient id="b" x1="919.329" x2="766.946" y1="99.076" y2="122.824" gradientTransform="matrix(-1 0 0 1 1028.74 0)" gradientUnits="userSpaceOnUse"><stop offset="0" stop-color="#c9f9ff"/><stop offset=".138" stop-color="#c3f8ff"/><stop offset=".33" stop-color="#b0f4ff"/><stop offset=".555" stop-color="#93eeff"/><stop offset=".802" stop-color="#69e5ff"/><stop offset="1" stop-color="#43ddff"/></linearGradient><linearGradient id="h" x1="924.395" x2="712.497" y1="100.263" y2="100.263" xlink:href="#a"/><linearGradient id="i" x1="924.39" x2="712.504" y1="129.219" y2="129.219" xlink:href="#a"/><linearGradient id="j" x1="924.391" x2="712.502" y1="71.306" y2="71.306" xlink:href="#a"/><linearGradient id="l" x1="335.84" x2="442.528" y1="229.838" y2="229.838" gradientTransform="matrix(-1 0 0 1 528.401 0)" xlink:href="#b"/><linearGradient id="m" x1="335.84" x2="442.528" y1="220.935" y2="220.935" gradientTransform="matrix(-1 0 0 1 528.401 0)" xlink:href="#b"/><linearGradient id="n" x1="68.039" x2="236.952" y1="291.154" y2="291.154" xlink:href="#a"/><linearGradient id="o" x1="793.341" x2="959.22" y1="268.317" y2="268.317" xlink:href="#b"/><linearGradient id="p" x1="67.674" x2="174.738" y1="213.335" y2="213.335" xlink:href="#a"/><linearGradient id="q" x1="821.679" x2="973.691" y1="184.27" y2="235.481" xlink:href="#b"/><linearGradient id="r" x1="941.474" x2="862.608" y1="206.413" y2="220.249" xlink:href="#a"/><linearGradient id="s" x1="855.215" x2="942.553" y1="218.895" y2="218.895" xlink:href="#b"/><linearGradient id="t" x1="855.217" x2="942.554" y1="240.524" y2="240.524" xlink:href="#b"/><linearGradient id="u" x1="855.215" x2="942.553" y1="209.988" y2="209.988" xlink:href="#b"/><linearGradient id="v" x1="855.217" x2="942.554" y1="231.618" y2="231.618" xlink:href="#b"/><linearGradient id="x" x1="-3996.972" x2="-3890.195" y1="2083.675" y2="2083.675" gradientTransform="rotate(120.224 -1257.784 2319.89)" xlink:href="#b"/><linearGradient id="y" x1="-3949.434" x2="-3892.377" y1="2061.713" y2="2100.083" gradientTransform="rotate(120.224 -1257.784 2319.89)" xlink:href="#a"/><linearGradient id="z" x1="-3961.578" x2="-3868.205" y1="2072.65" y2="2093.192" gradientTransform="rotate(120.224 -1257.784 2319.89)" xlink:href="#b"/><linearGradient id="A" x1="-3878.307" x2="-3867.738" y1="2053.748" y2="2053.748" gradientTransform="rotate(120.224 -1257.784 2319.89)" xlink:href="#b"/><linearGradient id="B" x1="759.546" x2="626.642" y1="107.908" y2="107.908" xlink:href="#a"/><linearGradient id="C" x1="759.546" x2="626.642" y1="169.608" y2="169.608" xlink:href="#a"/><linearGradient id="D" x1="677.293" x2="712.773" y1="111.262" y2="186.937" xlink:href="#b"/><linearGradient id="E" x1="681.947" x2="716.683" y1="110.238" y2="214.777" xlink:href="#a"/><linearGradient id="F" x1="652.448" x2="695.154" y1="124.431" y2="219.55" xlink:href="#b"/><linearGradient id="G" x1="697.451" x2="740.127" y1="104.239" y2="199.289" xlink:href="#b"/><linearGradient id="H" x1="677.29" x2="720" y1="113.27" y2="208.396" xlink:href="#b"/><linearGradient id="I" x1="713.09" x2="664.795" y1="186.925" y2="186.925" xlink:href="#a"/><linearGradient id="J" x1="713.09" x2="664.795" y1="136.919" y2="136.919" xlink:href="#a"/><linearGradient id="K" x1="228.509" x2="240.109" y1="239.638" y2="239.638" gradientTransform="matrix(-1 0 0 1 528.401 0)" xlink:href="#b"/><linearGradient id="L" x1="228.51" x2="304.94" y1="238.83" y2="238.83" gradientTransform="matrix(-1 0 0 1 528.401 0)" xlink:href="#a"/><linearGradient id="M" x1="228.561" x2="283.315" y1="242.448" y2="242.448" gradientTransform="matrix(-1 0 0 1 528.401 0)" xlink:href="#b"/><filter id="c" width="232.432" height="172.072" x="-11.479" y="53.353" color-interpolation-filters="sRGB" filterUnits="userSpaceOnUse"><feFlood flood-color="#fff" result="bg"/><feBlend in="SourceGraphic" in2="bg"/></filter><filter id="d" width="131.163" height="105.002" x="16.237" y="177.567" color-interpolation-filters="sRGB" filterUnits="userSpaceOnUse"><feFlood flood-color="#fff" result="bg"/><feBlend in="SourceGraphic" in2="bg"/></filter><filter id="e" width="49.977" height="96.61" x="205.867" y="111.251" color-interpolation-filters="sRGB" filterUnits="userSpaceOnUse"><feFlood flood-color="#fff" result="bg"/><feBlend in="SourceGraphic" in2="bg"/></filter></defs><g data-name="Layer 2"><path fill="#dbe4ec" d="m159.144 203.471 37.496-21.973c-2.062 1.163-3.272 3.807-3.245 7.132a7.536 7.536 0 0 0 3.495 5.942l20.52 11.759a4.168 4.168 0 0 1 1.9 3.284 1.309 1.309 0 0 1-.556 1.211l-37.464 21.958a1.356 1.356 0 0 0 .544-1.203 4.14 4.14 0 0 0-1.896-3.26l-20.539-11.781a7.411 7.411 0 0 1-3.448-5.933c-.025-3.363 1.136-5.963 3.194-7.136Z"/><path fill="#dbe4ec" d="m182.95 183.633 37.522-21.99 2.648 4.64-37.454 21.952-2.716-4.602z"/><path fill="#dbe4ec" d="m156.479 198.857 37.486-21.968 26.507-15.246-37.522 21.99-26.471 15.224z"/><path fill="#7789a0" d="m182.95 183.633 2.717 4.602-26.523 15.236c-2.057 1.173-3.218 3.773-3.193 7.136a7.411 7.411 0 0 0 3.448 5.933l20.538 11.781a4.14 4.14 0 0 1 1.897 3.26c-.014 1.197-.86 1.691-1.897 1.098L159.4 220.907a16.011 16.011 0 0 1-7.287-12.492c0-4.481 1.58-7.97 4.367-9.558Z"/><path fill="#dbe4ec" d="m262.973.457 3.774 2.187c-1.323-.779-3.097-.649-5.092.495l-3.73-2.146c1.962-1.16 3.73-1.256 5.048-.536Z"/><path fill="#7789a0" d="m86.395 233.854-.041-12.957 3.77 2.21.04 12.901v-.03c0 2.246.806 3.83 2.074 4.577l-3.766-2.196c-1.277-.731-2.09-2.294-2.09-4.52Z"/><path fill="#edf6ff" d="m90.163 223.112 179.37-104.48.06 12.878c.061 4.498-3.125 9.989-7.02 12.257l-63.65 37.066-38.467 22.402-63.17 36.796c-3.906 2.273-7.123.47-7.123-4.052Z"/><path fill="#dbe4ec" d="m97.737 208.415-3.76-2.18-.694-101.761 3.749 2.154.705 101.787z"/><path fill="#dbe4ec" d="m97.032 106.628-3.749-2.154L256.658 9.286l3.753 2.164-163.379 95.178z"/><path fill="url(#a)" d="M85.651 109.513c-.016-4.194 2.964-9.914 7.055-12.304L257.924.993c1.962-1.16 3.73-1.256 5.048-.536l3.774 2.187c-1.323-.779-3.097-.649-5.092.495L96.47 99.375c-3.721 2.192-7.076 7.744-7.044 12.29l.647 101.267.09 10.201-3.809-2.226-.033-10.169Z"/><path fill="url(#g)" d="M96.47 99.375c-3.929 2.327-7.076 7.794-7.044 12.29l.647 101.267v1.781l.051 8.424L269.532 118.63c0-1.584.101 10.555-.716-111.452-.044-4.507-3.256-6.302-7.161-4.04Z"/><path fill="url(#b)" d="M261.105 113.211 97.737 208.415l-.705-101.787L260.411 11.45l.694 101.761z"/><path d="M205.437 111.979 252.261 84.7v11.457l-46.824 27.288v-11.466zM202.562 125.119l-46.825 27.287v-11.474l46.825-27.279v11.466zM152.864 142.606v11.474l-46.823 27.288v-11.485l46.823-27.277zM202.562 140.636l-46.825 27.287v-11.475l46.825-27.277v11.465zM205.437 127.495l46.824-27.277v11.456l-46.824 27.287v-11.466zM152.864 158.123v11.475l-46.823 27.286v-11.483l46.823-27.278z"/><path fill="url(#h)" d="m202.562 105.841-46.825 27.287V94.675l46.825-27.277v38.443z"/><path fill="url(#i)" d="M152.864 96.349v38.455l-46.823 27.286v-38.462l46.823-27.279z"/><path fill="url(#j)" d="m205.437 65.721 46.824-27.276V76.88l-46.824 27.286V65.721z"/><path d="m202.562 59.586-46.825 27.286V79.45l46.825-27.277v7.413zM152.864 81.125v7.422l-46.823 27.287v-7.431l46.823-27.278zM205.437 50.497l46.824-27.278v7.404L205.437 57.91v-7.413z"/><path fill="url(#l)" d="m86.102 247.831 71.396-41.593v5.595l-71.396 41.605v-5.607z"/><path fill="url(#m)" d="m86.102 238.928 71.396-41.592v5.593l-71.396 41.605v-5.606z"/><path fill="#4fdfff" d="m123.209 192.724 34.289-19.976v18.643l-34.289 19.983v-18.65zM120.39 194.365v18.65l-34.288 19.983V214.34l34.288-19.975z" opacity=".74"/><g style="isolation:isolate"><path fill="url(#n)" d="m139.75 316.842 95.637-54.746.012 2.159a4.148 4.148 0 0 1-2.085 3.612l-88.603 51.045a9.748 9.748 0 0 1-9.757-.018l-62.636-36.408a5.596 5.596 0 0 1-2.788-4.832l-.011-2.83Z"/><path fill="url(#o)" d="m69.519 274.823 66.196 42.316a8.02 8.02 0 0 0 8.275.161l89.955-51.742a2.903 2.903 0 0 0 .09-4.975l-66.195-42.32Z"/></g><g style="isolation:isolate"><path fill="url(#p)" d="M162.829 150.718a4.193 4.193 0 0 1 4.167.033l1.092.66-94.342 55.846L71.8 276.49l-2.271-1.307V209.42a8.41 8.41 0 0 1 4.184-7.25Z"/><path fill="url(#q)" d="M75.98 203.49a8.409 8.409 0 0 0-4.179 7.25v65.75l98.045-56.714V154.02a2.774 2.774 0 0 0-4.178-2.395Z"/></g><path fill="#111314" d="M81.072 273.84a2.095 2.095 0 00-.135 3.144l30.868 19.726c2.612 1.599 4.843.146 7.247-1.234l83.173-47.898c1.857-1.076 1.309-2.739 0-3.493l-30.403-19.19c-1.686-.98-3.638-1.391-4.871-.686zM154.36 279.527c-2.737 1.582-2.737 4.13-.034 5.707l12.262 7.126a10.875 10.875 0 009.851-.008l19.292-11.134c2.726-1.567 2.737-4.133.033-5.705l-12.26-7.125a10.897 10.897 0 00-9.856 0z"/><path fill="url(#r)" d="m163.526 213.829-84.21 48.632v-51.496l84.21-48.614v51.478z"/><path fill="url(#s)" d="m122.977 226.086 34.301-19.984v5.597l-34.301 19.989v-5.602z"/><path fill="url(#t)" d="M120.155 227.728v5.603l-34.3 19.988v-5.608l34.3-19.983z"/><path fill="url(#u)" d="m122.977 217.178 34.301-19.983v5.596l-34.301 19.989v-5.602z"/><path fill="url(#v)" d="M120.155 218.822v5.602l-34.3 19.99v-5.609l34.3-19.983z"/><path fill="#4fdfff" d="m122.977 191.752 34.301-19.983v18.652l-34.301 19.988v-18.657zM120.155 193.395v18.658l-34.3 19.991v-18.665l34.3-19.984z" opacity=".82"/><path fill="url(#x)" d="m264.511 211.605 47.184-27.068a15.03 15.03 0 0 0 6.861-11.779l.111-101.526c.001-2.159-.76-3.68-1.99-4.395l.01.005q-1.796-1.049-3.59-2.104c-1.241-.728-2.962-.633-4.864.452l-47.185 27.068a15.049 15.049 0 0 0-6.862 11.777l-.11 101.528c-.003 2.154.755 3.672 1.98 4.39l3.589 2.104c-.032-.019-.062-.04-.093-.058 1.247.788 3.008.72 4.96-.394Z"/><path fill="url(#y)" d="M264.511 211.605c-3.779 2.163-6.85.396-6.847-3.937l.113-101.527a15.05 15.05 0 0 1 6.86-11.779l47.184-27.065c3.78-2.163 6.851-.398 6.846 3.935l-.11 101.526a15.03 15.03 0 0 1-6.862 11.779Z"/><path d="M286.925 85.676c-.288.163-.522.03-.519-.3a1.139 1.139 0 0 1 .52-.895l6.576-3.763c.287-.163.521-.03.521.3a1.145 1.145 0 0 1-.523.896ZM284.034 87.692c-.401.23-.727.042-.725-.417a1.588 1.588 0 0 1 .725-1.247c.402-.23.726-.044.726.415a1.588 1.588 0 0 1-.726 1.25Z" style="mix-blend-mode:multiply" fill="#604be0" opacity=".5"/><path fill="url(#z)" d="M265.072 203.526c-2.176 1.248-4.166.229-4.162-2.267v-93.513a8.666 8.666 0 0 1 3.953-6.786l47.182-27.067c2.18-1.245 3.949-.227 3.946 2.269v93.51a8.45 8.45 0 0 1-3.734 6.788Z"/><path fill="url(#A)" d="M285.79 197.567c-.96.548-1.736.1-1.735-.997a3.802 3.802 0 0 1 1.738-2.982l5.71-3.255c.96-.548 1.735-.104 1.734.995a3.81 3.81 0 0 1-1.737 2.985Z"/><path d="m309.798 137.442-42.599 24.435v-8.876l42.599-24.439v8.88zM309.798 124.517l-42.599 24.437v-8.877l42.599-24.44v8.88z" style="mix-blend-mode:overlay"/><path fill="url(#B)" d="M267.199 133.413V106.84l42.599-24.438v26.574l-42.599 24.437z"/><path fill="url(#C)" d="M267.199 195.113V168.54l42.599-24.437v26.572l-42.599 24.438z"/><path fill="url(#D)" d="m312.83 123.275 27.745-16.019a3.666 3.666 0 0 1 3.699-.358c1.755 1.019 1.216.766 2.972 1.786l-.009-.004a3.634 3.634 0 0 1 1.527 3.34v77.214a11.214 11.214 0 0 1-4.965 8.98l-27.744 16.019a3.619 3.619 0 0 1-3.775.312l.076.047c-1.756-1.02-1.216-.768-2.973-1.79a3.756 3.756 0 0 1-1.738-3.33v-77.218a11.438 11.438 0 0 1 5.185-8.979Z"/><path fill="url(#E)" d="M315.801 125.061a11.442 11.442 0 0 0-5.183 8.98v77.218c.009 3.296 2.568 4.63 5.437 2.974l27.744-16.02a11.214 11.214 0 0 0 4.965-8.979V112.02c-.01-3.297-2.349-4.632-5.217-2.976Z"/><g style="isolation:isolate"><path fill="#604be0" d="M327.32 120.58a.867.867 0 0 0-.394.681c0 .252.178.353.396.227l4.99-2.88a.868.868 0 0 0 .393-.685c0-.249-.18-.35-.395-.225Z" opacity=".5"/><path fill="#999" d="M326.926 121.261c0 .252.178.353.396.227-.219.126-.396.025-.396-.227Z"/></g><g style="isolation:isolate"><path fill="#999" d="M325.676 121.888a1.208 1.208 0 0 1-.55.95 1.208 1.208 0 0 0 .55-.95ZM325.676 121.886c0-.35-.249-.49-.552-.316.303-.174.552-.035.552.316Z"/><path fill="#604be0" d="M325.123 121.57a1.216 1.216 0 0 0-.55.95c.002.352.249.493.553.317a1.215 1.215 0 0 0 .55-.951c0-.35-.249-.49-.553-.316Z" opacity=".5"/></g><g style="isolation:isolate"><path fill="url(#F)" d="M346.912 190.073a6.595 6.595 0 0 1-2.987 5.163 6.595 6.595 0 0 0 2.987-5.163Z"/><path fill="url(#G)" d="M322.453 125.894c-.71.41-1.36.298-1.648-.28.289.578.939.69 1.648.28Z"/><path fill="url(#H)" d="M315.942 127.147a6.381 6.381 0 0 0-2.77 5.177v77.218c.006 1.9 1.356 2.667 3.009 1.713l27.744-16.019a6.372 6.372 0 0 0 2.768-5.176v-77.216c-.006-1.9-1.354-2.669-3.008-1.715l-3.88 2.243a1.65 1.65 0 0 0-.685.908l-.29.928a3.993 3.993 0 0 1-1.642 2.178l-14.735 8.508c-.71.41-1.36.298-1.648-.28l-.295-.59c-.12-.241-.392-.287-.688-.118Z"/></g><path fill="url(#H)" d="M315.942 127.147a6.381 6.381 0 0 0-2.77 5.177v77.218c.006 1.9 1.356 2.667 3.009 1.713l27.744-16.019a6.372 6.372 0 0 0 2.768-5.176v-77.216c-.006-1.9-1.354-2.669-3.008-1.715l-3.88 2.243a1.65 1.65 0 0 0-.685.908l-.29.928a3.993 3.993 0 0 1-1.642 2.178l-14.735 8.508c-.71.41-1.36.298-1.648-.28l-.295-.59c-.12-.241-.392-.287-.688-.118Z"/><path fill="url(#I)" d="m344.046 188.44-28.227 16.192v-19.219l28.227-16.195v19.222z"/><path d="m344.046 164.874-28.227 16.192v-5.884l28.227-16.194v5.886zM344.046 156.766l-28.227 16.195v-5.885l28.227-16.193v5.883zM344.046 148.662l-28.227 16.192v-5.88l28.227-16.196v5.884z" style="mix-blend-mode:overlay"/><path fill="url(#J)" d="m344.046 138.432-28.227 16.194v-19.222l28.227-16.192v19.22z"/><path fill="url(#K)" d="M288.42 242.985c-.665-1.965 1.402-3.51 2.881-4.09l7.491-2.94a1.701 1.701 0 0 0 1.094-1.752v4.807a1.697 1.697 0 0 1-1.094 1.75l-7.49 2.941a1.87 1.87 0 0 0-1.164 1.371Z"/><path fill="url(#L)" d="M248.248 222.607a2.637 2.637 0 0 0-2.79 3.924l15.127 25.684a4.963 4.963 0 0 0 7.49 1.269l3.843-3.263a5.576 5.576 0 0 1 6.397-.569l7.1 4.081a10.204 10.204 0 0 0 10.205.014l2.512-1.452a3.414 3.414 0 0 0 .01-5.91l-7.101-4.079a1.9 1.9 0 0 1 .26-3.411l7.491-2.94a1.733 1.733 0 0 0-.293-3.312Z"/><path fill="url(#M)" d="M245.095 224.984a2.6 2.6 0 0 0 .364 1.547l15.126 25.684a4.963 4.963 0 0 0 7.49 1.269l3.843-3.263a5.576 5.576 0 0 1 6.397-.569l7.1 4.081a10.204 10.204 0 0 0 10.205.014l2.512-1.452a3.385 3.385 0 0 0 1.707-3.07v4.808a3.384 3.384 0 0 1-1.707 3.069l-2.512 1.452a10.206 10.206 0 0 1-10.205-.015l-7.1-4.078a5.576 5.576 0 0 0-6.397.567l-3.844 3.262a4.962 4.962 0 0 1-7.49-1.266l-15.126-25.684a2.608 2.608 0 0 1-.363-1.547Z"/></g></svg>