<svg xmlns="http://www.w3.org/2000/svg" enable-background="new 0 0 1200 900" viewBox="0 0 1200 900"><path fill="#edf5fc" d="M949.69 702.979H312.32c-9.64 0-24.58 2.39-33.26-1.95-69.46-34.67-132.69-81.09-152.37-156.19-19.67-75.09.45-159.43 51.92-217.54 31.09-35.11 73.95-59.48 120.21-67.23 62.53-10.48 155.96 26.68 171.48 34.51 19.32 9.75 36.58 23.18 53.7 36.75 48.15 24.54 98.34 45.9 151.73 44.68 2.24-.06 4.48-.14 6.72-.28 35.29-16.01 70.68-31.62 108.01-40.9 61.98-15.4 133.56-10.14 180.37 35.14 27.01 26.13 42.19 62.51 47.34 100.96.01.07.03.12.04.18 12.02 59.81-55.58 216.7-68.52 231.87z"/><path fill="#ffc6b2" d="M1016.046 533.424c0 .391-5.818 4.34-6.025 4.486-.037.024-.416.049-1.052.085-3.544.184-14.862.538-14.862.538l-23.283-9.154-21.768-8.568s.844-5.39.917-5.61c.06-.208 43.927 9.533 43.927 9.533l12.258-4.424s5.256 1.638 5.818 2.249c.562.623 3.997 10.51 4.07 10.865z"/><path fill="#f4bdab" d="M1009.654 533.999c.012 1.356-.11 2.774-.685 3.996-3.544.184-14.862.538-14.862.538l-23.283-9.154c-2.298-3.911-4.07-8.238-7.663-10.903 10.205 2.482 20.398 4.963 30.604 7.444 2.298.562 4.693 1.124 7.003.599 2.298-.526 4.461-2.506 4.364-4.865l1.16.758a22.456 22.456 0 0 1 3.362 11.587z"/><path fill="#f03232" d="m1021.426 526.432.374 10.04s-6.652 3.512-14.248 4.81c-3.634-6.151-4.99-17.96-3.156-21.544 4.753-3.416 12.202-7.094 12.202-7.094l4.828 13.788z"/><path d="M990.528 718.043h29.168v4.523h-29.168z" transform="rotate(-.222 1005.107 720.297)"/><path d="m990.52 718.1 29.167-.113-.05-12.887-18.114.07z"/><path fill="#fff" d="M990.516 717.822h15.457v.5h-15.457z" transform="rotate(-.223 998.255 718.068)"/><path fill="#fff" d="M1013.983 721.317c.002.445.047.835.146 1.214l.542-.002c0-.021 0-.043-.01-.065a4.844 4.844 0 0 1-.135-1.15 5.084 5.084 0 0 1 1.061-3.149c.044-.054.087-.109.14-.163a5.155 5.155 0 0 1 3.953-1.881l-.003-.542a5.709 5.709 0 0 0-4.525 2.262c-.043.055-.075.11-.118.164a5.623 5.623 0 0 0-1.05 3.312z"/><path d="M1049.031 718.043h29.168v4.523h-29.168z" transform="rotate(-.222 1063.61 720.297)"/><path d="m1049.031 718.1 29.168-.113-.05-12.887-18.114.07z"/><path fill="#fff" d="M1049.027 717.822h15.457v.5h-15.457z" transform="rotate(-.223 1056.767 718.068)"/><path fill="#fff" d="M1072.495 721.317c.002.445.047.835.146 1.214l.542-.002c0-.021 0-.043-.01-.065a4.844 4.844 0 0 1-.135-1.15 5.085 5.085 0 0 1 1.061-3.149c.044-.054.087-.109.14-.163a5.155 5.155 0 0 1 3.952-1.881l-.002-.542a5.709 5.709 0 0 0-4.525 2.262c-.043.055-.075.11-.118.164a5.622 5.622 0 0 0-1.05 3.312z"/><path fill="#1258ff" d="m1021.704 707.345 10.905-79.923 22.729 78.695c-.072 1.686 25.326 2.697 25.398 1.01l-11.643-120.05-62.352 1.31-9.416 119.027c.005 1.812 24.384 1.743 24.38-.07z"/><path fill="#fff" d="M1012.865 586.318c.06-.025.384.644.9 2.056.449 1.427.998 3.66.947 6.703-.126 5.14-2.091 10.237-5.544 14.063-2.047 2.247-3.974 3.5-5.276 4.23-1.318.723-2.035.945-2.06.89-.038-.078.618-.425 1.852-1.231 1.22-.816 3.04-2.114 4.981-4.335 3.35-3.715 5.25-8.642 5.375-13.636.11-2.952-.33-5.145-.661-6.575-.396-1.417-.59-2.136-.514-2.165zM1068.44 609.235c-.019.056-.59-.031-1.62-.534-1.01-.507-2.52-1.474-3.904-3.344-2.317-3.202-3.17-7.173-3.356-11a42.411 42.411 0 0 1 .143-5.083c.1-1.12.196-1.673.268-1.67.075.003.117.563.133 1.685.024 1.12-.006 2.805.127 5.035.18 3.755 1.023 7.593 3.23 10.638a12.246 12.246 0 0 0 3.555 3.39c.937.584 1.455.802 1.424.883z"/><path fill="#f03232" d="M1069.739 589.773c.775-14.091 6.867-69.836-4.172-77.86-9.245-7.979-38.656-9.22-51.079 2.48-7.35 6.92-8.653 76.691-8.607 77.358-.235 4.87 64.152 7.619 63.858-1.978z"/><path fill="#6385d2" d="M981.846 552.565c.028.137.052.28.072.419a9.487 9.487 0 0 1-7.496 10.764 9.488 9.488 0 0 1-11.092-7.009 7.52 7.52 0 0 1-.096-.415c-1.038-5.137 2.287-10.145 7.428-11.184 5.138-1.038 10.146 2.287 11.184 7.425z"/><path d="M981.846 552.565c.028.137.052.28.072.419l-18.588 3.755a7.52 7.52 0 0 1-.096-.415c-1.038-5.137 2.287-10.145 7.428-11.184 5.138-1.038 10.146 2.287 11.184 7.425z" opacity=".15"/><path fill="#ffc6b2" d="m987.425 526.397-2.493.562s-1.638-3.581-.782-4.938c.855-1.357 3.275 4.376 3.275 4.376z"/><path fill="#ffc837" d="M988.874 520.35c-3.51 5-5.613 10.764-6.296 16.728a39.749 39.749 0 0 0-.149 1.595l-25.18 5.087a39.974 39.974 0 0 0-.772-1.408c-3.058-5.303-7.394-9.844-12.643-13.25-7.2-4.668-12.59-12.12-14.425-21.2-3.735-18.485 8.741-36.482 27.645-39.261 16.82-2.473 32.938 8.442 36.905 24.976 2.316 9.658.154 19.267-5.085 26.733z"/><path fill="#fff" d="M976.217 541.705c-.258-.291.972 6.202-5.615-26.93l-7.186 1.451-.41-2.033 7.19-1.453-.62-3.12c-.559-2.816 1.28-5.571 4.097-6.14l1.028-.208a5.237 5.237 0 0 1 6.163 4.092 5.237 5.237 0 0 1-4.091 6.164l-4.138.836c5.671 28.506 5.224 25.936 5.335 26.309l-.89.266-.863.766zm-3.986-29.376 4.13-.835a3.16 3.16 0 0 0 2.47-3.719 3.16 3.16 0 0 0-3.72-2.47l-1.027.208a3.16 3.16 0 0 0-2.472 3.703c.211 1.068.418 2.104.619 3.113z"/><path fill="#fff" d="m964.208 544.131-1.965-.667.982.334-1.033.062c-.087-.8-1.263-6.654-5.297-26.316l-4.138.836a5.237 5.237 0 0 1-6.163-4.092 5.237 5.237 0 0 1 4.091-6.164l1.028-.208c2.817-.569 5.58 1.256 6.159 4.069l.64 3.115 7.19-1.452.411 2.033-7.183 1.452c6.792 33.085 5.4 26.634 5.278 26.998zm-13.112-33.974a3.16 3.16 0 0 0-2.469 3.72 3.16 3.16 0 0 0 3.72 2.469l4.132-.835-.64-3.109a3.16 3.16 0 0 0-3.715-2.452l-1.028.207z"/><path d="M982.578 537.078a39.749 39.749 0 0 0-.149 1.595l-25.18 5.087a39.974 39.974 0 0 0-.772-1.408l26.101-5.274z" opacity=".1"/><path fill="#829ed9" d="m984.501 538.754 2.267 11.22a.96.96 0 0 1-.75 1.133l-27.195 5.494a.96.96 0 0 1-1.13-.754l-2.267-11.22a.96.96 0 0 1 .75-1.13l27.195-5.494a.96.96 0 0 1 1.13.75z"/><path d="m984.992 541.18.544 2.695-28.556 5.77c-.185.037-.37.037-.541-.002l-.502-2.482c.147-.104.313-.174.498-.211l28.557-5.77zM985.891 545.634l.545 2.699-28.556 5.769a1.29 1.29 0 0 1-.54-.002l-.503-2.486c.148-.1.313-.174.498-.211l28.556-5.77z" opacity=".15"/><path fill="#ddeefe" d="M986.213 541.678c.076.373-.008.74-.2 1.034a1.385 1.385 0 0 1-.875.586l-28.534 5.765a1.374 1.374 0 0 1-1.42-2.106 1.37 1.37 0 0 1 .875-.59l28.534-5.765c.746-.15 1.47.334 1.62 1.076zM987.113 546.133c.076.373-.008.74-.2 1.034a1.385 1.385 0 0 1-.875.587l-28.534 5.764a1.374 1.374 0 0 1-1.42-2.106c.197-.295.502-.515.875-.59l28.534-5.765c.746-.15 1.47.334 1.62 1.076z"/><ellipse cx="951.347" cy="483.856" fill="#fff" opacity=".14" rx="6.633" ry="5.111" transform="rotate(-64.702 951.347 483.856)"/><ellipse cx="947.764" cy="495.338" fill="#fff" opacity=".14" rx="3.61" ry="3.209" transform="rotate(-64.702 947.764 495.338)"/><path fill="#fff" d="M938.25 517.792c-.047.031-.619-.665-1.52-2.23-.88-1.569-2.101-4.03-2.994-7.568a33.074 33.074 0 0 1-.9-9.183 33.052 33.052 0 0 1 1.725-9.063c1.208-3.44 2.644-5.78 3.661-7.262 1.04-1.476 1.672-2.118 1.718-2.08.07.053-.452.777-1.381 2.298-.909 1.527-2.236 3.871-3.361 7.26a32.383 32.383 0 0 0-1.69 8.878c-.132 3.02.172 6.056.882 8.994.815 3.48 1.927 5.936 2.694 7.54.788 1.598 1.242 2.367 1.166 2.416z"/><path fill="#ffc6b2" d="m987.425 526.397 39.6 5.23 16.06-7.064 13.652 17.429c-.757.611-16.585 14.239-24.358 15.278-13.372 1.784-46.848-20.424-46.848-20.424s-9.912.258-9.337-7.906c.574-8.165 8.738-1.981 8.738-1.981"/><path fill="#f03232" d="M1070.08 525.757c-1.082 6.613-14.46 18.082-14.46 18.082-.357.283-15.147-19.287-14.79-19.57.31-.243 12.007-10.963 13.464-12.03a8.927 8.927 0 0 1 3.374-1.546c4.996-1.175 9.968 2.027 11.543 6.918.776 2.404 1.325 5.32.868 8.146z"/><path fill="#fff" d="M1053.147 512.731c-.037-.039.426-.588 1.663-1.285a10.983 10.983 0 0 1 3.398-1.129c1.407-.18 2.106-.018 2.1.037-.002.091-.696.06-2.047.295a10.647 10.647 0 0 0-3.294 1.094c-1.225.622-1.763 1.061-1.82.988zM1047.43 518.799c.043.064-.673.604-2.103 1.71a58.852 58.852 0 0 0-3.562 2.899c-.342.284-.585.562-.646.852-.065.292-.001.558.083.745.183.379.407.48.379.521 0 .024-.28-.012-.555-.426a1.318 1.318 0 0 1-.18-.893c.056-.393.357-.75.696-1.05a59.227 59.227 0 0 1 3.583-2.917c1.476-1.063 2.266-1.5 2.305-1.441z"/><path fill="#ffc6b2" d="M1035.408 498.42c1.261 1.552.551 4.6.428 7.414-1.018 3.754 12.122 5.62 14.148 1.014-.904-4.196-.532-9.805.695-14.098s-15.271 5.67-15.271 5.67z"/><path fill="#ffc6b2" d="M1034.736 499.16c6.08 3.4 12.7-2.786 15.29-5.67.687-.744 1.112-1.295 1.112-1.295.159-.2 5.458-1.47 4.113-6.005-.695-2.373-5.257-.158-5.257-.158s-1.982-8.846-5.901-9.32c-3.919-.477-10.661 4.634-10.661 4.634s-.17.556-.35 1.47c-.832 3.86-2.565 13.97 1.654 16.345z"/><path fill="#2a0054" d="M1029.21 480.76c.52 1.395 1.984 1.95 3.871 2.057 4.231.281 10.475-1.831 12.06-1.886 2.252-.137 2.4 5.13 2.897 5.604.548.475 1.956-.503 1.956-.503s4.562-2.215 5.257.158c1.345 4.535-3.954 5.805-4.113 6.005 0 0-.425.55-1.112 1.296l-.066 2.823s6.936-7.062 7.991-9.891c1.106-2.828-2.299-6.81-3.511-7.256-1.215-.393.518-8.771-.547-10.744-1.066-1.922-9.254.284-12.285.86-3.032.622-7.018-1.03-10.707 1.055-3.69 2.087-3.394 5.877-1.692 10.422zM1038.455 500.206c-.849 0-1.697-.12-2.512-.361l.07-.24c2.094.621 4.41.412 6.357-.573l.113.223a8.955 8.955 0 0 1-4.028.951z"/><path fill="#fff" d="M1052.045 507.226s-8.082 7.324-8.231 7.32c-.023-.088-3.323-5.4-3.323-5.4l9.07-5.337c.01.1 2.484 3.417 2.484 3.417z"/><path fill="#fff" d="M1040.541 509.298s-5.586 4.235-3.987 3.375c.078-.042-3.63-6.19-3.63-6.19l3.061-2.63 4.506 5.292M1063.235 537.557c.05.052-.553.74-1.843 2.062l-3.334 3.306c-.328.315-.63.616-.967.786-.331.178-.683.19-.92.116-.506-.158-.545-.503-.515-.489.039-.03.137.223.559.294.208.032.469.003.741-.165.275-.162.542-.448.865-.781l3.334-3.305c1.334-1.279 2.027-1.877 2.08-1.824zM1028.148 601.995c.071.004.106.634.096 1.896s-.065 3.158-.171 5.692l-.347 6.437-.087 1.61-.042.803c-.007.234.015.468.073.693.23.912 1.102 1.61 2.04 1.639.056.004.322.003.48-.009l1.274 3.186.81 2.134c.417 1.143.588 1.727.521 1.755-.066.028-.362-.504-.884-1.603l-.954-2.074-1.205-2.72c-.025 0 .055.002-.072.003-1.227-.04-2.357-.946-2.66-2.135a3.158 3.158 0 0 1-.095-.904l.043-.805.086-1.61.347-6.436c.168-2.53.317-4.42.443-5.677.126-1.256.229-1.879.304-1.875zM1076.344 690.837c-.035.009-.157-.34-.364-1.05-.209-.71-.502-1.781-.872-3.217a199.28 199.28 0 0 1-2.914-13.072c-1.835-9.958-2.674-20.044-3.765-30.077-.594-5.925-1.012-10.356-1.264-13.308-.126-1.477-.21-2.583-.254-3.321s-.047-1.109-.01-1.113c.036-.003.11.36.22 1.09.111.732.259 1.831.442 3.302.368 2.94.88 7.361 1.535 13.28 1.091 10.039 1.93 20.11 3.758 30.027 1.037 5.86 2.023 10.202 2.642 13.1l.688 3.258c.142.726.194 1.092.158 1.101zM1075.781 699.695c0 .133-1.39.285-4.202.164a76.258 76.258 0 0 1-7.096-.808c-2.764-.513-4.085-.973-4.055-1.107.034-.153 1.404.055 4.161.443 2.331.376 4.68.644 7.035.8 2.777.242 4.16.347 4.157.508zM1003.358 698.561c-.036-.002-.048-.406-.036-1.215s.05-2.023.113-3.643c.145-3.24.395-8.109.88-14.613.867-11.018 2.002-22.013 3.273-32.987a782.513 782.513 0 0 1 1.867-14.506c.226-1.605.406-2.805.537-3.603.133-.798.217-1.194.254-1.19.036.005.022.41-.043 1.216s-.182 2.014-.35 3.625l-1.597 14.535c-1.27 10.97-2.404 21.955-3.27 32.962l-1.15 14.585c-.122 1.616-.222 2.825-.302 3.63s-.139 1.206-.176 1.204z"/><path fill="#ff5252" d="M203.307 734.723a.43.43 0 0 0 .426.467h3.234a.417.417 0 0 0 .415-.374l.394-3.193h1.69l.311.705.228.518.923 2.084c.062.156.218.26.384.26h16.776a.42.42 0 0 0 .425-.426v-2.312a4.15 4.15 0 0 0-.695-2.312 2.355 2.355 0 0 0-.394-.518 3.967 3.967 0 0 0-1.213-.965l-7.403-3.867s-.757-2.82-.943-3.007c-.187-.186-13.396 0-13.396 0l-.56 6.19-.042.519-.56 6.23z"/><path fill="#fff" d="M203.867 728.492h8.243v-.519h-8.201zM209.777 732.328l.228.518h11.717c.134 0 .259-.114.259-.26v-2.446h5.837a2.355 2.355 0 0 0-.394-.518h-5.702a.257.257 0 0 0-.26.259v2.447h-11.685z"/><path d="m164.317 735.442 38.511-65.332 38.522 65.332h2.834l-41.356-70.14-41.345 70.14z"/><path fill="#ffc6b2" d="M244.238 595.892s6.774 37.436 6.494 37.324c-.281-.113-24.807.28-25.031 0s2.693-49.501 2.693-49.501l4.827 1.74 11.017 10.437z"/><path fill="#ff784b" d="M281.096 674.096c0 2.42-.981 4.6-2.573 6.192a8.677 8.677 0 0 1-6.19 2.572h-99.36c-9.702 0-17.55-7.848-17.55-17.528h116.91a8.765 8.765 0 0 1 8.763 8.764zM233.665 665.302h-78.266l-.277-1.082-20.153-79.854c-2.742-10.882 5.478-21.43 16.694-21.43h56.168l25.834 102.366z"/><path d="M247.176 581.501c-.383 1.66-1.718 2.98-3.248 3.737-1.53.756-3.247 1.033-4.94 1.245-7.301.92-14.911.806-21.797-1.799-6.886-2.604-12.982-8-15.122-15.041-2.1-6.926-.139-14.675 4.028-20.584 4.176-5.917 10.337-10.182 16.865-13.308l-1.172-2.742c3.076 1.123 2.468 3.308 3.868 6.27 1.408 2.963 4.8 6.663 3.717 9.756-1.456 4.167-5.12 7.756-4.794 12.16.31 4.118 4.07 7.13 7.871 8.75 3.801 1.619 8.009 2.433 11.362 4.842 2.157 1.546 3.972 4.126 3.362 6.714z"/><path fill="#3cd278" d="M244.95 596.26c-.093-.602-.246-1.22-.403-1.901-3.826-16.533-12.065-25.109-13.728-25.971l-10.413 12.985-3.436 14.887c0 1.007 27.98 1.007 27.98 0z"/><path fill="#1258ff" d="m251.648 629.718-13.094-.892s-17.893-9.94-18.6-9.675c-.707.265-6.628 16.35-6.363 16.614s14.936 16.085 14.936 16.085l-27.492 71.709c0 2.309 19.363 1.823 19.363-.485l43.827-67.333c7.302-10.618.28-25.148-12.577-26.023z"/><path fill="#fff" d="M198.32 664.22v1.082H155.43l-.309-1.082"/><path fill="#ff5252" d="M260.948 734.723a.43.43 0 0 0 .425.467h3.235a.417.417 0 0 0 .415-.374l.394-3.193h1.69l.311.705.228.518.923 2.084c.062.156.218.26.384.26h16.776a.42.42 0 0 0 .425-.426v-2.312a4.15 4.15 0 0 0-.695-2.312 2.354 2.354 0 0 0-.394-.518 3.967 3.967 0 0 0-1.213-.965l-7.403-3.867s-.757-2.82-.944-3.007c-.186-.186-13.396 0-13.396 0l-.56 6.19-.04.519-.56 6.23z"/><path fill="#fff" d="M261.508 728.492h8.243v-.519h-8.201zM267.418 732.328l.228.518h11.716c.135 0 .26-.114.26-.26v-2.446h5.837a2.354 2.354 0 0 0-.394-.518h-5.703a.257.257 0 0 0-.259.259v2.447h-11.685z"/><path fill="#1258ff" d="m225.514 665.296 34.672 57.885 17.973-.324s-14.215-59.652-23.22-77.307a20.474 20.474 0 0 0-12.722-10.411l-28.979-5.736-28.064 1.247c-.352.91-3.755 31.982 10.54 34.646h29.8z"/><path fill="#fff" d="M275.598 715.77c.022.141-1.267.48-3.907.966l-6.734 1.085c-2.656.367-3.987.45-4.01.305-.024-.145 1.267-.481 3.903-.97l6.734-1.084c2.66-.365 3.99-.451 4.014-.302z"/><path d="M192.974 528.785c-4.824 2.473-6.235 10.18-7.362 15.482s-2.237 11.137-6.429 14.576c-5.511 4.521-14.66 3.368-19.076 8.965-1.464 1.856-2.147 4.192-2.798 6.464l-3.261 11.379c-.27.942-.543 1.913-.441 2.888.158 1.514 1.22 2.819 2.51 3.628 1.29.81 2.793 1.197 4.278 1.533 6.472 1.464 13.243 2.161 19.734.785 6.49-1.376 12.699-5.033 16.088-10.737 1.631-2.744 2.564-5.847 4.086-8.653 1.523-2.805 3.87-5.435 6.993-6.09 1.791-.375 3.783-.095 5.343-1.053 1.497-.92 2.17-2.731 2.56-4.445 1.551-6.803.186-14.22-3.685-20.025s-10.195-9.916-17.072-11.098"/><path fill="#3cd278" d="M238.556 628.823c-.895 4.061-51.415 5.786-55.924 1.823-3.044-2.662-9.246-58.333-5.03-64.218.692-.969 6.837-1.685 14.74-1.97h.008c6.61-.244 14.447-.179 21.358.293 8.627.594 15.507 2.059 17.295 3.915 4.346 4.51 2.95 20.12 3.922 33.867.915 12.942 3.892 25.11 3.631 26.29z"/><path fill="#fff" d="m214.321 584.412-21.97-19.954c6.608-.244 14.446-.179 21.357.293.154.008.613 19.66.613 19.66z"/><path fill="#719bff" d="M238.09 629.403h51.275c.907 0 1.712-.585 1.991-1.448l14.544-44.877a2.094 2.094 0 0 0-1.991-2.74H253.99l-15.9 49.065z"/><path fill="#0039b2" d="M233.837 629.403h4.254l15.895-49.065h-2.767a2.04 2.04 0 0 0-1.931 1.41l-15.45 47.655z"/><path fill="#0039b2" d="M211.875 629.403h25.196v-3.387h-21.812a3.384 3.384 0 0 0-3.384 3.387z"/><path fill="#ffc6b2" d="M166.729 618.091c.868 6.651 6.564 11.61 13.27 11.566l33.406-.25s23.666 4.483 23.501-8.17c-.135-10.352-14.866-2.348-15.007-2.478-.13-.141 2.646-1.366.418-3.529-1.008-.978-7.035 2.698-7.035 2.698l-27.559-6.27.423-16.894-24.054 2.256c-.054.315 1.432 11.805 2.637 21.071z"/><path fill="#3cd278" d="M190.87 598.097c-.14 3.874-27.959 2.369-28.195 1.303 0 0 2.206-21.748 2.906-23.482 3.532-8.815 12.298-9.718 12.298-9.718s10.24 1.71 12.99 9.718c1.897 5.519.065 20.413 0 22.18z"/><path fill="#0df3ff" d="M190.718 543.807c.022-.021.022-.043.022-.043v.043h-.022z"/><path fill="#ffc6b2" d="M223.2 552.742c-.524 6.606-11.842 5.67-11.842 5.67l-.104 6.193s-.549 8.119-2.748 8.84c-3.65 1.196-12.364-9.126-12.364-9.126l.004-13.666s-6.322-2.878-5.428-6.846h.022v-.065a5.79 5.79 0 0 1 .349-.894c2.31-4.425 8.59 0 8.59 0v-7.128s4.316-3.772 4.795-3.947c.48-.174 10.596-3.379 11.272-3.379.653 0 7.041 5.407 7.041 5.407s.196 2.921.327 6.67c.109 3.598.347 9.023.086 12.27z"/><path d="M226.035 539.382c-.61 1.09-1.657 1.33-2.921 1.09-4.317-.937-11.14-8.023-11.14-8.023-.175 4.23-10.028 11.206-10.66 11.599-.611.392-1.636-1.2-1.636-1.2s-6.278-4.425-8.59 0a5.79 5.79 0 0 0-.348.894c-.044-.806-.305-8.24 1.177-12.753 1.57-4.796 6.177-7.167 17.114-8.503 10.32-1.26 19.708 12.056 17.004 16.896z"/><path fill="#fff" d="M155.088 577.383h1.001v89.239h-1.001z" transform="rotate(-14.963 155.589 622.003)"/><path fill="#fff" d="M235.91 633.886c.014-.07.81.019 2.398.274l2.974.51c.298.052.608.108.93.166.365.09.663.19 1.017.29.683.218 1.402.49 2.155.82a20.79 20.79 0 0 1 9.175 8.235c.73 1.198 1.242 2.462 1.836 3.7 1.34 2.942 2.317 5.152 2.942 6.633s.9 2.233.833 2.263c-.067.03-.467-.667-1.197-2.097s-1.791-3.595-3.18-6.502c-.59-1.229-1.113-2.51-1.811-3.652a20.12 20.12 0 0 0-8.879-7.97 23.493 23.493 0 0 0-2.07-.84c-.323-.104-.635-.205-.936-.3l-.923-.2-2.944-.664c-1.565-.369-2.335-.591-2.32-.666zM235.206 680c-.12.078-1.237-1.381-3.328-4.443l-5.186-7.865-.765-1.21-.335-.54c-.095-.156-.248-.398-.224-.374l-1.12-.056-.902-.065c-.48-.046-.72-.098-.72-.15 0-.054.24-.104.72-.15l.903-.065.587-.029.824-.027 1.593 2.296 5.187 7.865c1.988 3.13 2.892 4.73 2.766 4.812zM190.97 653.437c-.023-.08.459-.252 1.35-.712a11.395 11.395 0 0 0 3.487-2.782 10.17 10.17 0 0 0 2.251-4.467c.38-1.651.416-3.378.245-5.08-.182-2.015-.5-3.515-.66-4.521-.172-1.006-.226-1.516-.153-1.533.07-.017.257.46.543 1.443.275.986.69 2.476.94 4.544.176 1.755.142 3.554-.26 5.299a10.852 10.852 0 0 1-2.398 4.756c-1.422 1.582-2.87 2.33-3.83 2.705-.975.371-1.499.409-1.514.348zM225.321 716.418c-.01.144-1.63.157-4.888-.018l-8.271-.597c-3.247-.293-4.847-.54-4.837-.686.01-.147 1.63-.156 4.885.016l8.271.596c3.25.297 4.85.54 4.84.69zM226.092 708.747c-.123-.073.799-1.895 2.838-5.476l5.314-9.023c2.14-3.517 3.286-5.207 3.412-5.133.127.075-.798 1.895-2.833 5.474l-5.313 9.024c-2.145 3.519-3.288 5.21-3.418 5.134zM271.983 714.215c-.067.025-.547-1.05-1.433-3.243-.88-2.195-2.162-5.51-3.786-9.98a670.762 670.762 0 0 1-7.702-22.912 331.773 331.773 0 0 1-3.01-10.232c-.618-2.282-.884-3.43-.814-3.45.07-.02.469 1.088 1.197 3.335l3.268 10.145a670.58 670.58 0 0 0 7.695 22.888l3.527 10.066c.777 2.232 1.129 3.356 1.058 3.383z"/><path fill="#253066" d="M211.352 558.662c-.104-.003-2.557-.088-5.4-1.69l.246-.435c2.736 1.54 5.143 1.624 5.167 1.625l-.013.5zM195.723 547.09c-.017.066-.164.108-.446.06-.275-.053-.705-.19-1.145-.617-.706-.737-.887-2.094-.003-2.89.531-.402 1.069-.37 1.353-.262.296.116.368.277.332.33-.056.147-.608-.124-1.247.443-.519.433-.458 1.4.063 1.927.597.687 1.154.842 1.093 1.01z"/><path fill="#fff" d="M216.55 598.324c.029-.073.386.016 1.09.172.705.146 1.77.36 3.205.357 2.429.05 4.855-.697 6.835-2.105 1.187-.802 1.946-1.578 2.447-2.095.496-.524.742-.798.808-.753.056.036-.076.388-.497 1.006-.426.608-1.152 1.492-2.371 2.392a12.128 12.128 0 0 1-7.233 2.227c-1.516-.059-2.614-.382-3.309-.645-.695-.275-1.002-.493-.976-.556zM197.801 599.948c.041-.068.452.126 1.275.482.826.345 2.076.857 3.828 1.217 2.955.665 6.091.455 8.932-.597 1.687-.589 2.858-1.262 3.63-1.713.768-.461 1.15-.708 1.201-.645.042.05-.253.405-.975.976-.725.559-1.889 1.341-3.625 2.014a16.518 16.518 0 0 1-9.308.621c-1.812-.436-3.07-1.057-3.863-1.515-.792-.47-1.13-.783-1.095-.84zM234.189 597.297c-.144-.001-.266-1.072-.312-3.237l.036-5.498c.074-2.161.21-3.23.358-3.23s.266 1.072.315 3.234l-.036 5.499c-.077 2.163-.21 3.233-.361 3.232zM188.146 580.288c-.165.027-.369-1.192-.92-3.55-.438-1.991-1.236-3.93-2.68-5.332a7.506 7.506 0 0 0-2.123-1.553c-.533-.257-.824-.36-.807-.442.01-.062.332-.095.948.067.607.168 1.515.568 2.453 1.448 1.57 1.527 2.415 3.613 2.865 5.664.446 2.457.389 3.679.264 3.698zM190.767 594.768c.143.002.267.404.315 1.214l-.03 2.055c-.072.807-.208 1.204-.355 1.203-.147-.003-.267-.405-.318-1.213l.03-2.055c.075-.808.207-1.206.358-1.204z"/><path fill="#c2d1f2" d="M318.21 737.646h-5.263v-95.283c0-4.244-3.453-7.697-7.698-7.697h-134.07c-4.244 0-7.698 3.453-7.698 7.697v95.283h-5.263v-95.283c0-7.146 5.814-12.96 12.961-12.96h134.07c7.147 0 12.961 5.814 12.961 12.96v95.283z"/><path fill="#1258ff" d="M890.207 529.561s12.169 6.655 17.415 21.324-3.26 18.245-3.26 18.245l-21.603-4.685-8.475-9.616 2.589-14.298 13.334-10.97z"/><path d="M799.103 739.031h35.291v5.868h-35.291zM818.14 723.933l-19.037 15.098h35.291v-15.098z"/><path fill="#fff" d="M816.6 739.283h-17.502a.25.25 0 0 1 0-.5H816.6a.25.25 0 0 1 0 .5zM826.978 743.323c0 .577.056 1.083.183 1.576h.703c0-.028 0-.056-.014-.084a6.287 6.287 0 0 1-.168-1.492c0-1.492.492-2.941 1.393-4.081.056-.071.112-.141.183-.211a6.688 6.688 0 0 1 5.136-2.421v-.704c-2.294 0-4.503 1.084-5.882 2.913-.056.07-.099.14-.155.212-.887 1.21-1.38 2.73-1.38 4.292z"/><path d="M853.107 739.031h35.291v5.868h-35.291zM872.145 723.933l-19.038 15.098h35.291v-15.098z"/><path fill="#fff" d="M870.605 739.283h-17.503a.25.25 0 0 1 0-.5h17.503a.25.25 0 0 1 0 .5zM880.982 743.323c0 .577.056 1.083.183 1.576h.703c0-.028 0-.056-.014-.084a6.287 6.287 0 0 1-.168-1.492c0-1.492.492-2.941 1.393-4.081.056-.071.113-.141.183-.211a6.688 6.688 0 0 1 5.136-2.421v-.704c-2.293 0-4.503 1.084-5.882 2.913-.056.07-.099.14-.155.212-.887 1.21-1.379 2.73-1.379 4.292z"/><path fill="#0039b2" d="M891.572 726.195c-3.626 5.583-29.284 2.995-30.952.34-.237-.38-.657-5.149-1.17-12.296a555.228 555.228 0 0 1-.236-3.298c-1.747-25.434-4.283-78.86-4.283-78.86s-7.66 53.216-12.586 78.44c-.21 1.051-.407 2.062-.604 3.035-1.458 7.226-2.601 12.034-3.14 12.35-6.543 3.901-23.543 2.036-26.906.354-.526-.263-.473-3.416.013-8.552.066-.828.158-1.709.25-2.628 3.153-30.164 16.934-116.737 16.934-116.737s55.165-4.926 57.399.789"/><path fill="#fff" d="M832.043 716.616c.043.106-1.065.744-3.556 1.21-2.114.329-4.277.34-6.395.035-2.493-.439-3.609-1.063-3.565-1.174.052-.166 1.232.205 3.66.508 2.052.297 4.15.285 6.198-.034 2.427-.33 3.602-.714 3.658-.545zM884.53 715.258c.03.127-1.402.66-4.415 1.362-2.564.53-5.188.911-7.836.848-3.133-.155-4.578-.853-4.539-.95.045-.183 1.52.25 4.554.278 2.572.061 5.148-.31 7.685-.834 3.01-.576 4.514-.863 4.551-.704zM885.8 617.874c-.036.054-.463-.125-1.218-.659-.748-.535-1.83-1.446-2.938-2.958-1.838-2.592-2.763-5.8-2.653-8.966.09-1.87.496-3.226.828-4.084.34-.86.61-1.24.666-1.215.078.034-.063.466-.284 1.337a16.945 16.945 0 0 0-.538 3.982c-.104 3.03.777 6.084 2.532 8.56a17.328 17.328 0 0 0 2.64 3.034c.662.608 1.01.901.965.97zM826.967 614.763c-.042-.064.256-.326.84-.846.578-.526 1.45-1.315 2.415-2.537 1.674-2.036 2.774-4.528 3.202-7.13.275-1.531.3-2.705.308-3.485.009-.782-.002-1.178.081-1.19.062-.01.21.368.319 1.164.108.793.181 2.012-.044 3.621-.446 2.713-1.595 5.317-3.345 7.446-1.057 1.237-2.027 1.982-2.69 2.428-.672.44-1.048.588-1.086.529zM853.46 610.093c.066.032-.116.534-.53 1.513-.4.983-1.082 2.431-1.698 4.446-.533 1.697-.816 3.477-.645 5.228a10.792 10.792 0 0 0 1.765 4.914c.553.878 1.2 1.518 1.719 2.16.522.632.866 1.276.995 1.826.26 1.133-.165 1.668-.197 1.623-.095-.021.152-.55-.186-1.506-.17-.474-.506-1.006-1.036-1.58-.517-.573-1.237-1.23-1.854-2.15a11.462 11.462 0 0 1-1.875-5.221c-.182-1.866.12-3.74.673-5.495.696-2.064 1.471-3.482 1.979-4.42.52-.933.824-1.372.89-1.338zM818.673 692.905c-.141-.025.707-5.557 2.62-16.707l5.013-28.31c2.03-11.117 3.132-16.604 3.277-16.578.145.026-.706 5.557-2.615 16.696l-5.012 28.31c-2.035 11.128-3.134 16.615-3.283 16.589zM883.483 693.045c-.144.002-.353-4.855-.575-14.68l-.41-24.97c-.102-9.818-.052-14.679.095-14.68.147-.003.353 4.854.577 14.669l.411 24.97c.098 9.827.052 14.688-.098 14.69z"/><path fill="#1258ff" d="M890.75 530.355c-1.3-5.147-51.482-10.03-62.969 1.775-3.674 3.776-2.479 72.662-2.479 72.662 0 2.958 67.246.74 67.246-2.218 0 0 1.15-60.55-1.797-72.219z"/><path fill="#3cd278" d="m882.759 559.838 31.746-6.396 32.836 161.008-31.747 6.396z"/><path fill="#ffc6b2" d="m915.592 720.846 31.747-6.396-10.015 32.26z"/><path d="m932.18 740.587 5.144 6.123 2.37-7.637z"/><path d="m937.324 746.71 10.015-32.26-6.882 1.387-3.134 30.872z" opacity=".05"/><path fill="#fff" d="m937.32 746.705-14.846-27.245-6.882 1.386z" opacity=".1"/><path fill="#ffc6b2" d="M937.323 746.71v-.001l-.003-.004z"/><path d="m947.34 714.45-6.883 1.387-32.835-161.007 6.882-1.386z" opacity=".05"/><path fill="#fff" d="M915.592 720.846 882.757 559.84l6.883-1.387 32.835 161.007z" opacity=".1"/><path fill="#ffc837" d="m882.759 559.838 31.746-6.396-2.976-14.775a5.119 5.119 0 0 0-6.029-4.007l-21.711 4.374a5.119 5.119 0 0 0-4.007 6.029l2.977 14.775z"/><path d="m907.337 534.29-3.703.746 3.988 19.793 6.882-1.387-3.347-16.613a3.243 3.243 0 0 0-3.82-2.539z" opacity=".05"/><path fill="#fff" d="m879.41 543.225 3.347 16.613 6.882-1.386-3.987-19.793-3.703.746a3.243 3.243 0 0 0-2.54 3.82z" opacity=".1"/><path fill="#ffc6b2" d="m823.641 572.024 1.963-5.21-17.86-13.372s-10.192 10.41-10.025 13.37l25.922 5.212z"/><path fill="#1258ff" d="M828.937 531.051c-8.874 5.496-16.27 14.289-23.974 22.391-1.875 3.055 20.487 16.78 22.362 13.725l5.024-27.683-3.412-8.433z"/><path fill="#ffc6b2" d="m835.084 592.224-6.885 9.321s-29.903-24.541-30.484-34.73l25.922 5.208 11.447 20.2zM927.288 613.206c-3.25.782-6.799-2.393-7.928-7.09s.59-9.137 3.84-9.918c3.248-.781 7.338 16.227 4.088 17.008zM848.338 525.335l-.548-4.777s-8.367 2.17-9.762-1.782c-1.394-3.951-4.106-23.088 2.79-26.497 6.895-3.41 20.84.93 20.84.93l3.1 13.016-1.317 18.609-13.623 9.474-1.48-8.973z"/><path d="M863.87 515.172s.633-7.649-1.552-7.994-3.623 2.358-3.623 2.358-1.783-3.508-1.38-4.83c.402-1.323-20.933 5.175-24.441-.92-3.509-6.097-1.61-20.186 4.083-20.934 5.693-.747 13.169 5.29 18.46 4.37 5.29-.92 10.409-1.034 13.17 6.212 2.76 7.246-4.717 21.738-4.717 21.738z"/><path fill="#ffc6b2" d="M843.032 605.744c-6.161 5.59-14.833-4.199-14.833-4.199l6.885-9.323s5.466.447 5.352 2.39c-.105 1.943-1.838 1.762-1.838 1.762s10.595 3.77 4.434 9.37z"/><path fill="#fff" d="M827.399 542.952c.182.083-.88 2-1.971 6.197a32.26 32.26 0 0 0-.978 10.908c.328 4.32 1.031 6.394.834 6.445-.068.02-.281-.482-.608-1.53a27.072 27.072 0 0 1-.896-4.861 32.936 32.936 0 0 1 .998-11.134 27.028 27.028 0 0 1 1.747-4.63c.509-.972.809-1.427.874-1.395zM865.052 529.299c.04.055-.529.56-1.746 1.478-1.217.919-3.082 2.252-5.66 3.913a149.242 149.242 0 0 1-4.894 2.95l-2.488 1.405-3.03 1.63.04-1.035.017-.58c.004-.341.009-.683-.001-1.025a30.518 30.518 0 0 0-.104-2.047c-.246-3.017-.821-5.224-1.231-6.675-.423-1.451-.676-2.167-.6-2.198.06-.025.44.638.98 2.073.527 1.434 1.208 3.66 1.52 6.741.055.697.1 1.395.107 2.095.01.35.005.699 0 1.049l-.011.458 1.988-1.076 2.477-1.397a148.994 148.994 0 0 0 4.872-2.937c2.598-1.602 4.51-2.852 5.789-3.673 1.28-.82 1.93-1.213 1.975-1.15z"/><path fill="#9bb2e1" d="M319.098 506.219h-.004c-1.989-.015-4.015-.09-6.024-.225a.5.5 0 0 1-.466-.532.518.518 0 0 1 .533-.466c1.989.133 3.996.208 5.965.223a.5.5 0 0 1-.004 1zm5.997-.137a.5.5 0 0 1-.028-1c1.99-.107 3.99-.278 5.946-.508a.5.5 0 1 1 .117.993 95.752 95.752 0 0 1-6.035.515zm-17.962-.66a.477.477 0 0 1-.063-.004c-1.975-.246-3.98-.552-5.957-.911a.5.5 0 1 1 .178-.984c1.96.355 3.945.66 5.902.903a.5.5 0 0 1-.06.996zm29.87-.745a.499.499 0 0 1-.089-.992c1.956-.36 3.916-.79 5.827-1.277a.499.499 0 1 1 .246.969 90.31 90.31 0 0 1-5.891 1.291.497.497 0 0 1-.092.009zm-41.674-1.39a.501.501 0 0 1-.115-.014 116.459 116.459 0 0 1-5.824-1.543.5.5 0 1 1 .28-.96 115.37 115.37 0 0 0 5.774 1.53.5.5 0 0 1-.115.987zm53.294-1.573a.5.5 0 0 1-.156-.975 86.885 86.885 0 0 0 5.597-2.06.5.5 0 0 1 .377.926 87.58 87.58 0 0 1-5.662 2.084.498.498 0 0 1-.156.025zm-64.807-1.796a.5.5 0 0 1-.165-.027 122.672 122.672 0 0 1-5.636-2.125.5.5 0 0 1 .375-.926c1.846.748 3.727 1.456 5.591 2.106a.499.499 0 0 1-.165.972zm-11.117-4.503a.5.5 0 0 1-.21-.046 125.707 125.707 0 0 1-5.403-2.662.5.5 0 1 1 .463-.886 125.7 125.7 0 0 0 5.36 2.64.5.5 0 0 1-.21.954zm-10.633-5.555a.496.496 0 0 1-.25-.069 127.197 127.197 0 0 1-5.128-3.163.5.5 0 0 1 .545-.838 127.387 127.387 0 0 0 5.086 3.138.5.5 0 0 1-.253.932zm-10.056-6.54a.497.497 0 0 1-.292-.094 126.601 126.601 0 0 1-4.804-3.635.5.5 0 0 1 .623-.782 125.857 125.857 0 0 0 4.765 3.605.5.5 0 0 1-.292.906zm-9.389-7.466a.5.5 0 0 1-.33-.124 122.861 122.861 0 0 1-4.43-4.082.5.5 0 1 1 .696-.718 121.224 121.224 0 0 0 4.394 4.048.5.5 0 0 1-.33.876zm-8.62-8.343a.499.499 0 0 1-.364-.159l-.288-.308a144.284 144.284 0 0 1-3.73-4.182.5.5 0 0 1 .759-.65 143.161 143.161 0 0 0 3.703 4.15l.286.307a.5.5 0 0 1-.365.842zm-7.812-9.112a.499.499 0 0 1-.392-.19 149.01 149.01 0 0 1-3.627-4.806.5.5 0 1 1 .81-.586 150.433 150.433 0 0 0 3.602 4.773.5.5 0 0 1-.393.81zm-7.03-9.72a.498.498 0 0 1-.417-.223 159.026 159.026 0 0 1-3.234-5.075.5.5 0 0 1 .853-.521 160.635 160.635 0 0 0 3.213 5.043.5.5 0 0 1-.416.776zm-6.254-10.235a.5.5 0 0 1-.437-.256 168.166 168.166 0 0 1-2.847-5.3.499.499 0 1 1 .889-.457c.91 1.77 1.863 3.543 2.83 5.268a.5.5 0 0 1-.435.745zm-5.49-10.664a.5.5 0 0 1-.452-.287 182.446 182.446 0 0 1-2.474-5.481.5.5 0 1 1 .918-.396 183.48 183.48 0 0 0 2.46 5.45.5.5 0 0 1-.452.714zm-4.756-11.01a.5.5 0 0 1-.465-.317 198.11 198.11 0 0 1-2.119-5.627.5.5 0 0 1 .942-.338 196.238 196.238 0 0 0 2.107 5.598.5.5 0 0 1-.465.684zm-4.055-11.288a.5.5 0 0 1-.475-.345c-.61-1.87-1.21-3.802-1.781-5.742a.5.5 0 0 1 .959-.283c.57 1.931 1.167 3.854 1.773 5.715a.5.5 0 0 1-.476.655zm-3.394-11.505a.5.5 0 0 1-.483-.372 223.677 223.677 0 0 1-1.464-5.831.5.5 0 0 1 .972-.23c.456 1.925.947 3.878 1.458 5.805a.5.5 0 0 1-.483.628zm-2.77-11.673a.5.5 0 0 1-.49-.397c-.408-1.936-.8-3.92-1.166-5.898a.5.5 0 1 1 .983-.182c.365 1.97.755 3.946 1.162 5.874a.5.5 0 0 1-.49.603zm673.279-10.868a.5.5 0 0 1-.004-1c1.998-.015 3.995-.044 5.993-.089h.01a.5.5 0 0 1 .011 1c-2.001.044-4.004.074-6.006.09h-.004zm-6 0h-.004a401.968 401.968 0 0 1-6.006-.09.5.5 0 1 1 .022-1c1.997.045 3.994.075 5.992.09a.5.5 0 0 1-.004 1zm17.996-.268a.501.501 0 0 1-.019-1c1.996-.074 3.992-.163 5.987-.268a.5.5 0 0 1 .052.999 401.54 401.54 0 0 1-6.02.27zm-29.992-.001a.5.5 0 0 1 0 0zm41.975-.625a.5.5 0 0 1-.033-1c1.992-.134 3.984-.282 5.976-.446a.5.5 0 1 1 .082.997 399.85 399.85 0 0 1-6.025.449zm-53.957-.003-.034-.001a399.536 399.536 0 0 1-5.991-.45.5.5 0 0 1-.457-.539.514.514 0 0 1 .539-.457c1.991.164 3.982.314 5.975.448a.5.5 0 0 1-.032.999zm-645.49-.034a.499.499 0 0 1-.491-.42 261.823 261.823 0 0 1-.887-5.948.5.5 0 1 1 .99-.136c.272 1.971.569 3.964.884 5.925a.501.501 0 0 1-.495.579zm711.406-.948a.5.5 0 0 1-.048-.998c1.989-.194 3.975-.402 5.96-.626.26-.03.52.166.553.44a.5.5 0 0 1-.441.554c-1.99.224-3.982.433-5.974.627a.523.523 0 0 1-.05.003zm-77.875-.005c-.016 0-.033 0-.05-.002a397.019 397.019 0 0 1-5.973-.629.501.501 0 0 1-.442-.553c.032-.275.3-.47.553-.44 1.985.223 3.972.432 5.96.626a.5.5 0 0 1-.048.998zm89.8-1.339a.5.5 0 0 1-.063-.996c1.981-.253 3.961-.521 5.938-.805a.5.5 0 0 1 .143.99c-1.983.284-3.968.553-5.954.807a.52.52 0 0 1-.065.004zm-101.724-.006a.52.52 0 0 1-.064-.004c-1.987-.255-3.97-.524-5.953-.809a.5.5 0 1 1 .142-.99c1.977.284 3.956.553 5.938.807a.5.5 0 0 1-.063.996zm113.602-1.696a.5.5 0 0 1-.077-.994c1.972-.313 3.943-.64 5.91-.984a.5.5 0 0 1 .172.985c-1.973.344-3.947.673-5.926.987a.494.494 0 0 1-.079.006zm-125.48-.008a.508.508 0 0 1-.08-.007 392.845 392.845 0 0 1-5.925-.988.5.5 0 1 1 .171-.985c1.967.343 3.938.672 5.91.986a.5.5 0 0 1-.077.994zm137.302-2.053a.5.5 0 0 1-.093-.99c1.963-.374 3.922-.762 5.88-1.164a.5.5 0 0 1 .201.98c-1.961.403-3.926.792-5.893 1.166a.516.516 0 0 1-.095.008zm-149.123-.01a.516.516 0 0 1-.095-.01 394.703 394.703 0 0 1-5.892-1.168.5.5 0 1 1 .201-.979c1.957.403 3.916.791 5.879 1.165a.5.5 0 0 1-.093.991zm160.876-2.41a.5.5 0 0 1-.107-.988c1.949-.432 3.896-.88 5.84-1.343a.5.5 0 0 1 .232.973c-1.95.464-3.901.913-5.855 1.347a.505.505 0 0 1-.11.012zm-172.629-.013a.503.503 0 0 1-.108-.012 392.151 392.151 0 0 1-5.855-1.348.5.5 0 1 1 .233-.973c1.942.463 3.89.911 5.839 1.344a.5.5 0 0 1-.109.989zm184.303-2.765a.5.5 0 0 1-.123-.985c1.935-.492 3.868-1 5.795-1.522a.5.5 0 1 1 .262.965c-1.933.524-3.87 1.033-5.811 1.526a.5.5 0 0 1-.123.016zm-195.974-.017a.494.494 0 0 1-.123-.016 386.422 386.422 0 0 1-5.811-1.527.5.5 0 0 1 .262-.965c1.927.522 3.86 1.03 5.795 1.523a.5.5 0 0 1-.123.985zm-576.118-.621a.5.5 0 0 1-.496-.443 281.945 281.945 0 0 1-.62-5.982.5.5 0 0 1 .996-.093c.184 1.987.39 3.974.618 5.96a.5.5 0 0 1-.498.558zm783.673-2.5a.5.5 0 0 1-.139-.98c1.92-.553 3.835-1.12 5.747-1.702a.5.5 0 1 1 .291.957 386.52 386.52 0 0 1-5.76 1.705.504.504 0 0 1-.139.02zm-219.137-.02a.504.504 0 0 1-.138-.02 385.931 385.931 0 0 1-5.76-1.707.5.5 0 0 1 .29-.957c1.912.583 3.827 1.15 5.747 1.703a.5.5 0 0 1-.139.98zm230.617-3.476a.5.5 0 0 1-.154-.976 381.827 381.827 0 0 0 5.69-1.88.5.5 0 1 1 .32.947 382.266 382.266 0 0 1-5.703 1.885.5.5 0 0 1-.153.024zm-242.094-.024a.5.5 0 0 1-.154-.025 378.78 378.78 0 0 1-5.704-1.887.5.5 0 0 1 .323-.947c1.89.643 3.787 1.27 5.688 1.883a.5.5 0 0 1-.153.976zm253.457-3.831a.5.5 0 0 1-.168-.971c1.88-.672 3.757-1.358 5.627-2.06a.5.5 0 0 1 .351.937 380.05 380.05 0 0 1-5.642 2.065.5.5 0 0 1-.168.029zm-264.819-.028a.5.5 0 0 1-.168-.03 377.428 377.428 0 0 1-5.642-2.066.499.499 0 1 1 .351-.936 376.7 376.7 0 0 0 5.627 2.06.5.5 0 0 1-.168.972zm-542.807-2.075a.5.5 0 0 1-.5-.464l-.081-1.186a280.458 280.458 0 0 1-.285-4.813.5.5 0 0 1 .473-.524.49.49 0 0 1 .525.474c.08 1.6.176 3.2.285 4.796l.082 1.182a.5.5 0 0 1-.5.535zm818.86-2.11a.5.5 0 0 1-.182-.965c1.858-.731 3.711-1.477 5.558-2.237a.5.5 0 0 1 .38.925c-1.852.762-3.709 1.51-5.573 2.243a.498.498 0 0 1-.183.034zm-287.289-.033a.5.5 0 0 1-.183-.034 378.884 378.884 0 0 1-5.573-2.246.5.5 0 1 1 .381-.925c1.848.762 3.7 1.508 5.559 2.24a.5.5 0 0 1-.184.965zm298.384-4.536a.5.5 0 0 1-.198-.96 369.43 369.43 0 0 0 3.883-1.699.5.5 0 0 1 .407.914 392.982 392.982 0 0 1-3.894 1.704.501.501 0 0 1-.198.041zm-309.478-.038a.5.5 0 0 1-.198-.041 369.939 369.939 0 0 1-5.498-2.423.5.5 0 1 1 .41-.912 419.223 419.223 0 0 0 5.485 2.417.5.5 0 0 1-.199.959zm-10.942-4.922a.499.499 0 0 1-.212-.047c-1.813-.848-3.62-1.71-5.42-2.583a.5.5 0 1 1 .436-.9c1.796.872 3.598 1.73 5.408 2.577a.5.5 0 0 1-.212.953zm-510.144-.344a.5.5 0 0 1-.5-.485 267.78 267.78 0 0 1-.108-6.01.5.5 0 0 1 .497-.504c.23.015.501.22.503.497.014 1.988.05 4.003.108 5.987a.5.5 0 0 1-.485.515h-.015zm499.351-4.89a.5.5 0 0 1-.225-.052 474.288 474.288 0 0 1-5.348-2.728.5.5 0 1 1 .459-.888c1.773.919 3.553 1.826 5.339 2.722a.501.501 0 0 1-.225.947zm-10.653-5.515a.498.498 0 0 1-.236-.059 519.269 519.269 0 0 1-5.282-2.856.5.5 0 1 1 .48-.877c1.753.96 3.51 1.911 5.273 2.851a.5.5 0 0 1-.235.941zm-488.772-1.594h-.009a.5.5 0 0 1-.49-.509c.036-2.021.098-4.043.184-6.01a.488.488 0 0 1 .52-.478c.277.012.49.245.478.521a236.796 236.796 0 0 0-.183 5.985.5.5 0 0 1-.5.491zm478.247-4.172a.498.498 0 0 1-.245-.065 571.949 571.949 0 0 1-5.219-2.97.5.5 0 1 1 .5-.867c1.73.998 3.467 1.986 5.21 2.966a.5.5 0 0 1-.246.936zm-10.4-5.988a.5.5 0 0 1-.254-.069 705.802 705.802 0 0 1-5.161-3.069.5.5 0 1 1 .515-.857 668.606 668.606 0 0 0 5.154 3.065.5.5 0 0 1-.254.93zm-467.32-1.828a.5.5 0 0 1-.5-.535c.144-2.028.316-4.044.511-5.994a.507.507 0 0 1 .547-.448.5.5 0 0 1 .447.548 205.62 205.62 0 0 0-.507 5.964.5.5 0 0 1-.498.465zm457.029-4.349a.495.495 0 0 1-.26-.074 834.4 834.4 0 0 1-5.11-3.153.5.5 0 1 1 .527-.849c1.698 1.057 3.4 2.106 5.104 3.15a.5.5 0 0 1-.261.926zm-10.192-6.339a.494.494 0 0 1-.266-.077 914.273 914.273 0 0 1-5.067-3.223.5.5 0 1 1 .54-.842 926.743 926.743 0 0 0 5.06 3.22.5.5 0 0 1-.267.922zm-445.642-1.252a.5.5 0 0 1-.497-.565c.262-2.003.556-4.006.875-5.952a.5.5 0 1 1 .986.161 188.794 188.794 0 0 0-.869 5.92.5.5 0 0 1-.495.436zm435.534-5.22a.499.499 0 0 1-.272-.08 1340.404 1340.404 0 0 1-5.03-3.279.5.5 0 0 1 .55-.836 1220.91 1220.91 0 0 0 5.025 3.276.501.501 0 0 1-.273.92zm-10.04-6.577a.496.496 0 0 1-.275-.083c-1.67-1.104-3.335-2.21-5.001-3.32a.5.5 0 0 1 .554-.833c1.664 1.11 3.33 2.216 4.997 3.319a.5.5 0 0 1-.275.917zm-423.553-.044a.5.5 0 0 1-.491-.598c.394-1.98.823-3.958 1.277-5.88a.5.5 0 1 1 .973.23c-.45 1.91-.878 3.877-1.27 5.846a.5.5 0 0 1-.489.402zm413.566-6.611a.495.495 0 0 1-.279-.085 2590.649 2590.649 0 0 1-4.98-3.35.5.5 0 1 1 .559-.83c1.659 1.119 3.319 2.235 4.978 3.35a.5.5 0 0 1-.278.915zm-410.803-5.064a.5.5 0 0 1-.481-.633 150.932 150.932 0 0 1 1.717-5.77.5.5 0 0 1 .953.305c-.6 1.871-1.173 3.8-1.708 5.731a.499.499 0 0 1-.481.367zm400.85-1.644a.499.499 0 0 1-.28-.086l-4.967-3.366a.5.5 0 0 1 .56-.827l4.968 3.365a.5.5 0 0 1-.28.914zm-9.933-6.735a.497.497 0 0 1-.281-.086l-4.963-3.369a.5.5 0 0 1 .56-.828l4.965 3.37a.5.5 0 0 1-.281.913zm-387.26-3.046a.5.5 0 0 1-.47-.672 142.897 142.897 0 0 1 2.19-5.607.5.5 0 0 1 .925.383 141.029 141.029 0 0 0-2.175 5.568.5.5 0 0 1-.47.328zm377.327-3.689a.498.498 0 0 1-.279-.086l-4.969-3.36a.499.499 0 1 1 .559-.829l4.97 3.361a.5.5 0 0 1-.28.914zm-9.944-6.71a.494.494 0 0 1-.278-.086 2445.315 2445.315 0 0 0-4.985-3.337.5.5 0 0 1 .555-.832c1.664 1.11 3.325 2.224 4.986 3.339a.5.5 0 0 1-.278.915zm-362.773-.674a.5.5 0 0 1-.452-.713c.748-1.595 1.54-3.195 2.352-4.756l.333-.635a.5.5 0 1 1 .883.47l-.33.626c-.805 1.55-1.59 3.138-2.334 4.72a.5.5 0 0 1-.452.288zm352.794-5.988a.498.498 0 0 1-.277-.083 1593.497 1593.497 0 0 0-5.006-3.302.5.5 0 0 1 .55-.836c1.671 1.098 3.34 2.2 5.009 3.304a.5.5 0 0 1-.276.917zm-347.195-4.616a.5.5 0 0 1-.43-.754 125.444 125.444 0 0 1 3.194-5.119.501.501 0 0 1 .836.55 123.603 123.603 0 0 0-3.168 5.078.5.5 0 0 1-.432.245zm337.163-1.968a.497.497 0 0 1-.271-.081l-1.888-1.224c-1.049-.678-2.099-1.355-3.15-2.03a.5.5 0 1 1 .54-.841c1.053.675 2.102 1.352 3.153 2.031l1.89 1.226a.5.5 0 0 1-.274.919zm-10.102-6.481a.498.498 0 0 1-.267-.078 892.08 892.08 0 0 0-5.084-3.19.5.5 0 0 1 .53-.849 894.122 894.122 0 0 1 5.09 3.194.5.5 0 0 1-.27.923zm-320.464-1.588a.5.5 0 0 1-.404-.794c1.17-1.61 2.4-3.222 3.656-4.79a.501.501 0 0 1 .781.626 128.618 128.618 0 0 0-3.629 4.752.499.499 0 0 1-.404.206zm310.267-4.758a.496.496 0 0 1-.26-.073 753.072 753.072 0 0 0-5.131-3.11.5.5 0 1 1 .515-.858 764.89 764.89 0 0 1 5.137 3.115.5.5 0 0 1-.26.926zm-302.767-4.609a.501.501 0 0 1-.376-.83 135.893 135.893 0 0 1 4.074-4.432.5.5 0 0 1 .72.693 135.326 135.326 0 0 0-4.042 4.4.5.5 0 0 1-.376.17zm292.475-1.571a.5.5 0 0 1-.254-.07 640.618 640.618 0 0 0-5.183-3.018.5.5 0 1 1 .5-.867c1.734 1 3.464 2.008 5.19 3.024a.5.5 0 0 1-.254.93zm-10.4-5.992a.494.494 0 0 1-.246-.065 561.688 561.688 0 0 0-5.24-2.914.5.5 0 0 1 .482-.876c1.755.963 3.505 1.937 5.248 2.92a.5.5 0 0 1-.245.935zm-273.765-1.084a.5.5 0 0 1-.344-.861 143.057 143.057 0 0 1 4.442-4.057.5.5 0 1 1 .658.752 142.625 142.625 0 0 0-4.41 4.028.497.497 0 0 1-.346.138zm263.247-4.693a.5.5 0 0 1-.237-.059 512.804 512.804 0 0 0-5.3-2.797.5.5 0 1 1 .461-.887c1.776.923 3.546 1.858 5.312 2.802a.5.5 0 0 1-.236.941zm-254.228-3.202a.5.5 0 0 1-.314-.89 150.52 150.52 0 0 1 4.761-3.672.501.501 0 0 1 .596.804 149.082 149.082 0 0 0-4.73 3.648.5.5 0 0 1-.313.11zm243.584-2.333a.5.5 0 0 1-.226-.054 460.43 460.43 0 0 0-5.366-2.664.5.5 0 0 1 .44-.899c1.797.878 3.59 1.769 5.378 2.67a.5.5 0 0 1-.226.947zm-233.951-4.796a.5.5 0 0 1-.281-.913 158.88 158.88 0 0 1 5.033-3.287.5.5 0 1 1 .531.847 157.75 157.75 0 0 0-5.002 3.266.497.497 0 0 1-.281.087zm223.173-.468a.494.494 0 0 1-.213-.047 429.654 429.654 0 0 0-5.436-2.518.5.5 0 0 1 .414-.91c1.82.827 3.636 1.669 5.448 2.523a.5.5 0 0 1-.213.952zm-10.918-4.962a.499.499 0 0 1-.2-.042c-1.83-.799-3.667-1.584-5.507-2.354a.5.5 0 0 1 .386-.923c1.845.772 3.685 1.56 5.52 2.361a.5.5 0 0 1-.2.958zm-202.1-.932a.5.5 0 0 1-.25-.933c1.725-.994 3.495-1.971 5.262-2.904a.501.501 0 0 1 .467.884 164.078 164.078 0 0 0-5.23 2.886.5.5 0 0 1-.25.067zM449.366 189a.497.497 0 0 1-.185-.036 351.073 351.073 0 0 0-5.58-2.174.5.5 0 0 1 .356-.935c1.87.71 3.734 1.438 5.595 2.18a.5.5 0 0 1-.186.965zm-180.445-1.906a.5.5 0 0 1-.218-.95 177.113 177.113 0 0 1 5.454-2.525.5.5 0 0 1 .404.914 175.376 175.376 0 0 0-5.422 2.511.5.5 0 0 1-.218.05zm169.233-2.352a.497.497 0 0 1-.169-.03 324.35 324.35 0 0 0-5.652-1.975.5.5 0 0 1 .321-.947c1.896.643 3.784 1.304 5.67 1.982a.5.5 0 0 1-.17.97zm-158.272-2.498a.5.5 0 0 1-.187-.964c1.842-.741 3.73-1.466 5.612-2.153a.5.5 0 1 1 .343.94 183.15 183.15 0 0 0-5.582 2.14.494.494 0 0 1-.186.037zm146.916-1.353a.494.494 0 0 1-.152-.024 302.993 302.993 0 0 0-5.723-1.759.5.5 0 0 1 .285-.958c1.919.569 3.833 1.157 5.741 1.764a.5.5 0 0 1-.151.977zm-135.655-2.757a.5.5 0 0 1-.157-.976c1.89-.62 3.823-1.222 5.741-1.785a.5.5 0 1 1 .282.959c-1.908.56-3.83 1.159-5.71 1.777a.501.501 0 0 1-.156.025zm124.158-.651a.495.495 0 0 1-.132-.018 281.974 281.974 0 0 0-5.791-1.523.501.501 0 0 1 .244-.97 283.1 283.1 0 0 1 5.81 1.528.5.5 0 0 1-.131.983zm-112.654-2.731a.5.5 0 0 1-.126-.984c1.925-.501 3.891-.98 5.844-1.424a.5.5 0 0 1 .222.975 193.68 193.68 0 0 0-5.814 1.417.501.501 0 0 1-.126.016zm101.02-.195a.5.5 0 0 1-.111-.013c-1.95-.445-3.918-.872-5.853-1.268a.5.5 0 0 1 .201-.98c1.942.398 3.918.826 5.874 1.273a.5.5 0 0 1-.111.988zm-11.754-2.407a.508.508 0 0 1-.09-.008c-1.963-.355-3.95-.69-5.906-.995a.5.5 0 0 1 .154-.988c1.964.307 3.96.643 5.93.999a.5.5 0 0 1-.088.992zm-77.57-.059a.5.5 0 0 1-.095-.99c1.959-.384 3.951-.742 5.92-1.065a.5.5 0 0 1 .162.987 198.4 198.4 0 0 0-5.89 1.059.499.499 0 0 1-.097.009zm65.71-1.792a.505.505 0 0 1-.066-.004c-1.98-.26-3.981-.497-5.949-.705a.5.5 0 0 1 .106-.994c1.975.209 3.985.447 5.974.707a.5.5 0 0 1-.064.996zm-53.868-.152a.501.501 0 0 1-.065-.995c1.982-.265 3.992-.502 5.978-.705a.5.5 0 1 1 .101.995c-1.974.202-3.975.438-5.946.7a.5.5 0 0 1-.068.005zm41.925-1.11h-.04a192.12 192.12 0 0 0-5.976-.391.5.5 0 1 1 .051-1 191.849 191.849 0 0 1 6.005.393.5.5 0 0 1-.04.999zm-29.982-.116a.501.501 0 0 1-.036-1 200.33 200.33 0 0 1 6.01-.343.5.5 0 1 1 .042 1 199.122 199.122 0 0 0-6.016.343zm17.996-.482h-.01a195.52 195.52 0 0 0-5.984-.022h-.006a.5.5 0 0 1-.006-1 195.59 195.59 0 0 1 6.016.022.5.5 0 0 1-.01 1z"/><circle cx="282.462" cy="188.456" r="35.167" fill="#719bff"/><path d="M308.642 190.841v.27c0 .45-.135.866-.382 1.226-.248.348-.585.629-1.023.854l-13.084 5.856c-.191.09-.427.135-.686.135-.472 0-.899-.169-1.236-.495-.326-.325-.495-.741-.495-1.236 0-.337.101-.663.315-.967a1.89 1.89 0 0 1 .832-.663l10.903-4.845-10.914-4.856a1.778 1.778 0 0 1-.81-.64 1.646 1.646 0 0 1-.326-.978c0-.495.169-.922.506-1.237.304-.326.73-.494 1.225-.494.259 0 .495.045.697.135l13.05 5.856c.461.225.798.506 1.046.843.247.37.382.787.382 1.236zM273.403 186.132l-10.892 4.844 10.903 4.856c.315.113.585.326.81.64.224.293.325.62.325.979 0 .495-.168.91-.505 1.236a1.697 1.697 0 0 1-1.225.495c-.225 0-.461-.045-.675-.124l-13.061-5.867c-.472-.225-.81-.495-1.057-.843a2.2 2.2 0 0 1-.382-1.237v-.27c0-.45.135-.865.382-1.225.247-.36.585-.63 1.045-.854l13.062-5.856c.72-.293 1.45-.124 1.922.37.326.304.494.731.494 1.226 0 .36-.1.685-.325.978a1.791 1.791 0 0 1-.821.652zM288.78 175.768c.326.337.483.753.483 1.237 0 .202-.045.404-.1.606l-8.69 25.37c-.09.315-.28.607-.573.855a1.779 1.779 0 0 1-1.09.348c-.506 0-.945-.18-1.27-.517-.326-.337-.484-.753-.484-1.237 0-.168.034-.37.101-.618l8.678-25.37a1.83 1.83 0 0 1 .584-.842c.72-.54 1.765-.45 2.361.168z" opacity=".15"/><path fill="#0039b2" d="M776.97 253.087v439.3c0 6.22-5.03 11.25-11.25 11.25H356.27c-6.21 0-11.25-5.03-11.25-11.25v-439.3c0-6.22 5.04-11.25 11.25-11.25h409.45c6.22 0 11.25 5.03 11.25 11.25z"/><path fill="#fff" d="M350.482 690.537V278.596a7.639 7.639 0 0 1 7.639-7.639h405.755a7.639 7.639 0 0 1 7.639 7.639v411.941a7.639 7.639 0 0 1-7.639 7.639H358.121a7.639 7.639 0 0 1-7.639-7.639z"/><path d="M645.8 601.97v15.99c0 3.11-2.52 5.62-5.62 5.62H504.69a5.61 5.61 0 01-5.61-5.62v-15.99a5.61 5.61 0 015.61-5.62h135.49c3.1 0 5.62 2.51 5.62 5.62zM566.65 670.41v4.17c0 .64-.51 1.15-1.14 1.15h-65.29c-.63 0-1.14-.51-1.14-1.15v-4.17c0-.63.51-1.14 1.14-1.14h65.29c.63 0 1.14.51 1.14 1.14zM761.44 635.64v4.18c0 .63-.51 1.14-1.14 1.14H500.22c-.63 0-1.14-.51-1.14-1.14v-4.18c0-.63.51-1.14 1.14-1.14H760.3c.63 0 1.14.51 1.14 1.14zM761.44 653.03v4.17c0 .63-.51 1.15-1.14 1.15H500.22c-.63 0-1.14-.52-1.14-1.15v-4.17c0-.63.51-1.15 1.14-1.15H760.3c.63 0 1.14.52 1.14 1.15zM479.715 603.641v69.79c0 2.91-2.36 5.28-5.28 5.28h-89.78c-2.92 0-5.28-2.37-5.28-5.28v-69.79c0-2.91 2.36-5.27 5.28-5.27h89.78c2.92 0 5.28 2.36 5.28 5.27z" opacity=".08"/><circle cx="363.855" cy="258.832" r="5.302" fill="#fff"/><circle cx="378.519" cy="258.832" r="5.302" fill="#fff"/><circle cx="393.183" cy="258.832" r="5.302" fill="#fff"/><path d="M580.052 433.473a6.46 6.46 0 0 1-6.46-6.47v-129.04c0-3.57 2.89-6.47 6.46-6.47h239.56v141.98" opacity=".1"/><path fill="#719bff" d="M832.822 294.053v129.04c0 3.58-2.89 6.47-6.47 6.47h-248.17a6.46 6.46 0 0 1-6.46-6.47v-129.04c0-3.57 2.89-6.47 6.46-6.47h248.17c3.58 0 6.47 2.9 6.47 6.47z"/><path d="M688.01 312.943v99.08c0 3.1-2.51 5.62-5.61 5.62h-88.3c-3.1 0-5.62-2.52-5.62-5.62v-99.08c0-3.1 2.52-5.62 5.62-5.62h88.3c3.1 0 5.61 2.52 5.61 5.62z" opacity=".15"/><path fill="#fff" d="M684.862 308.533v99.08c0 3.1-2.51 5.62-5.61 5.62h-88.3c-3.1 0-5.62-2.52-5.62-5.62v-99.08c0-3.1 2.52-5.62 5.62-5.62h88.3c3.1 0 5.61 2.52 5.61 5.62z"/><path d="m652.607 362.103-20.747 13.892c-3.693 2.486-8.665-.183-8.665-4.643v-27.766c0-4.461 4.972-7.13 8.665-4.643l20.747 13.891c3.309 2.213 3.309 7.057 0 9.269z" opacity=".08"/><path fill="#ff5252" d="m650.815 360.143-20.748 13.893c-3.692 2.486-8.664-.183-8.664-4.643v-27.767c0-4.46 4.972-7.13 8.664-4.643l20.748 13.892c3.308 2.213 3.308 7.057 0 9.268z"/><path d="M817.784 391.94c0 .795-.327 1.514-.84 2.037a2.861 2.861 0 01-2.028.841H700.82a2.877 2.877 0 01-2.868-2.878 2.9 2.9 0 01.84-2.027 2.9 2.9 0 012.028-.84h114.095a2.875 2.875 0 012.868 2.867zM697.953 348.168c0-.794.327-1.504.84-2.027a2.86 2.86 0 012.028-.841h114.095a2.875 2.875 0 012.868 2.868 2.867 2.867 0 01-2.868 2.869H700.82a2.869 2.869 0 01-2.868-2.869zM783.196 406.534a2.866 2.866 0 01-2.878 2.868h-79.497a2.869 2.869 0 01-2.868-2.868 2.9 2.9 0 01.84-2.027 2.9 2.9 0 012.028-.84h79.497a2.877 2.877 0 012.878 2.867zM817.784 377.356c0 .794-.327 1.504-.84 2.027a2.86 2.86 0 01-2.028.841H700.82a2.875 2.875 0 01-2.868-2.868c0-.794.327-1.514.84-2.027a2.86 2.86 0 012.028-.841h114.095a2.869 2.869 0 012.868 2.868zM817.784 362.762a2.867 2.867 0 01-2.868 2.868H700.82a2.869 2.869 0 010-5.736h114.095a2.869 2.869 0 012.868 2.868zM773.737 313.04v16.78c0 2.12-1.71 3.83-3.83 3.83h-67.61c-2.12 0-3.83-1.71-3.83-3.83v-16.78a3.83 3.83 0 013.83-3.83h67.61a3.83 3.83 0 013.83 3.83z" opacity=".15"/><path fill="#4380f9" d="M772.503 311.573v16.78c0 2.12-1.71 3.83-3.83 3.83h-67.61c-2.12 0-3.83-1.71-3.83-3.83v-16.78a3.83 3.83 0 0 1 3.83-3.83h67.61a3.83 3.83 0 0 1 3.83 3.83z"/><path fill="#fff" d="M816.933 390.664c0 .794-.327 1.514-.84 2.037a2.86 2.86 0 0 1-2.028.84H699.97a2.877 2.877 0 0 1-2.868-2.877 2.9 2.9 0 0 1 .84-2.027 2.9 2.9 0 0 1 2.028-.841h114.095a2.875 2.875 0 0 1 2.868 2.868zM697.102 346.892c0-.794.327-1.505.84-2.028a2.86 2.86 0 0 1 2.028-.84h114.095a2.875 2.875 0 0 1 2.868 2.868 2.867 2.867 0 0 1-2.868 2.868H699.97a2.869 2.869 0 0 1-2.868-2.868zM782.345 405.258a2.866 2.866 0 0 1-2.878 2.868H699.97a2.869 2.869 0 0 1-2.868-2.868 2.9 2.9 0 0 1 .84-2.028 2.9 2.9 0 0 1 2.028-.84h79.497a2.877 2.877 0 0 1 2.878 2.868zM816.933 376.08c0 .794-.327 1.504-.84 2.027a2.86 2.86 0 0 1-2.028.84H699.97a2.875 2.875 0 0 1-2.868-2.868c0-.794.327-1.513.84-2.027a2.861 2.861 0 0 1 2.028-.84h114.095a2.869 2.869 0 0 1 2.868 2.867zM816.933 361.486c0 .794-.327 1.513-.84 2.027a2.861 2.861 0 0 1-2.028.84H699.97a2.869 2.869 0 0 1 0-5.736h114.095a2.869 2.869 0 0 1 2.868 2.869z"/><path d="M550.094 484.094H378.3a9.064 9.064 0 0 1-9.064-9.064V303.238a9.064 9.064 0 0 1 9.064-9.064h171.793a9.064 9.064 0 0 1 9.064 9.064V475.03a9.064 9.064 0 0 1-9.064 9.064z" opacity=".08"/><path fill="#ffc837" d="M545.86 479.248H374.067a9.064 9.064 0 0 1-9.064-9.064V298.392a9.064 9.064 0 0 1 9.064-9.064H545.86a9.064 9.064 0 0 1 9.064 9.064v171.792a9.064 9.064 0 0 1-9.064 9.064z"/><circle cx="455.863" cy="347.239" r="37.403" opacity=".08"/><circle cx="453.302" cy="344.899" r="37.403" fill="#fff"/><g opacity=".15"><circle cx="454.671" cy="334.872" r="9.447"/><path d="M475.637 366.715c-.85-10.875-9.891-19.456-20.989-19.476-11.097-.02-20.17 8.527-21.06 19.4l42.05.076z"/></g><circle cx="453.355" cy="333.703" r="9.447" fill="#ff5252"/><path fill="#ff5252" d="M474.321 365.546c-.85-10.875-9.89-19.456-20.988-19.476-11.098-.02-20.17 8.528-21.06 19.4l42.048.076z"/><path d="M398.607 404.286a7.02 7.02 0 0 1 2.06-4.95 6.996 6.996 0 0 1 4.963-2.06h111.669a7.016 7.016 0 0 1 7.01 7.01c0 1.926-.803 3.678-2.047 4.95a7.04 7.04 0 0 1-4.963 2.046h-111.67c-3.878 0-7.022-3.13-7.022-6.996zM493.716 446.984c0 1.927-.803 3.679-2.047 4.95a7.04 7.04 0 0 1-4.963 2.046H436.21c-3.88 0-7.01-3.13-7.01-6.996a7.008 7.008 0 0 1 7.01-7.01h50.497a7.016 7.016 0 0 1 7.01 7.01zM524.308 425.635c0 1.926-.802 3.679-2.046 4.95a7.04 7.04 0 0 1-4.963 2.046h-111.67c-3.878 0-7.022-3.13-7.022-6.996a7.02 7.02 0 0 1 2.06-4.95 6.996 6.996 0 0 1 4.963-2.06h111.669a7.016 7.016 0 0 1 7.01 7.01z" opacity=".15"/><path fill="#fff" d="M522.807 403.096c0 1.926-.789 3.678-2.046 4.95a7.04 7.04 0 0 1-4.963 2.046H404.129c-3.88 0-7.01-3.13-7.01-6.996a7.008 7.008 0 0 1 7.01-7.01h111.669c3.88 0 7.01 3.144 7.01 7.01zM522.807 424.442c0 1.926-.789 3.678-2.046 4.95a7.04 7.04 0 0 1-4.963 2.046H404.129c-3.88 0-7.01-3.13-7.01-6.996a7.009 7.009 0 0 1 7.01-7.01h111.669c3.88 0 7.01 3.144 7.01 7.01z"/><path fill="#0039b2" d="M492.215 445.788c0 1.926-.79 3.678-2.047 4.949a7.04 7.04 0 0 1-4.963 2.047h-50.483c-3.88 0-7.01-3.13-7.01-6.996a7.008 7.008 0 0 1 7.01-7.01h50.483c3.88 0 7.01 3.144 7.01 7.01z"/><path d="M759.786 451.443v113.25a3.63 3.63 0 0 1-3.63 3.63h-178.89c-2 0-3.63-1.62-3.63-3.63v-113.25c0-2 1.63-3.63 3.63-3.63h178.89c2 0 3.63 1.63 3.63 3.63z" opacity=".08"/><path fill="#d7e7ff" d="M757.87 448.89v113.25a3.63 3.63 0 0 1-3.63 3.63H575.35c-2 0-3.63-1.62-3.63-3.63V448.89c0-2 1.63-3.63 3.63-3.63h178.89c2 0 3.63 1.63 3.63 3.63z"/><path d="M675.162 471.168v73.32c0 2.338-1.89 4.229-4.218 4.229h-82.451a4.223 4.223 0 0 1-4.218-4.23v-73.319a4.22 4.22 0 0 1 4.218-4.217h82.451a4.22 4.22 0 0 1 4.218 4.217z" opacity=".07"/><path fill="#3cd278" d="M673.077 468.85v73.318c0 2.34-1.89 4.23-4.218 4.23h-82.451a4.223 4.223 0 0 1-4.218-4.23V468.85a4.22 4.22 0 0 1 4.218-4.217h82.451a4.22 4.22 0 0 1 4.218 4.217z"/><path d="M617.811 489.608a4.819 4.819 0 0 1 4.813-4.813 4.813 4.813 0 1 1-4.813 4.813zM662.569 528.245H596.72c-1.638 0-2.562-1.88-1.562-3.177l18.495-23.992a1.973 1.973 0 0 1 3.125 0l3.548 4.602a1.973 1.973 0 0 0 3.125 0l11.304-14.663a1.973 1.973 0 0 1 3.125 0l26.251 34.053c1 1.297.075 3.177-1.562 3.177z" opacity=".05"/><path fill="#fff" d="M615.8 488.602a4.819 4.819 0 0 1 4.813-4.812 4.813 4.813 0 1 1-4.813 4.812zM660.558 527.24h-65.849c-1.638 0-2.562-1.88-1.562-3.177l18.495-23.993a1.973 1.973 0 0 1 3.125 0l3.548 4.603a1.973 1.973 0 0 0 3.125 0l11.304-14.664a1.973 1.973 0 0 1 3.125 0l26.251 34.053c1 1.297.076 3.178-1.562 3.178z"/><path d="M703.06 475.075v13.06c0 1.27-1.03 2.29-2.3 2.29h-16.47c-1.27 0-2.3-1.02-2.3-2.29v-13.06a2.3 2.3 0 0 1 2.3-2.3h16.47a2.3 2.3 0 0 1 2.3 2.3zM725.52 483.97v2.15c0 .25-.2.46-.45.46h-17.9c-.25 0-.46-.21-.46-.46v-2.15c0-.25.21-.45.46-.45h17.9c.25 0 .45.2.45.45zM751.57 477.08v2.15c0 .25-.21.46-.46.46h-43.94c-.25 0-.46-.21-.46-.46v-2.15c0-.25.21-.46.46-.46h43.94c.25 0 .46.21.46.46z" opacity=".05"/><path fill="#fff" d="M702.677 474.564v13.06c0 1.27-1.03 2.29-2.3 2.29h-16.47c-1.27 0-2.3-1.02-2.3-2.29v-13.06a2.3 2.3 0 0 1 2.3-2.3h16.47a2.3 2.3 0 0 1 2.3 2.3zM725.137 483.46v2.15c0 .25-.2.46-.45.46h-17.9c-.25 0-.46-.21-.46-.46v-2.15c0-.25.21-.45.46-.45h17.9c.25 0 .45.2.45.45zM751.187 476.57v2.15c0 .25-.21.46-.46.46h-43.94c-.25 0-.46-.21-.46-.46v-2.15c0-.25.21-.46.46-.46h43.94c.25 0 .46.21.46.46z"/><path d="M703.06 499.245v13.06c0 1.27-1.03 2.29-2.3 2.29h-16.47c-1.27 0-2.3-1.02-2.3-2.29v-13.06a2.3 2.3 0 0 1 2.3-2.3h16.47a2.3 2.3 0 0 1 2.3 2.3zM725.52 508.14v2.15c0 .25-.2.46-.45.46h-17.9c-.25 0-.46-.21-.46-.46v-2.15c0-.25.21-.45.46-.45h17.9c.25 0 .45.2.45.45zM751.57 501.25v2.15c0 .25-.21.46-.46.46h-43.94c-.25 0-.46-.21-.46-.46v-2.15c0-.25.21-.46.46-.46h43.94c.25 0 .46.21.46.46z" opacity=".05"/><path fill="#fff" d="M702.677 498.735v13.06c0 1.27-1.03 2.29-2.3 2.29h-16.47c-1.27 0-2.3-1.02-2.3-2.29v-13.06a2.3 2.3 0 0 1 2.3-2.3h16.47a2.3 2.3 0 0 1 2.3 2.3zM725.137 507.63v2.15c0 .25-.2.46-.45.46h-17.9c-.25 0-.46-.21-.46-.46v-2.15c0-.25.21-.45.46-.45h17.9c.25 0 .45.2.45.45zM751.187 500.74v2.15c0 .25-.21.46-.46.46h-43.94c-.25 0-.46-.21-.46-.46v-2.15c0-.25.21-.46.46-.46h43.94c.25 0 .46.21.46.46z"/><path d="M703.06 523.415v13.06c0 1.27-1.03 2.29-2.3 2.29h-16.47c-1.27 0-2.3-1.02-2.3-2.29v-13.06a2.3 2.3 0 0 1 2.3-2.3h16.47a2.3 2.3 0 0 1 2.3 2.3zM725.52 532.31v2.15c0 .25-.2.46-.45.46h-17.9c-.25 0-.46-.21-.46-.46v-2.15c0-.25.21-.45.46-.45h17.9c.25 0 .45.2.45.45zM751.57 525.42v2.15c0 .25-.21.46-.46.46h-43.94c-.25 0-.46-.21-.46-.46v-2.15c0-.25.21-.46.46-.46h43.94c.25 0 .46.21.46.46z" opacity=".05"/><path fill="#fff" d="M702.677 522.905v13.06c0 1.27-1.03 2.29-2.3 2.29h-16.47c-1.27 0-2.3-1.02-2.3-2.29v-13.06a2.3 2.3 0 0 1 2.3-2.3h16.47a2.3 2.3 0 0 1 2.3 2.3zM725.137 531.8v2.15c0 .25-.2.46-.45.46h-17.9c-.25 0-.46-.21-.46-.46v-2.15c0-.25.21-.45.46-.45h17.9c.25 0 .45.2.45.45zM751.187 524.91v2.15c0 .25-.21.46-.46.46h-43.94c-.25 0-.46-.21-.46-.46v-2.15c0-.25.21-.46.46-.46h43.94c.25 0 .46.21.46.46z"/><path d="M452.518 504.774v59.018a4.535 4.535 0 0 1-4.53 4.53h-67.146a4.535 4.535 0 0 1-4.53-4.53v-59.018c0-2.5 2.031-4.531 4.53-4.531h67.145a4.535 4.535 0 0 1 4.53 4.53z" opacity=".1"/><path fill="#d250dc" d="M451.061 503.56v59.018a4.535 4.535 0 0 1-4.53 4.53h-67.146a4.535 4.535 0 0 1-4.53-4.53V503.56c0-2.5 2.031-4.531 4.53-4.531h67.145a4.535 4.535 0 0 1 4.531 4.53z"/><path d="M434.229 531.257h-2.19v25.14h-12.35v-14.03h-11.52v14.03h-12.35v-25.14h-2.19c-.53 0-.78-.65-.39-1.01l20.31-18.32c.22-.2.55-.2.78 0l20.29 18.32c.4.36.15 1.01-.39 1.01z" opacity=".15"/><path d="M543.405 504.774v59.018a4.535 4.535 0 0 1-4.53 4.53h-67.146a4.535 4.535 0 0 1-4.53-4.53v-59.018c0-2.5 2.031-4.531 4.53-4.531h67.146a4.535 4.535 0 0 1 4.53 4.53z" opacity=".1"/><path fill="#1258ff" d="M541.949 503.56v59.018a4.535 4.535 0 0 1-4.531 4.53h-67.146a4.535 4.535 0 0 1-4.53-4.53V503.56c0-2.5 2.032-4.531 4.53-4.531h67.146a4.535 4.535 0 0 1 4.53 4.53z"/><path fill="#fff" d="M431.07 530.237v25.143h-12.35v-14.03h-11.525v14.03h-12.35v-25.143z"/><path fill="#fff" d="M433.259 530.237h-40.602a.581.581 0 0 1-.39-1.012l20.305-18.317c.221-.2.558-.2.779 0l20.297 18.317a.581.581 0 0 1-.39 1.012z"/><path d="M523.358 516.04a1.458 1.458 0 0 1 1.617 1.45v26.79h-.012c-.177 2.359-3.128 4.243-6.742 4.243-3.732 0-6.766-2.002-6.766-4.467s3.034-4.456 6.766-4.456c1.268 0 2.441.226 3.448.629v-12.783c0-.886-.783-1.567-1.66-1.443l-20.38 2.863a1.458 1.458 0 0 0-1.255 1.444v17.245h-.012c-.178 2.357-3.14 4.242-6.754 4.242-3.733 0-6.754-2.003-6.754-4.468s3.021-4.455 6.754-4.455c1.268 0 2.453.225 3.46.628v-23.058c0-.744.56-1.369 1.3-1.45l26.99-2.954z" opacity=".15"/><path fill="#fff" d="M521.22 514.35a1.458 1.458 0 0 1 1.617 1.45v26.79h-.012c-.178 2.359-3.128 4.243-6.742 4.243-3.733 0-6.766-2.003-6.766-4.467s3.033-4.456 6.766-4.456c1.268 0 2.44.225 3.448.628v-12.782c0-.886-.784-1.567-1.661-1.444l-20.38 2.864a1.458 1.458 0 0 0-1.255 1.444v17.244h-.012c-.177 2.358-3.14 4.242-6.754 4.242-3.732 0-6.754-2.002-6.754-4.467s3.022-4.455 6.754-4.455c1.268 0 2.453.225 3.46.628v-23.058c0-.744.56-1.369 1.3-1.45l26.99-2.954z"/><path fill="#d7e7ff" d="M476.65 600.407v69.79c0 2.91-2.36 5.28-5.28 5.28h-89.78c-2.92 0-5.28-2.37-5.28-5.28v-69.79c0-2.91 2.36-5.27 5.28-5.27h89.78c2.92 0 5.28 2.36 5.28 5.27zM644.14 600.757v15.99c0 3.11-2.52 5.62-5.62 5.62H503.03a5.61 5.61 0 0 1-5.61-5.62v-15.99a5.61 5.61 0 0 1 5.61-5.62h135.49c3.1 0 5.62 2.51 5.62 5.62zM564.99 669.197v4.17c0 .64-.51 1.15-1.14 1.15h-65.29c-.63 0-1.14-.51-1.14-1.15v-4.17c0-.63.51-1.14 1.14-1.14h65.29c.63 0 1.14.51 1.14 1.14zM759.78 634.427v4.18c0 .63-.51 1.14-1.14 1.14H498.56c-.63 0-1.14-.51-1.14-1.14v-4.18c0-.63.51-1.14 1.14-1.14h260.08c.63 0 1.14.51 1.14 1.14zM759.78 651.817v4.17c0 .63-.51 1.15-1.14 1.15H498.56c-.63 0-1.14-.52-1.14-1.15v-4.17c0-.63.51-1.15 1.14-1.15h260.08c.63 0 1.14.52 1.14 1.15z"/><circle cx="208.6" cy="413.137" r="35.167" fill="#d250dc"/><path fill="#fff" d="m222.184 419.592-3.923 12.324h2.364c.585 0 1.058.487 1.058 1.072 0 .598-.473 1.085-1.058 1.085h-24.037a1.075 1.075 0 0 1-1.071-1.085c0-.585.473-1.072 1.07-1.072h2.366l-3.923-12.324 12.881-20.06v19.058a3.676 3.676 0 0 0-2.99 3.617 3.684 3.684 0 0 0 3.686 3.686 3.684 3.684 0 0 0 3.686-3.686 3.676 3.676 0 0 0-2.99-3.617v-19.058l12.88 20.06z"/><path fill="#fff" d="M227.636 413.123c.014.279-.222.515-.514.529a.535.535 0 0 1-.529-.515c-.125-8.708-6.524-15.97-14.815-17.458h-.208v1.684a.77.77 0 0 1-.765.75h-4.396a.757.757 0 0 1-.751-.75v-1.684h-.223c-8.29 1.489-14.69 8.75-14.815 17.458-.014.278-.222.543-.528.515a.547.547 0 0 1-.529-.529c.111-7.901 5.12-14.675 12.089-17.444h-5.106a2.105 2.105 0 0 1-4.145-.528c0-1.155.946-2.1 2.1-2.1.988 0 1.823.68 2.045 1.585h8.792c.097-.028.208-.042.32-.055v-1.628c0-.417.333-.751.75-.751h4.397a.76.76 0 0 1 .765.75v1.629c.111.013.208.027.306.055h8.235a2.092 2.092 0 0 1 2.03-1.586 2.108 2.108 0 0 1 0 4.215 2.076 2.076 0 0 1-2.03-1.586h-4.549c6.97 2.769 11.963 9.543 12.074 17.444zM307.961 189.584v.27c0 .45-.135.865-.382 1.225-.247.348-.585.63-1.023.854l-13.084 5.856c-.191.09-.427.135-.686.135-.472 0-.899-.169-1.236-.495-.326-.325-.495-.741-.495-1.236 0-.337.102-.663.315-.967a1.89 1.89 0 0 1 .832-.663l10.903-4.844-10.914-4.856a1.778 1.778 0 0 1-.81-.641 1.646 1.646 0 0 1-.326-.978c0-.495.169-.922.506-1.237.304-.326.73-.494 1.225-.494.259 0 .495.045.697.135l13.05 5.856c.461.225.799.506 1.046.843.247.371.382.787.382 1.237zM272.722 184.874l-10.892 4.845 10.903 4.855c.315.113.585.326.81.641.224.292.326.618.326.978 0 .495-.169.91-.506 1.236a1.697 1.697 0 0 1-1.225.495c-.225 0-.461-.045-.675-.124l-13.061-5.867c-.472-.225-.81-.495-1.057-.843a2.2 2.2 0 0 1-.382-1.237v-.27c0-.449.135-.865.382-1.225.247-.36.585-.63 1.045-.854l13.062-5.856c.72-.293 1.45-.124 1.922.37.326.304.495.731.495 1.226 0 .36-.102.686-.326.978a1.791 1.791 0 0 1-.821.652zM288.1 174.51c.325.337.483.753.483 1.237 0 .202-.045.404-.102.606l-8.689 25.37c-.09.315-.28.607-.573.855a1.78 1.78 0 0 1-1.09.348c-.506 0-.944-.18-1.27-.517-.326-.337-.484-.753-.484-1.236 0-.169.034-.372.101-.619l8.678-25.37c.101-.314.292-.595.585-.842.719-.54 1.764-.45 2.36.168z"/><path fill="#719bff" d="m993.607 363.756 41.971-36.656-59.113-2.91a.05.05 0 0 0-.05.071l17.112 39.477a.05.05 0 0 0 .08.018z"/><path fill="#5388f2" d="m1037.953 326.606-51.068 21.796a.054.054 0 0 0-.008.004l-7.653 5.1a.05.05 0 0 1-.078-.052l3.28-15.278c.004-.02.02-.035 2.415-.533l53.112-11.037z"/><path fill="#5388f2" d="m979.312 353.562 9.436-.68a.05.05 0 0 0 .043-.071l-1.886-4.351a.05.05 0 0 0-.075-.023l-7.55 5.032c-.043.03-.02.097.032.093z"/></svg>