<svg xmlns="http://www.w3.org/2000/svg" xmlns:xlink="http://www.w3.org/1999/xlink" data-name="layer 1" viewBox="0 0 900 600"><defs><linearGradient id="a" x1="10375.16" x2="10447.37" y1="429.05" y2="429.05" gradientTransform="matrix(-1 0 0 1 10454.67 0)" gradientUnits="userSpaceOnUse"><stop offset="0" stop-color="#3e85ff"/><stop offset="1" stop-color="#42e4ff"/></linearGradient><linearGradient id="c" x1="10375.16" x2="10447.37" y1="390.5" y2="390.5" gradientTransform="matrix(-1 0 0 1 10454.67 0)" gradientUnits="userSpaceOnUse"><stop offset="0" stop-color="#42e4ff"/><stop offset="1" stop-color="#3e85ff"/></linearGradient><linearGradient id="b" x1="10375.17" x2="10450.92" y1="408.03" y2="408.03" gradientTransform="matrix(-1 0 0 1 10454.67 0)" gradientUnits="userSpaceOnUse"><stop offset="0" stop-color="#370072"/><stop offset="1" stop-color="#4164e0"/></linearGradient><linearGradient id="d" x1="139.93" x2="191.26" y1="367.41" y2="367.41" xlink:href="#a"/><linearGradient id="e" x1="98.83" x2="221.44" y1="385.6" y2="385.6" xlink:href="#a"/><linearGradient id="f" x1="215.05" x2="246.61" y1="379.81" y2="379.81" xlink:href="#a"/><linearGradient id="g" x1="287.06" x2="324.05" y1="434.34" y2="434.34" xlink:href="#a"/><linearGradient id="h" x1="231.56" x2="281.53" y1="306.13" y2="306.13" xlink:href="#a"/><linearGradient id="i" x1="273.11" x2="309.44" y1="327.93" y2="327.93" xlink:href="#a"/><linearGradient id="j" x1="322.84" x2="384.32" y1="418.98" y2="418.98" xlink:href="#a"/><linearGradient id="k" x1="231.15" x2="375.9" y1="384.37" y2="384.37" xlink:href="#a"/><linearGradient id="l" x1="339.99" x2="392.79" y1="343.05" y2="343.05" xlink:href="#a"/><linearGradient id="m" x1="325.98" x2="375.64" y1="306.13" y2="306.13" xlink:href="#a"/><linearGradient id="n" x1="99.65" x2="136.53" y1="289.15" y2="289.15" xlink:href="#a"/><linearGradient id="o" x1="127.79" x2="140.54" y1="308.77" y2="308.77" xlink:href="#a"/><linearGradient id="p" x1="63.34" x2="120.83" y1="389.64" y2="389.64" xlink:href="#b"/><linearGradient id="q" x1="89.1" x2="102.9" y1="260.15" y2="260.15" xlink:href="#a"/><linearGradient id="r" x1="118.7" x2="203.52" y1="295.23" y2="295.23" xlink:href="#b"/><linearGradient id="s" x1="76.94" x2="100.38" y1="289.37" y2="289.37" xlink:href="#a"/><linearGradient id="t" x1="92" x2="100.6" y1="308.54" y2="308.54" xlink:href="#a"/><linearGradient id="u" x1="627.2" x2="788.8" y1="442.76" y2="442.76" xlink:href="#c"/><linearGradient id="v" x1="519.74" x2="896.25" y1="271.81" y2="271.81" xlink:href="#c"/><linearGradient id="w" x1="533.61" x2="882.38" y1="182.36" y2="182.36" xlink:href="#b"/><linearGradient id="x" x1="783.5" x2="1063.18" y1="-1473.35" y2="-1473.35" gradientTransform="matrix(.94 -.33 .33 .94 224.62 1890.34)" xlink:href="#b"/><linearGradient id="z" x1="794.46" x2="794.46" y1="-1470.13" y2="-1497.65" gradientTransform="translate(-308.47 1711.48)" xlink:href="#a"/><linearGradient id="A" x1="803.29" x2="803.29" y1="-1481.51" y2="-1497.65" gradientTransform="rotate(-.01 9791578.762 1780919.763)" xlink:href="#a"/><linearGradient id="B" x1="812.21" x2="812.21" y1="-1481.51" y2="-1497.65" gradientTransform="rotate(.02 -4886626.406 -892388.344)" xlink:href="#a"/><linearGradient id="C" x1="820.31" x2="820.31" y1="-1470.14" y2="-1497.65" gradientTransform="translate(-309.91 1702.97)" xlink:href="#a"/><linearGradient id="D" x1="829.14" x2="829.14" y1="-1481.51" y2="-1497.65" gradientTransform="translate(-312.16 1700.44)" xlink:href="#a"/><linearGradient id="E" x1="838.06" x2="838.06" y1="-1481.51" y2="-1497.65" gradientTransform="rotate(-.01 9725974.125 1792029.42)" xlink:href="#a"/><linearGradient id="F" x1="846.16" x2="846.16" y1="-1470.14" y2="-1497.65" gradientTransform="translate(-311.36 1694.46)" xlink:href="#a"/><linearGradient id="G" x1="854.99" x2="854.99" y1="-1481.51" y2="-1497.65" gradientTransform="translate(-313.72 1691.87)" xlink:href="#a"/><linearGradient id="H" x1="863.9" x2="863.9" y1="-1481.51" y2="-1497.65" gradientTransform="rotate(-.01 9677042.78 1800619.516)" xlink:href="#a"/><linearGradient id="I" x1="872" x2="872" y1="-1470.14" y2="-1497.65" gradientTransform="translate(-312.8 1685.95)" xlink:href="#a"/><linearGradient id="J" x1="880.83" x2="880.83" y1="-1481.52" y2="-1497.65" gradientTransform="translate(-315.05 1683.42)" xlink:href="#a"/><linearGradient id="K" x1="889.75" x2="889.75" y1="-1481.51" y2="-1497.65" gradientTransform="rotate(-.01 9628455.269 1808522.094)" xlink:href="#a"/><linearGradient id="L" x1="897.85" x2="897.85" y1="-1470.14" y2="-1497.65" gradientTransform="translate(-314.24 1677.43)" xlink:href="#a"/><linearGradient id="M" x1="906.68" x2="906.68" y1="-1481.52" y2="-1497.65" gradientTransform="rotate(-.01 9596541.044 1813962.408)" xlink:href="#a"/><linearGradient id="N" x1="915.6" x2="915.6" y1="-1481.51" y2="-1497.65" gradientTransform="rotate(-.01 9579695.84 1816768.431)" xlink:href="#a"/><linearGradient id="O" x1="923.7" x2="923.7" y1="-1470.14" y2="-1497.65" gradientTransform="translate(-315.73 1668.89)" xlink:href="#a"/><linearGradient id="P" x1="932.53" x2="932.53" y1="-1481.52" y2="-1497.65" gradientTransform="translate(-317.73 1666.53)" xlink:href="#a"/><linearGradient id="Q" x1="941.44" x2="941.44" y1="-1481.52" y2="-1497.65" gradientTransform="translate(-318.55 1663.39)" xlink:href="#a"/><linearGradient id="R" x1="949.54" x2="949.54" y1="-1470.14" y2="-1497.65" gradientTransform="translate(-317.13 1660.41)" xlink:href="#a"/><linearGradient id="S" x1="958.37" x2="958.37" y1="-1481.52" y2="-1497.65" gradientTransform="rotate(-.01 9498964.882 1830569.67)" xlink:href="#a"/><linearGradient id="T" x1="967.29" x2="967.29" y1="-1481.52" y2="-1497.65" gradientTransform="translate(-319.99 1654.88)" xlink:href="#a"/><linearGradient id="U" x1="975.39" x2="975.39" y1="-1470.14" y2="-1497.65" gradientTransform="translate(-318.61 1651.86)" xlink:href="#a"/><linearGradient id="V" x1="984.22" x2="984.22" y1="-1481.52" y2="-1497.65" gradientTransform="rotate(-.01 9450262.76 1838701.42)" xlink:href="#a"/><linearGradient id="W" x1="993.14" x2="993.14" y1="-1481.52" y2="-1497.65" gradientTransform="translate(-321.43 1646.36)" xlink:href="#a"/><linearGradient id="X" x1="1001.24" x2="1001.24" y1="-1470.14" y2="-1497.65" gradientTransform="translate(-320.01 1643.38)" xlink:href="#a"/><linearGradient id="Y" x1="1010.07" x2="1010.07" y1="-1481.52" y2="-1497.65" gradientTransform="translate(-322.38 1640.79)" xlink:href="#a"/><linearGradient id="Z" x1="1018.98" x2="1018.98" y1="-1481.52" y2="-1497.65" gradientTransform="rotate(-.01 9384658.122 1849811.076)" xlink:href="#a"/><linearGradient id="aa" x1="1027.08" x2="1027.08" y1="-1470.14" y2="-1497.65" gradientTransform="translate(-321.5 1634.83)" xlink:href="#a"/><linearGradient id="ab" x1="1035.91" x2="1035.91" y1="-1481.52" y2="-1497.65" gradientTransform="translate(-323.82 1632.27)" xlink:href="#a"/><linearGradient id="ac" x1="1044.83" x2="1044.83" y1="-1481.52" y2="-1497.65" gradientTransform="rotate(-.01 9335841.388 1858172)" xlink:href="#a"/><linearGradient id="ad" x1="1052.93" x2="1052.93" y1="-1470.14" y2="-1497.65" gradientTransform="translate(-322.74 1626.47)" xlink:href="#a"/><linearGradient id="ae" x1="10413.18" x2="10440.61" y1="427.26" y2="427.26" gradientTransform="matrix(-1 0 0 1 11008.22 0)" xlink:href="#c"/><linearGradient id="af" x1="10452.5" x2="10477.91" y1="425.58" y2="425.58" gradientTransform="matrix(-1 0 0 1 11008.22 0)" xlink:href="#c"/><linearGradient id="ag" x1="548.97" x2="548.97" y1="418.48" y2="278.56" gradientUnits="userSpaceOnUse"><stop offset="0" stop-color="#4164e0"/><stop offset="1" stop-color="#370072"/></linearGradient><linearGradient id="ah" x1="377.84" x2="420.97" y1="311.42" y2="311.42" xlink:href="#b"/><linearGradient id="ai" x1="378.22" x2="420.59" y1="341.49" y2="341.49" xlink:href="#a"/><linearGradient id="aj" x1="378.22" x2="420.59" y1="323.93" y2="323.93" xlink:href="#c"/><clipPath id="y"><rect width="279.68" height="38.98" x="471.28" y="175.57" fill="none" transform="rotate(-19.23 611.2 195.082)"/></clipPath></defs><path fill="url(#a)" d="M7.32,463.89h0V390.4H79.5v73.49h0a.45.45,0,0,1,0,.11c0,2-16.17,3.7-36.11,3.7S7.3,466,7.3,464A.43.43,0,0,1,7.32,463.89Z"/><path fill="#310078" d="M7.3,390.5a.71.71,0,0,0,.37.53,1.92,1.92,0,0,0,.28.18,6.9,6.9,0,0,0,.79.34c.19.06.41.14.65.2l.43.12a13.33,13.33,0,0,0,1.34.31c.49.1,1,.21,1.62.3.8.13,1.67.25,2.63.37s2,.23,3.07.35c2.52.24,5.39.45,8.53.62l4.89.2c1.7.07,3.45.11,5.24.13h.21l2.88.05c1.05,0,2.1,0,3.17,0,7.22,0,14-.22,19.58-.6a99.68,99.68,0,0,0,13.1-1.53,13.45,13.45,0,0,0,2.54-.76c.58-.26.89-.54.89-.83,0-1-4-1.94-10.57-2.63s-15.58-1.08-25.54-1.08-19,.41-25.53,1.08S7.3,389.49,7.3,390.5Zm3.38.26.23-.18L38,392.45l-.17.43c-.23,0-.45,0-.68,0-3.49-.05-6.88-.16-10.1-.33s-5.92-.36-8.47-.62c-1.08-.1-2.08-.22-3-.34s-1.8-.24-2.59-.37c-.55-.09-1.08-.18-1.56-.28Z"/><path fill="url(#c)" d="M7.3,390.5a.71.71,0,0,0,.37.53c.08.05.18.12.28.17a6.8,6.8,0,0,0,.79.35c.19.06.41.14.65.2l.43.12a13.33,13.33,0,0,0,1.34.31c.49.1,1,.21,1.62.3.8.13,1.67.25,2.63.37s2,.23,3.07.35c2.52.24,5.39.45,8.53.62l4.89.2c1.7.07,3.45.11,5.24.13h.21l2.88.05c1.05,0,2.1,0,3.17,0,7.22,0,14-.22,19.58-.6a99.68,99.68,0,0,0,13.1-1.53,13.45,13.45,0,0,0,2.54-.76c.58-.26.89-.54.89-.83,0-1-4-1.94-10.57-2.63s-15.58-1.08-25.54-1.08-19,.41-25.53,1.08S7.3,389.49,7.3,390.5Zm3.38.26-.52-.13-.44-.13A50.85,50.85,0,0,1,18,389.16c6.77-.69,15.78-1.08,25.39-1.08s18.63.39,25.4,1.08a52.27,52.27,0,0,1,8.3,1.34c-.34.11-.76.21-1.29.33a96.37,96.37,0,0,1-12.91,1.5c-5.81.39-12.55.6-19.5.6-1.06,0-2.12,0-3.15,0l-2.4,0c-.23,0-.45,0-.68,0-3.49-.05-6.88-.16-10.1-.33s-5.92-.36-8.47-.62c-1.08-.1-2.08-.22-3-.34s-1.8-.24-2.59-.37c-.55-.09-1.08-.18-1.56-.28Z"/><path fill="#310078" d="M10.91,390.58l-.23.18.74.16c.48.1,1,.19,1.56.28.79.13,1.67.26,2.59.37s1.95.24,3,.34c2.55.26,5.39.46,8.47.62s6.61.28,10.1.33c.23,0,.45,0,.68,0l.17-.43Z"/><path fill="#ff76ad" d="M9.39,391.75,21,395.18l16.31-1h0l.5-1.27c-.23,0-.45,0-.68,0-3.49-.05-6.88-.16-10.1-.33s-5.92-.36-8.47-.62c-1.08-.1-2.08-.22-3-.34s-1.8-.24-2.59-.37c-.55-.09-1.08-.18-1.56-.28l-.74-.16Z"/><path fill="#ff5e99" d="M9.35,403a1.18,1.18,0,1,0,2.36,0v-1.51a1.4,1.4,0,0,1,2.79,0v32.23A2.48,2.48,0,0,0,17,436.17a2.48,2.48,0,0,0,2.47-2.48V432.3a1.94,1.94,0,0,1,3.87,0v9.45a2.82,2.82,0,0,0,2.8,2.8,2.79,2.79,0,0,0,2.78-2.8v-35a1.73,1.73,0,1,1,3.45,0v7.16a2.28,2.28,0,0,0,4.55.06s.5-19.77.46-19.81c-7.18-.11-13.83-.46-18.87-.95-2.18-.22-4.1-.47-5.7-.72-1.16-.2-2.6-.5-3.4-.72C9.07,391.78,9.35,403,9.35,403Z"/><path fill="url(#b)" d="M7.3,417.08c3.66,4.64,10.3,8,20.63,8.35h1.53c32.32,0,49.51-31.89,50-34.82-.17.53-1.37,1-3.42,1.47a66.53,66.53,0,0,1-11.85,15.56c-7.1,6.94-18.9,15.22-34.77,15.22-.48,0-1,0-1.44,0-10-.31-17.1-3.71-20.13-9.59a10.41,10.41,0,0,1-.59-1.32,15.55,15.55,0,0,1,0-10.86v-5.65l-.11.13C2.86,402.06,2.31,410.75,7.3,417.08Z"/><g style="isolation:isolate"><g style="isolation:isolate"><path fill="#2c62c0" d="M145.2,425.62l8.42-4.59.83.66c.43.32.87.63,1.33.92l-8.43,4.6c-.45-.29-.9-.6-1.32-.92s-.56-.44-.83-.67Z"/><path fill="#2b5fbb" d="M147.35,427.21l8.43-4.6c.57.36,1.16.69,1.78,1l-8.42,4.59c-.62-.3-1.22-.64-1.79-1Z"/><path fill="#295cb6" d="M149.14,428.2l8.42-4.59c.59.29,1.19.55,1.82.8L151,429c-.63-.24-1.24-.51-1.82-.8Z"/><path fill="#275ab0" d="M151,429l8.42-4.59c.64.24,1.3.47,2,.67l-8.43,4.59c-.68-.2-1.33-.42-2-.67Z"/><path fill="#2556ab" d="M152.93,429.67l8.43-4.59c.71.21,1.45.39,2.22.55l-8.42,4.6c-.77-.16-1.51-.34-2.23-.56Z"/><path fill="#2653a6" d="M155.16,430.23l8.42-4.6c.84.18,1.71.33,2.61.44l-8.42,4.6c-.9-.12-1.77-.26-2.61-.44Z"/><path fill="#2351a1" d="M157.77,430.67l8.42-4.6q1.55.19,3.21.27l-8.43,4.6c-1.1-.05-2.17-.14-3.2-.27Z"/><path fill="#224e9c" d="M161,430.94l8.43-4.6c.71,0,1.43.05,2.18.05s1.29,0,1.92,0l-8.42,4.6q-.95,0-1.92,0c-.75,0-1.48,0-2.19-.05Z"/><path fill="#1f4c97" d="M165.08,431l8.42-4.6c1.31-.05,2.56-.15,3.74-.3l-8.42,4.6c-1.18.15-2.43.25-3.74.3Z"/><path fill="#1e4991" d="M168.82,430.66l8.42-4.6a30.72,30.72,0,0,0,3.13-.56L172,430.1a31.22,31.22,0,0,1-3.13.56Z"/><path fill="#1e458c" d="M172,430.1l8.42-4.6a22.18,22.18,0,0,0,2.85-.85l-8.42,4.6a24.47,24.47,0,0,1-2.85.85Z"/><path fill="#1c4387" d="M174.8,429.25l8.42-4.6a18.3,18.3,0,0,0,2.32-1l-8.42,4.6a18.3,18.3,0,0,1-2.32,1.05Z"/></g><polygon fill="#ff5e99" points="98.83 308.43 107.25 303.84 142.64 303.84 134.21 308.43 98.83 308.43"/><path fill="url(#d)" d="M171.58,426.39c-7.26,0-13-1.58-17.13-4.7-.45-.34-.87-.7-1.28-1.06l-.29-.25c-.4-.37-.79-.75-1.16-1.14l-.2-.22c-.31-.34-.61-.7-.9-1.06l-.23-.28c-.32-.42-.63-.85-.91-1.3-.06-.08-.11-.17-.17-.26q-.36-.58-.69-1.2c-.06-.1-.12-.2-.17-.3-.24-.47-.47-1-.67-1.45-.07-.15-.12-.31-.18-.46-.15-.38-.3-.77-.43-1.17L147,411c-.16-.51-.31-1-.43-1.56-.06-.25-.11-.53-.17-.83,0-.09,0-.19,0-.29s-.08-.44-.11-.68,0-.23-.05-.36-.08-.53-.11-.81c0-.11,0-.22,0-.33,0-.41-.1-.83-.14-1.28,0-.06,0-.12,0-.18,0-.39-.08-.81-.11-1.24,0-.17,0-.34-.05-.52s-.05-.66-.08-1c0-.19,0-.39,0-.59,0-.36,0-.73-.08-1.11,0-.2,0-.39,0-.59,0-.48-.06-1-.09-1.49,0-.11,0-.21,0-.32,0-.62-.06-1.27-.1-1.94l0-.61q0-.72-.06-1.47c0-.26,0-.53,0-.79l-.06-1.45c0-.28,0-.55,0-.83,0-.54,0-1.1-.05-1.66,0-.24,0-.47,0-.72,0-.81-.05-1.64-.07-2.5l-2.26-82-8.43,4.59,2.27,82c0,.85.05,1.68.07,2.49l0,.76c0,.55,0,1.09,0,1.62l0,.84q0,.74.06,1.44l0,.8c0,.5.05,1,.07,1.47l0,.61c0,.67.07,1.31.1,1.94,0,.11,0,.21,0,.32,0,.51.06,1,.09,1.49,0,.2,0,.39,0,.59,0,.38.05.75.07,1.11,0,.2,0,.39.05.59s.05.68.08,1l0,.35c0,.06,0,.11,0,.17,0,.42.08.83.12,1.22a1.36,1.36,0,0,0,0,.2c0,.45.09.87.14,1.27,0,.12,0,.23,0,.34,0,.28.07.55.1.81s0,.24.05.36.08.46.11.68a1.55,1.55,0,0,0,0,.21s0,0,0,.08c.06.3.11.58.16.83s.18.73.28,1.08l.16.48q.08.29.18.57.19.6.42,1.17c.07.15.12.31.18.46s0,.1.07.16c.19.44.39.86.61,1.28.05.11.11.21.16.31.22.41.45.81.7,1.19.05.09.1.18.16.27.29.44.6.88.92,1.3.07.09.15.18.22.28.29.36.59.71.91,1.06l.2.21c.37.4.75.77,1.16,1.14l.28.26.46.39h0c.27.23.53.46.82.68,4.11,3.12,9.87,4.7,17.13,4.7,5.88,0,10.56-.93,14-2.79l8.42-4.6C182.14,425.46,177.46,426.39,171.58,426.39Z"/><g style="isolation:isolate"><path fill="#224e9c" d="M219.38,428l8.42-4.6c-.31,1.35-.68,2.66-1.09,3.93l-8.42,4.6c.41-1.28.78-2.59,1.09-3.93Z"/><path fill="#1f4c97" d="M218.29,432l8.42-4.6c-.42,1.29-.89,2.55-1.41,3.77l-8.42,4.59c.52-1.21,1-2.47,1.41-3.76Z"/><path fill="#1e4991" d="M216.88,435.73l8.42-4.59a40,40,0,0,1-1.84,3.78l-8.42,4.6c.67-1.22,1.28-2.48,1.84-3.79Z"/><path fill="#1e458c" d="M215,439.52l8.42-4.6a38.48,38.48,0,0,1-2.63,4.16l-8.42,4.6a41.18,41.18,0,0,0,2.63-4.16Z"/><path fill="#1c4387" d="M212.41,443.68l8.42-4.6c-.42.58-.85,1.14-1.3,1.69a42.88,42.88,0,0,1-12.81,10.41l-8.42,4.6a42.72,42.72,0,0,0,12.8-10.41c.45-.55.89-1.12,1.31-1.69Z"/></g><path fill="url(#e)" d="M219.88,425.68a43.39,43.39,0,0,1-8.78,19.69,45.17,45.17,0,0,1-17.66,12.75c-7.27,3.09-16.88,4.65-28.53,4.65-14.21,0-24.82-1.66-32.45-5.09a49.72,49.72,0,0,1-18.25-13.42,45.29,45.29,0,0,1-9.2-17.44c-2.17-8.54-3.5-21.18-4-37.6l-.3-10.81-1.93-70h35.38L136,371.72h0l.51,18.69c.35,12.2.9,20.15,1.66,23.6a20.86,20.86,0,0,0,7.9,12.28c4.11,3.12,9.87,4.7,17.12,4.7s12.83-1.46,16.27-4.36a16.14,16.14,0,0,0,6-10.47c.68-4.74.87-12.84.55-24.07l-1.06-38.53h0l-1.25-45.12h35.38l1.15,41.72L221.25,388C221.74,405.87,221.3,418.18,219.88,425.68Z"/><path fill="url(#f)" d="M229.6,408.48l0-.58c0-.52.05-1,.07-1.6,0-.27,0-.56,0-.84,0-.48,0-.95.05-1.44,0-.32,0-.64,0-1l0-1.45c0-.34,0-.68,0-1s0-1,0-1.49c0-.35,0-.72,0-1.09v-3.21c0-.36,0-.73,0-1.09v-1.19l0-1.74c0-.39,0-.77,0-1.17,0-.66,0-1.34,0-2,0-.33,0-.66,0-1,0-1-.05-2.08-.08-3.14l-2.2-79.6-8.42,4.59,2.2,79.6c0,1.07.06,2.12.08,3.15,0,.34,0,.66,0,1,0,.68,0,1.36,0,2,0,.4,0,.78,0,1.17,0,.58,0,1.17,0,1.74,0,.4,0,.8,0,1.19,0,.55,0,1.09,0,1.62v2.67c0,.37,0,.75,0,1.11s0,1,0,1.46,0,.71,0,1.06l0,1.42c0,.33,0,.66,0,1,0,.48,0,.95,0,1.42l0,.87c0,.53,0,1-.06,1.55l0,.62c0,.7-.07,1.39-.11,2.06l0,.42c0,.51-.07,1-.11,1.52,0,.31-.05.6-.07.9l-.09,1c0,.29-.05.57-.08.85s-.06.64-.1.94-.06.54-.09.81-.07.59-.11.88-.07.5-.11.75-.07.53-.11.79c-.09.58-.19,1.14-.29,1.67a43.34,43.34,0,0,1-8.78,19.69,42.72,42.72,0,0,1-12.8,10.41l8.42-4.6a40.59,40.59,0,0,0,21.07-27.73h0c.19-.77.35-1.56.5-2.36.1-.53.2-1.09.29-1.67a.68.68,0,0,0,0-.15c0-.2.06-.43.1-.65s.07-.48.1-.74.07-.59.11-.89l.09-.79c0-.31.07-.64.1-1l.09-.84c0-.33.06-.68.08-1s.05-.58.08-.87a.66.66,0,0,1,0-.14c0-.46.06-1,.09-1.43l0-.38C229.53,409.87,229.57,409.18,229.6,408.48Z"/><polygon fill="#ff5e99" points="183.68 308.43 192.1 303.84 227.47 303.84 219.05 308.43 183.68 308.43"/></g><g style="isolation:isolate"><polygon fill="url(#g)" points="302.15 412.98 310.57 408.38 282 455.7 273.58 460.3 302.15 412.98"/><polygon fill="url(#h)" points="231.56 308.43 239.99 303.84 281.53 303.84 273.11 308.43 231.56 308.43"/><polygon fill="url(#i)" points="273.11 308.43 281.53 303.84 309.44 347.42 301.02 352.02 273.11 308.43"/><polygon fill="url(#j)" points="322.84 382.26 331.26 377.66 384.32 455.7 375.9 460.3 322.84 382.26"/><polygon fill="url(#k)" points="367.21 308.43 322.84 382.26 375.9 460.3 333.23 460.3 302.15 412.98 273.58 460.3 231.15 460.3 279.83 381.19 231.56 308.43 273.11 308.43 301.02 352.02 325.98 308.43 367.21 308.43"/><polygon fill="url(#l)" points="367.21 308.43 375.64 303.84 331.26 377.66 322.84 382.26 367.21 308.43"/><polygon fill="url(#m)" points="325.98 308.43 334.4 303.84 375.64 303.84 367.21 308.43 325.98 308.43"/></g><path fill="#ff76ad" d="M136 371.72h0a1.84 1.84 0 01-1.81 1.47 1.85 1.85 0 01-1.86-1.85V368a1.62 1.62 0 00-1.62-1.64A1.64 1.64 0 00129 368v16.85a3.22 3.22 0 01-3.4 3.21 3.34 3.34 0 01-3-3.4V358.4a2.63 2.63 0 00-3.15-2.58 2.68 2.68 0 00-2.1 2.68v9.07a2.82 2.82 0 01-3.39 2.75 2.86 2.86 0 01-2.22-2.82v-2.64a2.56 2.56 0 00-2.7-2.56A2.66 2.66 0 00106.6 365v10.51a3.62 3.62 0 01-5.84 2.89l-1.93-70h35.38zM220.2 350.15a1.74 1.74 0 01-.61.11 1.85 1.85 0 01-1.85-1.86V345a1.59 1.59 0 00-.48-1.15 1.62 1.62 0 00-2.78 1.15v8.68a3.23 3.23 0 01-3.4 3.21 3.34 3.34 0 01-3.05-3.4V335.46a2.63 2.63 0 00-3.15-2.58 2.71 2.71 0 00-2.11 2.68v33.58a2.8 2.8 0 01-3.38 2.75 2.85 2.85 0 01-2.21-2.82V341.92a2.57 2.57 0 00-2.71-2.56 2.66 2.66 0 00-2.43 2.71v10.51a3.62 3.62 0 01-7.12 1h0l-1.25-45.12h35.38z"/><path fill="url(#n)" d="M99.65,268.66s3.86-6.78,7.43-4.63c2.78,1.66,17.7,32,22.28,37.07,1.32,1.45,6.88,2.92,6.88,2.92A17.37,17.37,0,0,1,135,314.31c-.85,1.69-11.27-2.69-12.63-3.56-6.93-4.43-14.23-23.91-14.23-23.91Z"/><path fill="url(#o)" d="M131.63,299.45s8.63,3.56,8.9,4.15-4.57,14.57-5.41,14.5-7.33-2.67-7.33-2.67S129.71,301.46,131.63,299.45Z"/><path fill="#310078" d="M128.43,463.37c0-.39-.1-.83-.17-1.29a6,6,0,0,0-3.7-4.31c-2.56-.91-6.43-.58-10.76-1.72s-5.62-3.08-5.62-3.08l-5.72-.58a91.58,91.58,0,0,0-2,10c-.13,1.28-.1,2.24.2,2.45,1,.73,20.71.28,26.35.13A1.43,1.43,0,0,0,128.43,463.37Z"/><path fill="#fdc9b7" d="M106,456.62a3.17,3.17,0,0,1-1.48-.24,3.26,3.26,0,0,1-2-2.84l-.12-2.54-.31-6.37,7.46-.22-.44,7.35-.11,1.81A3.25,3.25,0,0,1,106,456.62Z"/><path fill="#310078" d="M85.61,464.06c.1-.38.21-.81.31-1.27A6.06,6.06,0,0,0,84,457.44c-2.07-1.76-5.81-2.84-9.44-5.45s-4.14-4.89-4.14-4.89l-5.14-2.59a94.11,94.11,0,0,0-5.4,8.61c-.57,1.15-.89,2.06-.68,2.36.66,1,19.24,7.66,24.55,9.54A1.41,1.41,0,0,0,85.61,464.06Z"/><path fill="#fdc9b7" d="M67.05,449.71a3.25,3.25,0,0,1-2.16-4.12l.8-2.42,2-6.05,7,2.45-3,6.72-.75,1.65A3.24,3.24,0,0,1,67.05,449.71Z"/><path fill="url(#p)" d="M75.2,334c1.37-6,27.16-3.9,27.16-3.9l-.16,3.33c3.67-1.47,9.87-5.14,16.45-3.69a332.71,332.71,0,0,1,2.13,42.71c-.46,22.23-9.17,77.37-9.17,77.37H99.14s1.11-60.2-1.22-83.9c-1.55,10-4.55,30.79-7,41.25-4.1,17.21-17.11,39.06-17.11,39.06L63.34,443.9c4.26-18.92,8.12-28.36,8.56-41.41C72.71,379.22,70.84,353.14,75.2,334Z"/><path fill="#310078" d="M97.92,365.94s3.1-14.85,3.85-21.95c0,0-.45,18.29-3.45,26.46Z"/><path fill="#e4eeff" d="M98,255.18s-13.42.23-17.63,12.14-9.24,59.45-8,70.41c0,0,33.34,6.43,50-1.67,0,0-5-39.44-5.69-48.49S109.39,256.84,98,255.18Z"/><path fill="#fdc9b7" d="M102.82,246s-1.39,9.05-.06,14.1a2,2,0,0,1-1.3,2.31c-3.77,1.26-8.8-3.65-11.28-5.33-.51-2.83.95-13.92.95-13.92Z"/><path fill="#fdc9b7" d="M98.87,216.65c7.94,0,14.38,7.51,14.38,16.77,0,.55,0,1.09-.07,1.63.58.64,1.39,1.75,1,2.77a1.76,1.76,0,0,1-1.68.9c-1.9,6.66-7.28,11.47-13.63,11.47-7.94,0-14.37-7.51-14.37-16.77S90.93,216.65,98.87,216.65Z"/><path fill="#310078" d="M78.63,225.06c1-14.28,18.79-20.24,25.28-19.22.86.14.2,1.46-.65,2.44,8.16-.78,17.09.73,18.4,9.59,1,6.46-15.84,9.44-27.35,7.82a3.43,3.43,0,0,0-2.65.48c-.91.72-1.83,3-.57,7.92-1-.94-3.22-2.11-4.1-.49-.69,1.26-.19,4,3.25,5,1.49,3.37.75,6.92.37,9C90.61,247.54,77.94,235.1,78.63,225.06Z"/><path fill="url(#q)" d="M102.76,260.07a2.23,2.23,0,0,1-2.41,2.5c-2.64-.05-10.17-5.52-10.17-5.52s-.85.13-1.08.42c0,0,9.36,7.22,12.79,5.5A2.53,2.53,0,0,0,102.76,260.07Z"/><path fill="url(#r)" d="M196.22,292.62l7.3-10.72-53.14-36.17-7.3,10.73a6.45,6.45,0,0,0,1.7,9l3.62,2.47a9.31,9.31,0,0,1,2.46,12.93l-28.46,39.4c-3.73,5.48-6.2,18.55.46,23.07s17.9-2.56,21.63-8l26.21-40.92a9.29,9.29,0,0,1,12.93-2.46l3.62,2.46A6.45,6.45,0,0,0,196.22,292.62Zm-57.45,37.86c-3.38,5-8.32,7.49-11,5.64s-2.17-7.37,1.21-12.33,8.32-7.49,11-5.65S142.15,325.51,138.77,330.48Z"/><path fill="#cacafd" d="M224.79,245.82l-49-33.35a1.12,1.12,0,0,0-1.54.29l-21.13,31.05,51.18,34.83,20.9-30.7A1.53,1.53,0,0,0,224.79,245.82Z"/><path fill="#310078" d="M205.09,277.46l-51.16-34.82a1.25,1.25,0,0,0-1.72.33l-7.65,11.23,53.21,36.22,7.64-11.23A1.25,1.25,0,0,0,205.09,277.46Z"/><path fill="#cacafd" d="M157.5 253.46a3.41 3.41 0 11-.91-4.74A3.42 3.42 0 01157.5 253.46zM198.6 281.43a3.41 3.41 0 11-.9-4.73A3.41 3.41 0 01198.6 281.43z"/><path fill="#9a98eb" d="M157.28 242.31a.46.46 0 01-.28-.08.49.49 0 01-.13-.69L175.62 214a.5.5 0 01.69-.13.49.49 0 01.13.69L157.69 242.1A.49.49 0 01157.28 242.31zM159.91 244.1a.46.46 0 01-.28-.08.49.49 0 01-.13-.69l18.75-27.56a.5.5 0 01.69-.13.49.49 0 01.13.69l-18.75 27.56A.49.49 0 01159.91 244.1zM162.54 245.89a.46.46 0 01-.28-.08.49.49 0 01-.13-.69l18.75-27.56a.51.51 0 01.69-.13.49.49 0 01.13.69L163 245.68A.49.49 0 01162.54 245.89zM165.17 247.69a.47.47 0 01-.28-.09.49.49 0 01-.13-.69l18.75-27.56a.51.51 0 01.69-.13.5.5 0 01.14.69l-18.76 27.56A.5.5 0 01165.17 247.69zM167.8 249.48a.49.49 0 01-.28-.09.5.5 0 01-.13-.69l18.75-27.56a.51.51 0 01.69-.13.5.5 0 01.14.69l-18.76 27.56A.5.5 0 01167.8 249.48zM170.43 251.27a.49.49 0 01-.28-.09.5.5 0 01-.13-.69l18.75-27.56a.51.51 0 01.69-.13.5.5 0 01.14.69l-18.76 27.56A.5.5 0 01170.43 251.27zM173.06 253.06a.49.49 0 01-.28-.09.51.51 0 01-.13-.69l18.76-27.56a.5.5 0 01.82.56l-18.76 27.56A.49.49 0 01173.06 253.06zM175.69 254.85a.49.49 0 01-.28-.09.51.51 0 01-.13-.69L194 226.51a.5.5 0 11.82.56L176.1 254.63A.49.49 0 01175.69 254.85zM178.32 256.64a.51.51 0 01-.28-.09.51.51 0 01-.13-.69l18.76-27.56a.5.5 0 01.82.56l-18.76 27.56A.49.49 0 01178.32 256.64zM181 258.43a.51.51 0 01-.28-.09.51.51 0 01-.13-.69L199.3 230.1A.5.5 0 01200 230a.51.51 0 01.13.69l-18.76 27.56A.49.49 0 01181 258.43zM183.58 260.22a.51.51 0 01-.28-.09.51.51 0 01-.13-.69l18.76-27.55a.5.5 0 01.69-.14.51.51 0 01.13.69L184 260A.49.49 0 01183.58 260.22zM186.21 262a.51.51 0 01-.28-.09.51.51 0 01-.13-.69l18.76-27.55a.5.5 0 01.69-.14.51.51 0 01.13.69l-18.76 27.56A.49.49 0 01186.21 262zM188.84 263.8a.46.46 0 01-.27-.09.5.5 0 01-.14-.69l18.76-27.55a.49.49 0 11.82.55l-18.75 27.56A.52.52 0 01188.84 263.8zM191.47 265.59a.46.46 0 01-.27-.09.5.5 0 01-.14-.69l18.76-27.55a.49.49 0 11.82.55l-18.75 27.56A.52.52 0 01191.47 265.59zM194.1 267.38a.46.46 0 01-.27-.09.5.5 0 01-.14-.69l18.76-27.55a.5.5 0 01.69-.13.49.49 0 01.13.69l-18.75 27.55A.52.52 0 01194.1 267.38zM196.74 269.17a.47.47 0 01-.28-.09.49.49 0 01-.13-.69l18.75-27.55a.5.5 0 01.82.56L197.15 269A.52.52 0 01196.74 269.17zM199.37 271a.54.54 0 01-.28-.08.51.51 0 01-.14-.7l18.76-27.55a.5.5 0 01.69-.13.49.49 0 01.13.69l-18.75 27.55A.52.52 0 01199.37 271zM202 272.75a.54.54 0 01-.28-.08.5.5 0 01-.13-.7l18.75-27.55a.5.5 0 01.69-.13.49.49 0 01.13.69l-18.75 27.55A.5.5 0 01202 272.75zM204.63 274.54a.54.54 0 01-.28-.08.49.49 0 01-.13-.69L223 246.21a.5.5 0 01.69-.13.49.49 0 01.13.69L205 274.32A.5.5 0 01204.63 274.54z"/><path fill="#fdc9b7" d="M95.68,313.35l2.57-9.26s20.19,6.27,22.18,6.6a8.86,8.86,0,0,0,3.87-1.88c2.45-2.42,4.31-4.28,7.28-4.33s4.71,2.14,5.59,3.23c.65.78,1.62,2.76,1.29,3.05s-1.29,0-1.53-.11c-.81-.41-1.05-1.37-1.81-1.89a11.23,11.23,0,0,0-2.42-.84,15.8,15.8,0,0,1,2.26,2,7.13,7.13,0,0,1,1.52,3,2.75,2.75,0,0,1-.22,2.21c-.17.23-.74-.34-.88-1a7.24,7.24,0,0,0-.9-2.23,3.87,3.87,0,0,1,.17,1.95c-.17.87-1.24,2.57-1.21,1.08a4.44,4.44,0,0,0-.57-2.61,7.08,7.08,0,0,0-1.54-1.2c.56.78,1.82,3.53.46,3.95-.28.09-.4-.61-.66-1.14s-1.55-2.16-4,0c-4,3.56-6.59,1.95-6.59,1.95Z"/><path fill="url(#s)" d="M97.55,277.38c-2.26,6.38-6.13,17.48-6.62,20.64-.65,4.1,8.59,4.8,8.59,4.8l.86,11.89S83,313.78,80,308.32c-4.23-7.67-4-25.31-.07-36.31,2.68-7.56,12.21-10.42,16.2-5.66C98.89,269.63,98.16,275.66,97.55,277.38Z"/><path fill="url(#t)" d="M99.71,318.69s-7.28-1-7.64-1.54,1-18.7,1.79-18.77,6.46,2.18,6.46,2.18S101.25,316.39,99.71,318.69Z"/><path fill="#fdc9b7" d="M155.47,305.67s5.36,2.91,7.14,3.3.84,2.49-.05,2.6a2.1,2.1,0,0,1,1,1.35c.08.62-1.14,2.34-2.08,1.61,0,0,1.5,2.12-1.92,2.44,0,0,.13,1.76-1.4,1.62a11,11,0,0,1-6.7-2.86c-2.14-2.15-.3-3.71-.3-3.71s-.57-2,.86-2.38c0,0-.06-1.93,1.37-2.29C153.38,307.35,153.52,304.89,155.47,305.67Z"/><path fill="#ff5e99" d="M171.18,223.45l.17,9.64a2.68,2.68,0,0,0,2.67,2.67h0a2.67,2.67,0,0,0,2.67-2.67v-3.18a3.26,3.26,0,0,1,3.25-3.25h0a3.26,3.26,0,0,1,3.25,3.25V249.4a5,5,0,0,0,5,5h0a5,5,0,0,0,5-5v-8.88a3,3,0,0,1,3-3h0a3,3,0,0,1,3,3v5a3.25,3.25,0,0,0,3.25,3.25h0a3.26,3.26,0,0,0,3.25-3.25v-1.08a2.59,2.59,0,0,1,2.59-2.6h0a2.59,2.59,0,0,1,2.6,2.6v34a3.68,3.68,0,0,0,3.68,3.68h0a3.68,3.68,0,0,0,3.68-3.68V253.9a1.69,1.69,0,0,1,1.69-1.69h0c1.82,0,3.65-2.08,4.76-3.62a2.43,2.43,0,0,0-.16-3c-4.26-4.78-20.28-20.56-49-32.7a1.46,1.46,0,0,0-1.91.76C172.61,215.89,171.12,220.47,171.18,223.45Z"/><rect width="58.19" height="119.37" x="678.9" y="322.42" fill="#4164e0"/><path fill="url(#u)" d="M788.8,457.72H627.2a55.9,55.9,0,0,1,49.49-29.92H739.3a55.9,55.9,0,0,1,49.5,29.92Z"/><rect width="376.51" height="244.92" x="519.74" y="149.35" fill="url(#v)" rx="7.78"/><rect width="348.77" height="204.08" x="533.61" y="162.81" fill="#fff" rx="3.89"/><path fill="url(#w)" d="M537.5,162.81h341a3.89,3.89,0,0,1,3.89,3.89v35.21a0,0,0,0,1,0,0H533.61a0,0,0,0,1,0,0V166.7A3.89,3.89,0,0,1,537.5,162.81Z"/><path fill="#fff" d="M595 182.37a4.66 4.66 0 114.66 4.66A4.66 4.66 0 01595 182.37zM573.44 182.37A4.66 4.66 0 11578.1 187 4.67 4.67 0 01573.44 182.37zM551.88 182.37a4.67 4.67 0 114.66 4.66A4.67 4.67 0 01551.88 182.37zM845.27 181.85a13.26 13.26 0 1113.26 13.26A13.26 13.26 0 01845.27 181.85z"/><path fill="#023b7c" d="M852.71,188.68a1,1,0,0,0,.7-.3l11.53-11.53a1,1,0,1,0-1.41-1.41L852,187a1,1,0,0,0,0,1.41A1,1,0,0,0,852.71,188.68Z"/><path fill="#023b7c" d="M864.24,188.68a1,1,0,0,0,.7-.3,1,1,0,0,0,0-1.41l-11.53-11.53a1,1,0,1,0-1.41,1.41l11.53,11.53A1,1,0,0,0,864.24,188.68Z"/><path fill="#c8e1ff" d="M554.55,212.74h56.39a7.06,7.06,0,0,1,7.06,7.06v37.62a7.06,7.06,0,0,1-7.06,7.06H554.55a7.06,7.06,0,0,1-7.06-7.06V219.81A7.07,7.07,0,0,1,554.55,212.74Z"/><path fill="#f3f8ff" d="M618,241.35v18.94a4.2,4.2,0,0,1-4.19,4.2H551.69a4.2,4.2,0,0,1-4.2-4.2v-1.61L563,241.46a1.93,1.93,0,0,1,2.82-.05l11.58,12a1.93,1.93,0,0,0,2.8,0l23.82-26a1.92,1.92,0,0,1,2.92.1Z"/><path fill="#fff" d="M570.43,225.74a7.06,7.06,0,1,0-7.06,7.06A7.06,7.06,0,0,0,570.43,225.74Z"/><path fill="#c8e1ff" d="M633.66,212.74H690a7.06,7.06,0,0,1,7.06,7.06v37.62a7.06,7.06,0,0,1-7.06,7.06H633.66a7.06,7.06,0,0,1-7.06-7.06V219.81A7.07,7.07,0,0,1,633.66,212.74Z"/><path fill="#f3f8ff" d="M697.11,241.35v18.94a4.2,4.2,0,0,1-4.19,4.2H630.79a4.2,4.2,0,0,1-4.19-4.2v-1.61l15.46-17.22a1.93,1.93,0,0,1,2.82-.05l11.58,12a1.93,1.93,0,0,0,2.8,0l23.82-26a1.92,1.92,0,0,1,2.92.1Z"/><path fill="#fff" d="M649.54,225.74a7.06,7.06,0,1,0-7.06,7.06A7.06,7.06,0,0,0,649.54,225.74Z"/><rect width="149.62" height="74.25" x="547.49" y="276.81" fill="#c8e1ff" rx="7.41"/><rect width="137.84" height="65.27" x="553.38" y="281.3" fill="#f3f8ff" rx="4.45"/><circle cx="622.3" cy="308.06" r="15.52" fill="#c8e1ff" transform="rotate(-9.22 622.128 307.988)"/><path fill="#fff" d="M631.74,307.54l-13.31-7.68a.59.59,0,0,0-.89.51v15.37a.59.59,0,0,0,.89.51l13.31-7.68A.59.59,0,0,0,631.74,307.54Z"/><path fill="#c8e1ff" d="M684.68,337.51a2.62,2.62,0,0,1-2.64,2.64H562.56a2.64,2.64,0,0,1,0-5.28H682A2.64,2.64,0,0,1,684.68,337.51Z"/><path fill="#fff" d="M629.78,334.87v5.28H562.56a2.64,2.64,0,0,1,0-5.28Z"/><path fill="#c9e2ff" d="M744.2 223.42H728.62a2.46 2.46 0 110-4.91H744.2a2.46 2.46 0 110 4.91zM849 223.42H759.57a2.46 2.46 0 010-4.91H849a2.46 2.46 0 010 4.91zM744.2 260.41H728.62a2.45 2.45 0 110-4.9H744.2a2.45 2.45 0 110 4.9zM849 260.41H759.57a2.45 2.45 0 010-4.9H849a2.45 2.45 0 010 4.9zM817.8 235.75H728.62a2.46 2.46 0 110-4.91H817.8a2.46 2.46 0 110 4.91zM849 235.75H832.31a2.46 2.46 0 110-4.91H849a2.46 2.46 0 010 4.91zM817.8 272.75H728.62a2.46 2.46 0 110-4.91H817.8a2.46 2.46 0 110 4.91zM849 272.75H832.31a2.46 2.46 0 110-4.91H849a2.46 2.46 0 010 4.91zM764.55 248.08H728.62a2.46 2.46 0 110-4.91h35.93a2.46 2.46 0 010 4.91zM849 248.08H784.25a2.46 2.46 0 010-4.91H849a2.46 2.46 0 010 4.91zM744.2 294.18H728.62a2.45 2.45 0 110-4.9H744.2a2.45 2.45 0 110 4.9zM849 294.18H759.57a2.45 2.45 0 010-4.9H849a2.45 2.45 0 010 4.9zM744.2 331.18H728.62a2.46 2.46 0 110-4.91H744.2a2.46 2.46 0 110 4.91zM849 331.18H759.57a2.46 2.46 0 010-4.91H849a2.46 2.46 0 010 4.91zM817.8 306.51H728.62a2.45 2.45 0 110-4.9H817.8a2.45 2.45 0 110 4.9zM849 306.51H832.31a2.45 2.45 0 110-4.9H849a2.45 2.45 0 010 4.9zM817.8 343.51H728.62a2.46 2.46 0 110-4.91H817.8a2.46 2.46 0 110 4.91zM849 343.51H832.31a2.46 2.46 0 110-4.91H849a2.46 2.46 0 010 4.91zM764.55 318.85H728.62a2.46 2.46 0 110-4.91h35.93a2.46 2.46 0 010 4.91zM849 318.85H784.25a2.46 2.46 0 010-4.91H849a2.46 2.46 0 010 4.91z"/><path fill="#310078" d="M515.47,348.74h84.69a5.92,5.92,0,0,0,5.91-5.91h0a5.92,5.92,0,0,0-5.91-5.91H515.47a5.92,5.92,0,0,0-5.91,5.91h0A5.92,5.92,0,0,0,515.47,348.74Z"/><rect width="85.69" height="9.19" x="513.5" y="383.53" fill="#310078" transform="rotate(180 556.34 388.13)"/><rect width="107.52" height="9.19" x="504.05" y="427.52" fill="#310078" transform="rotate(180 557.815 432.115)"/><polygon fill="#310078" points="498.91 462.25 527.69 342.83 519.81 342.83 491.03 462.25 498.91 462.25"/><polygon fill="#310078" points="620.73 462.25 591.95 342.83 584.07 342.83 612.85 462.25 620.73 462.25"/><path fill="url(#x)" d="M747.26,168.21,487.82,258.72a2.46,2.46,0,0,1-3.13-1.51L473.47,225a2.46,2.46,0,0,1,1.51-3.13L734.42,131.4a2.46,2.46,0,0,1,3.12,1.51l11.23,32.17A2.47,2.47,0,0,1,747.26,168.21Z"/><g clip-path="url(#y)"><rect width="3.74" height="27.51" x="484.09" y="213.8" fill="url(#z)" transform="rotate(-19.23 485.982 227.55)"/><rect width="3.74" height="16.13" x="490.55" y="211.21" fill="url(#A)" transform="rotate(-19.22 492.552 219.304)"/><rect width="3.74" height="16.13" x="498.97" y="208.27" fill="url(#B)" transform="rotate(-19.25 500.788 216.323)"/><rect width="3.74" height="27.51" x="508.49" y="205.29" fill="url(#C)" transform="rotate(-19.23 510.376 219.051)"/><rect width="3.74" height="16.13" x="514.96" y="202.69" fill="url(#D)" transform="rotate(-19.23 516.702 210.741)"/><rect width="3.74" height="16.14" x="523.38" y="199.76" fill="url(#E)" transform="rotate(-19.22 525.385 207.852)"/><rect width="3.74" height="27.51" x="532.9" y="196.77" fill="url(#F)" transform="rotate(-19.23 534.774 210.523)"/><rect width="3.74" height="16.13" x="539.36" y="194.18" fill="url(#G)" transform="rotate(-19.23 541.248 202.238)"/><rect width="3.74" height="16.14" x="547.78" y="191.24" fill="url(#H)" transform="rotate(-19.23 549.548 199.303)"/><rect width="3.74" height="27.51" x="557.3" y="188.26" fill="url(#I)" transform="rotate(-19.23 559.196 202.03)"/><rect width="3.74" height="16.13" x="563.77" y="185.67" fill="url(#J)" transform="rotate(-19.23 565.523 193.72)"/><rect width="3.74" height="16.14" x="572.19" y="182.73" fill="url(#K)" transform="rotate(-19.22 574.2 190.813)"/><rect width="3.74" height="27.51" x="581.71" y="179.74" fill="url(#L)" transform="rotate(-19.23 583.595 193.503)"/><rect width="3.74" height="16.13" x="588.17" y="177.15" fill="url(#M)" transform="rotate(-19.22 590.182 185.226)"/><rect width="3.74" height="16.14" x="596.59" y="174.21" fill="url(#N)" transform="rotate(-19.22 598.605 182.309)"/><rect width="3.74" height="27.51" x="606.11" y="171.23" fill="url(#O)" transform="matrix(.94 -.33 .33 .94 -27 210.59)"/><rect width="3.74" height="16.13" x="612.58" y="168.64" fill="url(#P)" transform="rotate(-19.22 614.38 176.687)"/><rect width="3.74" height="16.14" x="620.99" y="165.7" fill="url(#Q)" transform="rotate(-19.23 622.885 173.774)"/><rect width="3.74" height="27.51" x="630.52" y="162.72" fill="url(#R)" transform="rotate(-19.23 632.415 176.482)"/><rect width="3.74" height="16.13" x="636.98" y="160.12" fill="url(#S)" transform="rotate(-19.22 639.027 168.193)"/><rect width="3.74" height="16.14" x="645.4" y="157.19" fill="url(#T)" transform="rotate(-19.23 647.283 165.247)"/><rect width="3.74" height="27.51" x="654.92" y="154.2" fill="url(#U)" transform="matrix(.94 -.33 .33 .94 -18.67 225.72)"/><rect width="3.74" height="16.13" x="661.38" y="151.61" fill="url(#V)" transform="rotate(-19.22 663.402 159.683)"/><rect width="3.74" height="16.13" x="669.8" y="148.67" fill="url(#W)" transform="rotate(-19.23 671.676 156.748)"/><rect width="3.74" height="27.51" x="679.32" y="145.69" fill="url(#X)" transform="rotate(-19.23 681.207 159.456)"/><rect width="3.74" height="16.13" x="685.79" y="143.09" fill="url(#Y)" transform="rotate(-19.23 687.68 151.17)"/><rect width="3.74" height="16.13" x="694.21" y="140.16" fill="url(#Z)" transform="rotate(-19.22 696.235 148.23)"/><rect width="3.74" height="27.51" x="703.73" y="137.17" fill="url(#aa)" transform="matrix(.94 -.33 .33 .94 -10.34 240.85)"/><rect width="3.74" height="16.13" x="710.19" y="134.58" fill="url(#ab)" transform="rotate(-19.23 712.079 142.643)"/><rect width="3.74" height="16.13" x="718.61" y="131.64" fill="url(#ac)" transform="rotate(-19.22 720.674 139.702)"/><rect width="3.74" height="27.51" x="728.13" y="128.66" fill="url(#ad)" transform="rotate(-19.22 730.175 142.434)"/></g><path fill="#f0ccc1" d="M595.22,198c3.95-2.75,21.58-19,21.58-19s-1.13-5.11-.47-6.61a7.36,7.36,0,0,1,1.78-2.78s3.31-2.43,4.2-2.54.55,1.6.21,2.26a30.53,30.53,0,0,1-3,3.23,1,1,0,0,0-.17.67c0,.15.21.09.49-.13,1.06-.77,3.52-3.59,5.19-5.2,2.12-2,4.18-3.42,4.7-3.45a.73.73,0,0,1,.79,1c.2,0,2.39,0,2.09,1.3,0,0,.16,0-.41,1.08a2.27,2.27,0,0,1,.12,2.8s-2.84,5.83-2.84,5.84c-1.09,1.5-3.3,5.19-7.86,5.9,0,0-15.69,23.09-20,24.94s-20.84,9.63-20.84,9.63l-1.46-12.27S591.27,200.72,595.22,198Z"/><path fill="url(#ae)" d="M595,428.52c-.93-2.14-13.3-3.41-17.61-3.54-4.85-.13-.56-3-4.47-2.51L569,423a13.58,13.58,0,0,0-1.39,6.31c0,.25,0,.49,0,.76.17,2.61,8.26,2.23,15.79,1.47,4.69-.47,9.27-.08,11.32-2.17A.75.75,0,0,0,595,428.52Z"/><path fill="#f0ccc1" d="M567.42,413.4l.64,11.87s10.54,1.56,8.65-.33l.56-11Z"/><path fill="url(#af)" d="M555.65,425.18c-1-2.06-12.49-2.38-16.48-2.17-4.5.24-.66-3-4.26-2.16l-3.6.84a14.72,14.72,0,0,0-1,6.39c0,.24,0,.48.06.75.29,2.59,7.76,1.58,14.7.25,4.32-.83,8.58-.8,10.38-3A.77.77,0,0,0,555.65,425.18Z"/><path fill="#f0ccc1" d="M529.29,411.92l1.3,11.81s10,1.16,8.95-.74l-.4-11.14Z"/><path fill="url(#ag)" d="M573.89,278.56s-30.82,9.82-54.67,5c0,0-2.29,32.69,8.45,134.88l12.52-.32s3.56-21,5.52-105.43l2.59-.23s9.82,71.73,16.4,106l14.21-.55S579.27,309.32,573.89,278.56Z"/><path fill="#f0ccc1" d="M510.55,221.76s-4.39,17.66-8.75,15.19c-3.2-1.81-8.93-18.26-8.93-18.26l-4.45.92s2.29,30.69,12,34.62c3.53,1.43,17-13.65,17-13.65l6.23-14.68Z"/><path fill="#95e8fd" d="M590.51,217.52c-.55-8.28-3.6-18.55-3.6-18.55-12.88,2.93-26.39-2.05-41.3-3.43-3.31-.31-16,0-23.46,4.33-8.31,4.86-14.91,19.41-16.29,24.1a91,91,0,0,0,10.81,1.76c-1.49,21.59-1.59,61.74-1.59,61.74,25.95,2.49,61.83-6.6,61.83-6.6-.75-7.53-3.56-33.47-4-62.42A62.16,62.16,0,0,0,590.51,217.52Z"/><path fill="#f0ccc1" d="M558.64,163.51s1.52,4.83,1.93,7,2.67,2.63,2.9,3.31-1.1,2.21-1.1,2.21,2.9,6.35,1.1,8.42-8,2.07-8,2.07v10.76a16.22,16.22,0,0,1-15.87-1V186s-5.66-12.69-.56-20.28S558.64,163.51,558.64,163.51Z"/><path fill="#310078" d="M563.83,159.12c.88-3.47-.53-5.53-4-4.81-6.9,1.42-11-4.46-21.07.37a18.24,18.24,0,0,0-5.11,3.67,19.83,19.83,0,0,1,.19-2.38,7.1,7.1,0,0,0-1.36,3.62c-1.13.22-3.85.86-4.28,2.07a6.89,6.89,0,0,1,3.13-.44c-4.41,6.66-4.79,16.14,3,23.68,4.64,4.47,11.47.59,13.75-3.62,0,0-4.26.39-4.58-2.61-.25-2.34,1.61-4,3.26-2.88,2.5,1.66,2.19,2,3.16,1.87a21,21,0,0,1-.33-7.66s10.9-1.73,13.32-7.25a12.34,12.34,0,0,1-2.35,1.17A7.52,7.52,0,0,0,563.83,159.12Z"/><path fill="#f0ccc1" d="M493.57,220.66a13,13,0,0,0,3.73-2.13c1.33-1.2,2.19-6.08.08-4.08-3.05,2.88-2.6.58-3.1-.35-.39-.74-1.23-2-2.72-.47,0,0-1.63-1.73-2.57.32,0,0-2.84-.11-2.74,1.15,0,0-2.09.4-1.7,1.79s4.06,4.8,4.06,4.8Z"/><path fill="#f5bca9" d="M406.78,259.69c-1.58,7.31-5,22.65-5.31,23.2,0,0-13.61,15.64-14.51,15.19s-4.36.16-4.86.32-2.88-.62-2.36.47,3.87.53,3.12,1.71c-2.47,3.85-5.26,5.6-5.65,6.42s.72,1,.72,1c-.29.21-1.26,1.27-.65,1.69s1.62-.3,1.62-.3.09.81.51.95c.82.29,1.45-.75,1.45-.75.12.41,1.19.48,1.67.38,1-.21,5.87-4.92,7.24-7.27.28-.49,18.6-15,20.1-16.54,1-1,4.94-11.89,6.36-20.49C414.64,264.92,411.25,261.7,406.78,259.69Z"/><path fill="#310078" d="M415.79,452.36l-6.35-.31-5.11,7.35a15.26,15.26,0,0,1-4.5,4.23c-2.12,1.31-4.57,3.22-4.09,4.45.33.84,7.13.73,10.71.62,1.93-.06,4.95-2.89,7.26-5.79.36,2.7.75,5.48.75,5.48l1.82-.08c.59-2.2.69-9.34.7-11h0A10.16,10.16,0,0,0,415.79,452.36Z"/><path fill="#f5bdaf" d="M401.78,361.38c-.66-9.21.33-48.73,3.25-52.58,1.5-2,20.18,0,20.18.22,0,8.14-4.77,97.61-5.29,103.83s-4.25,33.9-4.26,33.9l.13,5.61s-8.22,10.4-10.78,9.11c-1.17-.59,4.43-9.42,4.43-9.42l-.33-5.58S402.43,370.58,401.78,361.38Z"/><path fill="#310078" d="M447.33,456.55h0a10.27,10.27,0,0,0-1.6-4.84l-6.35.22-4.49,7.74a15.15,15.15,0,0,1-4.14,4.59c-2,1.48-4.29,3.59-3.7,4.78.4.81,7.16.14,10.72-.28,1.92-.22,4.69-3.29,6.76-6.37.58,2.66,1.2,5.4,1.2,5.4l1.81-.23C447.94,465.31,447.45,458.19,447.33,456.55Z"/><path fill="#f5bdaf" d="M424.24,362.18c-1.42-9.12-3.7-48.58-1.11-52.66,1.33-2.1,20.11-1.63,20.12-1.45.66,8.12,3.33,97.67,3.32,103.92s-1.43,34.13-1.43,34.13l.59,5.58s-7.33,11-10,10c-1.22-.49,3.64-9.75,3.64-9.75l-.79-5.54S425.65,371.31,424.24,362.18Z"/><path fill="#310078" d="M416,214s-4.62,9.59-3.06,17.28,9.54,10.38,9.75,15.29-4.2,9.64-1.73,14.27,27.46,12.66,34.48,6.32,8.45-14.56,3.88-20.81-5-10-3.38-14.8,1.2-14.57-5.89-20.72C442.4,204.2,428.55,201.33,416,214Z"/><path fill="#f5007b" d="M408.24,304.36c-10.09,10.26-6.66,53.11-16.14,70.79,0,0,33.15,12.36,61.41,3.5-4.88-12.39-.74-46.1-5.25-67.9C445.3,296.47,415.65,281.57,408.24,304.36Z"/><path fill="#e4eeff" d="M400.33,317c4.39,10.53,52.06,6,52.06,6s-9.8-34-8-44.41c2.85,2.17,6.45,4.4,6.45,4.4a38.09,38.09,0,0,0,1.67-21.64c-2.55-12.31-14.71-15.51-14.71-15.51s-19.67-3.63-29.9,8.45a38.86,38.86,0,0,0-4.2,7l1,.5h0c2.05,1,5.15,2.58,5.15,2.63a10.57,10.57,0,0,0-2.53,4.83,13.68,13.68,0,0,0,1.38,6.45,38.68,38.68,0,0,1,2.23,14.85C410.52,296.73,400.33,317,400.33,317Z"/><path fill="#f5bca9" d="M423.92,242c-10.42-7.34-4.72-27.57-4.72-27.57l11.29,1.22,5.4.24,1.35,8.27s4.33-2.9,4.68.56c.25,2.43-2,5.67-2,5.67s-1.18,6.85-5.91,10.81a22.89,22.89,0,0,0,1.45,4.4s-5.46,6.91-9.74,8.65-2.49-5.87-2.49-5.87A57.7,57.7,0,0,0,423.92,242Z"/><path fill="#310078" d="M411,224.13a7.29,7.29,0,0,0,1.18-5.25c-.45-3.2.28-8,5.64-8.94,1.93-.35,3.43,1.13,4.5,2.92,2.62-10.19,18.45-7.67,20.37-6.3,2.36,1.69,12.94,4.5,13.64,17.63.22,4.2-8.17,17-12.78,15s-2.47-4.29-2.76-7-7.43-4.3-12.23-7.32c-3.42-2.14-5.4-6.45-5.47-8.32C423.08,216.54,420.1,222.14,411,224.13Z"/><path fill="#c3d4d8" d="M439 274.62s-1.66-.86-3.79-1.76l3.1-11.06-4.77 11.53 9.31 5.14zM409.85 264.39s4.07-7.56 6.61-9.41c0 0-6.89 5.09-7.77 8.79z"/><path fill="#f5bca9" d="M418.93,228.13a23.52,23.52,0,0,1-2.25,3.76c-.87.93,2.7,2.09,2.7,2.09Z"/><path fill="url(#ah)" d="M421,323.87h-2.46v-3a19.11,19.11,0,1,0-38.21,0v3h-2.46v-3a21.57,21.57,0,1,1,43.13,0Z"/><path fill="url(#ai)" d="M420.57,355.31h0V323.87H378.22v31.44h0s0,0,0,.05c0,.87,9.48,3.74,21.19,3.74s21.18-2.87,21.18-3.74C420.59,355.34,420.58,355.33,420.57,355.31Z"/><path fill="#310078" d="M414.39,322.39c-3.84-.4-9.13-.64-15-.64s-11.15.24-15,.64-6.2.94-6.2,1.54c0,.17.18.33.52.48a7.3,7.3,0,0,0,1.49.45,59.42,59.42,0,0,0,7.69.9c3.3.22,7.25.35,11.49.35h1.86l1.69,0h.12c1.05,0,2.08,0,3.08-.08s1.95-.07,2.86-.12c1.85-.09,3.53-.22,5-.36l1.8-.2,1.55-.22.94-.18a7.14,7.14,0,0,0,.79-.18l.26-.07a3.22,3.22,0,0,0,.37-.12l.47-.19a1.11,1.11,0,0,0,.16-.11c.15-.1.22-.2.22-.31C420.59,323.33,418.22,322.79,414.39,322.39Zm3.78,1.78c-.28.06-.59.12-.92.17l-1.52.22c-.55.07-1.14.13-1.77.19-1.49.16-3.17.28-5,.37s-3.88.16-5.93.19h-.4l-.1-.25,15.91-1.1.14.11Z"/><path fill="url(#aj)" d="M414.39,322.39c-3.84-.4-9.13-.64-15-.64s-11.15.24-15,.64-6.2.94-6.2,1.54c0,.17.18.33.52.48a7.3,7.3,0,0,0,1.49.45,59.42,59.42,0,0,0,7.69.9c3.3.22,7.25.35,11.49.35h1.86l1.69,0h.12c1.05,0,2.08,0,3.08-.08s1.95-.07,2.86-.12c1.85-.09,3.53-.22,5-.36l1.8-.2,1.55-.22.94-.18a7.14,7.14,0,0,0,.79-.18l.26-.07a3.22,3.22,0,0,0,.37-.12,3.68,3.68,0,0,0,.47-.2l.16-.1c.15-.1.22-.2.22-.31C420.59,323.33,418.22,322.79,414.39,322.39Zm3.78,1.78c-.28.06-.59.12-.92.17l-1.52.22c-.55.07-1.14.13-1.77.19-1.49.16-3.17.28-5,.37s-3.88.16-5.93.19h-.4l-1.41,0h-1.84c-4.08,0-8-.12-11.45-.35a57.53,57.53,0,0,1-7.57-.88l-.76-.19a30.3,30.3,0,0,1,4.87-.79c4-.41,9.27-.63,14.91-.63s10.92.22,14.89.63a30.3,30.3,0,0,1,4.87.79,1.53,1.53,0,0,0-.26.08l-.3.07Z"/><path fill="#310078" d="M418.47,324l-15.91,1.1.1.25h.4c2.05,0,4-.09,5.93-.19s3.48-.21,5-.37c.63-.06,1.22-.12,1.77-.19l1.52-.22c.33,0,.64-.11.92-.17l.44-.09Z"/><path fill="#ff76ad" d="M419.37,324.66l-6.82,2-9.57-.61h0l-.3-.75h.4c2.05,0,4-.09,5.93-.19s3.48-.21,5-.37c.63-.06,1.22-.12,1.77-.19l1.52-.22c.33,0,.64-.11.92-.17l.44-.09Z"/><path fill="#ff5e99" d="M419.39,329.25c0,.28-.31.5-.69.5s-.7-.22-.7-.5v-.65c0-.32-.37-.59-.81-.59s-.83.27-.83.59v13.79a.94.94,0,0,1-.42.75,1.74,1.74,0,0,1-1,.31c-.81,0-1.46-.47-1.46-1.06v-.59c0-.46-.5-.83-1.13-.83s-1.14.37-1.14.83v4a1,1,0,0,1-.48.84,1.93,1.93,0,0,1-1.16.36c-.9,0-1.63-.54-1.63-1.2v-15c0-.41-.46-.74-1-.74s-1,.33-1,.74v3.07c0,.53-.6,1-1.34,1s-1.33-.42-1.33-.95c0,0-.3-8.46-.27-8.48,4.21-.05,8.11-.19,11.07-.4,1.28-.1,2.41-.2,3.35-.31.68-.09,1.52-.22,2-.31A42.71,42.71,0,0,1,419.39,329.25Z"/><path fill="#f5bca9" d="M400.23,302.24a12.13,12.13,0,0,0,3.89-1.76c-2.63-2.43-2.74-5.11-2.11-4.88,1.06.37,1.72,2.37,3.45,2.58a24.6,24.6,0,0,1,3.6.83,11.3,11.3,0,0,0,3.66.39h0c2.36-1,17.23-7.57,20.21-9.39,3.23-2,6.09-15.39,6.09-15.39l8.36,6.11s-4.46,13.41-7.16,15.95c-2.52,2.36-23.81,6.76-26.58,7.32h0a38.3,38.3,0,0,0-3.39,3.09c-1.29,1.4-3.66,3-5.06,3a3.44,3.44,0,0,1-2.16-.83c-1.07-.83-.64-1.37-.64-1.37a5,5,0,0,1-1.51-2.59C399.59,304.18,400.23,302.24,400.23,302.24Z"/></svg>