<svg xmlns="http://www.w3.org/2000/svg" enable-background="new 0 0 2000 2000" viewBox="0 0 2000 2000"><path fill="#ffffff" fill-rule="evenodd" d="M557.5,1227.7c-2.9,40.4-8.9,46-47.4,49.1c38.5,3.1,44.5,8.7,47.4,49.1c2.9-40.4,8.9-46,47.4-49.1
		C566.4,1273.7,560.5,1268.1,557.5,1227.7L557.5,1227.7z M714.1,1334.3c-1.6,21.6-4.8,24.6-25.3,26.2c20.6,1.7,23.8,4.6,25.3,26.2
		c1.6-21.6,4.8-24.6,25.3-26.2C718.9,1358.8,715.7,1355.8,714.1,1334.3L714.1,1334.3z M645.5,1168.2c-1.6,21.9-4.8,24.9-25.7,26.6
		c20.8,1.7,24.1,4.7,25.7,26.6c1.6-21.9,4.8-24.9,25.7-26.6C650.4,1193.1,647.1,1190,645.5,1168.2z" clip-rule="evenodd" class="colorffffff svgShape"></path><path fill="#e9eef7" fill-rule="evenodd" d="M1015.3,365.2c170.5,0,151,301.1,274.1,392.9c162.9,121.5,443.2,61.3,443.2,269.8
			c0,366-363.5,498.6-759.7,498.6s-734.2-203-616.2-568C474.6,593.5,619.1,365.2,1015.3,365.2z" clip-rule="evenodd" class="colore9eef7 svgShape"></path><path fill="#d1dced" fill-rule="evenodd" d="M1032.7,1634.8c356.8,0,647.9-10.1,647.9-22.4c0-12.4-291-22.4-647.9-22.4c-356.8,0-647.9,10.1-647.9,22.4
			C384.9,1624.7,675.9,1634.8,1032.7,1634.8z" clip-rule="evenodd" class="colord1deed svgShape"></path><path fill="#6190df" fill-rule="evenodd" d="M848.2,746.2h522.7c40.8,0,74.2,33.4,74.2,74.2v718.5c0,40.8-33.4,74.2-74.2,74.2H848.2
			c-40.8,0-74.2-33.4-74.2-74.2V820.4C774,779.5,807.3,746.2,848.2,746.2z" clip-rule="evenodd" class="color619fdf svgShape"></path><path fill="#d1dff6" fill-rule="evenodd" d="M848.2,767.1h522.7c29.3,0,53.2,24,53.2,53.2v718.5c0,29.3-24,53.2-53.2,53.2H848.2
			c-29.3,0-53.2-24-53.2-53.2V820.4C794.9,791.1,818.9,767.1,848.2,767.1z" clip-rule="evenodd" class="colord1e4f6 svgShape"></path><rect width="741.3" height="542.3" x="736.1" y="881.8" fill="#ffffff" fill-rule="evenodd" clip-rule="evenodd" transform="matrix(.00792 -1 1 .00792 -54.95 2250.438)" class="colorffffff svgShape"></rect><path fill="#6190df" fill-rule="evenodd" d="M979.7,713.4h91.9v-19.4c0-20.9,17.1-37.9,37.9-37.9l0,0c20.9,0,37.9,17.1,37.9,37.9v19.4h91.9
			c12.6,0,22.9,10.3,22.9,22.9V780c0,12.6-10.3,22.9-22.9,22.9H979.7c-12.6,0-22.9-10.3-22.9-22.9v-43.6
			C956.8,723.7,967.1,713.4,979.7,713.4L979.7,713.4z M1109.5,678.8c-9.3,0-16.8,7.5-16.8,16.8c0,9.3,7.5,16.8,16.8,16.8
			c9.3,0,16.8-7.5,16.8-16.8C1126.3,686.3,1118.8,678.8,1109.5,678.8z" clip-rule="evenodd" class="color619fdf svgShape"></path><path fill="#8aade8" fill-rule="evenodd" d="M966.3 1149h250.5c2.4 0 4.4 1 4.4 2.2v0c0 1.2-2 2.2-4.4 2.2H966.3c-2.4 0-4.4-1-4.4-2.2v0C961.8 1150 963.8 1149 966.3 1149zM966.3 1169.8h174.5c2.4 0 4.4 1 4.4 2.2v0c0 1.2-2 2.2-4.4 2.2H966.3c-2.4 0-4.4-1-4.4-2.2v0C961.8 1170.8 963.8 1169.8 966.3 1169.8zM966.3 1190.5h109c2.4 0 4.4 1 4.4 2.2v0c0 1.2-2 2.2-4.4 2.2h-109c-2.4 0-4.4-1-4.4-2.2v0C961.8 1191.5 963.8 1190.5 966.3 1190.5zM1099.6 1190.5h117.3c2.4 0 4.4 1 4.4 2.2v0c0 1.2-2 2.2-4.4 2.2h-117.3c-2.4 0-4.4-1-4.4-2.2v0C1095.1 1191.5 1097.1 1190.5 1099.6 1190.5zM1166.6 1169.8h50.6c2.4 0 4.4 1 4.4 2.2v0c0 1.2-2 2.2-4.4 2.2h-50.6c-2.4 0-4.4-1-4.4-2.2v0C1162.1 1170.8 1164.1 1169.8 1166.6 1169.8zM966.1 1245.3H1323c2.4 0 4.3 1 4.3 2.1v0c0 1.2-1.9 2.1-4.3 2.1H966.1c-2.3 0-4.3-1-4.3-2.1v0C961.8 1246.3 963.7 1245.3 966.1 1245.3zM966.1 1265.3h168.2c2.4 0 4.3 1 4.3 2.1v0c0 1.2-1.9 2.1-4.3 2.1H966.1c-2.3 0-4.3-1-4.3-2.1v0C961.8 1266.3 963.8 1265.3 966.1 1265.3zM966.1 1285.3h105c2.4 0 4.3 1 4.3 2.1l0 0c0 1.2-1.9 2.1-4.3 2.1h-105c-2.4 0-4.3-1-4.3-2.1l0 0C961.8 1286.3 963.8 1285.3 966.1 1285.3zM1085.4 1285.3H1323c2.3 0 4.3 1 4.3 2.1l0 0c0 1.2-1.9 2.1-4.3 2.1h-237.6c-2.3 0-4.3-1-4.3-2.1l0 0C1081.1 1286.3 1083.1 1285.3 1085.4 1285.3zM1153.6 1265.3H1323c2.4 0 4.3 1 4.3 2.1v0c0 1.2-2 2.1-4.3 2.1h-169.4c-2.3 0-4.3-1-4.3-2.1v0C1149.3 1266.3 1151.3 1265.3 1153.6 1265.3zM966.3 977.8h250.5c2.4 0 4.4 1 4.4 2.2v0c0 1.2-2 2.2-4.4 2.2H966.3c-2.4 0-4.4-1-4.4-2.2v0C961.8 978.8 963.8 977.8 966.3 977.8zM966.3 998.5h174.5c2.4 0 4.4 1 4.4 2.2v0c0 1.2-2 2.2-4.4 2.2H966.3c-2.4 0-4.4-1-4.4-2.2v0C961.8 999.5 963.8 998.5 966.3 998.5zM966.3 1019.3h109c2.4 0 4.4 1 4.4 2.2v0c0 1.2-2 2.2-4.4 2.2h-109c-2.4 0-4.4-1-4.4-2.2v0C961.8 1020.3 963.8 1019.3 966.3 1019.3zM1099.6 1019.3h117.3c2.4 0 4.4 1 4.4 2.2v0c0 1.2-2 2.2-4.4 2.2h-117.3c-2.4 0-4.4-1-4.4-2.2v0C1095.1 1020.3 1097.1 1019.3 1099.6 1019.3zM1166.6 998.5h50.6c2.4 0 4.4 1 4.4 2.2v0c0 1.2-2 2.2-4.4 2.2h-50.6c-2.4 0-4.4-1-4.4-2.2v0C1162.1 999.5 1164.1 998.5 1166.6 998.5zM966.1 1074H1323c2.4 0 4.3 1 4.3 2.1v0c0 1.2-1.9 2.1-4.3 2.1H966.1c-2.3 0-4.3-1-4.3-2.1v0C961.8 1075 963.7 1074 966.1 1074zM966.1 1094.1h168.2c2.4 0 4.3 1 4.3 2.1v0c0 1.2-1.9 2.1-4.3 2.1H966.1c-2.3 0-4.3-1-4.3-2.1v0C961.8 1095 963.8 1094.1 966.1 1094.1zM966.1 1114.1h105c2.4 0 4.3 1 4.3 2.1l0 0c0 1.2-1.9 2.1-4.3 2.1h-105c-2.4 0-4.3-1-4.3-2.1l0 0C961.8 1115 963.8 1114.1 966.1 1114.1zM1085.4 1114.1H1323c2.3 0 4.3 1 4.3 2.1l0 0c0 1.2-1.9 2.1-4.3 2.1h-237.6c-2.3 0-4.3-1-4.3-2.1l0 0C1081.1 1115 1083.1 1114.1 1085.4 1114.1zM1153.6 1094.1H1323c2.4 0 4.3 1 4.3 2.1v0c0 1.2-2 2.1-4.3 2.1h-169.4c-2.3 0-4.3-1-4.3-2.1v0C1149.3 1095 1151.3 1094.1 1153.6 1094.1z" clip-rule="evenodd" class="color8ab9e8 svgShape"></path><path fill="#6190df" fill-rule="evenodd" d="M1236.3,1370.9c0-0.9,0.8-1.6,1.8-1.4c1,0.1,1.8,1,1.8,2c0,0.3-0.1,1.2-0.3,2.6c1.6,0.2,3,1,4.2,2.7
		c1.5,2.1,2.5,5.6,2.5,11.2v0v0.1c0,11-0.6,19.2-1.4,24.9c2.6-3.5,6.3-7.9,11.5-12.6c5.5-5,8.6-5.4,10.6-3.3l0,0
		c1.8,1.9,1.7,5.7,1.7,9.7c0,3.5-0.1,7.3,1,8.6c0.8,1.1,3.2,0.4,8.6-3.8c9.5-7.4,12.1-8.5,15-4.8l0,0c0.7,0.9,1.2,1.9,1.9,3.3
		c2.8,5.3,8.1,15.3,28.3,25.9c4.5,2.3,11.3,2.3,17,2.3l2,0c1,0,1.9,0.8,2,1.7c0.2,1-0.5,1.7-1.4,1.7l-2,0c-6.1,0-13.4,0.1-18.8-2.7
		c-21.5-11.2-27.2-22-30.2-27.7c-0.6-1.1-1.1-2.1-1.5-2.6l0,0c-0.8-1.1-2.6,0-9.9,5.8c-7.5,5.8-11.5,5.7-13.7,2.8
		c-1.9-2.5-1.9-6.9-1.9-11c0-3.2,0-6.3-0.6-7c-0.4-0.4-1.9,0.5-5.6,3.9c-9.5,8.7-13.9,16-15.6,19.3c-0.1,0.1-0.2,0.2-0.3,0.3
		c-0.6,1.6-1.3,2.5-1.4,2.5c-0.3,0.1-1.3-0.2-1.8-1.2c-2.2,0.6-5.5,1.1-9.8,1.5l-0.2,0.9c-1,4.3-1.9,7.8-2.7,10
		c-1.7,4.8-3.4,5.9-5,1.6c-0.3-0.9-0.5-2.7-0.5-5.6v0c0-2.1-0.2-4.2-0.5-6.1c-26.5,1.8-71.8,1.8-103.7-0.8
		c-10.1-0.8-18.9-2-25.3-3.4c-7.1-1.6-11.7-3.7-12.5-6.5h0l0,0c-0.4-1.3-0.1-2.5,0.9-3.8c13.3-15.6,44-24.8,73.6-24.8
		c11.1,0,22,1.3,31.8,4c9.9,2.7,18.8,6.9,25.6,12.7c6,5.1,10.4,11.5,12.4,19.2l3.1-0.3c0.7-3.2,1.5-6.8,2.2-10.6
		c-6.6-5.6-12.4-13.8-6.2-27c0.1-0.2,0.2-0.4,0.4-0.5c1.2-1.5,5.1-5.9,9.2-8.4c1.1-0.7,2.3-1.3,3.4-1.7
		C1236.2,1372.5,1236.3,1371.2,1236.3,1370.9L1236.3,1370.9z M1239,1377.4c-1.2,7.6-3.6,21.1-6,33.5c1.5,1.1,2.9,2.1,4.3,3
		c1.3,0.9,2.4,1.6,3.4,2.4c1-5.5,2-14.7,2-28.9v-0.1v0c0-4.7-0.7-7.5-1.7-8.9C1240.5,1377.7,1239.8,1377.4,1239,1377.4L1239,1377.4z
		 M1232.3,1414.4c-0.5,2.7-1.1,5.3-1.6,7.7c4.9-0.6,8.1-1.2,9.1-2c0.1-0.1,0.2-0.1,0.1-0.2l0,0l0,0l0,0c-0.7-0.8-2.3-1.9-4.2-3.2
		C1234.6,1416,1233.5,1415.3,1232.3,1414.4L1232.3,1414.4z M1229.9,1408.3c2.1-10.7,4.1-22.1,5.3-29.5l-0.5,0.3
		c-4.3,2.7-8.3,7.4-8.5,7.7l0,0C1221.5,1396.9,1225,1403.5,1229.9,1408.3L1229.9,1408.3z M1225,1430.6c0.4-1.4,0.8-3,1.2-4.7
		l-1.7,0.1C1224.7,1427.4,1224.9,1429,1225,1430.6L1225,1430.6z M1220.3,1423c-1.8-6.8-5.7-12.4-11-17c-6.2-5.3-14.5-9.2-23.9-11.8
		c-9.5-2.6-20.1-3.8-30.9-3.8c-28.8,0-58.6,8.8-71.4,23.8c-0.3,0.4-0.4,0.6-0.4,0.8c0.4,1.2,3.8,2.4,9.4,3.6
		c6.3,1.4,14.9,2.5,24.8,3.3C1149.1,1424.6,1194.6,1424.7,1220.3,1423z" clip-rule="evenodd" class="color619fdf svgShape"></path><path fill="#d1dff6" fill-rule="evenodd" d="M889.1,974.9h48.2c2,0,3.7,1.7,3.7,3.7v48.2c0,2-1.7,3.7-3.7,3.7h-48.2c-2,0-3.7-1.7-3.7-3.7v-48.2
			C885.4,976.6,887.1,974.9,889.1,974.9z" clip-rule="evenodd" class="colord1e4f6 svgShape"></path><path fill="#ea4335" fill-rule="evenodd" d="M916.7,1016.1l20.5-33.6l8.4-13.8c1.5-2.4,0.7-5.6-1.7-7.1c-2.4-1.5-5.6-0.7-7.1,1.7l-7.7,12.6l-17.3,28.4
			l-13.6-18.7c-1.7-2.3-4.9-2.8-7.2-1.1c-2.3,1.7-2.8,4.9-1.1,7.2l18.2,25c1.7,2.3,4.9,2.8,7.2,1.1
			C915.9,1017.4,916.4,1016.8,916.7,1016.1z" clip-rule="evenodd" class="colorf47a44 svgShape"></path><path fill="#d1dff6" fill-rule="evenodd" d="M889.1,1063.7h48.2c2,0,3.7,1.7,3.7,3.7v48.2c0,2-1.7,3.7-3.7,3.7h-48.2c-2,0-3.7-1.7-3.7-3.7v-48.2
			C885.4,1065.4,887.1,1063.7,889.1,1063.7z" clip-rule="evenodd" class="colord1e4f6 svgShape"></path><path fill="#ea4335" fill-rule="evenodd" d="M916.7,1104.9l20.5-33.6l8.4-13.8c1.5-2.4,0.7-5.6-1.7-7.1c-2.4-1.5-5.6-0.7-7.1,1.7l-7.7,12.6l-17.3,28.4
			l-13.6-18.7c-1.7-2.3-4.9-2.8-7.2-1.1c-2.3,1.7-2.8,4.9-1.1,7.2l18.2,25c1.7,2.3,4.9,2.8,7.2,1.1
			C915.9,1106.2,916.4,1105.6,916.7,1104.9z" clip-rule="evenodd" class="colorf47a44 svgShape"></path><path fill="#d1dff6" fill-rule="evenodd" d="M889.1,1145.7h48.2c2,0,3.7,1.7,3.7,3.7v48.2c0,2-1.7,3.7-3.7,3.7h-48.2c-2,0-3.7-1.7-3.7-3.7v-48.2
			C885.4,1147.4,887.1,1145.7,889.1,1145.7z" clip-rule="evenodd" class="colord1e4f6 svgShape"></path><path fill="#ea4335" fill-rule="evenodd" d="M916.7,1186.9l20.5-33.6l8.4-13.8c1.5-2.4,0.7-5.6-1.7-7.1c-2.4-1.5-5.6-0.7-7.1,1.7l-7.7,12.6l-17.3,28.4
			l-13.6-18.7c-1.7-2.3-4.9-2.8-7.2-1.1c-2.3,1.7-2.8,4.9-1.1,7.2l18.2,25c1.7,2.3,4.9,2.8,7.2,1.1
			C915.9,1188.1,916.4,1187.6,916.7,1186.9z" clip-rule="evenodd" class="colorf47a44 svgShape"></path><path fill="#d1dff6" fill-rule="evenodd" d="M889.1,1234h48.2c2,0,3.7,1.7,3.7,3.7v48.2c0,2-1.7,3.7-3.7,3.7h-48.2c-2,0-3.7-1.7-3.7-3.7v-48.2
			C885.4,1235.6,887.1,1234,889.1,1234z" clip-rule="evenodd" class="colord1e4f6 svgShape"></path><path fill="#ea4335" fill-rule="evenodd" d="M916.7,1275.2l20.5-33.6l8.4-13.9c1.5-2.4,0.7-5.6-1.7-7.1c-2.4-1.5-5.6-0.7-7.1,1.7l-7.7,12.6l-17.3,28.4
			l-13.6-18.7c-1.7-2.3-4.9-2.8-7.2-1.1c-2.3,1.7-2.8,4.9-1.1,7.2l18.2,25c1.7,2.3,4.9,2.8,7.2,1.1
			C915.9,1276.4,916.4,1275.8,916.7,1275.2z" clip-rule="evenodd" class="colorf47a44 svgShape"></path><path fill="#6190df" fill-rule="evenodd" d="M947.4,919.3h11.9v-23.2c1.2,0.2,2.7,0.3,4.4,0.3c9.3,0,23.5-3.8,23.5-20.8c0-5.7-2.3-10.7-6-13.9
		c-4-3.4-9.8-4.9-17.7-4.9c-6.9,0-12.2,0.6-16.1,1.3V919.3L947.4,919.3z M959.3,866.6c1.1-0.2,2.7-0.5,5.2-0.5
		c6.6,0,10.8,3.5,10.8,10.1c0,6.7-4.4,10.9-11.8,10.9c-1.8,0-3.1-0.1-4.2-0.3V866.6L959.3,866.6z M1019.3,856.3
		c-16.2,0-26.5,13.6-26.5,32.2c0,18,9.3,31.7,25.7,31.7c15.4,0,26.4-11.1,26.4-32.7C1044.9,871,1036.5,856.3,1019.3,856.3
		L1019.3,856.3z M1019,866.1c9.1,0,13.4,10.6,13.4,22c0,12.5-4.6,22.4-13.5,22.4c-8.8,0-13.6-10-13.6-22.2
		C1005.3,876.9,1009.6,866.1,1019,866.1L1019,866.1z M1088.1,909.3h-22.2v-52H1054v62.1h34.1V909.3L1088.1,909.3z M1096.1,919.3
		h11.9v-62.1h-11.9V919.3L1096.1,919.3z M1158.1,908.2c-2.4,1.1-6.4,1.8-10.1,1.8c-11.2,0-18.4-7.5-18.4-21.5c0-15,8.2-22,18.5-22
		c4.3,0,7.5,1,9.9,2l2.3-9.7c-1.8-1-6.1-2.3-12.8-2.3c-16.5,0-30.4,11-30.4,32.7c0,18.4,10.3,31.1,29,31.1c6.4,0,11.4-1.2,13.7-2.3
		L1158.1,908.2L1158.1,908.2z M1168.5,919.3h11.9v-62.1h-11.9V919.3L1168.5,919.3z M1227.3,909.3h-22.8v-17.3h20.3v-9.8h-20.3v-15
		h21.5v-10h-33.4v62.1h34.7V909.3L1227.3,909.3z M1269.2,859.2c-2.9-1.5-7.4-2.8-13.3-2.8c-13.4,0-21.4,7.8-21.4,18
		c0,8.1,5.8,13.9,15.2,17.9c6.9,3,9.8,5.7,9.8,10.1c0,4.6-3.5,7.7-10.1,7.7c-5,0-10.2-1.5-13.4-3.5l-2.3,10
		c2.9,1.8,9.1,3.5,15.3,3.5c14.4,0,22.6-7.9,22.6-18.7c0-8.2-4.4-13.9-14.4-18.3c-7.6-3.5-10.7-5.5-10.7-9.9c0-3.5,2.8-6.9,9.1-6.9
		c5.1,0,8.9,1.5,11.1,2.7L1269.2,859.2z" clip-rule="evenodd" class="color619fdf svgShape"></path><path fill="#34a853" fill-rule="evenodd" d="M570.6,1101.9c6.2-0.6,9.3-0.9,9.3-0.9c-1.7,11-3.3,19-5,24C572.1,1109.6,570.6,1101.9,570.6,1101.9z" clip-rule="evenodd" class="color284190 svgShape"></path><path fill="#fbbc05" fill-rule="evenodd" d="M718.9,1177.4c0,0-9.5,3-9.6,2.2c-0.1-0.6,5.2-1.9,10.4-4.5c1.3-0.7,2.6-1.3,3.8-2c3.2-1.7,3-4.1-0.5-2.9
					c-1.3,0.5-3.4,1.2-4.8,1.9c-1.5,0.8-3.2,1.1-4.6,1.6c-2.8,1-4.7,1.7-4.7,1.5c0-0.2-0.7-0.4,0.7-1.1c1.7-0.9,5.7-2.1,8.1-3.6
					c1.3-0.9,4.2-2.5,4.2-2.5s4.4-3.2,4.3-3.5c-0.7-1.6-4.5-0.2-6.1,1.2c-1.5,0.4-4.6,2.2-4.6,2.2s-6.9,2.3-7.3,1.3
					c-0.3-0.8,15.2-9.6,14.4-11.1c-0.6-1.3-5.4,1.2-5.4,1.2s-2.8,1.7-3.7,2.2c-1.1,0.6-4.7,2.1-4.7,2.1s-12.6,4.5-12.8,3.6
					c-0.3-1,0.1-3.7,0.7-4.2c0.7-0.5,2.5-0.9,3.1-1.4c0.7-0.5,1.1-1.8,0.4-2.7c-0.6-0.9-4.9,0.5-4.9,0.5s-3.5,1.2-5.2,3.1
					c-5.8,6.6-4.5,7.4-5.2,8.2c-0.9,1-18.4,5.2-18.4,5.2l-44.2,10.5l-54.1-9.8l-12.1,25.3c0,0,59.2,9.1,62.3,9c0,0,62-23,66.5-24.6
					c0,0,8.1,0.2,13.2,0.2c5.1,0,9.9-2.3,11.3-2.6c0.2,0,4.9-1.1,10.3-3.9C724.5,1177.2,718.9,1177.4,718.9,1177.4z" clip-rule="evenodd" class="colorffb17d svgShape"></path><path fill="#4285f4" fill-rule="evenodd" d="M591.3,1177.6l-9,32.4c0,0-61,5.2-70.1-12.3c-9-17.5,19.2-37.7,25.7-37.7
					C544.4,1160,591.3,1177.6,591.3,1177.6z" clip-rule="evenodd" class="color4f8dcb svgShape"></path><path fill="#fbbc05" fill-rule="evenodd" d="M496,1586.7c0.4-3.2-0.8-7.5-0.4-12.6c3.5-40.2,11-130.9,11-130.9s8.5-71.9,9.2-117.4
					c-9.2-0.8-18.2-2.4-27.1-4.6c-19.4-4.9-32.3-12.8-50.8-21.8c-10.1,37.1-28.7,105.3-28.7,105.3s0,14.5-19.3,14.5
					c-16.9,0-87.4,58.9-101.3,67.7c1.8,4.3,6.4,8.5,8.4,12.7c22.4-18.3,137.7-60.4,137.7-60.4l31.3-79.3c0,0,9.4,97.2,1.8,104.8
					c-7.6,7.6,13.4,116.5,13.4,122.1C481.3,1587.4,490.1,1586.6,496,1586.7z" clip-rule="evenodd" class="colorffb17d svgShape"></path><path fill="#3b68b2" fill-rule="evenodd" d="M463.7,1339.2c0,0,6.7,107.5,3.4,113.8c-3.4,6.3-5.9,16.8-3.4,43.4c2.5,26.5,10.1,72.9,10.1,72.9l24.9,0.8
					l10.1-126.9l8.6-117.6l0.2-2.5l-33.7-25.3L463.7,1339.2z" clip-rule="evenodd" class="color3b5bb2 svgShape"></path><path fill="#4575c5" fill-rule="evenodd" d="M303.5,1469.8l11,19.8c0,0,99.3-32.7,120.1-48c8-5.9,41.3-86.4,41.3-86.4l26.3-31.2l0.3-17.3l-56.4-24.8
					c0,0-20.5,23.1-24.5,32.4c-10,23.2-16.9,99.9-16.9,99.9s0.8-3-18.1,2.1C367.6,1421.4,303.5,1469.8,303.5,1469.8z" clip-rule="evenodd" class="color4567c5 svgShape"></path><path fill="#6190df" fill-rule="evenodd" d="M550.1,1163.2l-22.5-7.3c0,0-10.8-0.4-18.4,2c-9,2.9-16,13.3-22.4,25.4c-18.9,33.5-28.3,90.2-56.8,115.5
					c18.4,8.9,39.3,17.5,58.6,22.4c8.9,2.2,19.5,3.7,28.7,4.5c0.1-4.5,4.6-28.6,14.1-50.8c11.7-27.3,29-54.3,31.3-69.2
					C566.9,1178.8,550.1,1163.2,550.1,1163.2z" clip-rule="evenodd" class="color619fdf svgShape"></path><path fill="#fbbc05" fill-rule="evenodd" d="M552.6,1151.6l-2.2,13.5c0,0-2.2,10.5-7.3,10.1c-6.1-0.5-15.7-19.2-15.7-19.2l7.9-27.4L552.6,1151.6z" clip-rule="evenodd" class="colorffb17d svgShape"></path><path fill="#f26b60" fill-rule="evenodd" d="M536.5,1133.2c0.4,13.8,8.2,21.2,15.1,24.3l1-5.9l-16.2-21.3C536.4,1131.3,536.5,1132.3,536.5,1133.2z" clip-rule="evenodd" class="colorf27960 svgShape"></path><path fill="#fbbc05" fill-rule="evenodd" d="M562.5,1102.3c5.1,0.8,10.5-2.1,11.6,3.3c4.9,9.2-0.4,50-15.3,50c-6.7,0-21.7-6.7-22.3-26
					c-0.3-8.3-0.6-19.1,6.8-23.7C549.1,1102.3,556.6,1101.4,562.5,1102.3z" clip-rule="evenodd" class="colorffb17d svgShape"></path><path fill="#34a853" fill-rule="evenodd" d="M532.4,1138.3c0,0-12-18.6-10.6-34.8c1.4-16.2,13.6-22.4,26.4-20.9c5.8,0.7,38.3,9.2,33.8,19.2
					c-6,13.4-33.7,1.9-39.7,5.5c-5,2.9,0.9,12.6-3.9,15.3c-4.5,2.5-2.3,1.7-1.9,7.8C537.1,1136.5,532.4,1138.3,532.4,1138.3z" clip-rule="evenodd" class="color284190 svgShape"></path><path fill="#fbbc05" fill-rule="evenodd" d="M530.4,1124.1c0,4,1.9,7.1,4.3,7.1c2.4,0,4.3-3.2,4.4-7.1c0-4-1.9-7.2-4.3-7.2
					C532.3,1117,530.4,1120.2,530.4,1124.1z" clip-rule="evenodd" class="colorffb17d svgShape"></path><path fill="#34a853" fill-rule="evenodd" d="M307.5 1493.5c0 0-6.6-4.3-7.4-6.7-.8-2.5 1.1-8.7-1.6-10.1-2.7-1.5-20.3 4.3-22.9 6.3-3.2 2.4-4.5 6.3-3.7 8.8.8 2.5 24.1 44.8 29.1 50.1 4.9 5.4 11.1-6.5 7.4-13.9C304.6 1520.6 308.9 1505.1 307.5 1493.5zM497.1 1575.2c0 0-7 3.6-9.5 3.1-2.5-.6-7-5.2-9.6-3.6-2.6 1.7-6.2 19.8-5.8 23 .5 4 3.2 7 5.8 7.6 2.6.6 50.9 1.2 58-.5 7.1-1.6-.2-12.8-8.4-13.3C519.3 1591 507.9 1579.6 497.1 1575.2zM566.3 1103.2c-12.8-4-22-8.9-27.5-14.7 3.7.7-5.5-1 5.6-6.7 7.5-3.8 19.8 7 23.4 2.3 3.9 6.9-.9 9-14.4 11.9 14.4-5.9 19.2-9.6 27.6-9.8C588.3 1102.5 577.2 1106.6 566.3 1103.2z" clip-rule="evenodd" class="color284190 svgShape"></path><path fill="#34a853" fill-rule="evenodd" d="M537.9 1102.6c2.4-6.4 3.4-11.1 3-13.9 14.4-.1 5.5-7.4-7.7-9.4 4.1 5.9-1.6 9.2-2.3 11.9-3.9-4.9-9.4 9.8-5.7 15-3.9 12.4-1.1 23.2 7.3 32.1C523.3 1120.3 525.1 1108.4 537.9 1102.6zM562.5 1097.7c5.7 1.3 17.5 2.1 15.8 4.4-.4 6.3-19.4 8.4-33.9 8.4C550.5 1106.7 557.7 1103.8 562.5 1097.7z" clip-rule="evenodd" class="color284190 svgShape"></path><path fill="#fbbc05" fill-rule="evenodd" d="M644.4,1311.2c0,0-8.7-4.9-8.2-5.5c0.4-0.5,5,2.5,10.4,4.4c1.4,0.5,2.8,1,4.1,1.5c3.4,1.2,5.1-0.6,1.7-2.4
					c-1.2-0.6-3.2-1.6-4.7-2.2c-1.6-0.5-3-1.6-4.3-2.3c-2.6-1.4-4.5-2.3-4.3-2.4c0.2-0.1-0.2-0.7,1.3-0.2c1.8,0.6,5.4,2.7,8.2,3.4
					c1.5,0.4,4.7,1.4,4.7,1.4s5.4,1,5.5,0.7c0.7-1.6-2.9-3.4-5.1-3.7c-1.3-0.9-4.7-1.8-4.7-1.8s-6.4-3.5-6-4.4
					c0.4-0.8,17.4,4.5,18,2.9c0.5-1.3-4.6-3.2-4.6-3.2s-3.1-0.9-4.1-1.2c-1.2-0.4-4.7-2-4.7-2s-11.9-6-11.4-6.9
					c0.5-0.8,2.7-2.5,3.6-2.4c0.9,0.1,2.3,1.2,3.2,1.3c0.9,0.1,2.1-0.5,2.3-1.5c0.2-1.1-3.7-3.3-3.7-3.3s-3.3-1.7-5.8-1.7
					c-8.8,0.3-8.4,1.8-9.6,1.8c-1.3,0-16.4-9.8-16.4-9.8l-38-25l-30-46.1l-26.8,8.6c0,0,34,49.2,36.2,51.5c0,0,59.3,29.3,63.5,31.5
					c0,0,5.4,6,8.9,9.7c3.5,3.7,8.5,5.6,9.6,6.5c0.1,0.1,4.1,2.8,9.9,4.9C648.3,1315.2,644.4,1311.2,644.4,1311.2z" clip-rule="evenodd" class="colorffb17d svgShape"></path><path fill="#4285f4" fill-rule="evenodd" d="M517.2,1158.7c-7.5-0.2-20.8,1.9-20.8,21.8s30.6,59.6,30.6,59.6l28.7-23.3
					C555.7,1216.8,538.9,1159.2,517.2,1158.7z" clip-rule="evenodd" class="color4f8dcb svgShape"></path><path fill="#bad2f9" fill-rule="evenodd" d="M555.9,1121.5c-0.9-0.2-1.8,0.5-2.1,1.7c-0.2,1.2,0.3,2.3,1.2,2.5c0.9,0.2,1.8-0.5,2.1-1.7
						C557.3,1122.9,556.8,1121.7,555.9,1121.5z" clip-rule="evenodd" class="colorbadaf9 svgShape"></path><path fill="#1248a2" fill-rule="evenodd" d="M555 1125.7c-.9-.2-1.4-1.4-1.2-2.5.2-1.2 1.2-1.9 2.1-1.7.4.1.7.4.9.7l-.1-.1c-.3-.1-.6.2-.7.5-.1.4.1.7.4.8.3.1.6-.2.7-.5l0-.1c.1.4.1.7 0 1.1C556.8 1125.2 555.9 1125.9 555 1125.7zM558.9 1120.4c0 0 .1.1.1.1 0-.2-.2-.5-.3-.7.1.1.1.1.2.3.1.1.1.2.1.4 0-.1 0-.3 0-.4.1.1.1.3.1.4 0-.4 0-.4-.1-.8.2.1.2.6.2.8.1-.1.1-.2.1-.3.1.2 0 .2 0 .4l.1-.1c0 .1-.1.1-.1.2.2-.1.7-.6.7-.9-.1.1-.2.3-.2.4.1-.2.2-.4.2-.7-.1.1-.1.3-.2.5-.1.2-.2.3-.2.4.1-.3.2-.6.2-1l0 .1c0 .2 0 .4-.1.5 0-.3.1-.6-.2-.9 0 .1.1.2.1.4-.1-.2-.1-.4-.4-.5.1.1.2.2.3.4.1.1.2.4.1.6-.1-.6-.4-1-.8-1.1.1.1.4.4.4.5l0 0c0 .2 0-.1 0 0 .1.1.1.2.2.3 0 .1 0 .1.1.2 0 0 0 .1 0 .1 0 0 0 0 0 .1l0 0c-.1-.4-.2-.6-.4-.9-.1-.2-.5-.4-.7-.5 0 0 0 0 0 0l.2.1c.4.3.8.6.9 1.2 0 0 0 0 0-.1 0 0 0 0 0 0-.1-.2-.2-.4-.3-.5-.1-.2-.3-.3-.4-.4-.2-.1-.8-.5-1.1-.5.1 0 .7.3.8.3.2.1.5.3.6.5-.1 0-.2-.1-.3-.2-.5-.3-1.5-.8-2-.9.4.1.8.3 1.1.5l-.2-.1c.1 0 .1.1.2.1.1 0 .1.1.2.1.3.2.7.6.8.9-.1-.1-.2-.2-.2-.3-.1-.1-.2-.2-.3-.3-.2-.2-.4-.3-.6-.5-.4-.3-.8-.5-1.3-.7.1 0 .1.1.2.1-.4-.1-1-.5-2.1-.7.2.1.6.2.8.3l.2.1c-.1 0-.6-.2-.7-.2-.9-.3-1.4-.5-2.4-.6-.6-.1-1.2-.1-1.8 0-.4.1-.8.3-1.2.5-.1.1-.2.1-.3.2.3-.1.9-.6 1.4-.6-.9.4-1.6.7-2.3 1.3.2-.1.4-.3.6-.4.2-.1.4-.2.7-.3.4-.2 1-.5 1.5-.5-.1.1-.4.2-.6.2-1.1.5-2.2 1-3.2 1.6-.1.1-.4.3-.5.3.1 0 .5-.3.7-.4.7-.4 1.4-.7 2.3-.8-.2.1-1.8.5-2.3.9l1.4-.5c.4-.1 1.1-.3 1.5-.3-.5 0-2.5.7-2.9.9.2 0 .5-.2.7-.2.3-.1.5-.1.8-.2.6-.1 1.1-.2 1.7-.2.8 0 1.5.1 2.2.3.2 0 .5.1.7.2-.1-.1-.5-.2-.6-.2-.4-.1-.8-.2-1.3-.3-.2 0-.5 0-.7-.1.5-.1.9 0 1.4 0 0 0 0 0-.1 0 0 0 0 0-.1 0 .3 0 .8.2 1 .3.3.1.9.4.9.4-.1-.1-.1-.1-.2-.2l.7.3-.8-.4c.2 0 .4.2.6.2.2.1.6.2.8.3.2.1.6.2.9.3-.1-.1-.4-.2-.5-.2l-.5-.2c-.1 0-.2-.1-.2-.1-.2-.1-.4-.3-.7-.4-.4-.2-1.6-.7-2-.7.6-.1 1.7.4 2.1.6l.9.5c.1 0 .1.1.2.1.2.1.5.3.7.4l0-.1v0c0 0 0 0 0 0 0 0 0 0 0 0 .1.1.3.2.4.2-.2-.2-.8-.5-.9-.8.2.1.4.3.6.4.1.1.1.1.2.1-.1-.3-.4-.6-.6-.8l-.3-.2c.2 0 .5.3.6.5.2.2.3.4.4.6 0 0 0 0 0 0 0 0 0 0 0 0l-.2-.4c0 .1.3.4.3.5 0-.2-.1-.4-.2-.5l.1.1c-.2-.4-.7-.7-1-1 .3.1.9.6 1 .9.1.2.1.3.2.5l-.1-.3c0 0 0 0 0 0l.1.2c-.1-.4-.2-.6-.4-.9.1 0 .2.1.2.2.1.1.1.2.2.3.1.2.2.4.2.6 0-.1 0-.3 0-.4.1 0 0 0 .1 0 .1.1.1.2.2.3l0-.2.1.2c0-.2-.1-.3-.1-.5.1.1.1.3.2.4 0-.1 0-.2 0-.3l.2.2c0 .1.1.1.1.2 0-.2-.1-.3-.2-.5.2.1.2.3.3.5 0-.2-.1-.6-.2-.7.2.1.3.6.3.7l0-.2c0 0 0 0 0 0l.1.2 0-.3c.1.1.1.2.1.3 0 0 0-.3 0-.4 0 0 0 0 .1 0 .1.1.1.2.2.3l-.1-.2c0 0 0 0 0 0L558.9 1120.4z" clip-rule="evenodd" class="color125aa2 svgShape"></path><path fill="#bad2f9" fill-rule="evenodd" d="M570.5,1122.9c0.8,0.2,1.3,1.4,1.1,2.5c-0.2,1.2-1.1,1.9-1.9,1.7c-0.8-0.2-1.3-1.4-1.1-2.5
						C568.8,1123.4,569.7,1122.6,570.5,1122.9z" clip-rule="evenodd" class="colorbadaf9 svgShape"></path><path fill="#1248a2" fill-rule="evenodd" d="M569.7 1127.1c.8.2 1.7-.5 1.9-1.7.2-1.2-.2-2.3-1.1-2.5-.3-.1-.7 0-1 .2l.1 0c.3.1.4.4.3.8-.1.4-.4.6-.6.5-.3-.1-.4-.4-.3-.8l0-.1c-.2.3-.3.6-.4 1C568.4 1125.7 568.8 1126.9 569.7 1127.1zM567 1121.7c0 0-.1.1-.1.1.1-.2.3-.4.4-.6-.1.1-.1.1-.2.2-.1.1-.1.2-.2.3 0-.2.1-.2.1-.4-.1.1-.1.3-.2.4.1-.4.1-.4.2-.8-.1.1-.3.5-.3.7 0-.1 0-.2 0-.3-.1.1-.1.2-.1.4l-.1-.2c0 .1 0 .1 0 .2-.1-.2-.3-.8-.2-1 0 .1 0 .4.1.4 0-.2 0-.4.1-.7 0 .2 0 .4 0 .5 0 .2 0 .4.1.5 0-.3 0-.6.1-1l0 .1c0 .2-.1.4-.1.6.1-.3.1-.6.3-.8-.1.1-.1.2-.2.4.1-.1.2-.4.4-.4-.1.1-.2.2-.3.3-.1.1-.2.3-.2.5.2-.6.5-.9.8-.9-.1 0-.4.3-.4.4v0c0 .2 0-.1 0 0-.1 0-.1.2-.2.3 0 .1-.1.1-.1.2 0 0 0 .1 0 .1 0 0 0 0 0 .1v0c.1-.4.3-.6.5-.8.1-.1.4-.3.6-.3 0 0 0 0 0 0l-.1.1c-.4.2-.7.4-.9 1 0 0 0 0 0 0 0 0 0 0 0 0 .1-.2.2-.3.3-.4.1-.1.3-.3.4-.3.2-.1.7-.3.9-.2-.1 0-.5.1-.6.1-.2.1-.4.2-.6.4.1 0 .2-.1.2-.1.4-.2 1.2-.5 1.6-.4-.3 0-.7.2-.9.3l.2 0c0 0-.1.1-.1.1-.1 0-.1 0-.1.1-.2.1-.6.4-.8.7.1-.1.2-.1.2-.2.1-.1.2-.1.2-.2.2-.1.3-.2.5-.3.4-.2.7-.3 1.1-.4-.1 0-.1 0-.2.1.3 0 .8-.2 1.6-.2-.2.1-.4.1-.6.1l-.2.1c.1 0 .4-.1.6-.1.7-.1 1.1-.1 1.7-.1.4.1.8.1 1.2.4.3.2.5.4.7.7.1.1.1.2.2.3-.2-.1-.5-.7-.8-.9.5.6.9 1.1 1.3 1.8-.1-.1-.2-.3-.3-.5-.1-.2-.2-.3-.4-.5-.2-.3-.6-.7-.9-.8.1.1.3.3.3.4.7.7 1.3 1.4 1.8 2.3.1.1.2.3.2.4-.1 0-.3-.4-.4-.5-.4-.5-.8-1-1.4-1.3.1.2 1.1.9 1.4 1.4l-.8-.8c-.2-.2-.7-.6-1-.7.3.1 1.6 1.2 1.8 1.5-.1-.1-.3-.3-.5-.4-.2-.1-.3-.3-.5-.4-.4-.2-.7-.5-1.1-.6-.5-.2-1-.2-1.6-.2-.2 0-.4 0-.5 0 .1-.1.4-.1.5-.1.3 0 .6 0 .9 0 .1 0 .4.1.5.1-.3-.2-.6-.2-.9-.3 0 0 0 0 0 0 0 0 0 0 0 0-.2-.1-.6 0-.8 0-.2 0-.7.2-.7.2.1 0 .1-.1.2-.1l-.5.1.7-.2c-.1 0-.3.1-.4.1-.2 0-.5.1-.6.2-.2.1-.5.1-.7.1.1 0 .3-.1.4-.1l.4-.1c.1 0 .1 0 .2-.1.2-.1.4-.2.5-.2.3-.1 1.3-.4 1.6-.2-.4-.2-1.3 0-1.6.1l-.8.3c-.1 0-.1.1-.2.1-.2.1-.4.2-.6.2l0-.1c0 0 0 0 0 0 0 0 0 0 0 0 0 0 0 0 0 0-.1 0-.3.1-.3.1.2-.2.6-.3.8-.6-.2 0-.3.2-.5.3-.1 0-.1.1-.2.1.2-.3.4-.5.6-.6l.2-.1c-.2 0-.4.2-.6.3-.2.1-.3.3-.4.5 0 0 0 0 0 0 0 0 0 0 0 0l.2-.4c0 .1-.3.3-.3.4.1-.2.2-.3.2-.5l-.1.1c.2-.4.6-.6.9-.8-.2 0-.7.4-.9.7-.1.1-.2.3-.3.4l.1-.3c0 0 0 0 0 0l-.1.2c.1-.4.3-.5.5-.8-.1 0-.1.1-.2.1-.1.1-.1.1-.2.2-.1.2-.2.3-.3.6 0-.1.1-.2.1-.4-.1 0 0 0-.1 0-.1.1-.2.2-.2.3l.1-.2-.1.2c.1-.2.1-.3.2-.5-.1.1-.2.2-.2.4 0-.1 0-.2.1-.3l-.1.2c0 .1-.1.1-.1.2.1-.2.1-.3.2-.4-.2.1-.2.3-.3.5.1-.2.2-.5.3-.7-.2 0-.3.5-.4.6l0-.2c0 0 0 0 0 0l-.1.2.1-.3c-.1.1-.1.2-.1.3 0 0 0-.2.1-.4 0 0 0 0 0 0-.1.1-.1.2-.2.3l.1-.2C567.2 1121.7 567.2 1121.6 567 1121.7L567 1121.7z" clip-rule="evenodd" class="color125aa2 svgShape"></path><path fill="none" stroke="#fb7e74" stroke-linecap="round" stroke-linejoin="round" stroke-miterlimit="2.613" stroke-width=".09" d="M564,1125.9c0.6,0.8,2.2,9.1,2,9.8c-0.6,2.4-3,1.3-3.6,1.6" clip-rule="evenodd" class="colorStrokefb9674 svgStroke"></path><path fill="#ffffff" fill-rule="evenodd" d="M552.3,1140c7.1,6.3,11.6,7.2,13.4,2.8C560,1142.6,555.6,1141.7,552.3,1140z" clip-rule="evenodd" class="colorffffff svgShape"></path><g fill="#000000" class="color000000 svgShape"><path fill="#fb7e74" fill-rule="evenodd" d="M729.5,964.2l36.3-57l-23.8,124.3c0,0-16-5-9.6-27.2C738.9,982.1,729.5,964.2,729.5,964.2z" clip-rule="evenodd" class="colorfb9674 svgShape"></path><path fill="#86aff4" fill-rule="evenodd" d="M722.4,994.1c0,0,6.5-14.7,20.6-11.9c14.2,2.8,14.4,19,14.4,19l-60.7,293.1c-2.2,11.1-11.8,18.4-21.3,16.5
				l-0.4-0.1c-9.5-1.9-15.5-12.5-13.3-23.6L722.4,994.1z" clip-rule="evenodd" class="color86bdf4 svgShape"></path><path fill="#d1dff6" fill-rule="evenodd" d="M734.9,1022.1c8.9,1.9,13.3,7.8,15.5,13.3l0.8-3.7c0,0-1.1-11.6-15.3-14.4c-14.2-2.8-19.7,7.3-19.7,7.3
				l-0.8,3.8C719.6,1024.2,726,1020.4,734.9,1022.1z" clip-rule="evenodd" class="colord1e4f6 svgShape"></path><path fill="#6190df" fill-rule="evenodd" d="M641.4,1366.7c-2.8,13.6,4.5,26.7,16.3,29.1l0.4,0.1c11.9,2.4,23.7-6.8,26.4-20.5l68.1-329.8
				c0,0,0-4.8-2.2-10.2c-2.2-5.5-6.6-11.4-15.5-13.3c-8.9-1.7-15.3,2.1-19.5,6.3c-4,4-5.9,8.5-5.9,8.5L641.4,1366.7z" clip-rule="evenodd" class="color619fdf svgShape"></path><path fill="#fb7e74" fill-rule="evenodd" d="M674.1,1316.3c11.3,2.3,16.5,10.1,19,17l0.7-3.6c0,0-1.2-15.2-18.7-18.7c-17.5-3.6-24.5,10-24.5,10
				l-0.8,3.6C654.9,1319.2,662.8,1313.9,674.1,1316.3z" clip-rule="evenodd" class="colorfb9674 svgShape"></path><path fill="#6190df" fill-rule="evenodd" d="M596.6,1565.6c-3.3,16.4,5.5,32,19.7,34.9l0.5,0.1c14.2,2.8,28.4-8.1,31.7-24.5l47-231.8
				c0,0-0.1-5.2-2.3-11.2c-2.5-6.9-7.8-14.7-19-17c-11.2-2.3-19.2,2.9-24.2,8.2c-4.3,4.6-6.4,9.3-6.4,9.3L596.6,1565.6z" clip-rule="evenodd" class="color619fdf svgShape"></path><path fill="#fb7e74" fill-rule="evenodd" d="M657.5,1522.2c0,0,16.1,3.3,19-11.1l28.5-140.9c4.4-21.4,3-62.4,3-62.4l-40,197.8c0,0-6.4,4.8-7.5-1.5
				l-4-4.1l-3.7,18.2l4.1,3.9L657.5,1522.2z" clip-rule="evenodd" class="colorfb9674 svgShape"></path></g><g fill="#000000" class="color000000 svgShape"><path fill="#ea4335" fill-rule="evenodd" d="M821.8,1383.1h10.7v-8c0-8.8,7.2-16,16-16h71.1c8.8,0,16,7.2,16,16v7.4h10.7v-7.4c0-14.7-12-26.7-26.7-26.7
			h-71.1c-14.8,0-26.8,12-26.8,26.7V1383.1z" clip-rule="evenodd" class="colorf47a44 svgShape"></path><path fill="#fb7e74" fill-rule="evenodd" d="M928.1 1394.4c0 2 1.6 3.6 3.6 3.6H950c2 0 3.6-1.6 3.6-3.6v-11.9c0-2-1.6-3.6-3.6-3.6h-18.4c-2 0-3.6 1.6-3.6 3.6V1394.4zM813.9 1394.4c0 2 1.6 3.6 3.6 3.6h18.4c2 0 3.6-1.6 3.6-3.6v-11.9c0-2-1.6-3.6-3.6-3.6h-18.4c-2 0-3.6 1.6-3.6 3.6V1394.4z" clip-rule="evenodd" class="colorfb9674 svgShape"></path><path fill="#fb7e74" fill-rule="evenodd" d="M725.4,1596.2c0,11.8,9.6,21.4,21.4,21.4h272.8c11.8,0,21.4-9.6,21.4-21.4v-192.6c0-5.9-4.8-10.7-10.7-10.7
			H736.1c-5.9,0-10.7,4.8-10.7,10.7V1596.2z" clip-rule="evenodd" class="colorfb9674 svgShape"></path><path fill="#ea4335" fill-rule="evenodd" d="M736.6,1403.6h294.3c5.9,0,10.7,4.8,10.7,10.7v64.2c0,23.6-19.2,42.8-42.8,42.8h-99.5v11
			c0,8.9-7.2,16.1-16.1,16.1c-8.9,0-16-7.2-16-16.1v-11h-98.4c-23.6,0-42.8-19.2-42.8-42.8v-64.2
			C725.9,1408.4,730.7,1403.6,736.6,1403.6z" clip-rule="evenodd" class="colorf47a44 svgShape"></path><path fill="#fae5a7" fill-rule="evenodd" d="M725.9,1467.8c0,23.6,19.2,42.8,42.8,42.8h230.1c23.6,0,42.8-19.2,42.8-42.8v-64.2c0-5.9-4.8-10.7-10.7-10.7
			H736.6c-5.9,0-10.7,4.8-10.7,10.7V1467.8z" clip-rule="evenodd" class="colorfabea7 svgShape"></path><path fill="#fb7e74" fill-rule="evenodd" d="M867.2,1521.6c0,8.9,7.2,16.1,16,16.1c8.9,0,16.1-7.2,16.1-16.1V1496h-32.1V1521.6z" clip-rule="evenodd" class="colorfb9674 svgShape"></path><path fill="#dbe9ff" fill-rule="evenodd" d="M870.7,1520.5c0,6.9,5.6,12.5,12.5,12.5c6.9,0,12.5-5.6,12.5-12.5v-19.9h-25V1520.5z" clip-rule="evenodd" class="colorffe1db svgShape"></path><rect width="27.5" height="4.3" x="870.2" y="1510.7" fill="#fb7e74" fill-rule="evenodd" clip-rule="evenodd" class="colorfb9674 svgShape"></rect></g><g fill="#000000" class="color000000 svgShape"><path fill="#e8e9eb" fill-rule="evenodd" d="M1664,1505.7c0,2.5,0.2,4.6,0.4,6C1664.2,1510.3,1664,1508.2,1664,1505.7z" clip-rule="evenodd" class="colorebebe8 svgShape"></path><path fill="#8aade8" fill-rule="evenodd" d="M1588.2 1321.6c-1.8-2.4-4.3-4.1-6.8-5.7-.7-.4-1.6-.1-2 .6-1.9 3.6-3.7 7.3-6 10.8-.7 1.1-1.8 2.7-2.7 3.3-.1 0-.3.2-.4.2 0 0 0 0 0-.1-.2-.3-.3-.6-.4-.9-1.7-5.3.4-11-1-16.4-.7-2.8-2.5-5.8-4.6-7.9-2.2-2.3-5.2-3.3-6.6-6.3-.2-.5-.6-.7-1-.7h-.3c-.5 0-1 .3-1.3.7-3.2 4.6-7.7 9.4-8.5 15.1-.8 5.1 2 9.4 5 13.3 1.4 1.9 2.8 3.8 3.9 5.9.6 1.2 1.7 3.2.6 4.4-1.2 1.2-2.9-.9-3.8-1.9-1.9-1.9-3.5-4.2-5.1-6.3-2.7-3.6-7-9-12-8-2.2.4-3.1 2.7-3.3 4.8-.2 3.2 1.4 6.6 3 9.3 3.6 6.1 10.8 7.9 15.5 12.8 1.1 1.1 4 5 2.3 6.6-.6.6-2 .4-2.7.3-1.7-.3-3.6-.9-5-1.9-5.2-4.1-7.1-11.1-12.7-14.9-2.4-1.7-6.1-2.7-9-2-2.5.6-3.6 2.9-3.7 5.2-.1 2.8 1.2 5.7 2.6 8.1 1.6 2.7 3.9 5 6.7 6.6 5.6 3.2 12.6 3.6 16.3 9.4.5.8 1 1.8.8 2.8-.2.7-1.3 1-1.9 1.1-2.8.6-6.6-.4-9.1-1.8-3-1.6-5.2-4.5-7.5-6.9-2.4-2.6-5.2-4.7-8.6-5.7-2.5-.8-5.5-.6-7.2 1.7-1.5 2.1-1.2 5-.6 7.4.8 3.1 2.5 6 4.6 8.5 2.3 2.6 5.9 4.1 9.1 5.2 3.3 1.1 6.8 1.8 10.1 3 .9.3 1.6.6 2.5.6 1 .1 2.1 0 3 .3.8.2.3 1.1 0 1.7-.7 1.5-2.9 1.4-4.3 1.5-1.3.1-2.6.4-3.9.4-1.5 0-3-.3-4.5-.5-2.9-.4-6-1-8.9-.1-2.8.9-4.8 3.5-5.3 6.3-1.1 6 5.6 9.6 10.5 10.3 3.2.5 6-.2 8.8-1.8 3.4-1.9 6.1-4.7 10.1-5.2.3 1.6-.3 2.9-1.7 4-1.9 1.6-4.6 2.5-7 3.4-4.6 1.7-11.3 3.2-13.8 8-.3.6-.2 1.3.2 1.8 2.2 2.1 4.7 3.7 7.8 4 2.5.2 5-1 7.1-2.3 3.7-2.4 6.9-6.3 11-8-.6 1-1.5 1.8-2.7 2.7-2.1 1.6-3.1 3.8-3.7 6.4-.9 3.8.5 7.9 4.9 7.9 2.4 0 4.9-1.2 6.9-2.4 2.3-1.4 4.2-3.4 5.6-5.7 1.8-2.8 2.8-6.1 3.3-9.4 3.7 7.3 11.9 14.9 19.5 8.6 6.5-5.4-4.2-9.5-8.5-13.7.8.3 1.7.8 2.4 1.2 2.2 1.1 4.4 2.4 6.7 3.3 4.3 1.8 9.2 1.6 11.8-2.9 2.2-3.8-2.4-5.6-5.2-6.5-2.3-.7-6.6-1.4-8.3-3.8 5.7.6 12.1 1.3 17-2 2.2-1.5 4.9-4.4 5.2-7.2.2-2.3-2.3-3.1-4.1-3.3-4.9-.5-9.6 1.7-14.5 1.5-1.2 0-2.3-.2-3.5-.4-.4-.1-.9-.2-1.3-.4-.2-.1-.3-.2-.4-.3 0-.1.1-.2.1-.2.4-.5 1-.9 1.6-1.2 1.3-.8 2.6-1.3 4.1-1.5 2.8-.3 5.7.1 8.5-.4 3.2-.6 5.8-2.4 7.9-4.8 1.9-2.1 3.7-4.8 4-7.6.3-3-1.5-5-4.1-6-7.4-2.8-11.8 4.8-17 8.3-1.4.9-3.1 1.5-4.7 2-.7.2-2.6.9-3.2.4-.4-.3.9-2.3 1.1-2.7 1.1-1.7 2.4-2.9 4.2-3.9 4.4-2.5 9.8-3.3 13.3-7.3 2.3-2.6 4.1-7.1 1.9-10.3-2.4-3.4-7.7-2.5-10.7-.5-3.8 2.5-5.6 7.5-10.2 8.7-.4-2.1.4-4.1 1.9-6 2.1-2.8 4.8-5.1 7.3-7.5 2.4-2.3 4.9-4.8 6.1-8C1591.1 1327.6 1590.3 1324.3 1588.2 1321.6zM1699.9 1424.7c.7-2.9.6-6 .2-8.9-.1-.8-.9-1.4-1.7-1.2-4 .7-8.1 1.6-12.2 2-1.3.1-3.2.2-4.3-.1-.1 0-.3-.1-.4-.2 0 0 0 0 0-.1.1-.3.3-.6.4-.8 3.1-4.7 8.9-6.5 12.3-10.9 1.8-2.3 3-5.6 3.4-8.5.4-3.1-.6-6.1.9-9.1.6-1.1-.6-2.1-1.6-2-5.6.3-12.1-.2-17.2 2.7-4.5 2.6-6.1 7.4-7.4 12.1-.6 2.3-1.2 4.6-2.2 6.7-.5 1.2-1.5 3.3-3.1 3.1-1.6-.2-1.1-2.9-.9-4.2.4-2.7 1.1-5.3 1.8-7.9 1.1-4.3 2.7-11-1.2-14.4-1.7-1.5-4.1-.8-5.8.4-2.6 1.8-4.4 5.2-5.5 8.1-2.6 6.6.5 13.4-.5 20.1-.2 1.5-1.5 6.2-3.7 5.9-.8-.1-1.5-1.3-1.8-1.9-.9-1.5-1.5-3.4-1.5-5.1-.1-6.6 4.3-12.5 3.9-19.2-.2-2.9-1.7-6.5-4-8.3-2-1.6-4.5-1-6.4.3-2.3 1.6-3.8 4.5-4.8 7-1.1 3-1.5 6.2-1 9.3 1 6.3 5 12.1 2.7 18.6-.3.9-.8 2-1.7 2.4-.7.3-1.6-.4-2.1-.8-2.3-1.8-3.7-5.4-4.2-8.2-.6-3.4.3-6.9.8-10.2.5-3.5.5-6.9-.8-10.3-.9-2.4-2.9-4.8-5.8-4.6-2.6.2-4.7 2.2-6.2 4.1-2 2.6-3.2 5.7-3.8 8.9-.7 3.4.4 7.2 1.5 10.3 1.2 3.3 2.8 6.5 3.9 9.8.3.9.5 1.6 1.1 2.4.6.8 1.2 1.6 1.7 2.6.3.8-.7.9-1.4 1.1-1.6.4-2.9-1.4-3.8-2.4-.9-1-1.9-1.8-2.8-2.8-.9-1.2-1.6-2.5-2.4-3.8-1.5-2.6-3-5.3-5.5-7.1-2.4-1.7-5.7-1.6-8.2-.2-5.3 2.9-4.1 10.3-1.6 14.7 1.6 2.8 3.9 4.6 6.9 5.8 3.6 1.5 7.5 1.9 10.3 4.7-1.1 1.2-2.4 1.5-4.2 1.2-2.5-.5-4.8-2.1-7-3.4-4.2-2.6-9.6-6.9-14.8-5.9-.6.1-1.2.6-1.2 1.3-.3 3 0 6 1.7 8.6 1.4 2.1 3.9 3.3 6.2 4.1 4.2 1.4 9.2 1.5 13.1 3.7-1.2.2-2.3-.1-3.8-.5-2.5-.6-5-.1-7.3 1-3.5 1.7-5.9 5.3-3.2 8.8 1.5 1.9 4 3.1 6.2 3.9 2.5 1 5.3 1.2 8 .9 3.3-.3 6.5-1.6 9.5-3.2-3.4 7.4-4.4 18.5 5.3 20.6 8.3 1.8 4.8-9.2 5.5-15.2.3.9.4 1.8.6 2.6.5 2.5.8 4.9 1.5 7.3 1.3 4.5 4.4 8.2 9.5 7.5 4.4-.6 2.9-5.4 1.8-8.1-.9-2.3-3-6.1-2.2-8.9 3 4.9 6.4 10.3 12.1 12.1 2.6.8 6.5 1.2 8.9-.4 1.9-1.2 1-3.7.1-5.2-2.6-4.1-7.3-6.5-10.2-10.5-.7-.9-1.3-1.9-1.8-3-.2-.4-.4-.8-.5-1.2 0-.2 0-.4 0-.5.1 0 .2 0 .3 0 .7 0 1.3.2 1.9.4 1.4.5 2.6 1.2 3.7 2.3 2 2 3.5 4.5 5.6 6.4 2.4 2.2 5.5 3 8.6 3.2 2.8.2 6-.1 8.5-1.6 2.5-1.6 3-4.3 2.1-7-2.4-7.6-11.1-6.2-17.1-8.2-1.6-.5-3.1-1.5-4.5-2.4-.6-.4-2.3-1.5-2.3-2.3 0-.5 2.4-.7 2.8-.8 2-.2 3.8.1 5.7.8 4.7 1.9 8.7 5.7 14 5.9 3.5.2 8.1-1.2 9.2-4.9 1.2-4-2.8-7.6-6.2-8.7-4.3-1.4-9.4.2-13.1-2.6 1.4-1.6 3.5-2.2 5.9-2.2 3.5-.1 7 .7 10.4 1.1 3.3.5 6.8.8 10-.1C1697.1 1430.7 1699.1 1428 1699.9 1424.7z" clip-rule="evenodd" class="color8ab9e8 svgShape"></path><path fill="#8aade8" fill-rule="evenodd" d="M1501.4,1344c-2.8-1.1-5.8-1.3-8.8-1.4c-0.8,0-1.5,0.7-1.4,1.5c0.2,4.1,0.6,8.2,0.4,12.3
			c0,1.4-0.2,3.2-0.6,4.2c0,0.1-0.2,0.3-0.2,0.4c0,0,0,0-0.1,0c-0.3-0.1-0.5-0.3-0.8-0.6c-4.2-3.7-5.4-9.6-9.3-13.5
			c-2.1-2.1-5.1-3.7-8-4.4c-3.1-0.8-6.2-0.1-8.9-2c-1-0.7-2.1,0.3-2.2,1.3c-0.4,5.6-1.8,12,0.5,17.4c2,4.8,6.5,7,11.1,8.8
			c2.2,0.9,4.4,1.8,6.4,3c1.1,0.7,3.1,1.9,2.7,3.5c-0.4,1.6-3,0.7-4.3,0.4c-2.6-0.7-5.1-1.8-7.6-2.8c-4.1-1.7-10.6-4.1-14.4-0.6
			c-1.7,1.5-1.3,4-0.3,5.8c1.5,2.8,4.6,5,7.3,6.5c6.2,3.4,13.3,1.2,19.8,3c1.5,0.4,6,2.2,5.4,4.5c-0.2,0.8-1.5,1.3-2.1,1.6
			c-1.6,0.7-3.5,1.1-5.3,0.9c-6.6-0.8-11.8-5.8-18.5-6.3c-2.9-0.2-6.7,0.8-8.8,2.9c-1.8,1.8-1.6,4.3-0.5,6.4
			c1.3,2.5,3.9,4.3,6.4,5.6c2.8,1.5,5.9,2.3,9.1,2.2c6.4-0.1,12.6-3.4,18.8-0.3c0.8,0.4,1.8,1,2.1,2c0.2,0.7-0.6,1.5-1,1.9
			c-2.1,2-5.9,3-8.7,3.2c-3.4,0.2-6.8-1.2-10-2.1c-3.4-0.9-6.8-1.3-10.3-0.5c-2.5,0.6-5.1,2.3-5.3,5.1c-0.2,2.6,1.6,4.9,3.3,6.6
			c2.3,2.3,5.3,3.9,8.3,4.9c3.3,1.1,7.1,0.5,10.5-0.2c3.4-0.8,6.8-2,10.2-2.6c0.9-0.2,1.6-0.3,2.5-0.7c0.9-0.5,1.8-1,2.8-1.3
			c0.8-0.2,0.8,0.8,0.9,1.5c0.2,1.6-1.7,2.7-2.9,3.5c-1.1,0.8-2,1.7-3.1,2.4c-1.3,0.8-2.7,1.3-4.1,1.9c-2.7,1.1-5.7,2.3-7.7,4.5
			c-2,2.2-2.3,5.5-1.3,8.2c2.2,5.6,9.7,5.3,14.4,3.4c3-1.2,5.1-3.3,6.6-6.1c1.9-3.4,2.8-7.2,6-9.7c1,1.2,1.2,2.6,0.6,4.3
			c-0.8,2.4-2.7,4.5-4.2,6.5c-3.1,3.8-8.1,8.6-7.7,14c0,0.7,0.5,1.2,1.1,1.4c2.9,0.7,5.9,0.8,8.7-0.6c2.3-1.1,3.8-3.4,4.9-5.7
			c1.9-4,2.7-8.9,5.3-12.5c0.1,1.2-0.4,2.3-0.9,3.7c-1,2.4-0.7,4.9,0.1,7.4c1.2,3.7,4.5,6.6,8.3,4.3c2.1-1.2,3.6-3.6,4.7-5.7
			c1.3-2.4,1.8-5.1,1.9-7.8c0.1-3.3-0.7-6.6-2-9.8c6.9,4.3,17.8,6.7,21.1-2.7c2.8-8-8.5-6-14.3-7.4c0.9-0.1,1.8-0.2,2.7-0.2
			c2.5-0.2,5-0.2,7.5-0.6c4.6-0.7,8.7-3.4,8.6-8.5c-0.1-4.4-4.9-3.6-7.8-2.9c-2.3,0.6-6.4,2.2-9.1,1.1c5.2-2.4,11-5.1,13.6-10.4
			c1.1-2.4,2-6.3,0.7-8.8c-1-2.1-3.5-1.5-5.2-0.7c-4.4,2.1-7.4,6.4-11.7,8.8c-1,0.6-2.1,1.1-3.2,1.4c-0.4,0.1-0.9,0.3-1.3,0.3
			c-0.2,0-0.4,0-0.5,0c0-0.1,0-0.2,0-0.3c0.1-0.7,0.4-1.3,0.7-1.9c0.6-1.4,1.5-2.4,2.7-3.3c2.3-1.7,4.9-2.9,7.1-4.8
			c2.4-2.1,3.7-5,4.3-8.1c0.5-2.8,0.7-6-0.5-8.6c-1.3-2.7-3.8-3.5-6.6-3c-7.8,1.4-7.6,10.2-10.3,15.9c-0.7,1.5-1.8,2.9-3,4.1
			c-0.5,0.5-1.8,2.1-2.6,1.9c-0.5-0.1-0.4-2.4-0.4-2.9c0-2,0.6-3.8,1.6-5.5c2.5-4.4,6.7-7.9,7.6-13.1c0.6-3.4-0.1-8.2-3.7-9.8
			c-3.8-1.7-7.8,1.8-9.4,5.1c-1.9,4.1-1,9.3-4.2,12.7c-1.4-1.6-1.7-3.8-1.5-6.1c0.4-3.5,1.5-6.8,2.4-10.2c0.9-3.2,1.7-6.6,1.1-10
			C1506.9,1347.6,1504.6,1345.3,1501.4,1344z" clip-rule="evenodd" class="color8ab9e8 svgShape"></path><path fill="#a3c4fb" fill-rule="evenodd" d="M1643.6,1384.4c-0.4-3-1.7-5.8-3.1-8.4c-0.4-0.7-1.3-0.9-2-0.5c-3.5,2.2-6.9,4.5-10.6,6.3
			c-1.2,0.6-2.9,1.4-4,1.5c-0.1,0-0.3,0-0.5,0c0,0,0,0,0-0.1c0-0.3,0-0.6,0.1-0.9c1.2-5.5,5.9-9.4,7.4-14.7c0.8-2.8,0.7-6.3,0-9.1
			c-0.8-3.1-2.8-5.5-2.5-8.8c0.1-1.2-1.3-1.7-2.2-1.3c-5.1,2.4-11.3,4.2-15,8.8c-3.2,4-3,9.1-2.4,14c0.3,2.3,0.6,4.7,0.5,7.1
			c-0.1,1.3-0.2,3.6-1.7,4c-1.6,0.4-2.1-2.3-2.4-3.5c-0.7-2.6-0.9-5.3-1.2-8c-0.5-4.4-1.5-11.2-6.4-12.9c-2.2-0.7-4.1,0.8-5.2,2.5
			c-1.8,2.7-2.1,6.4-2.1,9.6c0,7.1,5.4,12.2,7,18.8c0.4,1.5,1,6.3-1.3,6.9c-0.8,0.2-1.9-0.7-2.4-1.1c-1.3-1.1-2.7-2.6-3.3-4.2
			c-2.5-6.1-0.6-13.2-3.5-19.3c-1.2-2.7-3.9-5.4-6.8-6.3c-2.4-0.7-4.6,0.7-5.8,2.7c-1.5,2.4-1.9,5.5-1.8,8.3
			c0.1,3.2,0.9,6.3,2.5,9.1c3.2,5.5,9.1,9.4,9.4,16.3c0,0.9,0,2.1-0.7,2.8c-0.5,0.6-1.6,0.2-2.2,0c-2.8-0.9-5.5-3.7-7-6.1
			c-1.8-2.9-2.2-6.5-3-9.8c-0.8-3.4-2.1-6.6-4.6-9.2c-1.8-1.9-4.5-3.3-7-2.1c-2.3,1.1-3.5,3.7-4.2,6.1c-0.9,3.1-0.9,6.5-0.3,9.7
			c0.6,3.4,3,6.5,5.2,9.1c2.3,2.6,5,5,7.2,7.7c0.6,0.7,1.1,1.3,1.9,1.8c0.8,0.6,1.8,1,2.5,1.8c0.6,0.6-0.3,1.1-0.9,1.5
			c-1.3,0.9-3.2-0.2-4.4-0.8c-1.2-0.6-2.5-0.9-3.6-1.6c-1.3-0.7-2.5-1.7-3.6-2.7c-2.3-1.9-4.7-3.9-7.7-4.6c-2.9-0.7-5.9,0.6-7.8,2.8
			c-3.9,4.6,0,11.1,3.9,14.2c2.5,2,5.3,2.8,8.5,2.9c3.9,0,7.7-1,11.3,0.5c-0.6,1.5-1.7,2.3-3.5,2.6c-2.5,0.4-5.3-0.1-7.7-0.6
			c-4.8-0.8-11.4-2.9-16,0c-0.6,0.4-0.9,1-0.7,1.7c0.8,2.9,2.2,5.6,4.7,7.3c2.1,1.5,4.8,1.7,7.3,1.5c4.4-0.3,9.1-2,13.5-1.4
			c-1,0.6-2.2,0.8-3.7,1c-2.6,0.4-4.6,1.7-6.4,3.6c-2.7,2.9-3.6,7.1,0.3,9.3c2.1,1.2,4.8,1.4,7.2,1.4c2.7,0,5.3-0.9,7.7-2.1
			c3-1.5,5.5-3.9,7.6-6.5c-0.4,8.2,2.8,18.8,12.6,17.2c8.4-1.4,1.1-10.3-0.5-16.1c0.6,0.7,1,1.5,1.5,2.2c1.4,2.1,2.6,4.3,4.1,6.2
			c2.9,3.7,7.1,6,11.6,3.4c3.9-2.2,0.7-6.1-1.3-8.2c-1.7-1.8-5-4.6-5.3-7.4c4.6,3.4,9.8,7.2,15.7,6.8c2.7-0.2,6.4-1.3,8.1-3.6
			c1.3-1.9-0.4-3.8-1.9-4.9c-4-2.9-9.2-3.4-13.3-6c-1-0.6-1.9-1.3-2.8-2.1c-0.3-0.3-0.6-0.6-0.9-1c-0.1-0.1-0.2-0.3-0.2-0.5
			c0.1,0,0.1-0.1,0.2-0.1c0.6-0.2,1.3-0.3,2-0.3c1.5-0.1,2.9,0.2,4.2,0.8c2.6,1.2,4.9,2.9,7.6,3.9c3,1.1,6.2,0.8,9.2-0.2
			c2.7-0.9,5.6-2.3,7.3-4.6c1.8-2.4,1.2-5.1-0.6-7.3c-5-6.2-12.6-1.7-18.9-1.4c-1.7,0.1-3.4-0.2-5-0.6c-0.7-0.2-2.6-0.5-2.9-1.3
			c-0.2-0.5,1.9-1.6,2.3-1.8c1.8-1,3.6-1.3,5.6-1.3c5.1,0,10.2,2.1,15.2,0.3c3.3-1.1,7.1-4.1,6.8-8c-0.4-4.1-5.4-6-9-5.8
			c-4.5,0.3-8.7,3.7-13.2,2.4c0.7-2,2.4-3.3,4.7-4.3c3.2-1.4,6.7-2,10.1-2.8c3.2-0.8,6.6-1.7,9.3-3.8
			C1643.2,1391,1644.1,1387.7,1643.6,1384.4z" clip-rule="evenodd" class="colora3cffb svgShape"></path><path fill="#8aade8" fill-rule="evenodd" d="M1622,1356c-1.7,7.4-3.2,14.8-5.3,22.1c-2.2,7.5-5.3,14.4-9.5,20.9c-8.8,13.4-20,25.1-29.1,38.3
			c-0.4,0.5-0.3,1.1,0,1.5c-1.7,3.3-2.8,7.1-3.5,10.6c-1.3,6.2-1.7,12.7-1.9,19c-0.3,7.8-0.2,15.5,0.1,23.3c0.4,9.1,1,18.3,0.6,27.4
			c0,0.5-0.1,1.1-0.1,1.6c-0.1,1.9,2.8,1.9,2.9,0c0.5-8.9,0-17.9-0.5-26.8c-0.4-7.9-0.6-15.9-0.3-23.8c0.2-6.2,0.5-12.3,1.6-18.4
			c1-5.5,2.5-11.8,6.7-15.8c0.6-0.6,0.5-1.3,0.2-1.8c8.5-11.5,18.2-22.1,26-34.1c4.2-6.4,7.2-13.3,9.4-20.7c2.2-7.4,3.7-15,5.4-22.5
			C1625.2,1355,1622.4,1354.2,1622,1356z" clip-rule="evenodd" class="color8ab9e8 svgShape"></path><path fill="#8aade8" fill-rule="evenodd" d="M1574.1,1521.1c-1.6-14.3-8.2-27-15-39.4c-6.7-12.3-13.8-24.8-15.9-38.9c-0.3-1.9-3.1-1.1-2.8,0.8
			c4.1,28.1,27.6,49.1,30.8,77.5C1571.4,1523,1574.3,1523,1574.1,1521.1z" clip-rule="evenodd" class="color8ab9e8 svgShape"></path><path fill="#8aade8" fill-rule="evenodd" d="M1617.3,1454.3c-12.6,5.5-24.9,13.9-33.3,24.8c-4.6,6-7.3,12.7-9,19.8c-0.6-7.4-2-14.7-3.4-22
			c-3.3-17-5.9-34.1-7.5-51.4c-0.6-6.9-1.1-13.7-1.4-20.6c-0.1-1.9-3-1.9-2.9,0c0.9,19.1,3.1,38,6,56.9c2,12.8,5.4,25.4,6.4,38.2
			c-1.1-7-2.8-13.8-4.9-20.5c-3.1-9.6-7.2-18.9-12.5-27.4c0-0.4-0.1-0.7-0.4-1.1c-0.4-0.4-0.7-0.8-1.1-1.2c-1.3-2-2.7-3.9-4.2-5.8
			c-0.7-0.8-1.6-0.5-2.1,0.1c-2.2-1.7-4.6-3.3-7.2-4.6c-6-3.1-13.5-5.1-16.4-12c-0.7-1.7-3.3-0.2-2.5,1.5c2.9,6.8,9.9,9.3,16,12.3
			c5.5,2.7,10.1,6.1,14.3,10.5c5.9,8.9,10.2,18.8,13.5,29c3.9,12.3,6.2,25.2,6.2,38.2c0,0.1,0,0.1,0,0.2c-0.2,1,0.6,1.6,1.4,1.6
			c0.4,1.3,2.8,1.1,2.9-0.5c1.1-13.9,2.7-28.4,11.5-39.8c8.2-10.4,20.1-18.4,32.2-23.7C1620.5,1456,1619,1453.5,1617.3,1454.3z" clip-rule="evenodd" class="color8ab9e8 svgShape"></path><path fill="#c2d7f9" fill-rule="evenodd" d="M1529.5,1355.7c-2.7-1.3-5.7-1.9-8.6-2.2c-0.8-0.1-1.5,0.6-1.6,1.4c-0.2,4.1-0.2,8.2-0.8,12.3
			c-0.2,1.3-0.5,3.2-1,4.2c0,0.1-0.2,0.3-0.3,0.4c0,0,0,0-0.1,0c-0.3-0.2-0.5-0.4-0.7-0.6c-3.9-4.1-4.4-10.1-7.9-14.4
			c-1.9-2.3-4.8-4.1-7.5-5.1c-3-1.1-6.1-0.7-8.7-2.9c-0.9-0.8-2.1,0.1-2.3,1.1c-0.9,5.5-2.9,11.8-1.2,17.3c1.5,4.9,5.8,7.6,10.2,9.8
			c2.1,1.1,4.2,2.2,6.1,3.6c1,0.8,2.9,2.2,2.4,3.7c-0.5,1.6-3,0.4-4.3,0c-2.5-1-4.9-2.3-7.3-3.5c-4-2.1-10.1-5.1-14.3-2
			c-1.8,1.4-1.7,3.8-0.9,5.7c1.2,3,4.1,5.4,6.7,7.2c5.8,4,13.1,2.5,19.5,4.9c1.5,0.6,5.8,2.8,4.9,5c-0.3,0.8-1.6,1.2-2.3,1.4
			c-1.7,0.5-3.6,0.7-5.3,0.4c-6.5-1.4-11.2-6.9-17.8-8.1c-2.9-0.5-6.7,0.2-9,2.1c-2,1.6-2,4.2-1.1,6.3c1.1,2.6,3.5,4.7,5.8,6.2
			c2.7,1.8,5.7,2.9,8.9,3.1c6.4,0.5,12.9-2.2,18.7,1.5c0.8,0.5,1.7,1.2,1.9,2.2c0.1,0.8-0.7,1.4-1.2,1.8c-2.3,1.8-6.1,2.4-8.9,2.3
			c-3.4-0.2-6.6-1.8-9.8-3c-3.3-1.3-6.7-2-10.2-1.5c-2.6,0.4-5.3,1.8-5.7,4.6c-0.4,2.6,1.1,5,2.7,6.9c2.1,2.5,4.9,4.4,7.8,5.7
			c3.2,1.4,7.1,1.2,10.4,0.8c3.5-0.4,6.9-1.3,10.4-1.6c0.9-0.1,1.6-0.2,2.5-0.5c1-0.4,1.9-0.9,2.9-1.1c0.9-0.2,0.7,0.9,0.7,1.6
			c0,1.6-2,2.5-3.2,3.2c-1.1,0.7-2.2,1.5-3.3,2.1c-1.4,0.7-2.8,1-4.3,1.5c-2.8,0.9-5.9,1.7-8.1,3.8c-2.2,2-2.8,5.2-2.1,8
			c1.6,5.8,9.2,6.3,14,4.8c3.1-0.9,5.4-2.8,7.2-5.4c2.3-3.2,3.5-6.9,6.9-9c0.9,1.3,0.9,2.7,0.2,4.4c-1,2.3-3.1,4.3-4.8,6
			c-3.4,3.5-8.9,7.8-9,13.1c0,0.7,0.3,1.3,1,1.5c2.9,0.9,5.8,1.3,8.7,0.2c2.4-0.9,4.1-3,5.4-5.2c2.3-3.8,3.5-8.6,6.5-11.9
			c-0.1,1.2-0.6,2.3-1.3,3.6c-1.2,2.3-1.2,4.8-0.6,7.3c0.9,3.8,3.8,7,7.9,5.1c2.2-1,3.9-3.2,5.2-5.2c1.5-2.3,2.3-4.9,2.6-7.6
			c0.4-3.3-0.1-6.7-1-9.9c6.5,5,17.1,8.4,21.3-0.6c3.6-7.7-7.9-6.8-13.6-8.8c0.9,0,1.8,0,2.7,0c2.5,0.1,5,0.3,7.5,0.1
			c4.7-0.3,9-2.5,9.4-7.6c0.4-4.4-4.6-4-7.5-3.6c-2.4,0.4-6.6,1.5-9.1,0.2c5.4-1.9,11.5-4,14.5-9.1c1.4-2.3,2.6-6.1,1.6-8.7
			c-0.8-2.2-3.4-1.8-5.1-1.2c-4.6,1.7-8,5.6-12.4,7.6c-1.1,0.5-2.2,0.9-3.3,1.1c-0.4,0.1-0.9,0.2-1.3,0.2c-0.2,0-0.4,0-0.5-0.1
			c0-0.1,0-0.2,0-0.3c0.2-0.6,0.5-1.2,0.9-1.8c0.8-1.3,1.8-2.3,3-3.1c2.4-1.5,5.1-2.4,7.5-4c2.6-1.9,4.2-4.6,5.1-7.7
			c0.8-2.7,1.3-5.9,0.3-8.6c-1-2.8-3.5-3.9-6.3-3.6c-7.9,0.6-8.5,9.4-11.8,14.8c-0.9,1.4-2.1,2.7-3.3,3.8c-0.5,0.5-1.9,1.9-2.7,1.7
			c-0.5-0.1-0.2-2.5-0.1-2.9c0.2-2,0.9-3.7,2.1-5.3c2.9-4.2,7.4-7.2,8.9-12.3c0.9-3.4,0.7-8.1-2.7-10.1c-3.6-2-8,1.1-9.8,4.1
			c-2.3,3.9-1.9,9.2-5.4,12.2c-1.3-1.8-1.4-3.9-0.9-6.2c0.7-3.4,2.2-6.7,3.4-9.9c1.2-3.1,2.3-6.4,2.1-9.8
			C1534.6,1359.8,1532.5,1357.3,1529.5,1355.7z" clip-rule="evenodd" class="colorc2def9 svgShape"></path><polygon fill="#c2d7f9" fill-rule="evenodd" points="1607.4 1607.3 1544.2 1607.3 1523.5 1525.5 1626.7 1525.5" clip-rule="evenodd" class="colorc2def9 svgShape"></polygon><rect width="115.6" height="10.6" x="1516.6" y="1514.9" fill="#8aade8" fill-rule="evenodd" clip-rule="evenodd" class="color8ab9e8 svgShape"></rect><polygon fill="#a3c4fb" fill-rule="evenodd" points="1575.1 1525.5 1523.5 1525.5 1544.2 1607.3 1575.1 1607.3" clip-rule="evenodd" class="colora3cffb svgShape"></polygon><rect width="58.5" height="10.6" x="1516.6" y="1514.9" fill="#6190df" fill-rule="evenodd" clip-rule="evenodd" class="color619fdf svgShape"></rect><polygon fill="#8aade8" fill-rule="evenodd" points="1607.4 1608.6 1544.2 1608.6 1523.5 1597.5 1626.7 1597.5" clip-rule="evenodd" class="color8ab9e8 svgShape"></polygon><polygon fill="#6190df" fill-rule="evenodd" points="1575.1 1597.5 1523.5 1597.5 1544.2 1608.6 1575.1 1608.6" clip-rule="evenodd" class="color619fdf svgShape"></polygon></g><g fill="#000000" class="color000000 svgShape"><path fill="#dee8f9" fill-rule="evenodd" d="M587.3,815h-82.6c-0.8-2.3-1.8-4.6-2.8-6.9h80.3c0.8-2.4,1.3-4.7,1.5-6.9h3.5c0.9,0,1.7-0.2,2.5-0.5v14.1
			C588.9,814.9,588.1,815,587.3,815L587.3,815z M358.4,815c1.7-4.8,3.8-9.4,6.4-13.7h-72.7c-3.3,0-6.2-2.5-6.7-5.7
			c-0.3-2.2-0.4-4.4-0.2-6.6c1-13.3,11.4-24.3,24.6-26c1.3-0.2,2.6-0.2,3.8-0.2c6.5,0,12.7,2.1,17.8,6.2c1.3,1,2.8,1.5,4.3,1.5
			c1.3,0,2.6-0.4,3.7-1.1c2.5-1.6,3.7-4.6,2.9-7.5c-1.8-6.9-2.6-14.2-2.4-21.6c1.3-40.2,35-73.6,75.3-74.5c0.6,0,1.1,0,1.7,0
			c36.8,0,68.4,25.9,75.5,62.2c0.6,3.3,3.5,5.6,6.8,5.6c0.2,0,0.4,0,0.6,0c1.3-0.1,2.5-0.2,3.6-0.2c18.1,0,34.4,11.4,40.6,28.3
			c0.7,1.8,2.1,3.3,3.9,4c0.8,0.3,1.7,0.5,2.6,0.5c1,0,2-0.2,3-0.7c3.9-1.9,8-2.8,12.4-2.8c0.5,0,1,0,1.5,0
			c9.3,0.5,17.6,5.7,22.5,13.2v-19.5c-6.3-4.3-13.7-7-21.8-7.4c-0.7,0-1.5,0-2.2,0c-4,0-7.9,0.5-11.7,1.6
			c-9.5-18.4-28.5-30.5-49.4-30.9c-10.4-39.8-46.4-67.6-87.9-67.6c-0.6,0-1.2,0-1.7,0c-48.3,1-87.3,39.6-88.8,87.8
			c-0.1,3.7,0,7.4,0.3,11.1c-4.1-1.3-8.5-2-12.9-2c-1.9,0-3.8,0.1-5.6,0.4c-19.7,2.5-35,18.8-36.5,38.6c-0.3,3.3-0.1,6.5,0.3,9.7
			c1.5,9.9,10.2,17.4,20.3,17.4H358.4z" clip-rule="evenodd" class="colordeecf9 svgShape"></path><path fill="#ffffff" fill-rule="evenodd" d="M561.9,774.6c-1.2,0.3-2.4,0.7-3.5,1.2l-18.2,8.8l0-0.1l-0.5,0.2l-7-19c-4.6-12.5-16.6-20.8-29.8-20.8
			c-0.8,0-1.7,0-2.7,0.1l-16.4,1.4l-3.1-16.1c-1.8-9.4-5.7-18.2-11.3-25.9c3,26.5-1.1,47.4-11.5,63.4l-0.4-0.1
			c-3.2,4.9-6.9,9.3-11.2,13.3c-9.9,9.1-22.7,15.9-38.4,20.5h-68.9v-0.1h-47c-3.3,0-6.2-2.5-6.7-5.7c-0.3-2.2-0.4-4.4-0.2-6.6
			c1-13.3,11.4-24.3,24.6-26c1.3-0.2,2.6-0.2,3.8-0.2c6.5,0,12.7,2.1,17.8,6.2c1.3,1,2.8,1.5,4.3,1.5c1.2,0,2.3-0.3,3.4-0.9v-0.2
			c2.4-1.6,3.5-4.6,2.7-7.4c-1.8-6.9-2.6-14.1-2.4-21.4l0.5,0l0-0.2c0.5-15.8,6-30.6,15-42.7l-0.3-0.2
			c11.1-14.9,27.3-25.7,45.8-29.7c4.8-1.1,9.7-1.7,14.8-1.8c0.6,0,1.1,0,1.7,0c36.8,0,68.4,25.9,75.5,62.2c0.6,3.3,3.5,5.6,6.8,5.6
			c0.2,0,0.4,0,0.5,0c1.3-0.1,2.5-0.2,3.6-0.2c18.1,0,34.4,11.4,40.6,28.3c0.7,1.8,2.1,3.3,3.9,4c0.8,0.3,1.7,0.5,2.6,0.5
			c0.4,0,0.8,0,1.2-0.1c0.4-0.1,0.9-0.3,1.3-0.5c2.2-1.1,4.6-1.9,7-2.3c1.9-0.4,3.9-0.6,5.9-0.6c0.5,0,1,0,1.5,0
			c9.3,0.5,17.6,5.7,22.5,13.2v1c2.5,4.1,3.9,8.8,4,13.7c0,1.7-0.1,3.3-0.3,4.9c-0.3,2.3-1.8,4.1-3.7,5.1v0.1
			c-0.4,0.2-0.9,0.3-1.3,0.4c-0.5,0.1-1.1,0.2-1.7,0.2h-3.5c2.2-17.5-10-26.8-17-27.1c-0.3,0-0.6,0-0.9,0
			C564.1,774.2,563,774.3,561.9,774.6z" clip-rule="evenodd" class="colorffffff svgShape"></path><path fill="#eef3fb" fill-rule="evenodd" d="M464.6,700.5c0.3-5.2,14.6,16.7,16.4,30.2l3.1,16l16.3-1.4c1-0.1,1.8-0.1,2.6-0.1c13.2,0,25.1,8.3,29.6,20.7
			l6.9,18.9l18.1-8.8c2.3-1.1,4.7-1.7,7.3-1.7c0.3,0,0.6,0,0.9,0c2.8,0.1,6.5,1.7,9.7,4.7c5.8,4.2,11,12.2,9.4,23.8H400.2
			c16.5-4.6,30-11.3,40.5-20.5C474.3,752.9,463.8,699,464.6,700.5z" clip-rule="evenodd" class="coloreef8fb svgShape"></path><path fill="#dee8f9" fill-rule="evenodd" d="M587.3,815H339.6v-13.7c82.2-0.4,165.4,0,247.7,0c3.3,0,6.2-2.5,6.7-5.8c0.2-1.6,0.3-3.3,0.3-4.9
			c-0.3-14.6-12.5-27.1-27-27.8c-0.5,0-1,0-1.5,0c-4.3,0-8.5,0.9-12.4,2.8c-0.9,0.5-2,0.7-3,0.7c-0.9,0-1.7-0.2-2.6-0.5
			c-1.8-0.7-3.2-2.2-3.9-4c-6.2-16.9-22.5-28.3-40.6-28.3c-1.2,0-2.3,0.1-3.6,0.2c-0.2,0-0.4,0-0.6,0c-3.3,0-6.1-2.3-6.8-5.6
			c-7.1-36.3-38.7-62.2-75.5-62.2c-0.6,0-1.1,0-1.7,0c-24.3,0.5-46.2,12.9-60.1,31.4c-3.6-3.1-8.1-5.3-13.1-5.9
			c16-23.3,42.6-38.7,72.9-39.3c0.6,0,1.2,0,1.8,0c41.6,0,77.4,27.8,87.9,67.6c21,0.5,40,12.5,49.4,30.9c3.8-1.1,7.7-1.6,11.7-1.6
			c0.7,0,1.5,0,2.2,0.1c22,1.1,39.6,19.2,40.1,41.2v0c0.1,2.4-0.1,4.9-0.5,7.3C606.1,807.5,597.4,815,587.3,815L587.3,815z
			 M339.6,769.2c2.4-1.6,3.5-4.6,2.7-7.4c-1.8-6.9-2.6-14.1-2.4-21.4c-0.1,0-0.3,0-0.4,0V769.2z" clip-rule="evenodd" class="colordeecf9 svgShape"></path></g><g fill="#000000" class="color000000 svgShape"><path fill="#dee8f9" fill-rule="evenodd" d="M1588.7,678.1h-82.6c-0.8-2.3-1.8-4.6-2.8-6.9h80.3c0.8-2.4,1.3-4.7,1.5-6.9h3.5c0.9,0,1.7-0.2,2.5-0.5V678
			C1590.3,678.1,1589.5,678.1,1588.7,678.1L1588.7,678.1z M1359.9,678.1c1.7-4.8,3.8-9.4,6.4-13.7h-72.7c-3.3,0-6.2-2.5-6.7-5.7
			c-0.3-2.2-0.4-4.4-0.2-6.6c1-13.3,11.4-24.3,24.6-26c1.3-0.2,2.6-0.2,3.8-0.2c6.5,0,12.7,2.1,17.8,6.2c1.3,1,2.8,1.5,4.3,1.5
			c1.3,0,2.6-0.4,3.7-1.1c2.5-1.6,3.7-4.6,2.9-7.5c-1.8-6.9-2.6-14.2-2.4-21.6c1.2-40.2,35-73.6,75.3-74.5c0.6,0,1.1,0,1.7,0
			c36.8,0,68.4,25.9,75.5,62.2c0.6,3.3,3.5,5.6,6.8,5.6c0.2,0,0.4,0,0.6,0c1.3-0.1,2.5-0.2,3.6-0.2c18.1,0,34.4,11.4,40.6,28.3
			c0.7,1.8,2.1,3.3,3.9,4c0.8,0.3,1.7,0.5,2.6,0.5c1,0,2-0.2,3-0.7c3.9-1.9,8-2.8,12.4-2.8c0.5,0,1,0,1.5,0
			c9.3,0.5,17.6,5.7,22.5,13.2v-19.5c-6.3-4.3-13.7-7-21.8-7.4c-0.7,0-1.5,0-2.2,0c-4,0-7.9,0.5-11.7,1.6
			c-9.5-18.4-28.5-30.5-49.4-30.9c-10.4-39.8-46.4-67.6-87.9-67.6c-0.6,0-1.2,0-1.7,0c-48.3,1-87.3,39.6-88.8,87.8
			c-0.1,3.7,0,7.4,0.3,11.1c-4.1-1.3-8.5-2-12.9-2c-1.9,0-3.8,0.1-5.6,0.4c-19.7,2.5-35,18.8-36.5,38.6c-0.3,3.3-0.1,6.5,0.3,9.7
			c1.5,9.9,10.2,17.4,20.3,17.4H1359.9z" clip-rule="evenodd" class="colordeecf9 svgShape"></path><path fill="#ffffff" fill-rule="evenodd" d="M1563.3,637.7c-1.2,0.3-2.4,0.7-3.5,1.2l-18.2,8.8l0-0.1l-0.5,0.2l-7-19c-4.6-12.5-16.6-20.8-29.8-20.8
			c-0.8,0-1.7,0-2.7,0.1l-16.4,1.4l-3.1-16.1c-1.8-9.4-5.7-18.2-11.3-25.9c3,26.5-1.1,47.4-11.5,63.4l-0.4-0.1
			c-3.2,4.9-6.9,9.3-11.2,13.3c-9.9,9.1-22.7,15.9-38.4,20.5h-68.9v-0.1h-47c-3.3,0-6.2-2.5-6.7-5.7c-0.3-2.2-0.4-4.4-0.2-6.6
			c1-13.3,11.4-24.3,24.6-26c1.3-0.2,2.6-0.2,3.8-0.2c6.5,0,12.7,2.1,17.8,6.2c1.3,1,2.8,1.5,4.3,1.5c1.2,0,2.3-0.3,3.4-0.9v-0.2
			c2.4-1.6,3.5-4.6,2.7-7.4c-1.8-6.9-2.6-14.1-2.4-21.4l0.5,0l0-0.2c0.5-15.8,6-30.6,15-42.7l-0.3-0.2
			c11.1-14.9,27.3-25.7,45.8-29.7c4.8-1.1,9.7-1.7,14.8-1.8c0.6,0,1.1,0,1.7,0c36.8,0,68.4,25.9,75.5,62.2c0.6,3.3,3.5,5.6,6.8,5.6
			c0.2,0,0.4,0,0.6,0c1.3-0.1,2.5-0.2,3.6-0.2c18.1,0,34.4,11.4,40.6,28.3c0.7,1.8,2.1,3.3,3.9,4c0.8,0.3,1.7,0.5,2.6,0.5
			c0.4,0,0.8,0,1.2-0.1c0.4-0.1,0.9-0.3,1.3-0.5c2.2-1.1,4.6-1.9,7-2.3c1.9-0.4,3.9-0.6,5.9-0.6c0.5,0,1,0,1.5,0
			c9.3,0.5,17.6,5.7,22.5,13.2v1c2.5,4.1,3.9,8.8,4,13.7c0,1.7-0.1,3.3-0.3,4.9c-0.3,2.3-1.8,4.1-3.7,5.1v0.1
			c-0.4,0.2-0.9,0.3-1.3,0.4c-0.5,0.1-1.1,0.2-1.7,0.2h-3.5c2.2-17.5-10-26.8-17-27.1c-0.3,0-0.6,0-0.9,0
			C1565.6,637.4,1564.4,637.5,1563.3,637.7z" clip-rule="evenodd" class="colorffffff svgShape"></path><path fill="#eef3fb" fill-rule="evenodd" d="M1466.1,563.6c0.3-5.2,14.6,16.7,16.4,30.2l3.1,16l16.3-1.4c1-0.1,1.8-0.1,2.6-0.1
			c13.2,0,25.1,8.3,29.6,20.7l6.9,18.9l18.1-8.8c2.3-1.1,4.7-1.7,7.3-1.7c0.3,0,0.6,0,0.9,0c2.8,0.1,6.5,1.7,9.7,4.7
			c5.8,4.2,11,12.2,9.4,23.8h-184.9c16.5-4.6,30-11.3,40.5-20.5C1475.8,616.1,1465.2,562.1,1466.1,563.6z" clip-rule="evenodd" class="coloreef8fb svgShape"></path><path fill="#dee8f9" fill-rule="evenodd" d="M1588.7,678.1H1341v-13.7c82.2-0.4,165.4,0,247.7,0c3.3,0,6.2-2.5,6.7-5.8c0.2-1.6,0.3-3.3,0.3-4.9
			c-0.3-14.6-12.5-27.1-27-27.8c-0.5,0-1,0-1.5,0c-4.3,0-8.5,0.9-12.4,2.8c-0.9,0.5-2,0.7-3,0.7c-0.9,0-1.7-0.2-2.6-0.5
			c-1.8-0.7-3.2-2.2-3.9-4c-6.2-16.9-22.5-28.3-40.6-28.3c-1.2,0-2.3,0.1-3.6,0.2c-0.2,0-0.4,0-0.6,0c-3.3,0-6.1-2.3-6.8-5.6
			c-7.1-36.3-38.7-62.2-75.5-62.2c-0.6,0-1.1,0-1.7,0c-24.3,0.5-46.2,12.9-60.1,31.4c-3.6-3.1-8.1-5.3-13.1-5.9
			c16-23.3,42.6-38.7,72.9-39.3c0.6,0,1.2,0,1.8,0c41.6,0,77.4,27.8,87.9,67.6c21,0.5,40,12.5,49.4,30.9c3.8-1.1,7.7-1.6,11.7-1.6
			c0.7,0,1.5,0,2.2,0.1c22,1.1,39.6,19.2,40.1,41.2v0c0.1,2.4-0.1,4.9-0.5,7.3C1607.5,670.6,1598.8,678.1,1588.7,678.1L1588.7,678.1
			z M1341,632.3c2.4-1.6,3.5-4.6,2.7-7.4c-1.8-6.9-2.6-14.1-2.4-21.4c-0.1,0-0.3,0-0.4,0V632.3z" clip-rule="evenodd" class="colordeecf9 svgShape"></path></g><g fill="#000000" class="color000000 svgShape"><path fill="#dee8f9" fill-rule="evenodd" d="M1014.1,664.3h-60.3c-0.6-1.7-1.3-3.4-2-5h58.6c0.6-1.8,0.9-3.4,1.1-5h2.6c0.6,0,1.2-0.1,1.8-0.3v10.3
			C1015.3,664.2,1014.7,664.3,1014.1,664.3L1014.1,664.3z M847.2,664.3c1.2-3.5,2.8-6.9,4.7-10h-53.1c-2.4,0-4.5-1.8-4.9-4.2
			c-0.2-1.6-0.3-3.2-0.2-4.8c0.7-9.7,8.3-17.7,17.9-19c0.9-0.1,1.9-0.2,2.8-0.2c4.7,0,9.3,1.6,13,4.5c0.9,0.7,2,1.1,3.1,1.1
			c0.9,0,1.9-0.3,2.7-0.8c1.8-1.2,2.7-3.4,2.1-5.5c-1.3-5.1-1.9-10.3-1.7-15.7c0.9-29.4,25.6-53.7,54.9-54.3c0.4,0,0.8,0,1.2,0
			c26.9,0,49.9,18.9,55.1,45.4c0.5,2.4,2.6,4.1,4.9,4.1c0.1,0,0.3,0,0.4,0c0.9-0.1,1.8-0.1,2.6-0.1c13.2,0,25.1,8.3,29.6,20.7
			c0.5,1.3,1.5,2.4,2.8,2.9c0.6,0.2,1.2,0.4,1.9,0.4c0.7,0,1.5-0.2,2.2-0.5c2.8-1.4,5.9-2.1,9-2.1c0.4,0,0.7,0,1.1,0
			c6.8,0.3,12.8,4.2,16.4,9.7v-14.3c-4.6-3.2-10-5.1-15.9-5.4c-0.5,0-1.1,0-1.6,0c-2.9,0-5.8,0.4-8.5,1.2
			c-6.9-13.4-20.8-22.2-36.1-22.6c-7.6-29-33.8-49.3-64.1-49.3c-0.4,0-0.8,0-1.3,0c-35.2,0.7-63.7,28.9-64.7,64
			c-0.1,2.7,0,5.4,0.2,8.1c-3-1-6.2-1.5-9.4-1.5c-1.4,0-2.7,0.1-4.1,0.3c-14.3,1.9-25.6,13.7-26.7,28.1c-0.2,2.4-0.1,4.8,0.3,7.1
			c1.1,7.2,7.5,12.7,14.8,12.7H847.2z" clip-rule="evenodd" class="colordeecf9 svgShape"></path><path fill="#ffffff" fill-rule="evenodd" d="M995.6,634.7c-0.9,0.2-1.7,0.5-2.6,0.9l-13.3,6.4l0-0.1l-0.3,0.2l-5.1-13.8c-3.3-9.1-12.1-15.2-21.8-15.2
			c-0.6,0-1.2,0-1.9,0.1l-11.9,1l-2.3-11.8c-1.3-6.8-4.2-13.3-8.2-18.9c2.2,19.3-0.8,34.6-8.4,46.2l-0.3-0.1c-2.3,3.6-5,6.8-8.2,9.7
			c-7.2,6.7-16.6,11.6-28,14.9H833v-0.1h-34.3c-2.4,0-4.5-1.8-4.9-4.2c-0.2-1.6-0.3-3.2-0.2-4.8c0.7-9.7,8.3-17.7,17.9-19
			c0.9-0.1,1.9-0.2,2.8-0.2c4.7,0,9.3,1.6,13,4.5c0.9,0.7,2,1.1,3.1,1.1c0.8,0,1.7-0.2,2.5-0.7v-0.2c1.7-1.2,2.5-3.3,2-5.4
			c-1.3-5-1.9-10.3-1.7-15.6l0.4,0l0-0.1c0.4-11.5,4.4-22.3,10.9-31.1l-0.2-0.2c8.1-10.8,19.9-18.8,33.4-21.7
			c3.5-0.8,7.1-1.2,10.8-1.3c0.4,0,0.8,0,1.2,0c26.9,0,49.9,18.9,55.1,45.4c0.5,2.4,2.6,4.1,4.9,4.1c0.1,0,0.3,0,0.4,0
			c0.9-0.1,1.8-0.1,2.6-0.1c13.2,0,25.1,8.3,29.6,20.7c0.5,1.3,1.5,2.4,2.8,2.9c0.6,0.2,1.2,0.4,1.9,0.4c0.3,0,0.6,0,0.9-0.1
			c0.3-0.1,0.6-0.2,0.9-0.3c1.6-0.8,3.3-1.4,5.1-1.7c1.4-0.3,2.9-0.4,4.3-0.4c0.4,0,0.7,0,1.1,0c6.8,0.3,12.8,4.2,16.4,9.7v0.7
			c1.8,3,2.9,6.4,2.9,10c0,1.2,0,2.4-0.2,3.6c-0.2,1.7-1.3,3-2.7,3.7v0.1c-0.3,0.1-0.6,0.2-1,0.3c-0.4,0.1-0.8,0.2-1.2,0.2h-2.6
			c1.6-12.7-7.3-19.5-12.4-19.8c-0.2,0-0.5,0-0.7,0C997.2,634.5,996.4,634.6,995.6,634.7z" clip-rule="evenodd" class="colorffffff svgShape"></path><path fill="#eef3fb" fill-rule="evenodd" d="M924.6,580.7c0.2-3.8,10.6,12.2,12,22l2.3,11.7l11.9-1c0.7,0,1.3-0.1,1.9-0.1c9.6,0,18.3,6.1,21.6,15.1
			l5,13.8l13.2-6.4c1.7-0.8,3.5-1.2,5.4-1.2c0.2,0,0.4,0,0.7,0c2.1,0.1,4.7,1.3,7.1,3.5c4.2,3,8,8.9,6.9,17.3H877.6
			c12-3.3,21.9-8.3,29.5-14.9C931.7,619,924,579.6,924.6,580.7z" clip-rule="evenodd" class="coloreef8fb svgShape"></path><path fill="#dee8f9" fill-rule="evenodd" d="M1014.1,664.3H833.4v-10c60-0.3,120.7,0,180.7,0c2.4,0,4.5-1.8,4.9-4.2c0.2-1.2,0.2-2.4,0.2-3.6
			c-0.2-10.7-9.1-19.7-19.7-20.3c-0.4,0-0.7,0-1.1,0c-3.2,0-6.2,0.7-9,2.1c-0.7,0.3-1.4,0.5-2.2,0.5c-0.6,0-1.3-0.1-1.9-0.4
			c-1.3-0.5-2.3-1.6-2.8-2.9c-4.5-12.4-16.4-20.7-29.6-20.7c-0.8,0-1.7,0-2.6,0.1c-0.1,0-0.3,0-0.4,0c-2.4,0-4.5-1.7-4.9-4.1
			c-5.1-26.4-28.3-45.4-55.1-45.4c-0.4,0-0.8,0-1.2,0c-17.7,0.4-33.7,9.4-43.8,22.9c-2.6-2.3-5.9-3.8-9.5-4.3
			c11.7-17,31.1-28.2,53.2-28.7c0.4,0,0.9,0,1.3,0c30.3,0,56.5,20.3,64.1,49.3c15.3,0.3,29.2,9.2,36.1,22.6c2.7-0.8,5.6-1.2,8.5-1.2
			c0.5,0,1.1,0,1.6,0c16,0.8,28.9,14,29.2,30.1v0c0,1.8-0.1,3.6-0.3,5.3C1027.8,658.8,1021.5,664.3,1014.1,664.3L1014.1,664.3z
			 M833.4,630.8c1.7-1.2,2.5-3.3,2-5.4c-1.3-5-1.9-10.3-1.7-15.6c-0.1,0-0.2,0-0.3,0V630.8z" clip-rule="evenodd" class="colordeecf9 svgShape"></path></g><g fill="#000000" class="color000000 svgShape"><path fill="#dee8f9" fill-rule="evenodd" d="M1588.1,1081.5h-32.1c-0.3-0.9-0.7-1.8-1.1-2.7h31.2c0.3-0.9,0.5-1.8,0.6-2.7h1.4c0.3,0,0.7-0.1,1-0.2v5.5
			C1588.8,1081.5,1588.4,1081.5,1588.1,1081.5L1588.1,1081.5z M1499.3,1081.5c0.7-1.9,1.5-3.7,2.5-5.3h-28.2c-1.3,0-2.4-1-2.6-2.2
			c-0.1-0.8-0.2-1.7-0.1-2.6c0.4-5.2,4.4-9.4,9.5-10.1c0.5-0.1,1-0.1,1.5-0.1c2.5,0,4.9,0.8,6.9,2.4c0.5,0.4,1.1,0.6,1.7,0.6
			c0.5,0,1-0.1,1.4-0.4c1-0.6,1.4-1.8,1.1-2.9c-0.7-2.7-1-5.5-0.9-8.4c0.5-15.6,13.6-28.6,29.2-28.9c0.2,0,0.4,0,0.6,0
			c14.3,0,26.6,10.1,29.3,24.1c0.2,1.3,1.4,2.2,2.6,2.2c0.1,0,0.1,0,0.2,0c0.5,0,1-0.1,1.4-0.1c7,0,13.3,4.4,15.7,11
			c0.3,0.7,0.8,1.3,1.5,1.6c0.3,0.1,0.7,0.2,1,0.2c0.4,0,0.8-0.1,1.2-0.3c1.5-0.7,3.1-1.1,4.8-1.1c0.2,0,0.4,0,0.6,0
			c3.6,0.2,6.8,2.2,8.7,5.1v-7.6c-2.4-1.7-5.3-2.7-8.5-2.9c-0.3,0-0.6,0-0.9,0c-1.6,0-3.1,0.2-4.5,0.6c-3.7-7.1-11-11.8-19.2-12
			c-4-15.4-18-26.2-34.1-26.2c-0.2,0-0.5,0-0.7,0c-18.7,0.4-33.9,15.3-34.4,34.1c0,1.4,0,2.9,0.1,4.3c-1.6-0.5-3.3-0.8-5-0.8
			c-0.7,0-1.5,0-2.2,0.1c-7.6,1-13.6,7.3-14.2,15c-0.1,1.3-0.1,2.5,0.1,3.8c0.6,3.9,4,6.8,7.9,6.8H1499.3z" clip-rule="evenodd" class="colordeecf9 svgShape"></path><path fill="#ffffff" fill-rule="evenodd" d="M1578.3,1065.8c-0.5,0.1-0.9,0.3-1.4,0.5l-7.1,3.4l0,0l-0.2,0.1l-2.7-7.4c-1.8-4.8-6.4-8.1-11.6-8.1
			c-0.3,0-0.7,0-1,0l-6.4,0.5l-1.2-6.3c-0.7-3.6-2.2-7.1-4.4-10c1.2,10.3-0.4,18.4-4.5,24.6l-0.1-0.1c-1.2,1.9-2.7,3.6-4.3,5.1
			c-3.8,3.5-8.8,6.2-14.9,7.9h-26.7v0h-18.2c-1.3,0-2.4-1-2.6-2.2c-0.1-0.8-0.2-1.7-0.1-2.6c0.4-5.2,4.4-9.4,9.5-10.1
			c0.5-0.1,1-0.1,1.5-0.1c2.5,0,4.9,0.8,6.9,2.4c0.5,0.4,1.1,0.6,1.7,0.6c0.5,0,0.9-0.1,1.3-0.3v-0.1c0.9-0.6,1.3-1.8,1.1-2.9
			c-0.7-2.7-1-5.5-0.9-8.3l0.2,0l0-0.1c0.2-6.1,2.3-11.9,5.8-16.6l-0.1-0.1c4.3-5.8,10.6-10,17.8-11.5c1.9-0.4,3.8-0.7,5.7-0.7
			c0.2,0,0.4,0,0.6,0c14.3,0,26.6,10.1,29.3,24.1c0.2,1.3,1.4,2.2,2.6,2.2c0.1,0,0.1,0,0.2,0c0.5,0,1-0.1,1.4-0.1
			c7,0,13.3,4.4,15.7,11c0.3,0.7,0.8,1.3,1.5,1.6c0.3,0.1,0.7,0.2,1,0.2c0.2,0,0.3,0,0.5,0c0.2,0,0.3-0.1,0.5-0.2
			c0.9-0.4,1.8-0.7,2.7-0.9c0.8-0.2,1.5-0.2,2.3-0.2c0.2,0,0.4,0,0.6,0c3.6,0.2,6.8,2.2,8.7,5.1v0.4c1,1.6,1.5,3.4,1.6,5.3
			c0,0.6,0,1.3-0.1,1.9c-0.1,0.9-0.7,1.6-1.5,2v0c-0.2,0.1-0.3,0.1-0.5,0.1c-0.2,0.1-0.4,0.1-0.7,0.1h-1.4
			c0.9-6.8-3.9-10.4-6.6-10.5c-0.1,0-0.2,0-0.4,0C1579.1,1065.7,1578.7,1065.7,1578.3,1065.8z" clip-rule="evenodd" class="colorffffff svgShape"></path><path fill="#eef3fb" fill-rule="evenodd" d="M1540.5,1037.1c0.1-2,5.7,6.5,6.4,11.7l1.2,6.2l6.3-0.5c0.4,0,0.7,0,1,0c5.1,0,9.7,3.2,11.5,8l2.7,7.3l7-3.4
			c0.9-0.4,1.8-0.6,2.9-0.6c0.1,0,0.2,0,0.4,0c1.1,0.1,2.5,0.7,3.8,1.8c2.3,1.6,4.3,4.7,3.7,9.2h-71.8c6.4-1.8,11.7-4.4,15.7-7.9
			C1544.3,1057.4,1540.2,1036.5,1540.5,1037.1z" clip-rule="evenodd" class="coloreef8fb svgShape"></path><path fill="#dee8f9" fill-rule="evenodd" d="M1588.1,1081.5H1492v-5.3c31.9-0.1,64.2,0,96.1,0c1.3,0,2.4-1,2.6-2.3c0.1-0.6,0.1-1.3,0.1-1.9
			c-0.1-5.7-4.8-10.5-10.5-10.8c-0.2,0-0.4,0-0.6,0c-1.7,0-3.3,0.4-4.8,1.1c-0.4,0.2-0.8,0.3-1.2,0.3c-0.3,0-0.7-0.1-1-0.2
			c-0.7-0.3-1.2-0.8-1.5-1.6c-2.4-6.6-8.7-11-15.7-11c-0.4,0-0.9,0-1.4,0.1c-0.1,0-0.1,0-0.2,0c-1.3,0-2.4-0.9-2.6-2.2
			c-2.7-14.1-15-24.1-29.3-24.1c-0.2,0-0.4,0-0.7,0c-9.4,0.2-17.9,5-23.3,12.2c-1.4-1.2-3.1-2-5.1-2.3c6.2-9,16.5-15,28.3-15.2
			c0.2,0,0.5,0,0.7,0c16.1,0,30.1,10.8,34.1,26.2c8.1,0.2,15.5,4.9,19.2,12c1.5-0.4,3-0.6,4.5-0.6c0.3,0,0.6,0,0.9,0
			c8.5,0.4,15.4,7.5,15.6,16l0,0c0,0.9,0,1.9-0.2,2.8C1595.4,1078.6,1592,1081.5,1588.1,1081.5L1588.1,1081.5z M1492,1063.7
			c0.9-0.6,1.3-1.8,1.1-2.9c-0.7-2.7-1-5.5-0.9-8.3c-0.1,0-0.1,0-0.2,0V1063.7z" clip-rule="evenodd" class="colordeecf9 svgShape"></path></g><g fill="#000000" class="color000000 svgShape"><path fill="#dee8f9" fill-rule="evenodd" d="M666.9,954.9h-32.1c-0.3-0.9-0.7-1.8-1.1-2.7h31.2c0.3-0.9,0.5-1.8,0.6-2.7h1.4c0.3,0,0.7-0.1,1-0.2v5.5
			C667.6,954.9,667.2,954.9,666.9,954.9L666.9,954.9z M578.1,954.9c0.7-1.9,1.5-3.7,2.5-5.3h-28.2c-1.3,0-2.4-1-2.6-2.2
			c-0.1-0.8-0.2-1.7-0.1-2.6c0.4-5.2,4.4-9.4,9.5-10.1c0.5-0.1,1-0.1,1.5-0.1c2.5,0,4.9,0.8,6.9,2.4c0.5,0.4,1.1,0.6,1.7,0.6
			c0.5,0,1-0.1,1.4-0.4c1-0.6,1.4-1.8,1.1-2.9c-0.7-2.7-1-5.5-0.9-8.4c0.5-15.6,13.6-28.6,29.2-28.9c0.2,0,0.4,0,0.6,0
			c14.3,0,26.6,10.1,29.3,24.1c0.2,1.3,1.4,2.2,2.6,2.2c0.1,0,0.1,0,0.2,0c0.5,0,1-0.1,1.4-0.1c7,0,13.3,4.4,15.7,11
			c0.3,0.7,0.8,1.3,1.5,1.6c0.3,0.1,0.7,0.2,1,0.2c0.4,0,0.8-0.1,1.2-0.3c1.5-0.7,3.1-1.1,4.8-1.1c0.2,0,0.4,0,0.6,0
			c3.6,0.2,6.8,2.2,8.7,5.1v-7.6c-2.4-1.7-5.3-2.7-8.5-2.9c-0.3,0-0.6,0-0.9,0c-1.6,0-3.1,0.2-4.5,0.6c-3.7-7.1-11-11.8-19.2-12
			c-4-15.4-18-26.2-34.1-26.2c-0.2,0-0.5,0-0.7,0c-18.7,0.4-33.9,15.3-34.4,34.1c0,1.4,0,2.9,0.1,4.3c-1.6-0.5-3.3-0.8-5-0.8
			c-0.7,0-1.5,0-2.2,0.1c-7.6,1-13.6,7.3-14.2,15c-0.1,1.3-0.1,2.5,0.1,3.8c0.6,3.9,4,6.8,7.9,6.8H578.1z" clip-rule="evenodd" class="colordeecf9 svgShape"></path><path fill="#ffffff" fill-rule="evenodd" d="M657.1,939.2c-0.5,0.1-0.9,0.3-1.4,0.5l-7.1,3.4l0,0l-0.2,0.1l-2.7-7.4c-1.8-4.8-6.4-8.1-11.6-8.1
			c-0.3,0-0.7,0-1,0l-6.4,0.5l-1.2-6.3c-0.7-3.6-2.2-7.1-4.4-10c1.2,10.3-0.4,18.4-4.5,24.6l-0.1-0.1c-1.2,1.9-2.7,3.6-4.3,5.1
			c-3.8,3.5-8.8,6.2-14.9,7.9h-26.7v0h-18.2c-1.3,0-2.4-1-2.6-2.2c-0.1-0.8-0.2-1.7-0.1-2.6c0.4-5.2,4.4-9.4,9.5-10.1
			c0.5-0.1,1-0.1,1.5-0.1c2.5,0,4.9,0.8,6.9,2.4c0.5,0.4,1.1,0.6,1.7,0.6c0.5,0,0.9-0.1,1.3-0.3v-0.1c0.9-0.6,1.3-1.8,1.1-2.9
			c-0.7-2.7-1-5.5-0.9-8.3l0.2,0l0-0.1c0.2-6.1,2.3-11.9,5.8-16.6l-0.1-0.1c4.3-5.8,10.6-10,17.8-11.5c1.9-0.4,3.8-0.7,5.7-0.7
			c0.2,0,0.4,0,0.6,0c14.3,0,26.6,10.1,29.3,24.1c0.2,1.3,1.4,2.2,2.6,2.2c0.1,0,0.1,0,0.2,0c0.5,0,1-0.1,1.4-0.1
			c7,0,13.3,4.4,15.7,11c0.3,0.7,0.8,1.3,1.5,1.6c0.3,0.1,0.7,0.2,1,0.2c0.2,0,0.3,0,0.5,0c0.2,0,0.3-0.1,0.5-0.2
			c0.9-0.4,1.8-0.7,2.7-0.9c0.8-0.2,1.5-0.2,2.3-0.2c0.2,0,0.4,0,0.6,0c3.6,0.2,6.8,2.2,8.7,5.1v0.4c1,1.6,1.5,3.4,1.6,5.3
			c0,0.6,0,1.3-0.1,1.9c-0.1,0.9-0.7,1.6-1.5,2v0c-0.2,0.1-0.3,0.1-0.5,0.1c-0.2,0.1-0.4,0.1-0.7,0.1h-1.4
			c0.9-6.8-3.9-10.4-6.6-10.5c-0.1,0-0.2,0-0.4,0C657.9,939.1,657.5,939.1,657.1,939.2z" clip-rule="evenodd" class="colorffffff svgShape"></path><path fill="#eef3fb" fill-rule="evenodd" d="M619.3,910.5c0.1-2,5.7,6.5,6.4,11.7l1.2,6.2l6.3-0.5c0.4,0,0.7,0,1,0c5.1,0,9.7,3.2,11.5,8l2.7,7.3l7-3.4
			c0.9-0.4,1.8-0.6,2.9-0.6c0.1,0,0.2,0,0.4,0c1.1,0.1,2.5,0.7,3.8,1.8c2.3,1.6,4.3,4.7,3.7,9.2h-71.8c6.4-1.8,11.7-4.4,15.7-7.9
			C623.1,930.8,619,909.9,619.3,910.5z" clip-rule="evenodd" class="coloreef8fb svgShape"></path><path fill="#dee8f9" fill-rule="evenodd" d="M666.9,954.9h-96.1v-5.3c31.9-0.1,64.2,0,96.1,0c1.3,0,2.4-1,2.6-2.3c0.1-0.6,0.1-1.3,0.1-1.9
			c-0.1-5.7-4.8-10.5-10.5-10.8c-0.2,0-0.4,0-0.6,0c-1.7,0-3.3,0.4-4.8,1.1c-0.4,0.2-0.8,0.3-1.2,0.3c-0.3,0-0.7-0.1-1-0.2
			c-0.7-0.3-1.2-0.8-1.5-1.6c-2.4-6.6-8.7-11-15.7-11c-0.4,0-0.9,0-1.4,0.1c-0.1,0-0.1,0-0.2,0c-1.3,0-2.4-0.9-2.6-2.2
			c-2.7-14.1-15-24.1-29.3-24.1c-0.2,0-0.4,0-0.7,0c-9.4,0.2-17.9,5-23.3,12.2c-1.4-1.2-3.1-2-5.1-2.3c6.2-9,16.5-15,28.3-15.2
			c0.2,0,0.5,0,0.7,0c16.1,0,30.1,10.8,34.1,26.2c8.1,0.2,15.5,4.9,19.2,12c1.5-0.4,3-0.6,4.5-0.6c0.3,0,0.6,0,0.9,0
			c8.5,0.4,15.4,7.5,15.6,16l0,0c0,0.9,0,1.9-0.2,2.8C674.2,952,670.8,954.9,666.9,954.9L666.9,954.9z M570.8,937.1
			c0.9-0.6,1.3-1.8,1.1-2.9c-0.7-2.7-1-5.5-0.9-8.3c-0.1,0-0.1,0-0.2,0V937.1z" clip-rule="evenodd" class="colordeecf9 svgShape"></path></g><path fill="#ffffff" fill-rule="evenodd" d="M661.7 574.9c-1.5 21-4.6 24-24.7 25.6 20.1 1.6 23.2 4.5 24.7 25.6 1.5-21 4.6-24 24.7-25.6C666.3 598.8 663.2 595.9 661.7 574.9L661.7 574.9zM743.3 630.4c-.8 11.2-2.5 12.8-13.2 13.7 10.7.9 12.4 2.4 13.2 13.7.8-11.2 2.5-12.8 13.2-13.7C745.8 643.2 744.1 641.6 743.3 630.4L743.3 630.4zM707.6 543.9c-.8 11.4-2.5 13-13.4 13.8 10.8.9 12.5 2.4 13.4 13.8.8-11.4 2.5-13 13.4-13.8C710.1 556.9 708.4 555.3 707.6 543.9zM1525.8 1152c-1.5 21-4.6 24-24.7 25.6 20.1 1.6 23.2 4.5 24.7 25.6 1.5-21 4.6-24 24.7-25.6C1530.4 1175.9 1527.3 1173 1525.8 1152L1525.8 1152zM1607.4 1207.5c-.8 11.2-2.5 12.8-13.2 13.7 10.7.9 12.4 2.4 13.2 13.7.8-11.2 2.5-12.8 13.2-13.7C1609.9 1220.3 1608.2 1218.7 1607.4 1207.5L1607.4 1207.5zM1571.7 1121c-.8 11.4-2.5 13-13.4 13.8 10.8.9 12.5 2.4 13.4 13.8.8-11.4 2.5-13 13.4-13.8C1574.2 1134 1572.5 1132.4 1571.7 1121zM417.9 957.6c-1.5 21-4.6 24-24.7 25.6 20.1 1.6 23.2 4.5 24.7 25.6 1.5-21 4.6-24 24.7-25.6C422.5 981.5 419.4 978.6 417.9 957.6L417.9 957.6zM499.5 1013.1c-.8 11.2-2.5 12.8-13.2 13.7 10.7.9 12.4 2.4 13.2 13.7.8-11.2 2.5-12.8 13.2-13.7C502 1025.9 500.3 1024.3 499.5 1013.1L499.5 1013.1zM463.8 926.6c-.8 11.4-2.5 13-13.4 13.8 10.8.9 12.5 2.4 13.4 13.8.8-11.4 2.5-13 13.4-13.8C466.3 939.5 464.6 938 463.8 926.6z" clip-rule="evenodd" class="colorffffff svgShape"></path></svg>